<svg width="51" height="63" viewBox="0 0 51 63" fill="none" xmlns="http://www.w3.org/2000/svg">
<path d="M24.0129 0.0229992C10.18 0.610917 -0.564334 12.307 0.0229754 26.1611C0.610285 40.0083 26.6454 62.3907 26.6454 62.3907C26.6454 62.3907 50.7043 37.8849 50.117 24.0377C49.5297 10.1905 37.8457 -0.564919 24.006 0.0229992H24.0129Z" fill="#F3B0CD"/>
<path d="M42.7997 15.0107H33.0428V10.1328C33.0428 9.79311 32.8029 9.50979 32.4824 9.43981L26.088 6.08257C25.8789 5.97333 25.6304 5.97163 25.423 6.08257L19.0286 9.43981C18.7099 9.50979 18.4682 9.79311 18.4682 10.1328V15.0107H8.71123C8.31876 15.0107 8 15.3282 8 15.719V35.9615C8 36.3523 8.31876 36.6698 8.71123 36.6698H42.798C43.1905 36.6698 43.5093 36.3523 43.5093 35.9615V15.719C43.5093 15.3282 43.1905 15.0107 42.798 15.0107H42.7997ZM16.8777 27.7075C16.8777 27.8099 16.7938 27.8918 16.6926 27.8918H13.2735C13.1707 27.8918 13.0884 27.8082 13.0884 27.7075V24.3024C13.0884 24.2 13.1724 24.1181 13.2735 24.1181H16.6926C16.7955 24.1181 16.8777 24.2017 16.8777 24.3024V27.7075ZM16.8777 22.3943C16.8777 22.4967 16.7938 22.5786 16.6926 22.5786H13.2735C13.1707 22.5786 13.0884 22.495 13.0884 22.3943V18.9892C13.0884 18.8868 13.1724 18.8049 13.2735 18.8049H16.6926C16.7955 18.8049 16.8777 18.8885 16.8777 18.9892V22.3943ZM23.0202 12.1758H24.9311V10.2727H26.5781V12.1758H28.4891V13.816H26.5781V15.719H24.9311V13.816H23.0202V12.1758ZM20.2677 18.9892C20.2677 18.8868 20.3517 18.8049 20.4528 18.8049H23.872C23.9748 18.8049 24.0571 18.8885 24.0571 18.9892V22.3943C24.0571 22.4967 23.9731 22.5786 23.872 22.5786H20.4528C20.35 22.5786 20.2677 22.495 20.2677 22.3943V18.9892ZM20.2677 27.7075V24.3024C20.2677 24.2 20.3517 24.1181 20.4528 24.1181H23.872C23.9748 24.1181 24.0571 24.2017 24.0571 24.3024V27.7075C24.0571 27.8099 23.9731 27.8918 23.872 27.8918H20.4528C20.35 27.8918 20.2677 27.8082 20.2677 27.7075ZM29.2637 34.9971C29.2637 35.0739 29.2003 35.1371 29.1232 35.1371H22.3878C22.3107 35.1371 22.2472 35.0739 22.2472 34.9971V29.9229C22.2472 29.7556 22.3843 29.6191 22.5523 29.6191H28.957C29.1249 29.6191 29.262 29.7556 29.262 29.9229V34.9971H29.2637ZM31.2415 27.7075C31.2415 27.8099 31.1575 27.8918 31.0564 27.8918H27.6373C27.5345 27.8918 27.4522 27.8082 27.4522 27.7075V24.3024C27.4522 24.2 27.5362 24.1181 27.6373 24.1181H31.0564C31.1593 24.1181 31.2415 24.2017 31.2415 24.3024V27.7075ZM31.2415 22.3943C31.2415 22.4967 31.1575 22.5786 31.0564 22.5786H27.6373C27.5345 22.5786 27.4522 22.495 27.4522 22.3943V18.9892C27.4522 18.8868 27.5362 18.8049 27.6373 18.8049H31.0564C31.1593 18.8049 31.2415 18.8885 31.2415 18.9892V22.3943ZM38.4243 27.7075C38.4243 27.8099 38.3403 27.8918 38.2392 27.8918H34.8201C34.7172 27.8918 34.6349 27.8082 34.6349 27.7075V24.3024C34.6349 24.2 34.7189 24.1181 34.8201 24.1181H38.2392C38.342 24.1181 38.4243 24.2017 38.4243 24.3024V27.7075ZM38.4243 22.3943C38.4243 22.4967 38.3403 22.5786 38.2392 22.5786H34.8201C34.7172 22.5786 34.6349 22.495 34.6349 22.3943V18.9892C34.6349 18.8868 34.7189 18.8049 34.8201 18.8049H38.2392C38.342 18.8049 38.4243 18.8885 38.4243 18.9892V22.3943Z" fill="white"/>
</svg>
