<svg width="390" height="47" viewBox="0 0 390 47" fill="none" xmlns="http://www.w3.org/2000/svg">
<path d="M380.035 32.1228C378.979 28.2348 377.683 24.3468 375.667 20.7948C374.755 19.2588 374.323 18.3948 374.323 17.2908C374.323 15.3228 376.147 13.6428 378.115 13.6428C379.267 13.6428 380.419 14.2188 381.091 15.1788C382.051 16.5708 382.867 18.1068 383.587 19.6428C385.747 24.2508 387.187 29.0988 388.147 34.0908C388.579 36.3948 389.155 38.6988 389.155 41.0508C389.155 43.1628 387.571 44.8908 385.411 44.8908C383.923 44.8908 382.291 43.8828 381.859 42.3948C381.571 41.4348 381.523 40.4268 381.427 39.4188L353.347 44.2188C352.675 44.3148 351.763 44.4108 351.619 44.4108C349.603 44.4108 347.827 42.6348 347.827 40.5708C347.827 39.4188 348.451 38.2668 348.979 37.2588C352.387 30.0588 355.795 17.5788 356.947 9.65876C357.283 7.16276 357.859 4.42676 360.979 4.42676C362.899 4.42676 364.771 5.96276 364.771 7.97876C364.771 10.5228 362.899 18.9708 362.179 21.7548C360.931 26.5548 359.539 31.3548 357.811 36.0108L380.035 32.1228Z" fill="#5E5E5E"/>
<path d="M306.462 19.4512H337.758C339.87 19.4512 341.694 21.2272 341.694 23.3392C341.694 25.4512 339.918 27.2272 337.806 27.2272H306.51C304.398 27.2272 302.574 25.4512 302.574 23.3392C302.574 22.2832 303.054 21.2752 303.822 20.5072C304.494 19.8352 305.55 19.4512 306.462 19.4512Z" fill="#5E5E5E"/>
<path d="M267.246 21.7551H258.174C256.35 21.7551 254.766 20.2671 254.766 18.3951C254.766 16.5231 256.35 14.9871 258.174 14.9871H275.982L275.886 12.0111C275.838 10.0431 277.422 8.41113 279.39 8.41113C281.31 8.41113 282.798 9.94713 282.846 11.8671L282.942 14.9871H287.214C289.086 14.9871 290.622 16.5231 290.622 18.3951C290.622 20.2191 289.086 21.7551 287.262 21.7551H283.182L283.854 41.8191C283.902 43.7391 282.222 45.2751 280.398 45.2751C278.526 45.2751 276.894 43.7391 276.846 41.9151L276.366 21.7551H273.966C272.958 28.4271 270.318 34.3311 265.374 39.0831C263.166 41.1951 259.134 43.4991 257.31 43.4991C255.534 43.4991 254.19 41.8191 254.19 40.1391C254.19 38.0751 255.87 37.2111 257.838 36.2991C263.358 33.5151 266.19 28.0911 267.246 21.7551Z" fill="#5E5E5E"/>
<path d="M235.069 13.8349H206.989C205.021 13.8349 203.389 12.1549 203.389 10.1869C203.389 8.21891 205.021 6.58691 206.989 6.58691H238.525C241.693 6.58691 242.797 8.89091 242.797 11.7229C242.797 14.8429 242.509 18.0109 242.269 21.1309C241.933 24.9229 241.261 28.7629 239.869 32.3629C236.365 41.2909 229.453 44.5069 220.237 44.5069C216.541 44.5069 212.845 43.9309 209.437 42.4909C208.285 41.9629 206.941 41.2429 205.885 40.5229C204.781 39.7069 204.061 38.7949 204.061 37.3549C204.061 35.4349 205.741 33.7549 207.661 33.7549C208.621 33.7549 209.485 34.1869 210.301 34.6189C213.373 36.2029 216.781 37.1629 220.285 37.1629C226.333 37.1629 230.797 35.2429 233.149 29.2909C235.021 24.4429 235.021 18.9709 235.069 13.8349Z" fill="#5E5E5E"/>
<path d="M176.461 15.9946C177.565 19.1626 178.573 20.9386 180.493 23.6746C183.565 20.7946 184.381 19.8826 187.117 16.7146C187.837 15.8506 188.461 15.3226 189.709 15.3226C191.437 15.3226 193.549 17.0986 193.549 18.9226C193.549 19.7866 193.165 20.5066 192.061 21.7546C190.573 23.4826 186.685 27.3226 184.909 28.7626C188.701 32.4586 190.141 33.3226 194.461 36.1546C195.325 36.7306 196.045 37.7386 196.045 38.7946C196.045 40.6666 194.269 43.1626 192.013 43.1626C190.765 43.1626 189.757 42.5866 188.797 41.8666C186.925 40.4746 185.149 38.9386 183.469 37.3066C180.445 34.3786 178.333 31.5946 176.461 27.8506V40.6666C176.461 44.5066 175.021 45.8026 172.717 46.2826C171.613 46.5226 170.317 46.5226 168.925 46.5226H166.333C162.973 46.5226 161.053 46.2826 161.053 42.6346C161.053 40.1866 162.061 39.0346 164.557 39.0346C165.805 39.0346 167.101 39.1306 168.349 39.1306C169.357 39.1306 169.549 38.5546 169.549 37.6426V14.6986H153.757C151.213 14.6986 150.205 13.5946 150.205 11.0986C150.205 8.74662 151.549 7.78662 153.757 7.78662H169.549V4.23462C169.549 1.49862 170.749 0.778619 173.149 0.778619C175.501 0.778619 176.461 2.02662 176.461 4.23462V7.78662H183.805C180.973 5.96262 180.013 5.33862 180.013 4.23462C180.013 2.50662 181.597 0.682617 183.277 0.682617C184.333 0.682617 185.821 1.59462 187.645 2.74662C190.285 4.42662 191.197 5.00262 191.197 6.39462C191.197 6.87462 191.053 7.35462 190.813 7.78662H192.493C195.133 7.78662 195.997 8.93862 195.997 11.3866C195.997 13.8346 194.701 14.6986 192.493 14.6986H176.461V15.9946ZM157.117 15.3706C158.125 15.3706 159.133 15.9946 159.997 16.9066C160.813 17.7226 162.685 19.9786 163.261 20.6506C164.317 21.9466 165.277 23.0986 165.277 24.4906C165.277 26.5546 163.021 28.3306 161.053 28.3306C159.661 28.3306 158.845 27.3706 157.837 25.7866C157.069 24.5866 156.157 23.4346 155.245 22.3786C154.093 21.0826 153.181 20.0266 153.181 18.7786C153.181 16.9546 155.437 15.3706 157.117 15.3706ZM153.709 42.2026C151.645 42.2026 150.157 39.9946 150.157 38.1226C150.157 36.1546 151.549 35.5306 154.861 34.0426C157.885 32.6986 160.717 31.0186 163.597 29.3866C164.221 29.0026 164.989 28.6186 165.709 28.6186C167.581 28.6186 168.925 30.5386 168.925 32.3146C168.925 33.9466 167.677 34.6666 163.261 37.3546C162.157 38.0266 159.181 39.8986 156.733 41.0986C155.437 41.7226 154.285 42.2026 153.709 42.2026Z" fill="#5E5E5E"/>
<path d="M135.037 3.89915H142.381C144.109 3.89915 145.357 4.57115 145.357 6.44315C145.357 8.31515 144.109 8.98715 142.381 8.98715H135.037V10.3312H142.189C143.629 10.3312 144.541 10.8591 144.541 12.4431C144.541 13.9791 143.629 14.5551 142.189 14.5551H135.037V15.8991H143.197C145.117 15.8991 146.125 16.6672 146.125 18.6831C146.125 20.6032 144.925 21.2752 143.197 21.2752H119.869C117.949 21.2752 116.941 20.5071 116.941 18.4911C116.941 16.6191 118.141 15.8991 119.869 15.8991H128.125V14.5551H121.117C119.677 14.5551 118.765 13.9791 118.765 12.4431C118.765 10.8591 119.677 10.3312 121.117 10.3312H128.125V8.98715H120.541C118.813 8.98715 117.613 8.31515 117.613 6.44315C117.613 4.57115 118.813 3.89915 120.541 3.89915H128.125V3.27515C128.125 1.21115 129.949 0.827148 131.629 0.827148C133.309 0.827148 135.037 1.25915 135.037 3.27515V3.89915ZM113.773 7.83515H104.413C102.445 7.83515 101.437 7.01915 101.437 4.95515C101.437 2.98715 102.541 2.17115 104.413 2.17115H113.773C115.789 2.17115 116.749 3.03515 116.749 5.09915C116.749 7.06715 115.645 7.78715 113.773 7.83515ZM115.261 15.1311H103.213C101.245 15.1311 100.189 14.2671 100.189 12.2031C100.189 10.1391 101.245 9.27515 103.213 9.27515H115.261C117.277 9.27515 118.189 10.1391 118.189 12.2031C118.189 14.3151 117.277 15.0831 115.261 15.1311ZM113.869 22.2831H104.413C102.349 22.2831 101.437 21.3712 101.437 19.3071C101.437 17.3392 102.589 16.5711 104.413 16.5711H113.869C115.933 16.5711 116.845 17.4351 116.845 19.5471C116.845 21.5152 115.741 22.2351 113.869 22.2831ZM125.725 38.5071V43.1152C125.725 45.5152 124.621 46.7151 122.221 46.7151C119.869 46.7151 118.861 45.3232 118.861 43.1152V28.3792C118.861 24.3471 120.493 22.7151 124.573 22.7151H138.349C142.429 22.7151 144.061 24.3471 144.061 28.3792V40.4752C144.061 46.1872 142.621 46.4272 137.389 46.4272C136.909 46.4272 136.381 46.4272 135.901 46.4272C133.693 46.4272 131.533 46.1872 131.533 43.2112C131.533 41.3872 132.541 40.4272 134.317 40.4272C134.989 40.4272 135.661 40.4272 136.381 40.4272C137.101 40.4272 137.341 40.2831 137.341 39.5631V38.5071H125.725ZM113.725 29.3391H104.413C102.445 29.3391 101.437 28.5231 101.437 26.4591C101.437 24.4911 102.589 23.7231 104.413 23.7231H113.869C115.789 23.7231 116.845 24.5391 116.845 26.5551C116.845 28.6671 115.693 29.3391 113.725 29.3391ZM125.725 29.1951H137.341V28.6191C137.341 27.9951 137.053 27.7071 136.429 27.7071H126.637C126.013 27.7071 125.725 27.9951 125.725 28.6191V29.1951ZM116.701 36.2511V40.4752C116.701 45.0352 115.885 45.9472 111.325 45.9472H107.053C102.493 45.9472 101.677 45.0352 101.677 40.4752V36.2511C101.677 31.6431 102.541 30.8271 107.101 30.8271H111.277C115.837 30.8271 116.701 31.6911 116.701 36.2511ZM137.341 33.1311H125.725V34.6191H137.341V33.1311ZM110.509 36.1072H108.781C108.205 36.1072 107.869 36.3951 107.869 36.9711V39.2752C107.869 39.8512 108.205 40.1871 108.781 40.1871H110.509C111.085 40.1871 111.373 39.8512 111.373 39.2752V36.9711C111.373 36.3951 111.085 36.1072 110.509 36.1072Z" fill="#5E5E5E"/>
<path d="M71.1973 32.7466C70.6213 33.8026 69.5173 34.6666 68.2693 34.6666C67.1173 34.6666 66.1573 33.8506 65.0053 31.5946V43.2586C65.0053 45.8506 63.8533 46.7626 61.3573 46.7626C59.0053 46.7626 58.0933 45.4666 58.0933 43.2586V34.5226C56.2693 38.2186 54.9253 39.0346 53.7733 39.0346C51.7093 39.0346 50.0293 36.8266 50.0293 34.8586C50.0293 33.7546 50.2213 33.3226 52.4293 30.6826C53.9173 28.9066 56.7013 24.8266 58.0453 22.1386H54.0613C51.6133 22.1386 50.4613 21.1786 50.4613 18.6826C50.4613 16.3786 51.9493 15.5626 54.0613 15.5626H58.0933V4.33062C58.0933 1.73862 59.2453 0.826618 61.7413 0.826618C64.0453 0.826618 65.0053 2.17062 65.0053 4.33062V15.5626H68.4133C70.8133 15.5626 71.9653 16.5226 71.9653 19.0186C71.9653 21.3226 70.4773 22.1386 68.4133 22.1386H65.1493C67.2133 25.3546 68.1733 26.5066 70.7173 29.2906C71.0533 29.6746 71.3893 30.1546 71.4853 30.6826C71.9653 29.6746 72.6853 29.3866 73.7893 29.1946L84.6853 27.1306V4.18662C84.6853 1.21062 86.1253 0.682617 88.8133 0.682617C91.2133 0.682617 92.2213 1.83462 92.2213 4.18662V25.6906L92.6053 25.6426C95.4853 25.1626 96.4453 27.2746 96.4453 29.7226C96.4453 31.6426 95.4853 32.3626 93.6613 32.6986L92.2213 32.9386V43.0666C92.2213 46.0426 90.7333 46.6186 88.0453 46.6186C85.6453 46.6186 84.6853 45.4186 84.6853 43.0666V34.3786L75.7093 36.0586C75.0373 36.2026 74.6053 36.2506 74.2213 36.2506C72.1573 36.2506 71.3413 34.5706 71.1973 32.7466ZM65.8693 11.8186C65.8693 11.3866 65.9653 11.0026 66.3013 9.89862C66.6373 8.84262 67.0693 7.06662 67.2133 6.34662C67.6453 4.09062 68.1733 3.37062 69.8053 3.37062C71.2933 3.37062 72.9733 4.09062 72.9733 5.81862C72.9733 6.39462 72.7333 8.17062 71.4853 11.8666C71.0533 13.1146 70.5253 14.3146 69.0373 14.3146C67.5973 14.3146 65.8693 13.4506 65.8693 11.8186ZM53.4853 3.41862C54.7813 3.41862 55.3093 3.89862 55.8853 5.62662C56.9893 9.03462 57.3733 11.2906 57.3733 11.8666C57.3733 13.5466 55.5493 14.2666 54.1573 14.2666C52.5733 14.2666 52.1893 13.2106 51.8533 11.4346C51.6133 10.2826 51.1813 8.65062 50.7973 7.59462C50.4133 6.53862 50.3173 6.05862 50.3173 5.67462C50.3173 4.13862 52.1893 3.41862 53.4853 3.41862ZM74.0773 7.06662C74.0773 5.14662 75.6133 3.61062 77.5333 3.61062C78.4933 3.61062 79.2613 3.89862 81.2773 5.57862C83.8213 7.69062 84.3493 8.31462 84.3493 9.65862C84.3493 11.5786 82.8133 13.4506 80.7973 13.4506C79.8853 13.4506 79.5493 13.3066 77.8693 11.7226C77.2933 11.1466 76.6213 10.5226 75.7093 9.75462C74.2693 8.50662 74.0773 8.02662 74.0773 7.06662ZM72.5413 19.4026C72.5413 17.5306 74.0773 15.7066 76.0453 15.7066C77.0053 15.7066 77.9173 15.9946 80.9413 18.5866C82.5733 19.9786 83.0533 20.5066 83.0533 21.7546C83.0533 23.6266 81.2773 25.6906 79.3573 25.6906C78.4933 25.6906 78.0613 25.5466 76.5253 24.1066C75.7573 23.3866 75.1333 22.8106 74.2693 22.0906C72.7333 20.7946 72.5413 20.3626 72.5413 19.4026Z" fill="#5E5E5E"/>
<path d="M41.8695 20.8905C42.2055 21.8505 42.2535 22.6665 42.2535 23.6745V32.5065C42.2535 36.5865 40.6215 38.2185 36.5415 38.2185H33.9975C35.9175 38.8905 38.9415 39.8505 40.9575 40.0425C44.1735 40.3785 45.5175 41.0025 45.5175 43.1625C45.5175 45.1785 44.2215 46.4265 42.2055 46.4265C39.4695 46.4265 34.8615 45.0825 32.1255 44.0745C28.8135 42.8745 27.6615 42.4905 27.6615 40.6185C27.6615 39.7065 27.9975 38.8425 28.6695 38.2185H18.1095C18.7335 38.8905 19.1655 39.7545 19.1655 40.6665C19.1655 42.6345 16.8615 43.4025 13.1655 44.5545C11.8695 44.9385 10.0455 45.5145 8.22146 45.9465C6.87746 46.2825 5.58146 46.4745 4.57346 46.4745C2.50946 46.4745 1.26146 45.1785 1.26146 43.1145C1.26146 41.2425 2.50946 40.5225 4.66946 40.2345C7.88546 39.8025 9.90146 39.2265 12.8295 38.2185H10.1895C6.15746 38.2185 4.47746 36.5865 4.47746 32.5065V23.6745C4.47746 22.3785 4.62146 21.0345 5.34146 19.9305C4.33346 20.3145 3.70946 20.4585 3.22946 20.4585C1.30946 20.4585 0.397461 18.1065 0.397461 16.5225C0.397461 14.6025 1.16546 14.1225 3.08546 13.5465C4.33346 13.1625 5.86946 12.7785 7.98146 11.9625C9.46946 11.3865 11.0535 10.8105 11.8695 10.8105C13.6935 10.8105 14.6055 12.5865 14.6055 14.1705C14.6055 15.4665 13.8375 16.1865 12.4935 16.9065C11.8695 17.2425 11.1015 17.5785 10.2375 17.9625H15.2295C14.9415 17.3865 14.7975 16.9065 14.7975 16.2345C14.7975 14.4585 15.7095 14.0265 19.0695 13.1625C21.2775 12.5865 23.4855 11.2425 24.7815 9.32253C25.0695 8.89053 25.3575 8.69853 25.7895 8.41053H21.9495C21.1335 9.08253 19.5015 10.4265 18.0135 11.2425C17.2455 11.6745 16.5255 11.9625 16.0455 11.9625C14.3655 11.9625 13.0215 10.2825 13.0215 8.69853C13.0215 7.30653 13.7895 6.77853 16.0455 5.33853C17.5815 4.33053 18.9735 2.98653 20.5095 1.49853C21.2295 0.778532 21.9015 0.394531 22.9575 0.394531C24.4455 0.394531 26.3175 1.35453 26.3175 2.84253C26.3175 2.98653 26.3175 3.13053 26.2695 3.22653H40.8135C42.8775 3.22653 45.0375 3.80253 45.0375 6.34653C45.0375 7.78653 44.2215 9.65853 43.5975 10.9545C42.9735 12.2025 42.3495 13.1625 40.8135 13.1625C39.5175 13.1625 36.9255 12.6345 36.9255 10.6665C36.9255 10.3785 37.0695 10.0905 37.3095 9.61053C37.4055 9.41853 37.6455 8.93853 37.6455 8.79453C37.6455 8.45853 37.3095 8.41053 37.0215 8.41053H31.7415C32.3655 8.65053 32.5095 8.79453 32.9415 9.32253C35.8695 12.9705 39.4695 13.6905 43.7415 14.5065C45.3255 14.7945 45.9975 15.7545 45.9975 17.3385C45.9975 19.0665 44.9895 21.0345 43.0215 21.0345C42.6375 21.0345 42.2535 20.9385 41.8695 20.8905ZM1.88546 5.00253C1.88546 3.32253 3.08546 1.49853 4.90946 1.49853C5.53346 1.49853 6.34946 1.73853 7.26146 2.02653C8.12546 2.31453 9.18146 2.74653 10.0455 3.13053C11.5335 3.75453 12.9255 4.37853 12.9255 6.01053C12.9255 7.83453 11.6295 9.75453 9.70946 9.75453C9.22946 9.75453 8.55746 9.51453 7.93346 9.22653C6.25346 8.41053 4.76546 7.88253 3.56546 7.40253C2.46146 6.97053 1.88546 6.25053 1.88546 5.00253ZM34.7175 17.9625C32.5095 16.6185 30.5415 14.9385 29.0055 12.8745C27.2295 15.3225 25.3095 16.6665 22.6215 17.9625H34.7175ZM34.9095 23.6745V22.9545C34.9095 22.3305 34.5735 22.0425 33.9975 22.0425H12.6855C12.1095 22.0425 11.7735 22.3305 11.7735 22.9545V23.6745H34.9095ZM11.7735 27.0825V28.7625H34.9095V27.0825H11.7735ZM11.7735 32.2185V33.0345C11.7735 33.6105 12.1095 33.9465 12.6855 33.9465H33.9975C34.5735 33.9465 34.9095 33.6105 34.9095 33.0345V32.2185H11.7735Z" fill="#5E5E5E"/>
</svg>
