<svg width="51" height="63" viewBox="0 0 51 63" fill="none" xmlns="http://www.w3.org/2000/svg">
<path d="M24.0129 0.0229992C10.18 0.610917 -0.564334 12.307 0.0229754 26.1611C0.610285 40.0083 26.6454 62.3907 26.6454 62.3907C26.6454 62.3907 50.7043 37.8849 50.117 24.0377C49.5297 10.1905 37.8457 -0.564919 24.006 0.0229992H24.0129Z" fill="#F3EA97"/>
<path d="M21.8005 39.56C15.2885 39.56 10 34.2643 10 27.7584C10 22.8773 12.9351 18.5645 17.4748 16.7726C18.1634 16.4984 18.939 16.8394 19.2064 17.5281C19.4805 18.2168 19.1396 18.9925 18.451 19.2599C14.9409 20.644 12.6677 23.9806 12.6677 27.7584C12.6677 32.7933 16.7661 36.8921 21.8005 36.8921C24.8359 36.8921 27.6708 35.3877 29.369 32.8669C29.7835 32.2584 30.6126 32.0979 31.2277 32.5058C31.8428 32.9204 32.0032 33.7495 31.5887 34.3646C29.389 37.6209 25.7318 39.5667 21.8005 39.5667V39.56Z" fill="white"/>
<path d="M40.7017 31.0081C40.247 30.4197 39.4113 30.3127 38.823 30.7674L36.3692 32.6663L32.1973 28.0928H23.3852V24.7897H30.5726C31.3147 24.7897 31.9097 24.1879 31.9097 23.4524C31.9097 22.7169 31.3147 22.1151 30.5726 22.1151H23.3852V17.127C25.7253 16.9197 27.5506 14.9606 27.5506 12.5735C27.5506 10.0461 25.5047 8 22.9774 8C20.4502 8 18.4043 10.0461 18.4043 12.5735C18.4043 14.2719 19.3336 15.7563 20.7109 16.5453V30.7741H31.0139L36.055 36.2971L40.461 32.9004C41.0427 32.4524 41.1563 31.6099 40.7017 31.0282V31.0081Z" fill="white"/>
</svg>
