<svg width="53" height="66" viewBox="0 0 53 66" fill="none" xmlns="http://www.w3.org/2000/svg">
<path d="M26.283 0.00724402C11.7731 0.00724402 0.0072405 11.7708 0 26.2957C0 40.8207 26.2613 65.4132 26.2613 65.4132C26.2613 65.4132 52.5443 40.8352 52.5443 26.3102C52.5443 11.7852 40.793 0.007248 26.283 0V0.00724402Z" fill="#C1E1C4"/>
<path d="M33.1061 13.2432C31.3223 11.4593 29.0035 10.5674 26.8631 10.5674C24.7227 10.5674 22.2255 11.4593 20.6201 13.2432L10.2747 23.2328C6.70727 26.8005 6.70727 32.3304 10.2747 35.8981C13.8421 39.4658 19.3715 39.4658 22.939 35.8981L33.1061 25.7302C36.4951 22.3408 36.4951 16.6325 33.1061 13.2432ZM30.6089 23.2328L25.6145 28.2276L19.1932 21.9841L11.3449 29.833C11.3449 28.4059 11.7016 26.8005 12.9502 25.7302L23.1173 15.5622C24.0092 14.6703 25.4361 14.1351 26.6847 14.1351C27.9333 14.1351 29.3603 14.6703 30.4305 15.5622C32.5709 17.8812 32.5709 21.0921 30.6089 23.2328ZM39.1706 19.665C39.1706 21.0921 38.8139 22.3408 38.4572 23.7679C40.2409 25.9085 40.2409 29.1195 38.2788 31.0817L33.2844 36.0765L30.6089 33.4007L25.6145 38.3955C23.2957 40.7145 20.085 41.9632 17.0527 41.9632C17.4095 42.4984 17.7662 43.0336 18.3013 43.5687C21.8687 47.1364 27.3982 47.1364 30.9656 43.5687L41.1327 33.4007C44.7001 29.833 44.7001 24.3031 41.1327 20.7354C40.2409 20.3786 39.7057 20.0218 39.1706 19.665Z" fill="white"/>
</svg>
