<svg width="296" height="125" viewBox="0 0 296 125" fill="none" xmlns="http://www.w3.org/2000/svg">
<path d="M0 14.4861C0 6.48566 6.48566 0 14.4861 0H281.514C289.514 0 296 6.48566 296 14.4861V109.616C296 117.616 289.514 124.102 281.514 124.102H14.4862C6.48568 124.102 0 117.616 0 109.616V14.4861Z" fill="white"/>
<path d="M256.049 30.6285V33.2721H264.935C266.4 33.2721 267.483 33.3039 267.483 35.1194C267.483 36.8075 266.209 36.8075 264.935 36.8075H256.049V43.7191H260.094C259.744 43.4643 259.457 43.1458 259.457 42.6999C259.457 42.4133 259.553 42.1266 259.807 41.5851C260.221 40.6296 260.604 39.6422 260.986 38.6549C261.209 38.0179 261.655 37.6038 262.355 37.6038C263.311 37.6038 264.649 38.209 264.649 39.2919C264.649 40.5022 263.598 42.8273 262.769 43.7191H265.732C267.229 43.7191 268.28 43.7191 268.28 45.5665C268.28 47.2227 267.037 47.2227 265.732 47.2227H242.417C240.952 47.2227 239.869 47.1909 239.869 45.3754C239.869 43.751 241.143 43.7191 242.417 43.7191H246.08C244.36 40.5341 244.073 40.0245 244.073 39.4193C244.073 38.4319 245.156 37.6356 246.08 37.6356C246.366 37.6356 246.685 37.6675 246.94 37.8586C247.481 38.3045 248.054 39.3237 248.373 39.9926C248.755 40.757 249.328 42.0948 249.328 42.7636C249.328 43.1458 249.169 43.4643 248.914 43.7191H252.163V36.8075H243.372C241.907 36.8075 240.824 36.7757 240.824 34.9602C240.824 33.2721 242.098 33.2721 243.372 33.2721H252.163V30.6285H247.386C246.048 30.6285 244.869 30.5966 244.869 28.9404C242.576 30.1826 241.907 30.4692 241.175 30.4692C240.06 30.4692 239.295 29.4181 239.295 28.3671C239.295 27.2204 240.378 26.7108 241.27 26.2649C245.124 24.4494 248.628 22.0925 252.004 19.5125C252.641 19.0348 253.373 18.5889 254.233 18.5889C255.189 18.5889 255.953 19.194 256.686 19.7673C259.967 22.3473 263.47 24.7042 267.229 26.5516C267.993 26.9338 268.662 27.316 268.662 28.2715C268.662 29.3544 267.866 30.4692 266.719 30.4692C265.509 30.4692 264.394 29.7685 263.215 29.0359C263.12 30.5648 262.164 30.6285 260.954 30.6285H256.049ZM260.158 27.0293C258.342 25.819 256.59 24.4813 254.87 23.1435C254.584 22.9206 254.329 22.7613 254.106 22.7613C253.819 22.7613 253.596 22.9206 253.119 23.3028C251.494 24.6405 249.774 25.9145 247.991 27.0293H260.158Z" fill="#035AAB"/>
<path d="M231.11 31.0746V33.0812H231.715C233.276 33.0812 234.263 33.1449 234.263 35.0241C234.263 36.7122 233.021 36.7122 231.715 36.7122H231.11V43.5601C231.11 44.4838 231.11 45.4393 230.664 46.2356C229.899 47.7326 228.02 47.9555 226.491 47.9555C225.026 47.9555 221.363 47.9555 221.363 45.8215C221.363 44.643 222.064 43.8149 223.274 43.8149C223.625 43.8149 224.23 43.8786 224.58 43.9423C225.408 44.0697 226.045 44.1334 226.332 44.1334C226.842 44.1334 227.319 44.006 227.319 43.4009V36.7122H221.491C222.192 37.3174 223.688 39.0373 224.198 39.8017C224.453 40.1839 224.485 40.6298 224.485 40.8846C224.485 41.9039 223.593 42.5409 222.637 42.5409C222.096 42.5409 221.809 42.4135 221.491 42.095C221.14 41.7446 219.643 39.9291 219.07 39.2603C218.783 38.9417 218.561 38.464 218.561 38.0499C218.561 37.4766 218.879 37.0626 219.325 36.7122H219.07C217.509 36.7122 216.522 36.6803 216.522 34.8011C216.522 33.0812 217.764 33.0812 219.07 33.0812H227.319V31.0746H219.07C217.605 31.0746 216.522 31.0746 216.522 29.2273C216.522 27.5392 217.796 27.5392 219.07 27.5392H223.497V25.5644H219.771C218.338 25.5644 217.223 25.5644 217.223 23.7489C217.223 22.029 218.401 21.9334 219.771 21.9334H223.497V21.5194C223.497 19.7994 223.593 18.9395 225.568 18.9395C227.319 18.9395 227.319 20.1498 227.319 21.5194V21.9334H230.887C232.447 21.9334 233.435 21.9971 233.435 23.8763C233.435 25.5644 232.193 25.5644 230.887 25.5644H227.319V27.5392H231.587C233.053 27.5392 234.136 27.571 234.136 29.4184C234.136 31.0428 232.862 31.0746 231.587 31.0746H231.11ZM208.782 20.5638H213.528C215.503 20.5638 216.458 21.7105 216.458 23.5578V42.9868C216.458 45.089 215.344 46.0126 213.528 46.0126H208.782C206.553 46.0126 205.852 44.643 205.852 42.9868V23.5578C205.852 21.392 207.094 20.5638 208.782 20.5638ZM212.859 30.8198V24.4496C212.859 24.1311 212.7 24.0037 212.413 24.0037H209.833C209.547 24.0037 209.356 24.1311 209.356 24.4496V30.8198H212.859ZM212.859 34.3871H209.356V41.8083C209.356 42.1268 209.547 42.2861 209.833 42.2861H212.413C212.7 42.2861 212.859 42.1587 212.859 41.8083V34.3871Z" fill="#035AAB"/>
<path d="M173.556 29.5459H197.125C198.399 29.5459 199.578 30.1192 199.578 31.648C199.578 33.2087 198.367 33.7502 197.125 33.7502H173.556C172.313 33.7502 171.103 33.2087 171.103 31.648C171.103 30.1192 172.282 29.5459 173.556 29.5459Z" fill="#035AAB"/>
<path d="M154.127 21.6474V21.0423C154.127 19.5453 154.349 18.749 156.069 18.749C157.662 18.749 157.789 19.7682 157.789 21.0423V21.6474H162.089C163.65 21.6474 164.892 22.7622 164.892 24.3548V26.7436C164.892 28.145 164.892 29.3235 163.108 29.3235C162.885 29.3235 162.694 29.2598 162.471 29.2279C162.408 30.916 161.261 30.916 159.923 30.916H151.738C150.527 30.916 149.731 30.6612 149.667 29.3553C149.413 29.4509 149.126 29.4827 148.839 29.4827C147.119 29.4827 147.119 28.2724 147.119 26.9347V23.9726C147.119 22.5074 148.33 21.6474 149.667 21.6474H154.127ZM140.654 40.8853V45.2807C140.654 46.6822 140.622 47.8288 138.838 47.8288C137.246 47.8288 137.246 46.6185 137.246 45.4081V22.8259C137.246 20.9467 137.978 19.6408 140.048 19.6408H143.998C145.559 19.6408 146.673 20.9467 146.673 22.4756C146.673 23.6222 146.323 25.151 145.973 26.6799C145.718 27.7309 145.463 28.8776 145.304 29.7057C146.068 31.9034 146.737 34.1011 146.737 36.4581C146.737 39.0698 145.941 41.4905 142.883 41.4905C142.087 41.4905 141.323 41.3312 140.654 40.8853ZM140.654 37.7958C141.1 37.7639 141.737 37.7958 142.214 37.7958C143.234 37.7958 143.297 37.0632 143.297 35.5981C143.297 33.9419 142.819 32.3493 142.182 30.8205C142.023 30.4064 141.864 30.0242 141.864 29.5783C141.864 29.3553 142.023 28.6228 142.119 28.2406C142.342 27.285 143.042 24.5459 143.042 23.6222C143.042 23.2718 142.819 23.1763 142.501 23.1763H141.227C140.813 23.1763 140.654 23.1763 140.654 23.654V37.7958ZM150.623 27.6035C150.973 27.4761 151.356 27.4761 151.738 27.4761H160.433C160.783 27.4761 161.102 27.4761 161.42 27.5717V25.7562C161.42 25.4058 161.102 25.2466 160.815 25.2466H151.196C150.878 25.2466 150.623 25.3421 150.623 25.7243V27.6035ZM160.337 36.8403V43.4652C160.337 43.7837 160.369 44.0067 160.751 44.0067H161.42C162.121 44.0067 162.185 43.5926 162.248 42.9875C162.376 41.6179 162.567 40.2165 164.032 40.2165C165.274 40.2165 165.688 40.9172 165.688 42.0638C165.688 43.1149 165.561 44.5163 165.051 45.6311C164.574 46.714 163.809 47.5421 162.503 47.5421H159.605C158.84 47.5421 158.044 47.3829 157.503 46.8733C156.898 46.3 156.898 45.44 156.898 44.7074V36.8403H154.541C154.254 40.1209 153.203 43.4971 151.005 46.0452C150.304 46.8414 149.317 47.6058 148.266 47.6058C147.342 47.6058 146.642 47.0007 146.642 46.0452C146.642 45.44 146.96 45.0259 147.342 44.6119C148.712 43.1786 149.827 41.7134 150.432 39.8979C150.75 38.9106 150.878 37.8595 151.005 36.8403H149.667C148.266 36.8403 147.119 36.8403 147.119 35.0566C147.119 33.4004 148.425 33.4004 149.667 33.4004H162.917C164.319 33.4004 165.465 33.4004 165.465 35.184C165.465 36.8403 164.16 36.8403 162.917 36.8403H160.337Z" fill="#035AAB"/>
<path d="M116.511 32.2854C116.033 33.9098 115.3 35.4386 114.472 36.9038C112.816 39.8977 110.841 42.5732 108.452 44.9939C107.529 45.9494 105.363 48.1152 103.993 48.1152C102.815 48.1152 101.891 46.6819 101.891 45.9175C101.891 45.3761 102.114 45.0257 102.528 44.7072C105.872 42.2228 108.707 39.1652 110.809 35.566C112.72 32.2217 114.377 27.667 114.377 23.7812C114.377 23.399 114.122 23.399 113.708 23.399H111.765C110.236 23.399 109.28 23.2079 109.28 21.3924C109.28 19.6406 110.363 19.6406 111.765 19.6406H116.256C116.797 19.6406 117.371 19.7999 117.785 20.1502C118.326 20.628 118.485 21.2332 118.517 21.9339C118.645 26.3293 119.409 30.5017 121.447 34.4194C123.04 37.4771 125.843 40.9807 128.646 42.9873C129.346 43.4969 130.493 44.2931 130.971 44.8346C131.162 45.0576 131.226 45.4079 131.226 45.6946C131.226 46.8412 130.206 48.0834 129.028 48.0834C127.117 48.0834 124.505 44.9302 123.295 43.5924C120.014 39.8659 118.358 36.8719 116.511 32.2854Z" fill="#035AAB"/>
<path d="M160.793 54.751C161.398 54.751 162.258 55.5472 162.895 56.3754C163.532 57.2353 163.851 57.9042 163.851 58.4138C163.851 59.2101 163.309 59.7516 162.513 59.7516C161.717 59.7516 161.08 58.8279 160.666 58.159C160.061 57.2353 159.646 56.248 159.646 55.8339C159.646 55.1969 160.156 54.751 160.793 54.751ZM160.124 59.9745C160.124 60.8345 159.519 61.4396 158.659 61.4396C158.054 61.4396 157.735 61.153 157.449 60.516C157.194 59.9745 156.748 59.0827 156.398 58.4138C156.143 57.8724 156.047 57.5857 156.047 57.2672C156.047 56.5665 156.589 56.025 157.258 56.025C158.086 56.025 158.468 56.6302 159.009 57.4901C159.678 58.4457 160.124 59.433 160.124 59.9745ZM142.893 65.6758C146.842 65.5165 152.289 64.4973 155.92 62.9366C156.653 62.6181 157.767 62.1404 158.245 62.1404C159.424 62.1404 160.284 63.2233 160.284 64.3699C160.284 64.8477 160.156 65.3254 159.838 65.7076C159.169 66.4721 156.621 67.2683 155.601 67.5868C151.493 68.8609 147.225 69.6571 142.893 69.8164V74.9125C142.893 76.1547 142.925 77.0465 143.944 77.6517C145.345 78.4798 148.754 78.4798 150.346 78.4798C152.99 78.4798 156.111 78.3524 158.277 77.811C158.691 77.7154 158.978 77.6517 159.36 77.6517C160.666 77.6517 161.462 78.7028 161.462 79.9768C161.462 80.9323 160.793 81.6649 159.901 81.9197C157.672 82.5249 153.149 82.7478 150.633 82.7478C148.021 82.7478 143.18 82.5886 141.046 81.3464C138.975 80.1361 138.498 78.2887 138.498 76.0273V59.879C138.498 57.9679 139.294 57.2672 140.695 57.2672C142.288 57.2672 142.893 58.0316 142.893 60.6434V65.6758Z" fill="#035AAB"/>
<path d="M114.355 63.9242V59.911C114.355 57.9681 114.418 56.5029 116.712 56.5029C117.508 56.5029 118.209 56.8214 118.623 57.4903C118.909 57.9681 118.909 59.1465 118.909 59.911V63.9242H127.7C129.484 63.9242 130.184 64.7204 130.184 66.0263C130.184 67.5233 129.42 68.1285 126.808 68.1285H118.909V69.3069C118.909 75.263 117.157 79.5629 112.03 82.8435C110.947 83.5124 109.29 84.5316 108.016 84.5316C106.71 84.5316 105.787 83.385 105.787 82.1428C105.787 80.8688 106.679 80.4229 107.953 79.8814C110.278 78.7985 112.444 77.0785 113.495 74.6897C114.227 73.0653 114.355 71.2498 114.355 69.4981V68.1285H104.672C103.398 68.1285 102.156 67.7144 102.156 66.0263C102.156 64.4975 102.92 63.9242 105.564 63.9242H114.355Z" fill="#035AAB"/>
<g filter="url(#filter0_d_1_33514)">
<path d="M269.159 98.5586V105.73C269.159 106.431 268.793 106.661 268.134 106.661C267.497 106.661 267.162 106.389 267.162 105.73V98.5586C267.162 97.8687 267.518 97.6387 268.176 97.6387C268.835 97.6387 269.148 97.9 269.159 98.5586Z" fill="#035AAB"/>
</g>
<g filter="url(#filter1_d_1_33514)">
<path d="M254.52 98.2973L256.151 103.305C256.193 103.441 256.245 103.629 256.412 103.629C256.548 103.629 256.611 103.43 256.653 103.305L258.283 98.2973C258.419 97.8896 258.702 97.6387 259.141 97.6387C259.622 97.6387 260.238 97.9628 260.238 98.5064C260.238 98.6109 260.196 98.8932 260.165 98.9873L258.053 105.49C257.792 106.295 257.227 106.661 256.402 106.661C255.576 106.661 255.011 106.295 254.75 105.49L252.638 98.9873C252.607 98.8827 252.565 98.6109 252.565 98.4959C252.565 97.9628 253.182 97.6387 253.663 97.6387C254.112 97.6387 254.374 97.8791 254.52 98.2973Z" fill="#035AAB"/>
</g>
<g filter="url(#filter2_d_1_33514)">
<path d="M241.072 104.821L240.644 106.023C240.529 106.347 240.32 106.661 239.933 106.661C239.431 106.661 238.678 106.368 238.678 105.772C238.678 105.636 238.71 105.479 238.762 105.343L241.051 98.9454C241.365 98.0777 241.856 97.6387 242.797 97.6387C243.738 97.6387 244.24 98.0777 244.553 98.9454L246.843 105.343C246.895 105.49 246.937 105.636 246.937 105.793C246.937 106.357 246.163 106.661 245.683 106.661C245.296 106.661 245.087 106.357 244.961 106.023L244.533 104.821H241.072ZM241.689 103.117H243.926L243.059 100.691C243.017 100.576 242.944 100.388 242.808 100.388C242.661 100.388 242.588 100.576 242.546 100.691L241.689 103.117Z" fill="#035AAB"/>
</g>
<g filter="url(#filter3_d_1_33514)">
<path d="M229.776 103.42V98.5584C229.776 97.8684 230.142 97.6384 230.801 97.6384C231.438 97.6384 231.783 97.8997 231.783 98.5584V105.719C231.783 106.545 231.062 106.66 230.403 106.66C229.839 106.66 229.306 106.451 229.076 105.908L226.703 100.43C226.703 100.44 226.703 100.461 226.713 100.67L226.724 100.879V105.73C226.724 106.43 226.358 106.66 225.699 106.66C225.061 106.66 224.716 106.389 224.716 105.73V98.5688C224.716 97.7534 225.427 97.6279 226.096 97.6279C226.65 97.6279 227.183 97.837 227.424 98.3911L229.797 103.869C229.797 103.859 229.797 103.838 229.797 103.827L229.776 103.42Z" fill="#035AAB"/>
</g>
<g filter="url(#filter4_d_1_33514)">
<path d="M205.893 103.42V98.5584C205.893 97.8684 206.259 97.6384 206.917 97.6384C207.555 97.6384 207.9 97.8997 207.9 98.5584V105.719C207.9 106.545 207.179 106.66 206.52 106.66C205.956 106.66 205.422 106.451 205.192 105.908L202.819 100.43C202.819 100.44 202.819 100.461 202.83 100.67L202.84 100.879V105.73C202.84 106.43 202.474 106.66 201.816 106.66C201.178 106.66 200.833 106.389 200.833 105.73V98.5688C200.833 97.7534 201.544 97.6279 202.213 97.6279C202.767 97.6279 203.3 97.837 203.541 98.3911L205.914 103.869C205.914 103.859 205.914 103.838 205.914 103.827L205.893 103.42Z" fill="#035AAB"/>
</g>
<g filter="url(#filter5_d_1_33514)">
<path d="M193.232 98.5586V105.73C193.232 106.431 192.866 106.661 192.207 106.661C191.569 106.661 191.235 106.389 191.235 105.73V98.5586C191.235 97.8687 191.59 97.6387 192.249 97.6387C192.908 97.6387 193.221 97.9 193.232 98.5586Z" fill="#035AAB"/>
</g>
<g filter="url(#filter6_d_1_33514)">
<path d="M178.947 101.099L182.334 97.9732C182.532 97.785 182.731 97.6387 183.013 97.6387C183.505 97.6387 184.09 98.1614 184.09 98.6632C184.09 98.9141 183.944 99.2068 183.766 99.3741L181.341 101.622L184.08 105.051C184.216 105.218 184.31 105.437 184.31 105.647C184.31 106.159 183.735 106.661 183.191 106.661C182.93 106.661 182.721 106.546 182.553 106.347L179.856 102.991L178.947 103.848V105.73C178.947 106.42 178.581 106.661 177.922 106.661C177.284 106.661 176.939 106.389 176.939 105.73V98.5586C176.939 97.8687 177.305 97.6387 177.964 97.6387C178.602 97.6387 178.947 97.9 178.947 98.5586V101.099Z" fill="#035AAB"/>
</g>
<g filter="url(#filter7_d_1_33514)">
<path d="M169.338 98.5586V105.73C169.338 106.431 168.972 106.661 168.314 106.661C167.676 106.661 167.341 106.389 167.341 105.73V98.5586C167.341 97.8687 167.697 97.6387 168.355 97.6387C169.014 97.6387 169.328 97.9 169.338 98.5586Z" fill="#035AAB"/>
</g>
<g filter="url(#filter8_d_1_33514)">
<path d="M159.726 98.5586V103.577C159.726 104.319 159.664 105.092 159.224 105.73C158.712 106.462 157.803 106.661 156.966 106.661C156.005 106.661 154.938 106.368 154.499 105.437C154.28 104.977 154.186 104.329 154.186 103.828V103.744C154.186 103.075 154.593 102.866 155.2 102.866C155.795 102.866 156.182 103.117 156.182 103.744V103.828C156.182 104.382 156.235 104.894 156.935 104.894C157.667 104.894 157.719 104.267 157.719 103.577V98.5586C157.719 97.8687 158.085 97.6387 158.744 97.6387C159.402 97.6387 159.716 97.9 159.726 98.5586Z" fill="#035AAB"/>
</g>
<g filter="url(#filter9_d_1_33514)">
<path d="M147.191 98.5586V105.73C147.191 106.431 146.825 106.661 146.166 106.661C145.528 106.661 145.194 106.389 145.194 105.73V98.5586C145.194 97.8687 145.549 97.6387 146.208 97.6387C146.867 97.6387 147.18 97.9 147.191 98.5586Z" fill="#035AAB"/>
</g>
<g filter="url(#filter10_d_1_33514)">
<path d="M132.528 101.015H135.58V98.5586C135.58 97.8896 135.936 97.6387 136.584 97.6387C137.232 97.6387 137.588 97.8791 137.588 98.5586V105.73C137.588 106.41 137.232 106.661 136.584 106.661C135.936 106.661 135.58 106.41 135.58 105.73V102.74H132.528V105.73C132.528 106.41 132.172 106.661 131.524 106.661C130.876 106.661 130.521 106.41 130.521 105.73V98.5586C130.521 97.8896 130.876 97.6387 131.524 97.6387C132.172 97.6387 132.528 97.8896 132.528 98.5586V101.015Z" fill="#035AAB"/>
</g>
<g filter="url(#filter11_d_1_33514)">
<path d="M115.523 102.144C115.523 100.712 115.963 99.3738 117.102 98.4434C117.823 97.8579 118.816 97.6279 119.736 97.6279C120.886 97.6279 122.015 98.0775 122.737 98.9974C122.988 99.3215 123.26 99.8128 123.26 100.231C123.26 100.827 122.81 101.057 122.266 101.057C121.545 101.057 121.44 100.691 121.367 100.451C121.294 100.241 121.19 100.001 121.022 99.8442C120.677 99.5097 120.123 99.3947 119.653 99.3947C118.022 99.3947 117.583 100.764 117.583 102.144C117.583 103.514 118.022 104.894 119.642 104.894C120.05 104.894 120.646 104.789 120.96 104.507C121.158 104.329 121.273 104.057 121.336 103.806C121.42 103.44 121.514 103.022 122.319 103.022C122.841 103.022 123.28 103.273 123.28 103.859C123.28 104.413 122.977 105.019 122.632 105.448C121.921 106.294 120.782 106.66 119.705 106.66C116.997 106.66 115.523 104.737 115.523 102.144Z" fill="#035AAB"/>
</g>
<g filter="url(#filter12_d_1_33514)">
<path d="M108.267 98.5586V105.73C108.267 106.431 107.901 106.661 107.242 106.661C106.605 106.661 106.27 106.389 106.27 105.73V98.5586C106.27 97.8687 106.625 97.6387 107.284 97.6387C107.943 97.6387 108.256 97.9 108.267 98.5586Z" fill="#035AAB"/>
</g>
<g filter="url(#filter13_d_1_33514)">
<path d="M97.6873 99.8027C97.1645 99.6981 96.7568 99.2591 96.7568 98.7155C96.7568 98.1196 97.2377 97.6387 97.8336 97.6387C98.1681 97.6387 98.4713 97.785 98.6804 98.0255C98.8895 98.2868 98.9313 98.5482 98.9313 98.8723C98.9313 99.9386 98.21 100.817 97.4259 100.817C97.175 100.817 96.9868 100.618 96.9868 100.367C96.9868 100.074 97.1645 100.001 97.3945 99.949C97.4991 99.9281 97.6141 99.8863 97.6873 99.8027Z" fill="#035AAB"/>
</g>
<g filter="url(#filter14_d_1_33514)">
<path d="M87.426 103.42V98.5584C87.426 97.8684 87.7919 97.6384 88.4505 97.6384C89.0882 97.6384 89.4332 97.8997 89.4332 98.5584V105.719C89.4332 106.545 88.7119 106.66 88.0533 106.66C87.4887 106.66 86.9556 106.451 86.7256 105.908L84.3525 100.43C84.3525 100.44 84.3525 100.461 84.363 100.67L84.3734 100.879V105.73C84.3734 106.43 84.0075 106.66 83.3489 106.66C82.7112 106.66 82.3662 106.389 82.3662 105.73V98.5688C82.3662 97.7534 83.0771 97.6279 83.7462 97.6279C84.3002 97.6279 84.8334 97.837 85.0738 98.3911L87.4469 103.869C87.4469 103.859 87.4469 103.838 87.4469 103.827L87.426 103.42Z" fill="#035AAB"/>
</g>
<g filter="url(#filter15_d_1_33514)">
<path d="M74.7648 98.5586V105.73C74.7648 106.431 74.3989 106.661 73.7403 106.661C73.1026 106.661 72.7681 106.389 72.7681 105.73V98.5586C72.7681 97.8687 73.1235 97.6387 73.7821 97.6387C74.4407 97.6387 74.7544 97.9 74.7648 98.5586Z" fill="#035AAB"/>
</g>
<g filter="url(#filter16_d_1_33514)">
<path d="M60.1019 98.5586V103.211C60.1019 103.556 60.1333 103.932 60.3006 104.246C60.5619 104.706 61.1264 104.894 61.6282 104.894C62.13 104.894 62.6946 104.706 62.9455 104.246C63.1127 103.932 63.1545 103.556 63.1545 103.211V98.5586C63.1545 97.8896 63.51 97.6387 64.1581 97.6387C64.8063 97.6387 65.1617 97.8791 65.1617 98.5586V103.273C65.1617 104.047 65.0258 104.873 64.5345 105.49C63.8341 106.347 62.6946 106.661 61.6282 106.661C60.5828 106.661 59.4224 106.347 58.7324 105.5C58.2306 104.873 58.0947 104.068 58.0947 103.273V98.5586C58.0947 97.8896 58.4502 97.6387 59.0983 97.6387C59.7988 97.6387 60.081 97.9 60.1019 98.5586Z" fill="#035AAB"/>
</g>
<g filter="url(#filter17_d_1_33514)">
<path d="M47.3549 101.057L49.2785 98.1614C49.4771 97.8582 49.7385 97.6387 50.1148 97.6387C50.6794 97.6387 51.1916 98.13 51.1916 98.6214C51.1916 98.7991 51.108 98.9977 51.0139 99.1441L48.3585 103.096V105.73C48.3585 106.431 47.9926 106.661 47.334 106.661C46.6963 106.661 46.3513 106.389 46.3513 105.73V103.096L43.696 99.1441C43.5914 98.9977 43.5078 98.7991 43.5078 98.6214C43.5078 98.1405 44.0201 97.6387 44.595 97.6387C44.9714 97.6387 45.2327 97.8582 45.4314 98.1614L47.3549 101.057Z" fill="#035AAB"/>
</g>
<g filter="url(#filter18_d_1_33514)">
<path d="M34.616 103.42V98.5584C34.616 97.8684 34.9819 97.6384 35.6405 97.6384C36.2782 97.6384 36.6232 97.8997 36.6232 98.5584V105.719C36.6232 106.545 35.9018 106.66 35.2432 106.66C34.6787 106.66 34.1455 106.451 33.9155 105.908L31.5424 100.43C31.5424 100.44 31.5424 100.461 31.5529 100.67L31.5634 100.879V105.73C31.5634 106.43 31.1975 106.66 30.5388 106.66C29.9011 106.66 29.5562 106.389 29.5562 105.73V98.5688C29.5562 97.7534 30.267 97.6279 30.9361 97.6279C31.4902 97.6279 32.0233 97.837 32.2638 98.3911L34.6369 103.869C34.6369 103.859 34.6369 103.838 34.6369 103.827L34.616 103.42Z" fill="#035AAB"/>
</g>
<path d="M40.9906 22.6889C40.9906 18.4942 44.3911 15.0938 48.5858 15.0938H61.7507C65.9454 15.0938 69.3459 18.4942 69.3459 22.6889V80.4121C69.3459 84.6068 65.9454 88.0073 61.7507 88.0073H48.5858C44.3911 88.0073 40.9906 84.6068 40.9906 80.4121V22.6889Z" fill="#BAE6FE"/>
<path d="M26.8129 65.7281C22.6182 65.7281 19.2178 62.3277 19.2178 58.133V44.968C19.2178 40.7733 22.6182 37.3729 26.8129 37.3729H84.5362C88.7309 37.3729 92.1313 40.7733 92.1313 44.968V58.133C92.1313 62.3277 88.7308 65.7281 84.5361 65.7281H26.8129Z" fill="#BAE6FE"/>
<defs>
<filter id="filter0_d_1_33514" x="267.162" y="97.6387" width="4.20444" height="11.7813" filterUnits="userSpaceOnUse" color-interpolation-filters="sRGB">
<feFlood flood-opacity="0" result="BackgroundImageFix"/>
<feColorMatrix in="SourceAlpha" type="matrix" values="0 0 0 0 0 0 0 0 0 0 0 0 0 0 0 0 0 0 127 0" result="hardAlpha"/>
<feOffset dx="1.10393" dy="1.6559"/>
<feGaussianBlur stdDeviation="0.551966"/>
<feComposite in2="hardAlpha" operator="out"/>
<feColorMatrix type="matrix" values="0 0 0 0 1 0 0 0 0 1 0 0 0 0 1 0 0 0 0.4 0"/>
<feBlend mode="normal" in2="BackgroundImageFix" result="effect1_dropShadow_1_33514"/>
<feBlend mode="normal" in="SourceGraphic" in2="effect1_dropShadow_1_33514" result="shape"/>
</filter>
<filter id="filter1_d_1_33514" x="252.565" y="97.6387" width="9.8812" height="11.7813" filterUnits="userSpaceOnUse" color-interpolation-filters="sRGB">
<feFlood flood-opacity="0" result="BackgroundImageFix"/>
<feColorMatrix in="SourceAlpha" type="matrix" values="0 0 0 0 0 0 0 0 0 0 0 0 0 0 0 0 0 0 127 0" result="hardAlpha"/>
<feOffset dx="1.10393" dy="1.6559"/>
<feGaussianBlur stdDeviation="0.551966"/>
<feComposite in2="hardAlpha" operator="out"/>
<feColorMatrix type="matrix" values="0 0 0 0 1 0 0 0 0 1 0 0 0 0 1 0 0 0 0.4 0"/>
<feBlend mode="normal" in2="BackgroundImageFix" result="effect1_dropShadow_1_33514"/>
<feBlend mode="normal" in="SourceGraphic" in2="effect1_dropShadow_1_33514" result="shape"/>
</filter>
<filter id="filter2_d_1_33514" x="238.678" y="97.6387" width="10.4667" height="11.7813" filterUnits="userSpaceOnUse" color-interpolation-filters="sRGB">
<feFlood flood-opacity="0" result="BackgroundImageFix"/>
<feColorMatrix in="SourceAlpha" type="matrix" values="0 0 0 0 0 0 0 0 0 0 0 0 0 0 0 0 0 0 127 0" result="hardAlpha"/>
<feOffset dx="1.10393" dy="1.6559"/>
<feGaussianBlur stdDeviation="0.551966"/>
<feComposite in2="hardAlpha" operator="out"/>
<feColorMatrix type="matrix" values="0 0 0 0 1 0 0 0 0 1 0 0 0 0 1 0 0 0 0.4 0"/>
<feBlend mode="normal" in2="BackgroundImageFix" result="effect1_dropShadow_1_33514"/>
<feBlend mode="normal" in="SourceGraphic" in2="effect1_dropShadow_1_33514" result="shape"/>
</filter>
<filter id="filter3_d_1_33514" x="224.716" y="97.6279" width="9.27476" height="11.7921" filterUnits="userSpaceOnUse" color-interpolation-filters="sRGB">
<feFlood flood-opacity="0" result="BackgroundImageFix"/>
<feColorMatrix in="SourceAlpha" type="matrix" values="0 0 0 0 0 0 0 0 0 0 0 0 0 0 0 0 0 0 127 0" result="hardAlpha"/>
<feOffset dx="1.10393" dy="1.6559"/>
<feGaussianBlur stdDeviation="0.551966"/>
<feComposite in2="hardAlpha" operator="out"/>
<feColorMatrix type="matrix" values="0 0 0 0 1 0 0 0 0 1 0 0 0 0 1 0 0 0 0.4 0"/>
<feBlend mode="normal" in2="BackgroundImageFix" result="effect1_dropShadow_1_33514"/>
<feBlend mode="normal" in="SourceGraphic" in2="effect1_dropShadow_1_33514" result="shape"/>
</filter>
<filter id="filter4_d_1_33514" x="200.833" y="97.6279" width="9.27476" height="11.7921" filterUnits="userSpaceOnUse" color-interpolation-filters="sRGB">
<feFlood flood-opacity="0" result="BackgroundImageFix"/>
<feColorMatrix in="SourceAlpha" type="matrix" values="0 0 0 0 0 0 0 0 0 0 0 0 0 0 0 0 0 0 127 0" result="hardAlpha"/>
<feOffset dx="1.10393" dy="1.6559"/>
<feGaussianBlur stdDeviation="0.551966"/>
<feComposite in2="hardAlpha" operator="out"/>
<feColorMatrix type="matrix" values="0 0 0 0 1 0 0 0 0 1 0 0 0 0 1 0 0 0 0.4 0"/>
<feBlend mode="normal" in2="BackgroundImageFix" result="effect1_dropShadow_1_33514"/>
<feBlend mode="normal" in="SourceGraphic" in2="effect1_dropShadow_1_33514" result="shape"/>
</filter>
<filter id="filter5_d_1_33514" x="191.235" y="97.6387" width="4.20444" height="11.7813" filterUnits="userSpaceOnUse" color-interpolation-filters="sRGB">
<feFlood flood-opacity="0" result="BackgroundImageFix"/>
<feColorMatrix in="SourceAlpha" type="matrix" values="0 0 0 0 0 0 0 0 0 0 0 0 0 0 0 0 0 0 127 0" result="hardAlpha"/>
<feOffset dx="1.10393" dy="1.6559"/>
<feGaussianBlur stdDeviation="0.551966"/>
<feComposite in2="hardAlpha" operator="out"/>
<feColorMatrix type="matrix" values="0 0 0 0 1 0 0 0 0 1 0 0 0 0 1 0 0 0 0.4 0"/>
<feBlend mode="normal" in2="BackgroundImageFix" result="effect1_dropShadow_1_33514"/>
<feBlend mode="normal" in="SourceGraphic" in2="effect1_dropShadow_1_33514" result="shape"/>
</filter>
<filter id="filter6_d_1_33514" x="176.939" y="97.6387" width="9.57798" height="11.7813" filterUnits="userSpaceOnUse" color-interpolation-filters="sRGB">
<feFlood flood-opacity="0" result="BackgroundImageFix"/>
<feColorMatrix in="SourceAlpha" type="matrix" values="0 0 0 0 0 0 0 0 0 0 0 0 0 0 0 0 0 0 127 0" result="hardAlpha"/>
<feOffset dx="1.10393" dy="1.6559"/>
<feGaussianBlur stdDeviation="0.551966"/>
<feComposite in2="hardAlpha" operator="out"/>
<feColorMatrix type="matrix" values="0 0 0 0 1 0 0 0 0 1 0 0 0 0 1 0 0 0 0.4 0"/>
<feBlend mode="normal" in2="BackgroundImageFix" result="effect1_dropShadow_1_33514"/>
<feBlend mode="normal" in="SourceGraphic" in2="effect1_dropShadow_1_33514" result="shape"/>
</filter>
<filter id="filter7_d_1_33514" x="167.341" y="97.6387" width="4.20444" height="11.7813" filterUnits="userSpaceOnUse" color-interpolation-filters="sRGB">
<feFlood flood-opacity="0" result="BackgroundImageFix"/>
<feColorMatrix in="SourceAlpha" type="matrix" values="0 0 0 0 0 0 0 0 0 0 0 0 0 0 0 0 0 0 127 0" result="hardAlpha"/>
<feOffset dx="1.10393" dy="1.6559"/>
<feGaussianBlur stdDeviation="0.551966"/>
<feComposite in2="hardAlpha" operator="out"/>
<feColorMatrix type="matrix" values="0 0 0 0 1 0 0 0 0 1 0 0 0 0 1 0 0 0 0.4 0"/>
<feBlend mode="normal" in2="BackgroundImageFix" result="effect1_dropShadow_1_33514"/>
<feBlend mode="normal" in="SourceGraphic" in2="effect1_dropShadow_1_33514" result="shape"/>
</filter>
<filter id="filter8_d_1_33514" x="154.186" y="97.6387" width="7.74839" height="11.7813" filterUnits="userSpaceOnUse" color-interpolation-filters="sRGB">
<feFlood flood-opacity="0" result="BackgroundImageFix"/>
<feColorMatrix in="SourceAlpha" type="matrix" values="0 0 0 0 0 0 0 0 0 0 0 0 0 0 0 0 0 0 127 0" result="hardAlpha"/>
<feOffset dx="1.10393" dy="1.6559"/>
<feGaussianBlur stdDeviation="0.551966"/>
<feComposite in2="hardAlpha" operator="out"/>
<feColorMatrix type="matrix" values="0 0 0 0 1 0 0 0 0 1 0 0 0 0 1 0 0 0 0.4 0"/>
<feBlend mode="normal" in2="BackgroundImageFix" result="effect1_dropShadow_1_33514"/>
<feBlend mode="normal" in="SourceGraphic" in2="effect1_dropShadow_1_33514" result="shape"/>
</filter>
<filter id="filter9_d_1_33514" x="145.194" y="97.6387" width="4.20444" height="11.7813" filterUnits="userSpaceOnUse" color-interpolation-filters="sRGB">
<feFlood flood-opacity="0" result="BackgroundImageFix"/>
<feColorMatrix in="SourceAlpha" type="matrix" values="0 0 0 0 0 0 0 0 0 0 0 0 0 0 0 0 0 0 127 0" result="hardAlpha"/>
<feOffset dx="1.10393" dy="1.6559"/>
<feGaussianBlur stdDeviation="0.551966"/>
<feComposite in2="hardAlpha" operator="out"/>
<feColorMatrix type="matrix" values="0 0 0 0 1 0 0 0 0 1 0 0 0 0 1 0 0 0 0.4 0"/>
<feBlend mode="normal" in2="BackgroundImageFix" result="effect1_dropShadow_1_33514"/>
<feBlend mode="normal" in="SourceGraphic" in2="effect1_dropShadow_1_33514" result="shape"/>
</filter>
<filter id="filter10_d_1_33514" x="130.521" y="97.6387" width="9.27476" height="11.7813" filterUnits="userSpaceOnUse" color-interpolation-filters="sRGB">
<feFlood flood-opacity="0" result="BackgroundImageFix"/>
<feColorMatrix in="SourceAlpha" type="matrix" values="0 0 0 0 0 0 0 0 0 0 0 0 0 0 0 0 0 0 127 0" result="hardAlpha"/>
<feOffset dx="1.10393" dy="1.6559"/>
<feGaussianBlur stdDeviation="0.551966"/>
<feComposite in2="hardAlpha" operator="out"/>
<feColorMatrix type="matrix" values="0 0 0 0 1 0 0 0 0 1 0 0 0 0 1 0 0 0 0.4 0"/>
<feBlend mode="normal" in2="BackgroundImageFix" result="effect1_dropShadow_1_33514"/>
<feBlend mode="normal" in="SourceGraphic" in2="effect1_dropShadow_1_33514" result="shape"/>
</filter>
<filter id="filter11_d_1_33514" x="115.523" y="97.6279" width="9.9647" height="11.7921" filterUnits="userSpaceOnUse" color-interpolation-filters="sRGB">
<feFlood flood-opacity="0" result="BackgroundImageFix"/>
<feColorMatrix in="SourceAlpha" type="matrix" values="0 0 0 0 0 0 0 0 0 0 0 0 0 0 0 0 0 0 127 0" result="hardAlpha"/>
<feOffset dx="1.10393" dy="1.6559"/>
<feGaussianBlur stdDeviation="0.551966"/>
<feComposite in2="hardAlpha" operator="out"/>
<feColorMatrix type="matrix" values="0 0 0 0 1 0 0 0 0 1 0 0 0 0 1 0 0 0 0.4 0"/>
<feBlend mode="normal" in2="BackgroundImageFix" result="effect1_dropShadow_1_33514"/>
<feBlend mode="normal" in="SourceGraphic" in2="effect1_dropShadow_1_33514" result="shape"/>
</filter>
<filter id="filter12_d_1_33514" x="106.27" y="97.6387" width="4.20444" height="11.7813" filterUnits="userSpaceOnUse" color-interpolation-filters="sRGB">
<feFlood flood-opacity="0" result="BackgroundImageFix"/>
<feColorMatrix in="SourceAlpha" type="matrix" values="0 0 0 0 0 0 0 0 0 0 0 0 0 0 0 0 0 0 127 0" result="hardAlpha"/>
<feOffset dx="1.10393" dy="1.6559"/>
<feGaussianBlur stdDeviation="0.551966"/>
<feComposite in2="hardAlpha" operator="out"/>
<feColorMatrix type="matrix" values="0 0 0 0 1 0 0 0 0 1 0 0 0 0 1 0 0 0 0.4 0"/>
<feBlend mode="normal" in2="BackgroundImageFix" result="effect1_dropShadow_1_33514"/>
<feBlend mode="normal" in="SourceGraphic" in2="effect1_dropShadow_1_33514" result="shape"/>
</filter>
<filter id="filter13_d_1_33514" x="96.7568" y="97.6387" width="4.38218" height="5.93756" filterUnits="userSpaceOnUse" color-interpolation-filters="sRGB">
<feFlood flood-opacity="0" result="BackgroundImageFix"/>
<feColorMatrix in="SourceAlpha" type="matrix" values="0 0 0 0 0 0 0 0 0 0 0 0 0 0 0 0 0 0 127 0" result="hardAlpha"/>
<feOffset dx="1.10393" dy="1.6559"/>
<feGaussianBlur stdDeviation="0.551966"/>
<feComposite in2="hardAlpha" operator="out"/>
<feColorMatrix type="matrix" values="0 0 0 0 1 0 0 0 0 1 0 0 0 0 1 0 0 0 0.4 0"/>
<feBlend mode="normal" in2="BackgroundImageFix" result="effect1_dropShadow_1_33514"/>
<feBlend mode="normal" in="SourceGraphic" in2="effect1_dropShadow_1_33514" result="shape"/>
</filter>
<filter id="filter14_d_1_33514" x="82.3662" y="97.6279" width="9.27476" height="11.7921" filterUnits="userSpaceOnUse" color-interpolation-filters="sRGB">
<feFlood flood-opacity="0" result="BackgroundImageFix"/>
<feColorMatrix in="SourceAlpha" type="matrix" values="0 0 0 0 0 0 0 0 0 0 0 0 0 0 0 0 0 0 127 0" result="hardAlpha"/>
<feOffset dx="1.10393" dy="1.6559"/>
<feGaussianBlur stdDeviation="0.551966"/>
<feComposite in2="hardAlpha" operator="out"/>
<feColorMatrix type="matrix" values="0 0 0 0 1 0 0 0 0 1 0 0 0 0 1 0 0 0 0.4 0"/>
<feBlend mode="normal" in2="BackgroundImageFix" result="effect1_dropShadow_1_33514"/>
<feBlend mode="normal" in="SourceGraphic" in2="effect1_dropShadow_1_33514" result="shape"/>
</filter>
<filter id="filter15_d_1_33514" x="72.7681" y="97.6387" width="4.20444" height="11.7813" filterUnits="userSpaceOnUse" color-interpolation-filters="sRGB">
<feFlood flood-opacity="0" result="BackgroundImageFix"/>
<feColorMatrix in="SourceAlpha" type="matrix" values="0 0 0 0 0 0 0 0 0 0 0 0 0 0 0 0 0 0 127 0" result="hardAlpha"/>
<feOffset dx="1.10393" dy="1.6559"/>
<feGaussianBlur stdDeviation="0.551966"/>
<feComposite in2="hardAlpha" operator="out"/>
<feColorMatrix type="matrix" values="0 0 0 0 1 0 0 0 0 1 0 0 0 0 1 0 0 0 0.4 0"/>
<feBlend mode="normal" in2="BackgroundImageFix" result="effect1_dropShadow_1_33514"/>
<feBlend mode="normal" in="SourceGraphic" in2="effect1_dropShadow_1_33514" result="shape"/>
</filter>
<filter id="filter16_d_1_33514" x="58.0947" y="97.6387" width="9.27476" height="11.7813" filterUnits="userSpaceOnUse" color-interpolation-filters="sRGB">
<feFlood flood-opacity="0" result="BackgroundImageFix"/>
<feColorMatrix in="SourceAlpha" type="matrix" values="0 0 0 0 0 0 0 0 0 0 0 0 0 0 0 0 0 0 127 0" result="hardAlpha"/>
<feOffset dx="1.10393" dy="1.6559"/>
<feGaussianBlur stdDeviation="0.551966"/>
<feComposite in2="hardAlpha" operator="out"/>
<feColorMatrix type="matrix" values="0 0 0 0 1 0 0 0 0 1 0 0 0 0 1 0 0 0 0.4 0"/>
<feBlend mode="normal" in2="BackgroundImageFix" result="effect1_dropShadow_1_33514"/>
<feBlend mode="normal" in="SourceGraphic" in2="effect1_dropShadow_1_33514" result="shape"/>
</filter>
<filter id="filter17_d_1_33514" x="43.5078" y="97.6387" width="9.89146" height="11.7813" filterUnits="userSpaceOnUse" color-interpolation-filters="sRGB">
<feFlood flood-opacity="0" result="BackgroundImageFix"/>
<feColorMatrix in="SourceAlpha" type="matrix" values="0 0 0 0 0 0 0 0 0 0 0 0 0 0 0 0 0 0 127 0" result="hardAlpha"/>
<feOffset dx="1.10393" dy="1.6559"/>
<feGaussianBlur stdDeviation="0.551966"/>
<feComposite in2="hardAlpha" operator="out"/>
<feColorMatrix type="matrix" values="0 0 0 0 1 0 0 0 0 1 0 0 0 0 1 0 0 0 0.4 0"/>
<feBlend mode="normal" in2="BackgroundImageFix" result="effect1_dropShadow_1_33514"/>
<feBlend mode="normal" in="SourceGraphic" in2="effect1_dropShadow_1_33514" result="shape"/>
</filter>
<filter id="filter18_d_1_33514" x="29.5562" y="97.6279" width="9.27476" height="11.7921" filterUnits="userSpaceOnUse" color-interpolation-filters="sRGB">
<feFlood flood-opacity="0" result="BackgroundImageFix"/>
<feColorMatrix in="SourceAlpha" type="matrix" values="0 0 0 0 0 0 0 0 0 0 0 0 0 0 0 0 0 0 127 0" result="hardAlpha"/>
<feOffset dx="1.10393" dy="1.6559"/>
<feGaussianBlur stdDeviation="0.551966"/>
<feComposite in2="hardAlpha" operator="out"/>
<feColorMatrix type="matrix" values="0 0 0 0 1 0 0 0 0 1 0 0 0 0 1 0 0 0 0.4 0"/>
<feBlend mode="normal" in2="BackgroundImageFix" result="effect1_dropShadow_1_33514"/>
<feBlend mode="normal" in="SourceGraphic" in2="effect1_dropShadow_1_33514" result="shape"/>
</filter>
</defs>
</svg>
