<svg width="570" height="154" viewBox="0 0 570 154" fill="none" xmlns="http://www.w3.org/2000/svg">
<path d="M484.22 112.122L482.056 128.695C481.808 130.86 481.314 132.406 478.778 132.406C476.305 132.406 475.872 130.736 475.624 128.695L473.46 112.122V100.248C473.46 96.5379 475.439 95.2393 478.964 95.2393C482.365 95.2393 484.22 96.7234 484.22 100.248V112.122ZM478.84 136.425C482.118 136.425 484.777 139.085 484.777 142.362C484.777 145.701 482.118 148.361 478.84 148.361C475.562 148.361 472.903 145.701 472.903 142.362C472.903 139.085 475.562 136.425 478.84 136.425Z" fill="#FF9122"/>
<path d="M431.717 110.205L431.964 116.698C432.088 120.1 432.335 123.563 432.335 127.026C432.335 132.839 430.851 139.456 426.646 143.661C421.451 148.856 413.536 150.34 406.486 150.34C403.456 150.34 399.498 150.278 396.777 149.041C395.416 148.423 394.551 146.815 394.551 145.331C394.551 143.043 396.406 140.94 398.756 140.94C399.683 140.94 400.673 141.187 401.6 141.311C403.456 141.62 405.373 141.806 407.29 141.806C411.062 141.806 416.257 141.187 419.101 138.466C419.844 137.786 420.462 136.92 421.018 136.055C418.483 136.735 415.886 136.982 413.288 136.982C405.064 136.982 393.747 135.065 393.747 124.614C393.747 114.287 405.125 112.617 413.165 112.617C416.442 112.617 419.782 112.864 422.936 113.668L422.812 109.896H391.891C389.047 109.896 387.748 107.917 387.748 105.691C387.748 103.403 389.603 101.486 391.891 101.486H421.946L421.884 100.125C421.884 97.404 423.987 95.1777 426.708 95.1777C429.305 95.1777 431.346 97.2185 431.47 99.754V101.486H437.035C439.385 101.486 441.241 103.464 441.241 105.814C441.241 108.597 439.262 110.205 437.035 110.205H431.717ZM423.307 124.367C422.874 121.584 419.534 120.533 412.855 120.533C410.567 120.533 405.373 120.78 403.703 122.388C403.085 123.006 402.775 123.81 402.775 124.676C402.775 129.067 409.949 129.067 413.845 129.067C416.38 129.067 421.39 129.067 422.812 126.717C423.183 126.098 423.307 125.603 423.307 124.985V124.367Z" fill="#FF9122"/>
<path d="M361.527 121.768L361.589 127.829C364.125 128.695 366.598 129.684 368.948 130.921C370.556 131.725 373.401 133.395 374.452 134.817C375.009 135.621 375.38 136.425 375.38 137.352C375.38 139.764 373.401 141.867 370.927 141.867C369.814 141.867 368.825 141.31 367.897 140.692C365.856 139.269 363.816 137.847 361.527 136.858C360.971 147.309 353.117 150.215 343.903 150.215C340.069 150.215 336.173 149.597 332.833 147.742C328.937 145.515 326.464 141.743 326.464 136.981C326.464 132.281 328.381 129.684 331.782 127.643C335.554 125.479 340.316 125.17 344.583 125.17C347.366 125.17 350.149 125.417 352.87 125.85V121.768H328.319C326.093 121.768 324.237 119.913 324.237 117.687C324.237 115.522 326.093 113.667 328.257 113.667H352.808V109.338H328.319C326.093 109.338 324.237 107.545 324.237 105.319C324.237 103.092 326.093 101.299 328.257 101.299H352.499V99.8767C352.499 97.4649 354.539 95.3623 356.951 95.3623C359.363 95.3623 361.404 97.4031 361.404 99.753V101.299H372.35C374.514 101.299 376.369 103.092 376.369 105.319C376.369 107.545 374.514 109.338 372.35 109.338H361.466L361.527 113.667H372.35C374.576 113.667 376.369 115.522 376.369 117.687C376.369 119.913 374.514 121.768 372.35 121.768H361.527ZM352.932 133.827C349.901 133.085 346.809 132.714 343.655 132.714C340.687 132.714 335.183 133.023 335.183 137.043C335.183 141.372 340.501 141.867 343.717 141.867C346.5 141.867 350.52 141.496 352.004 138.775C352.87 137.229 352.932 135.497 352.932 133.827Z" fill="#FF9122"/>
<path d="M268.148 135.498C265.365 137.415 263.448 138.157 261.84 138.157C259.49 138.157 257.449 136.054 257.449 133.704C257.449 131.292 258.562 130.365 263.2 127.953C264.932 127.025 266.602 125.85 268.148 124.675V114.101H262.397C259.985 114.101 257.944 112.06 257.944 109.648C257.944 107.236 259.985 105.195 262.397 105.195H268.148V100.681C268.148 98.1456 270.312 96.043 272.848 96.043C275.383 96.043 277.486 98.2074 277.486 100.743V106.494C282.371 103.155 288.184 101.176 294.121 101.176C301.851 101.176 309.89 105.257 309.89 113.977C309.89 117.502 308.53 121.336 307.231 124.552C305.623 128.509 303.397 134.075 303.397 137.105C303.397 138.528 304.201 139.641 305.747 139.641C306.489 139.641 307.169 139.393 308.344 138.775C309.086 138.404 310.014 138.157 310.88 138.157C313.353 138.157 315.394 140.321 315.394 142.733C315.394 147.309 309.272 148.917 305.623 148.917C298.883 148.917 294.059 144.774 294.059 137.847C294.059 135.126 294.801 132.467 295.605 129.87C296.533 127.025 297.522 124.181 298.635 121.398C299.625 118.862 300.429 116.698 300.429 114.595C300.429 113.111 299.501 111.565 298.141 110.885C296.904 110.205 295.42 109.957 293.935 109.957C289.05 109.957 284.165 111.874 280.454 115.09C279.465 115.956 278.475 116.883 277.486 117.873V145.701C277.486 148.237 275.383 150.401 272.786 150.401C270.25 150.401 268.148 148.237 268.148 145.701V135.498Z" fill="#FF9122"/>
<path d="M236.423 107.05H204.761C202.349 107.05 200.184 105.319 200.184 102.783C200.184 100.248 202.349 98.3926 204.761 98.3926H236.361C238.835 98.3926 240.999 100.248 240.999 102.783C240.999 105.628 238.897 107.05 236.423 107.05ZM208.78 118.429C213.233 115.646 219.417 114.904 224.611 114.904C235.31 114.904 246.998 119.171 246.998 131.663C246.998 138.094 243.72 143.289 238.278 146.567C233.146 149.597 227.023 150.401 221.21 150.401C215.645 150.401 209.77 149.721 204.699 147.309C202.534 146.257 200.061 144.773 200.061 142.114C200.061 139.702 202.287 137.662 204.637 137.662C205.874 137.662 206.925 138.218 207.976 138.775C212.243 141.001 217.252 141.681 222.014 141.681C226.529 141.681 231.723 140.815 235.124 137.538C236.67 136.054 237.66 134.075 237.66 131.849C237.66 125.046 229.311 123.562 223.993 123.562C219.231 123.562 214.099 124.551 209.955 126.963C208.038 128.014 206.368 129.437 204.884 131.106C203.895 132.22 202.782 133.024 201.236 133.024C198.391 133.024 196.721 130.859 196.721 128.324C196.721 127.767 196.845 127.21 197.03 126.654L200.432 114.966C200.988 112.863 202.72 111.256 205.008 111.256C207.358 111.256 209.46 113.234 209.46 115.584C209.46 116.574 209.028 117.563 208.78 118.429Z" fill="#FF9122"/>
<path d="M141.344 99.2588H174.058C176.532 99.2588 178.573 101.3 178.573 103.773C178.573 106.247 176.532 108.288 174.058 108.288H140.788C138.314 108.288 136.274 106.309 136.274 103.773C136.274 100.928 138.747 99.2588 141.344 99.2588ZM168.431 125.356C171.585 125.479 173.564 127.211 173.564 130.488C173.564 131.602 173.44 132.715 173.254 133.828C173.007 135.25 172.822 136.734 172.822 138.157C172.822 140.445 174.368 141.434 176.532 141.434C177.954 141.434 179.439 141.187 180.799 140.754C182.345 140.259 183.087 140.074 183.891 140.074C186.241 140.074 187.911 142.238 187.911 144.465C187.911 145.701 187.478 146.876 186.55 147.742C184.571 149.659 179.315 150.216 176.656 150.216C173.625 150.216 170.533 149.845 167.936 148.361C165.339 146.876 163.545 144.155 163.545 141.125C163.545 139.455 163.855 137.786 164.102 136.116C164.164 135.683 164.164 135.188 164.164 134.756C164.164 133.086 163.113 132.406 161.566 132.406C160.02 132.406 158.66 133.333 157.485 134.323L141.159 148.546C140.046 149.536 138.871 150.092 137.325 150.092C134.727 150.092 132.254 148.299 132.254 145.516C132.254 144.094 132.687 142.919 133.985 141.929L158.969 122.078L137.139 123.624C135.655 123.748 134.295 123.439 133.181 122.325C132.378 121.522 131.883 120.347 131.883 119.172C131.883 116.76 133.985 114.843 136.397 114.719L173.316 113.049C175.728 112.926 177.707 114.162 177.707 116.698C177.707 118.058 177.027 119.11 175.914 119.914L168.431 125.356Z" fill="#FF9122"/>
<path d="M97.3139 98.3315H104.92V97.1565C104.92 94.1881 107.27 93.8789 109.744 93.8789C112.032 93.8789 113.764 94.621 113.764 97.1565V98.3315H118.216C120.875 98.3315 122.05 99.4446 122.05 102.104C122.05 104.639 120.628 105.629 118.216 105.629H113.764V108.535H119.7C122.359 108.535 123.473 109.648 123.473 112.308C123.473 114.843 121.988 115.771 119.7 115.771H88.4706V126.531C88.4706 132.715 87.9759 140.136 86.3062 146.073C85.0694 150.278 84.6365 151.762 82.0392 151.762C79.6892 151.762 77.2156 150.773 77.2156 148.113C77.2156 147.248 77.6484 145.331 78.3905 142.919C79.9984 137.539 80.6787 132.591 80.6787 126.964V115.771H80.0602C78.7616 115.771 77.7721 114.348 77.7721 112.246C77.7721 109.525 79.009 108.535 81.6681 108.535H88.3469V105.629H84.0181C81.3589 105.629 80.1839 104.516 80.1839 101.856C80.1839 99.3209 81.6063 98.3315 84.0181 98.3315H88.3469V97.2802C88.3469 94.25 90.6969 93.8789 93.1705 93.8789C95.4587 93.8789 97.3139 94.621 97.3139 97.2183V98.3315ZM77.0919 111.009V149.165C77.0919 152.195 75.5459 153.061 72.6393 153.061C69.9183 153.061 68.6815 151.886 68.6815 149.165V126.036C68.4341 126.098 68.1868 126.098 67.9394 126.098C65.1566 126.098 63.8579 122.82 63.8579 120.471C63.8579 118.059 65.0947 116.451 66.6408 113.792C69.5473 108.659 70.9696 102.784 72.2064 97.0328C72.7012 94.992 73.6906 94.1263 75.7932 94.1263C78.0813 94.1263 80.0602 95.2394 80.0602 97.7749C80.0602 100.001 78.3905 106.989 77.0919 111.009ZM104.92 105.629H97.3139V108.535H104.92V105.629ZM96.9428 141.558V149.165C96.9428 151.7 95.8915 152.999 93.2324 152.999C90.7587 152.999 89.7693 151.515 89.7693 149.165V124.923C89.7693 119.728 91.9337 117.626 97.1284 117.626H113.825C119.02 117.626 121.185 119.728 121.185 124.923V146.382C121.185 152.319 119.391 152.628 114.011 152.628C111.785 152.628 109.249 152.442 109.249 148.794C109.249 147 109.991 145.454 111.97 145.454C112.836 145.454 112.96 144.527 112.96 143.908V141.558H108.445V148.67C108.445 151.02 107.456 152.504 104.92 152.504C102.385 152.504 101.395 151.02 101.395 148.67V141.558H96.9428ZM101.395 126.778V123.872H98.2415C97.4376 123.872 96.9428 124.181 96.9428 125.047V126.778H101.395ZM108.445 126.778H112.96V125.047C112.96 124.243 112.589 123.872 111.785 123.872H108.445V126.778ZM101.395 132.715H96.9428V135.807H101.395V132.715ZM108.445 132.715V135.807H112.96V132.715H108.445Z" fill="#FF9122"/>
<path d="M524.773 4.65137C527.247 4.65137 529.535 6.5066 529.535 9.04207C529.535 10.0315 529.412 11.021 529.226 11.9486C528.175 18.0709 527.804 24.255 527.804 30.4391C527.804 36.3758 528.175 43.302 531.019 48.6822C531.885 50.1663 532.504 51.2176 532.504 52.5163C532.504 55.0518 530.277 57.0925 527.804 57.0925C525.577 57.0925 523.846 55.361 522.856 53.5676C518.96 46.4559 518.404 37.86 518.404 29.9443C518.404 23.3892 518.775 16.834 519.95 10.3407C520.445 7.61973 521.434 4.65137 524.773 4.65137ZM541.347 8.11446H564.908C567.444 8.11446 569.608 10.2171 569.608 12.7525C569.608 15.288 567.444 17.3906 564.908 17.3906H541.347C538.811 17.3906 536.647 15.3499 536.647 12.7525C536.647 11.4539 537.203 10.2789 538.131 9.35128C538.935 8.48551 540.234 8.11446 541.347 8.11446ZM554.643 55.4847C549.262 55.4847 544.068 53.6913 540.172 49.919C537.08 46.8888 535.843 42.3125 535.843 38.0455C535.843 34.0258 537.327 29.8206 539.986 26.8523C541.099 25.6155 542.522 24.626 544.253 24.626C546.727 24.626 548.83 26.7286 548.83 29.2022C548.83 30.5009 548.211 31.4285 547.284 32.789C546.109 34.5206 545.428 36.4376 545.428 38.5402C545.428 44.1059 549.757 46.1467 554.704 46.1467C557.797 46.1467 560.703 45.5283 563.548 44.3533C564.166 44.1059 564.846 43.9822 565.465 43.9822C568 43.9822 569.979 46.1467 569.979 48.6203C569.979 50.4755 568.804 51.9597 567.196 52.7637C563.362 54.6807 558.972 55.4847 554.643 55.4847Z" fill="#FF9122"/>
<path d="M486.37 20.4203C492.121 18.0704 495.152 16.277 500.284 12.8139C501.15 12.2573 502.016 11.7626 503.067 11.7626C505.726 11.7626 507.953 14.3599 507.953 16.8954C507.953 19.5546 505.85 20.7295 502.325 22.7085C497.131 25.615 491.998 27.9649 486.37 29.882V48.1251C486.37 49.733 487.421 49.7948 488.658 49.8566C490.452 49.9185 492.245 49.9185 494.533 49.9185C497.131 49.9185 498.182 49.6711 498.553 48.3106C498.862 47.2593 498.862 46.3317 498.986 43.6107C499.171 39.7147 499.357 37.6121 503.624 37.6121C506.84 37.6121 508.633 39.2818 508.633 42.4357C508.633 44.4146 508.262 48.1869 508.015 50.1658C507.767 52.3921 507.334 54.9276 506.036 56.721C504.551 58.8236 501.892 58.9473 499.542 59.071C497.192 59.1946 494.781 59.1946 492.431 59.1946C490.142 59.1946 484.144 59.1328 482.165 58.8854C480.805 58.6999 479.753 58.3907 478.764 57.5249C477.032 55.9789 476.785 53.7526 476.785 51.5264V5.51666C476.785 1.74436 478.578 0.94043 481.979 0.94043C485.072 0.94043 486.37 2.48645 486.37 5.51666V20.4203ZM467.818 17.5757V55.4223C467.818 59.1328 465.963 59.9986 462.561 59.9986C459.408 59.9986 458.047 58.5144 458.047 55.4223V31.1188C456.563 32.7267 455.45 33.778 453.718 33.778C450.935 33.778 449.08 30.9333 449.08 28.336C449.08 26.2334 450.008 24.9966 451.368 23.5742C454.522 20.2348 456.315 18.3796 458.789 14.4218C461.263 10.5258 462.067 8.54687 463.798 4.40352C464.602 2.48645 465.653 1.31148 467.88 1.31148C470.106 1.31148 473.013 2.42461 473.013 5.08378C473.013 7.37189 469.982 13.8034 467.818 17.5757Z" fill="#FF9122"/>
<path d="M418.469 38.9111C418.716 36.8704 418.902 34.7678 418.902 32.6652V10.1551C418.902 3.59993 420.2 2.30128 426.694 2.30128H434.98C441.535 2.30128 442.772 3.59993 442.772 10.1551V51.9596C442.772 58.6384 441.412 59.8134 434.176 59.8134H433.187C429.847 59.8134 426.446 59.6279 426.446 55.1135C426.446 52.7017 427.807 50.7228 430.342 50.7228C430.775 50.7228 432.383 50.7846 432.816 50.7846C433.991 50.7846 434.3 50.2899 434.3 49.1767V40.89H426.755C426.384 45.4044 425.395 50.2899 423.787 54.4951C422.488 57.9582 421.313 59.6897 418.963 59.6897C417.046 59.6897 414.944 58.7621 414.016 57.0305C413.274 57.5871 412.346 58.02 411.419 58.02C409.935 58.02 408.945 57.0305 407.585 55.4227C406.843 54.5569 406.039 53.5674 404.987 52.4543C404.183 51.5885 403.256 50.5372 403.256 49.2386C403.256 47.3215 405.482 45.7136 407.214 45.7136C409.564 45.7136 413.583 49.9188 414.82 51.8359C415.748 50.1662 416.923 47.136 417.294 45.1571C416.49 45.59 415.81 45.59 415.006 45.59H397.69C399.484 46.0228 401.091 47.507 401.091 49.4241C401.091 51.0938 398.556 53.9385 397.443 55.1753C395.959 56.7832 393.176 59.6279 390.888 59.6279C388.661 59.6279 386.744 57.7726 386.744 55.4845C386.744 53.8148 387.363 53.2582 389.28 51.5267C390.888 50.1044 392.248 48.9294 393.423 47.6307C394.351 46.6413 395.093 45.8992 396.206 45.59H389.403C386.682 45.59 385.384 44.1676 385.384 41.5085C385.384 39.2822 386.559 37.4888 388.909 37.4888H390.331V15.0405H389.218C386.992 15.0405 386.126 12.9379 386.126 11.0209C386.126 9.04194 386.992 7.00119 389.28 7.00119H390.331V5.45516C390.331 2.54864 391.877 1.06445 394.784 1.06445C397.566 1.06445 399.051 2.73416 399.051 5.45516V7.00119H405.668V5.45516C405.668 2.48679 407.275 1.06445 410.182 1.06445C413.027 1.06445 414.511 2.67232 414.511 5.45516V7.00119H415.748C418.098 7.00119 418.716 9.16562 418.716 11.1445C418.716 13.1234 417.912 15.0405 415.748 15.0405H414.511V37.4888H415.81C416.985 37.4888 417.788 37.9217 418.469 38.9111ZM427.436 17.947H434.3V12.7524C434.3 11.8866 433.867 11.4537 433.001 11.4537H428.734C427.869 11.4537 427.436 11.8866 427.436 12.7524V17.947ZM405.668 15.0405H399.051V18.3799H405.668V15.0405ZM405.668 24.564H399.051V27.9034H405.668V24.564ZM434.3 26.1101H427.436V32.6652H434.3V26.1101ZM405.668 34.0875H399.051V37.4888H405.668V34.0875Z" fill="#FF9122"/>
<path d="M344.259 52.3306C344.012 52.3924 343.641 52.4543 343.208 52.4543C340.92 52.4543 339.25 49.7951 337.457 46.332C335.787 50.4754 333.499 54.4332 330.469 57.8345C329.417 58.9476 328.366 59.8134 326.697 59.8134C324.037 59.8134 321.502 57.216 321.502 54.5569C321.502 53.0109 322.368 52.1451 323.419 51.0938C328.675 45.961 330.778 42.1268 332.138 34.8296H325.707C322.368 34.8296 321.193 33.3454 321.193 30.0679C321.193 27.0995 322.924 25.9245 325.707 25.9245H332.633V16.9576H331.335C329.727 20.9154 328.428 23.5745 325.831 23.5745C323.604 23.5745 320.76 21.843 320.76 19.3694C320.76 18.0707 321.378 16.8339 321.935 15.7207C323.728 12.134 324.841 8.91823 325.893 5.02225C326.573 2.54861 327.191 0.878906 330.16 0.878906C332.324 0.878906 334.859 1.9302 334.859 4.46568C334.859 5.20777 334.674 6.32091 334.241 8.17614H343.084C344.197 8.17614 345.249 8.29982 346.176 8.98007C346.053 8.4235 346.053 7.92878 346.053 7.37221C346.053 4.21832 347.475 2.9815 350.567 2.9815H375.118C378.457 2.9815 379.694 4.40384 379.694 7.61957C379.694 10.6498 377.963 11.8248 375.118 11.8248H350.567C349.454 11.8248 348.341 11.7011 347.475 11.0827C347.599 11.6392 347.599 12.0103 347.599 12.5669C347.599 15.4115 346.3 16.9576 343.394 16.9576H341.476V25.9245H344.136C345.929 25.9245 347.661 26.3574 348.341 28.2126V22.3377C348.341 17.0194 350.505 14.855 355.885 14.855H369.552C374.932 14.855 377.097 17.0194 377.097 22.3377V28.7692C377.097 32.727 375.984 35.5099 371.655 36.1283C373.819 36.1901 376.293 37.1796 376.293 39.6532C376.293 41.694 374.252 47.507 373.386 49.5478H375.736C378.89 49.5478 380.313 50.9083 380.313 54.0622C380.313 57.0924 378.581 58.2673 375.736 58.2673H348.65C345.62 58.2673 344.074 56.9687 344.074 53.8766C344.074 53.3201 344.136 52.8253 344.259 52.3306ZM366.955 22.6469H358.606C357.493 22.6469 356.875 23.2653 356.875 24.3785V26.7284C356.875 27.8416 357.493 28.3981 358.606 28.3981H366.955C368.006 28.3981 368.625 27.8416 368.625 26.7284V24.3785C368.625 23.2653 368.006 22.6469 366.955 22.6469ZM347.784 47.9399C347.784 48.5583 347.661 49.053 347.351 49.6096C347.846 49.5478 348.155 49.5478 348.65 49.5478H352.979C352.175 48.7438 350.938 44.6623 350.32 43.1163C349.578 41.2611 349.454 40.5808 349.454 39.9624C349.454 37.6125 351.866 36.3756 353.968 36.3756C356.813 36.3756 357.555 38.169 358.606 40.9519C359.163 42.436 360.276 45.5281 360.276 47.0123C360.276 48.2491 359.72 48.9294 358.792 49.5478H364.419C365.533 46.7031 366.337 44.0439 367.079 41.1374C367.883 38.169 368.006 36.8085 370.48 36.252H355.885C352.361 36.252 349.33 35.3862 348.588 31.4902C348.155 34.0875 346.609 34.8296 344.136 34.8296H340.549V35.077C342.651 39.6532 343.95 41.4466 346.918 45.4663C347.413 46.2083 347.784 47.0741 347.784 47.9399Z" fill="#FF9122"/>
<path d="M289.963 14.0506C291.138 14.7927 292.128 16.1532 292.128 17.6374C292.128 19.5544 291.447 23.8833 290.891 27.2846C290.272 30.9332 289.53 34.5818 288.726 38.2304C287.737 42.3119 286.809 46.6408 284.768 50.4131C282.604 54.3091 279.017 55.7314 274.688 55.7314C271.102 55.7314 267.948 54.3091 265.35 51.8973C260.341 47.321 258.362 40.6422 258.362 34.0252C258.362 17.0808 269.803 4.95996 286.871 4.95996C297.322 4.95996 308.021 9.53619 312.597 19.4926C314.205 23.0175 314.823 27.0372 314.823 30.8713C314.823 40.0238 311.36 49.3618 303.135 54.1854C300.414 55.7314 297.013 56.9682 293.797 56.9682C291.076 56.9682 288.726 54.8656 288.726 52.1446C288.726 49.9184 290.396 48.0013 292.437 47.4447C298.93 45.775 305.052 42.8685 305.052 30.624C305.052 21.1005 299.363 15.1637 289.963 14.0506ZM285.139 13.9269C274.008 15.04 267.7 23.0175 267.7 34.0252C267.7 38.1686 269.123 46.5171 274.565 46.5171C275.307 46.5171 276.049 46.2697 276.605 45.775C277.966 44.5382 279.141 38.7251 279.574 36.8081C280.811 31.0569 281.986 25.2438 282.666 19.4307C282.913 17.3282 283.222 15.1637 285.139 13.9269Z" fill="#494949"/>
<path d="M236.656 51.403C234.183 54.0622 232.328 55.6082 229.421 57.7108C228.122 58.6384 226.762 59.566 225.092 59.566C223.113 59.566 221.567 58.4529 220.701 56.6595C220.021 57.2161 219.403 57.4634 218.537 57.4634C217.548 57.4634 216.991 57.2161 215.383 56.1648C214.456 55.5464 213.466 54.9898 211.92 54.1859C208.148 56.6595 202.087 59.6279 197.511 59.6279C195.099 59.6279 193.615 57.4634 193.615 55.2372C193.615 52.8254 195.099 52.2069 197.14 51.8359C199.243 51.403 201.283 50.8464 203.262 50.1662C201.283 49.4859 199.614 48.8675 198.253 48.2491C197.387 47.8781 196.583 46.8268 196.583 45.59C196.583 44.6005 196.831 43.9821 197.326 43.1782C197.882 42.2505 198.253 41.5703 198.562 40.89H196.336C193.801 40.89 192.749 39.4677 192.749 37.0559C192.749 34.5204 194.234 33.4691 196.645 33.4691H201.654C202.582 30.8718 202.706 29.635 205.056 29.1403C204.932 28.5219 204.932 28.2126 204.932 27.5942V24.0693C203.324 25.9864 199.243 30.5626 196.645 30.5626C193.986 30.5626 192.502 28.2126 192.502 25.8008C192.502 24.0075 194.172 23.018 196.398 21.7812C197.82 20.9772 199.985 19.3075 201.469 17.8234H196.645C194.172 17.8234 192.873 16.8957 192.873 14.2984C192.873 11.7011 194.172 10.8353 196.645 10.8353H204.932V4.96044C204.932 1.80655 206.602 1.06445 209.508 1.06445C212.291 1.06445 213.59 2.17759 213.59 4.96044V10.8353H221.011C223.546 10.8353 224.783 11.7629 224.783 14.3603C224.783 16.8957 223.361 17.8234 221.011 17.8234H216.249C217.486 19.0602 218.784 20.297 220.145 21.4101C220.949 22.0285 221.629 22.4614 221.938 23.2654C226.329 16.401 227.133 12.4432 229.05 4.77491C229.668 2.23943 230.782 1.24998 233.379 1.24998C235.791 1.24998 238.326 1.93023 238.326 4.77491C238.326 5.70253 238.017 7.12487 237.275 9.66035H247.417C250.571 9.66035 251.807 11.3919 251.807 14.4221C251.807 17.205 250.571 18.8747 247.726 18.9983C247.417 27.4706 245.933 35.5099 242.222 43.1163C244.572 46.1465 246.427 47.6307 249.458 50.1662C250.694 51.2175 251.684 52.5161 251.684 54.2477C251.684 56.845 249.396 59.6279 246.675 59.6279C244.448 59.6279 242.346 57.5871 240.8 56.1029C239.316 54.6806 237.893 53.0727 236.656 51.403ZM219.959 1.68287C221.629 1.68287 224.226 2.48679 224.226 4.52755C224.226 5.82621 223.051 7.80512 222.371 8.85642C221.505 10.1551 220.64 10.7735 219.094 10.7735C217.362 10.7735 215.074 9.84587 215.074 7.80512C215.074 6.93935 215.692 5.76437 216.805 3.78546C217.548 2.36311 218.29 1.68287 219.959 1.68287ZM203.386 7.6196C203.386 10.0314 200.85 10.7116 198.933 10.7116C197.016 10.7116 196.707 9.90771 195.965 8.29985C195.594 7.49592 194.666 5.45516 194.666 4.58939C194.666 2.54864 197.078 1.74471 198.748 1.74471C200.418 1.74471 201.036 2.36312 201.84 3.66178C202.458 4.65123 203.386 6.50646 203.386 7.6196ZM236.842 33.6547C238.326 29.2639 238.945 23.6983 239.006 18.9983H234.183C234.121 19.1839 234.059 19.3075 233.997 19.4931C234.43 24.6259 235.049 28.7692 236.842 33.6547ZM231.647 43.3637C229.792 39.5914 228.432 35.5717 227.689 31.4284C226.762 32.4178 225.711 33.1599 224.288 33.1599C222 33.1599 219.526 31.1192 219.341 28.7692C219.155 28.8311 218.97 28.8929 218.723 28.8929C216.991 28.8929 214.888 26.2337 213.59 24.5022V27.5942C213.59 29.635 213.033 30.9336 210.869 31.3665V31.7376C210.869 32.2942 210.683 32.9744 210.498 33.4691H221.382C223.855 33.4691 225.401 34.5823 225.401 37.1796C225.401 39.8388 223.855 40.89 221.382 40.89H221.134C220.701 43.7347 219.774 46.0228 218.104 48.3728C220.392 49.3004 221.444 49.5478 222.124 50.9701C224.288 49.6096 225.587 48.7439 226.886 47.8781C228.37 46.8886 229.73 45.6518 231.647 43.3637ZM210.745 45.7136C211.982 44.2295 212.724 42.6834 213.281 40.89H207.096C206.602 41.8177 205.86 43.24 205.86 43.7347C205.86 44.1676 206.045 44.3531 206.911 44.6005C207.962 44.9097 209.137 45.2189 210.745 45.7136Z" fill="#494949"/>
<path d="M181.865 11.886V49.5471C181.865 55.6075 179.453 58.0193 173.455 58.0193H142.349C136.288 58.0193 133.876 55.6075 133.876 49.5471V11.886C133.876 5.88738 136.288 3.47559 142.349 3.47559H173.455C179.453 3.47559 181.865 5.7637 181.865 11.886ZM171.971 25.8002V14.7306C171.971 13.3701 171.228 12.628 169.868 12.628H145.812C144.513 12.628 143.771 13.3701 143.771 14.7306V25.8002H171.971ZM143.771 34.7671V46.7643C143.771 48.0629 144.513 48.8669 145.812 48.8669H169.868C171.228 48.8669 171.971 48.0629 171.971 46.7643V34.7671H143.771Z" fill="#494949"/>
<path d="M89.7218 21.9042H89.2271C86.2587 21.9042 85.1456 20.2345 85.1456 17.3898V13.6793C85.1456 8.42284 87.2482 6.32025 92.4428 6.32025H98.9361V4.46502C98.9361 1.80586 100.915 0.816406 103.327 0.816406C105.739 0.816406 107.656 1.80586 107.656 4.46502V6.32025H114.149C119.405 6.32025 121.508 8.42284 121.508 13.6793V17.3898C121.508 20.4818 120.271 21.9042 117.117 21.9042V22.5226C117.117 25.1818 115.819 26.3567 113.221 26.3567H93.6178C91.0205 26.3567 89.7218 25.1818 89.7218 22.4607V21.9042ZM74.076 45.4038V55.4838C74.076 58.6377 72.7774 59.9982 69.5617 59.9982C66.6551 59.9982 65.542 58.2048 65.542 55.4838V10.0926C65.542 3.53741 66.8407 2.42427 73.2721 2.42427H77.601C82.6101 2.42427 85.3311 2.79532 85.3311 8.60837C85.3311 11.2057 84.8982 13.432 84.1561 15.9056C83.8469 17.0187 82.4246 21.595 81.9917 22.77C81.868 23.0792 81.6825 23.6357 81.6825 23.7594C81.6825 24.0686 81.8062 24.316 82.0535 24.687C83.3522 26.6659 84.4653 28.6448 85.3311 30.9948C86.3206 29.758 87.5574 29.5725 89.1034 29.5725H118.416C121.323 29.5725 122.93 30.7474 122.93 33.7776C122.93 36.6842 121.075 37.7973 118.416 37.7973H111.737V49.1761C111.737 50.5984 112.232 50.7839 113.531 50.7839C114.953 50.7839 115.138 50.4129 115.2 48.3103C115.262 45.0327 115.448 42.992 118.663 42.992C122.065 42.992 122.559 44.9709 122.559 47.259C122.559 50.1655 122.436 55.793 120.333 57.9575C119.22 59.1325 116.87 59.3798 114.52 59.3798C113.283 59.3798 112.17 59.3798 111.304 59.3798C104.687 59.3798 103.203 58.3904 103.203 51.6497V37.7973H100.111C99.8019 44.3525 99.2453 49.98 94.3599 54.9273C92.381 56.9062 88.3613 59.689 85.5166 59.689C82.9193 59.689 81.1259 56.968 81.1259 54.6181C81.1259 52.7628 82.3009 51.8971 84.5272 50.7839C90.835 47.5682 91.4534 44.538 91.8244 37.7973H89.1034C88.2995 37.7973 87.2482 37.6736 86.5061 37.3026V37.8592C86.5061 41.1986 85.7022 46.0222 82.1154 47.3208C81.0641 47.7537 79.7654 47.8774 78.6523 47.8774C76.7352 47.8774 74.7563 47.3827 74.076 45.4038ZM74.076 40.5802C74.4471 39.5289 74.88 39.096 75.9931 38.9723C77.5391 38.7868 77.9102 37.7355 77.9102 35.5092C77.9102 32.2316 76.7971 29.2014 75.251 26.3567C74.88 25.7383 74.5708 25.1199 74.5708 24.3778C74.5708 24.0686 74.8181 22.8318 75.0037 22.2134C76.055 18.6885 76.7971 15.7201 77.3536 13.4938C77.4773 13.0609 77.601 12.4425 77.601 12.1951C77.601 11.5149 77.1063 11.2057 76.4878 11.2057H75.1892C74.4471 11.2057 74.076 11.6386 74.076 12.3188V40.5802ZM93.4941 18.6266H112.974C112.912 18.1937 112.912 17.8227 112.912 17.3898V15.6582C112.912 14.9161 112.479 14.5451 111.737 14.5451H94.7309C93.9888 14.5451 93.556 14.978 93.556 15.6582V17.3898C93.556 17.8227 93.556 18.1937 93.4941 18.6266Z" fill="#494949"/>
<path d="M29.5507 31.1806C27.5718 37.7358 24.9126 43.2396 20.3982 48.5579C17.6772 51.7118 9.57608 59.2564 5.43273 59.2564C2.34068 59.2564 -0.00927734 56.2881 -0.00927734 53.3815C-0.00927734 50.9697 1.35122 50.0421 3.2683 48.929C11.926 43.858 18.2338 37.0555 21.6969 27.532C22.8719 24.3163 24.2942 17.823 24.2942 14.4217C24.2942 12.752 23.614 12.5665 22.068 12.5665H13.2247C9.88528 12.5665 8.33926 11.0205 8.33926 7.68105C8.33926 4.46531 10.1326 3.04297 13.2247 3.04297H26.2731C33.5704 3.04297 34.3743 6.38238 34.8072 12.8138C35.2401 19.74 36.7861 26.6662 40.0018 32.8503C43.3413 39.2199 48.7833 45.1567 55.0292 48.7435C56.9463 49.9184 58.3068 50.846 58.3068 53.3197C58.3068 56.3499 55.895 59.2564 52.8029 59.2564C48.5359 59.2564 41.1768 51.8355 38.5177 48.6198C34.3125 43.487 31.4678 37.4884 29.5507 31.1806Z" fill="#494949"/>
</svg>
