<svg width="404" height="92" viewBox="0 0 404 92" fill="none" xmlns="http://www.w3.org/2000/svg">
<path d="M397.963 78.3006L396.934 65.2706L396.744 59.5938H403.068L402.878 65.2706L401.849 78.3006H397.963ZM399.906 88.4351C398.941 88.4351 398.141 88.1176 397.506 87.4826C396.871 86.8476 396.553 86.0475 396.553 85.0824C396.553 84.0918 396.871 83.279 397.506 82.644C398.141 82.009 398.941 81.6915 399.906 81.6915C400.871 81.6915 401.671 82.009 402.306 82.644C402.941 83.279 403.259 84.0918 403.259 85.0824C403.259 86.0475 402.941 86.8476 402.306 87.4826C401.671 88.1176 400.871 88.4351 399.906 88.4351Z" fill="#494949"/>
<path d="M351.139 59.0598C351.672 59.136 352.243 59.1868 352.853 59.2122C353.463 59.2376 354.047 59.2503 354.606 59.2503C355.012 59.2503 355.622 59.2503 356.434 59.2503C357.247 59.2249 358.162 59.1995 359.178 59.1741C360.219 59.1487 361.248 59.1233 362.264 59.0979C363.28 59.0725 364.194 59.0471 365.007 59.0217C365.845 58.9709 366.493 58.9328 366.95 58.9074C367.737 58.8312 368.36 58.7677 368.817 58.7169C369.274 58.6407 369.617 58.5645 369.845 58.4883L372.322 61.8791C371.89 62.1585 371.446 62.4379 370.988 62.7173C370.531 62.9967 370.087 63.3015 369.655 63.6317C369.147 63.9873 368.537 64.4572 367.826 65.0414C367.115 65.6002 366.353 66.1971 365.54 66.8321C364.753 67.4671 363.978 68.0894 363.216 68.699C362.48 69.3086 361.806 69.8546 361.197 70.3372C361.832 70.1848 362.441 70.0832 363.026 70.0324C363.61 69.9562 364.207 69.9181 364.816 69.9181C366.975 69.9181 368.906 70.3372 370.607 71.1754C372.335 72.0136 373.693 73.1566 374.684 74.6044C375.7 76.0268 376.208 77.6651 376.208 79.5192C376.208 81.5258 375.7 83.3419 374.684 84.9675C373.668 86.593 372.131 87.8884 370.074 88.8536C368.042 89.8188 365.489 90.3014 362.416 90.3014C360.663 90.3014 359.076 90.0474 357.654 89.5394C356.257 89.0314 355.152 88.3075 354.339 87.3677C353.526 86.4279 353.12 85.3231 353.12 84.0531C353.12 83.0117 353.399 82.0465 353.958 81.1575C354.542 80.2431 355.342 79.5065 356.358 78.9477C357.4 78.3889 358.593 78.1095 359.94 78.1095C361.692 78.1095 363.165 78.4651 364.359 79.1763C365.578 79.8621 366.505 80.7892 367.14 81.9576C367.801 83.126 368.144 84.4087 368.169 85.8057L363.711 86.4152C363.686 85.0183 363.33 83.9007 362.645 83.0625C361.984 82.1989 361.095 81.7671 359.978 81.7671C359.266 81.7671 358.695 81.9576 358.263 82.3386C357.831 82.6942 357.615 83.1133 357.615 83.5959C357.615 84.3071 357.971 84.8786 358.682 85.3104C359.393 85.7422 360.321 85.9581 361.464 85.9581C363.622 85.9581 365.426 85.7041 366.874 85.1961C368.321 84.6627 369.401 83.9134 370.112 82.9482C370.849 81.9576 371.217 80.7892 371.217 79.443C371.217 78.3 370.861 77.2968 370.15 76.4332C369.464 75.5696 368.525 74.8965 367.331 74.4139C366.137 73.9313 364.791 73.69 363.292 73.69C361.819 73.69 360.473 73.8805 359.254 74.2615C358.035 74.6171 356.879 75.1378 355.787 75.8236C354.72 76.484 353.666 77.2968 352.624 78.2619C351.608 79.2017 350.592 80.2558 349.576 81.4242L346.109 77.8428C346.795 77.2841 347.57 76.6618 348.433 75.976C349.297 75.2648 350.173 74.5282 351.062 73.7662C351.977 73.0042 352.828 72.293 353.615 71.6326C354.428 70.9468 355.114 70.3753 355.672 69.9181C356.206 69.4863 356.828 68.9784 357.539 68.3942C358.25 67.81 358.987 67.2131 359.749 66.6035C360.511 65.9685 361.235 65.3716 361.921 64.8128C362.606 64.2286 363.178 63.7333 363.635 63.3269C363.254 63.3269 362.759 63.3396 362.149 63.365C361.54 63.3904 360.867 63.4158 360.13 63.4412C359.419 63.4666 358.695 63.492 357.958 63.5174C357.247 63.5428 356.574 63.5809 355.939 63.6317C355.329 63.6571 354.821 63.6825 354.415 63.7079C353.907 63.7333 353.374 63.7714 352.815 63.8222C352.256 63.873 351.748 63.9365 351.291 64.0127L351.139 59.0598Z" fill="#494949"/>
<path d="M341.804 86.1109C340.915 86.9237 339.887 87.5968 338.718 88.1302C337.55 88.6636 336.191 88.9303 334.642 88.9303C333.219 88.9303 332.063 88.435 331.174 87.4444C330.311 86.4538 329.879 85.0314 329.879 83.1773C329.879 82.1613 329.943 81.0691 330.07 79.9007C330.222 78.7069 330.387 77.5131 330.565 76.3193C330.743 75.1256 330.895 73.9953 331.022 72.9285C331.174 71.8363 331.251 70.8584 331.251 69.9948C331.251 69.055 331.022 68.3565 330.565 67.8993C330.108 67.4167 329.473 67.1754 328.66 67.1754C327.771 67.1754 326.78 67.4929 325.688 68.1279C324.596 68.7375 323.478 69.5249 322.335 70.4901C321.192 71.4553 320.1 72.484 319.059 73.5762C318.043 74.6684 317.154 75.7097 316.392 76.7003L316.354 70.833C316.811 70.325 317.408 69.7281 318.144 69.0423C318.906 68.3565 319.757 67.6453 320.697 66.9087C321.662 66.1722 322.666 65.4864 323.707 64.8514C324.774 64.191 325.841 63.6576 326.907 63.2512C328 62.8448 329.054 62.6416 330.07 62.6416C331.441 62.6416 332.559 62.8956 333.422 63.4036C334.311 63.8862 334.972 64.5593 335.404 65.4229C335.835 66.261 336.051 67.2135 336.051 68.2803C336.051 69.2709 335.988 70.3504 335.861 71.5188C335.734 72.6618 335.581 73.8302 335.404 75.0239C335.226 76.2177 335.073 77.3988 334.946 78.5672C334.845 79.7356 334.794 80.8024 334.794 81.7676C334.794 82.2756 334.921 82.6947 335.175 83.0249C335.429 83.3297 335.785 83.482 336.242 83.482C336.953 83.482 337.74 83.2535 338.604 82.7963C339.467 82.3137 340.331 81.6279 341.195 80.7389L341.804 86.1109ZM315.477 67.9374C315.071 67.9882 314.55 68.0517 313.915 68.1279C313.28 68.2041 312.595 68.293 311.858 68.3946C311.147 68.4962 310.423 68.5978 309.686 68.6994C308.95 68.801 308.264 68.8899 307.629 68.9661L307.134 64.0894C307.692 64.1148 308.213 64.1275 308.696 64.1275C309.204 64.1021 309.788 64.0767 310.448 64.0513C311.058 64.0005 311.782 63.937 312.62 63.8608C313.484 63.7592 314.347 63.6449 315.211 63.5179C316.1 63.3909 316.925 63.2512 317.687 63.0988C318.449 62.9464 319.046 62.794 319.478 62.6416L321.002 64.5847C320.773 64.8895 320.507 65.2705 320.202 65.7277C319.922 66.1849 319.63 66.6548 319.326 67.1373C319.021 67.5945 318.754 68.0009 318.525 68.3565L316.278 75.5192C315.871 76.1034 315.363 76.84 314.754 77.729C314.169 78.618 313.547 79.5578 312.887 80.5484C312.226 81.539 311.579 82.4915 310.944 83.4059C310.309 84.3202 309.737 85.1203 309.229 85.8061L306.219 81.6533C306.702 81.0437 307.248 80.3452 307.858 79.5578C308.493 78.745 309.153 77.8941 309.839 77.0051C310.525 76.0907 311.198 75.189 311.858 74.3001C312.518 73.3857 313.128 72.5348 313.687 71.7474C314.271 70.9346 314.754 70.2361 315.135 69.6519L315.211 68.6613L315.477 67.9374ZM315.02 60.6223C315.02 60.0635 315.02 59.5047 315.02 58.9459C315.02 58.3617 314.969 57.7776 314.868 57.1934L320.43 57.3839C320.278 57.9681 320.113 58.8189 319.935 59.9365C319.783 61.0287 319.618 62.286 319.44 63.7084C319.287 65.1308 319.135 66.6293 318.983 68.2041C318.856 69.7535 318.741 71.3029 318.64 72.8523C318.564 74.4017 318.525 75.8494 318.525 77.1956C318.525 78.237 318.525 79.2911 318.525 80.3579C318.551 81.4247 318.576 82.5169 318.602 83.6344C318.627 84.752 318.678 85.9077 318.754 87.1015C318.779 87.4317 318.817 87.8889 318.868 88.4731C318.919 89.0827 318.97 89.6034 319.021 90.0352H313.763C313.814 89.578 313.839 89.07 313.839 88.5112C313.865 87.9524 313.877 87.5206 313.877 87.2158C313.903 85.9712 313.928 84.8155 313.953 83.7487C313.979 82.682 313.992 81.5517 313.992 80.3579C314.017 79.1641 314.055 77.7798 314.106 76.205C314.131 75.6208 314.169 74.8843 314.22 73.9953C314.271 73.0809 314.322 72.0903 314.373 71.0235C314.449 69.9313 314.525 68.8264 314.601 67.7088C314.677 66.5912 314.741 65.5499 314.792 64.5847C314.868 63.5941 314.919 62.7559 314.944 62.0701C314.995 61.3589 315.02 60.8763 315.02 60.6223Z" fill="#494949"/>
<path d="M286.331 60.6221H299.323V65.0797H286.331V60.6221ZM268.196 57.8789H287.436V62.108H268.196V57.8789ZM273.225 65.7274H282.369V69.8041H273.225V65.7274ZM273.225 73.6521H282.369V77.7288H273.225V73.6521ZM298.066 60.6221H298.866L299.666 60.4697L302.638 61.2317C302.155 66.3878 301.266 70.8836 299.971 74.7189C298.701 78.5543 297.037 81.8308 294.98 84.5486C292.922 87.2664 290.446 89.5015 287.55 91.2541C287.22 90.6699 286.763 89.9968 286.179 89.2348C285.62 88.4982 285.086 87.9268 284.578 87.5204C287.118 86.1742 289.315 84.2819 291.17 81.8435C293.024 79.3798 294.535 76.4461 295.704 73.0425C296.897 69.6136 297.685 65.8036 298.066 61.6127V60.6221ZM290.827 65.194C291.436 68.4706 292.313 71.5566 293.456 74.4522C294.599 77.3478 296.046 79.9131 297.799 82.1483C299.552 84.3835 301.647 86.1615 304.085 87.4823C303.755 87.7617 303.374 88.1172 302.942 88.549C302.536 89.0062 302.155 89.4634 301.799 89.9206C301.444 90.4032 301.152 90.8477 300.923 91.2541C298.256 89.6285 295.983 87.5839 294.103 85.1201C292.249 82.6563 290.713 79.8115 289.493 76.5858C288.274 73.36 287.258 69.8422 286.445 66.0322L290.827 65.194ZM270.825 59.5934H275.168V84.5105H270.825V59.5934ZM280.616 59.5934H284.998V91.4827H280.616V59.5934ZM267.281 82.8341C268.551 82.7071 269.986 82.542 271.587 82.3388C273.212 82.1356 274.927 81.907 276.73 81.653C278.559 81.399 280.362 81.145 282.14 80.891L282.369 85.082C279.905 85.5138 277.416 85.9329 274.901 86.3393C272.387 86.7203 270.139 87.0759 268.158 87.4061L267.281 82.8341Z" fill="#494949"/>
<path d="M258.099 57.8027C258.048 58.2091 258.01 58.6409 257.985 59.0981C257.959 59.5299 257.934 59.9617 257.909 60.3935C257.883 60.7491 257.871 61.2952 257.871 62.0318C257.896 62.743 257.909 63.5558 257.909 64.4702C257.909 65.3591 257.909 66.2735 257.909 67.2133C257.909 68.1277 257.909 68.9786 257.909 69.766C257.934 70.5534 257.947 71.163 257.947 71.5948C257.947 73.8553 257.858 75.9127 257.68 77.7669C257.528 79.5957 257.172 81.2848 256.613 82.8341C256.08 84.3835 255.254 85.8186 254.137 87.1394C253.045 88.4602 251.546 89.7302 249.641 90.9493L245.26 87.4823C245.971 87.1775 246.758 86.7457 247.622 86.1869C248.485 85.6027 249.171 85.0185 249.679 84.4343C250.416 83.6723 251.013 82.8722 251.47 82.034C251.927 81.1959 252.283 80.2688 252.537 79.2528C252.816 78.2368 252.994 77.1065 253.07 75.8619C253.172 74.6173 253.222 73.1823 253.222 71.5567C253.222 70.8709 253.222 70.0073 253.222 68.9659C253.222 67.9245 253.21 66.845 253.184 65.7274C253.159 64.6099 253.134 63.5812 253.108 62.6414C253.083 61.6762 253.045 60.9396 252.994 60.4316C252.968 59.949 252.905 59.4664 252.803 58.9838C252.727 58.5012 252.651 58.1075 252.575 57.8027H258.099ZM243.088 65.2321C243.698 65.3083 244.32 65.3845 244.955 65.4607C245.59 65.5115 246.225 65.5623 246.86 65.6131C247.52 65.6385 248.181 65.6512 248.841 65.6512C250.492 65.6512 252.219 65.6131 254.023 65.5369C255.826 65.4607 257.566 65.3464 259.242 65.194C260.919 65.0162 262.379 64.813 263.624 64.5844L263.585 69.5374C262.392 69.6644 260.982 69.7914 259.356 69.9184C257.731 70.02 256.016 70.1089 254.213 70.1851C252.435 70.2359 250.682 70.2613 248.955 70.2613C248.422 70.2613 247.812 70.2486 247.126 70.2232C246.441 70.1978 245.755 70.1724 245.069 70.147C244.383 70.1216 243.723 70.0962 243.088 70.0708V65.2321ZM239.164 58.4504C239.011 58.9076 238.846 59.441 238.668 60.0506C238.491 60.6348 238.351 61.1301 238.249 61.5365C238.021 62.5779 237.779 63.8352 237.525 65.3083C237.271 66.7561 237.055 68.2674 236.878 69.8422C236.7 71.417 236.611 72.9664 236.611 74.4903C236.611 75.9889 236.738 77.3224 236.992 78.4908C237.246 77.9066 237.538 77.2081 237.868 76.3953C238.198 75.5571 238.516 74.7824 238.821 74.0712L241.183 75.5952C240.827 76.6874 240.472 77.8177 240.116 78.9861C239.786 80.1291 239.494 81.2213 239.24 82.2626C238.986 83.2786 238.77 84.1549 238.592 84.8915C238.516 85.1709 238.452 85.5011 238.402 85.8821C238.376 86.2377 238.364 86.5298 238.364 86.7584C238.364 86.9362 238.364 87.1775 238.364 87.4823C238.389 87.7871 238.414 88.0665 238.44 88.3205L234.211 88.7396C233.931 87.9776 233.614 86.9362 233.258 85.6154C232.928 84.2692 232.636 82.796 232.382 81.1959C232.153 79.5703 232.039 77.9701 232.039 76.3953C232.039 74.3125 232.103 72.306 232.23 70.3756C232.382 68.4452 232.56 66.6926 232.763 65.1178C232.966 63.5177 233.131 62.2096 233.258 61.1936C233.36 60.6602 233.423 60.1014 233.449 59.5172C233.474 58.9076 233.5 58.3615 233.525 57.8789L239.164 58.4504Z" fill="#494949"/>
<path d="M192.721 66.6417H226.134V74.9855H221.676V70.604H197.026V74.9855H192.721V66.6417ZM198.245 73.5377H218.323V77.7667H198.245V73.5377ZM221.676 55.5166L224.762 59.2123C222.603 59.6187 220.266 59.9869 217.752 60.3171C215.263 60.6219 212.672 60.8886 209.98 61.1172C207.313 61.3458 204.633 61.5363 201.941 61.6887C199.248 61.8411 196.632 61.9427 194.092 61.9935C194.067 61.4347 193.94 60.7743 193.711 60.0123C193.508 59.2504 193.305 58.6154 193.102 58.1074C195.616 58.0312 198.181 57.9169 200.798 57.7645C203.439 57.6121 206.017 57.4343 208.532 57.2311C211.072 57.0025 213.459 56.7485 215.695 56.4691C217.93 56.1643 219.924 55.8468 221.676 55.5166ZM196.454 62.7174L200.417 61.6125C200.874 62.2983 201.306 63.0603 201.712 63.8985C202.144 64.7367 202.449 65.4733 202.626 66.1083L198.397 67.3275C198.27 66.6925 198.016 65.9432 197.635 65.0796C197.254 64.216 196.861 63.4286 196.454 62.7174ZM206.513 61.9173L210.551 61.0029C210.932 61.7903 211.288 62.6412 211.618 63.5556C211.974 64.47 212.202 65.2701 212.304 65.9559L207.998 67.0227C207.922 66.3369 207.732 65.5114 207.427 64.5462C207.148 63.581 206.843 62.7047 206.513 61.9173ZM218.59 60.9267L223.429 62.0697C222.997 62.8825 222.552 63.6826 222.095 64.47C221.638 65.2574 221.181 66.0067 220.724 66.7179C220.266 67.4037 219.847 68.0133 219.466 68.5466L215.695 67.4799C216.05 66.8449 216.406 66.1591 216.761 65.4225C217.142 64.6605 217.485 63.8858 217.79 63.0984C218.12 62.311 218.387 61.5871 218.59 60.9267ZM216.647 73.5377H217.6L218.4 73.3853L221.524 75.2522C220.381 77.7413 218.895 79.9003 217.066 81.7291C215.263 83.5325 213.18 85.0564 210.818 86.301C208.456 87.5456 205.89 88.5616 203.122 89.349C200.379 90.1364 197.508 90.7333 194.511 91.1397C194.359 90.7587 194.13 90.3015 193.825 89.7681C193.521 89.2601 193.19 88.7521 192.835 88.2441C192.479 87.7615 192.149 87.3678 191.844 87.063C194.765 86.7582 197.546 86.301 200.188 85.6914C202.83 85.0819 205.23 84.2818 207.389 83.2912C209.548 82.2752 211.415 81.0306 212.989 79.5574C214.564 78.0842 215.783 76.3317 216.647 74.2997V73.5377ZM202.779 76.6618C204.201 78.5668 206.081 80.2178 208.418 81.6148C210.78 82.9864 213.51 84.104 216.609 84.9676C219.733 85.8311 223.149 86.428 226.858 86.7582C226.528 87.0884 226.185 87.5202 225.829 88.0536C225.473 88.587 225.131 89.1077 224.8 89.6157C224.496 90.1491 224.242 90.6317 224.038 91.0635C220.228 90.5809 216.749 89.8062 213.599 88.7394C210.45 87.6726 207.63 86.2756 205.141 84.5485C202.652 82.7959 200.531 80.7004 198.778 78.262L202.779 76.6618Z" fill="#494949"/>
<path d="M177.817 75.0922V72.0747H181.452V61.9021H178.343V59.5933C179.227 59.4409 179.981 59.2504 180.606 59.0218C181.246 58.778 181.848 58.4732 182.412 58.1074H185.155V72.0747H188.287V75.0922H177.817Z" fill="#494949"/>
<path d="M162.912 57.901L164.901 55.5693C165.511 55.8437 166.166 56.1789 166.867 56.5752C167.568 56.9562 168.231 57.3524 168.856 57.7639C169.481 58.1753 169.991 58.5716 170.387 58.9526L168.193 61.5586C167.842 61.1776 167.37 60.7661 166.776 60.3242C166.197 59.8822 165.564 59.4555 164.878 59.044C164.192 58.6173 163.537 58.2363 162.912 57.901ZM161.564 66.9078H173.359V69.8109H161.564V66.9078ZM159.918 73.5828H174.685V76.4631H159.918V73.5828ZM160.741 60.5985H174.205V63.4788H160.741V60.5985ZM165.77 61.5586H168.947V74.8629H165.77V61.5586ZM154.591 57.9239L156.237 55.7065C156.725 55.8741 157.243 56.0875 157.792 56.3466C158.34 56.6056 158.866 56.88 159.369 57.1695C159.872 57.4591 160.283 57.741 160.604 58.0153L158.82 60.4842C158.531 60.2099 158.142 59.9203 157.655 59.6155C157.182 59.2955 156.672 58.9907 156.123 58.7011C155.59 58.3963 155.079 58.1372 154.591 57.9239ZM152.991 64.1417L154.569 61.8558C155.056 62.0234 155.582 62.2291 156.146 62.473C156.71 62.7168 157.243 62.9759 157.746 63.2502C158.264 63.5245 158.691 63.7912 159.026 64.0503L157.335 66.5877C157.045 66.3134 156.649 66.0315 156.146 65.7419C155.658 65.4524 155.132 65.1628 154.569 64.8732C154.02 64.5837 153.494 64.3398 152.991 64.1417ZM154.02 74.8858C154.431 74.3219 154.881 73.6514 155.369 72.8742C155.872 72.0969 156.382 71.2663 156.9 70.3824C157.418 69.4833 157.906 68.5994 158.363 67.7307L160.581 69.7424C160.184 70.5348 159.758 71.3425 159.301 72.1655C158.859 72.9884 158.409 73.8038 157.952 74.6115C157.51 75.404 157.053 76.1812 156.58 76.9432L154.02 74.8858Z" fill="#494949"/>
<path d="M132.212 57.5743C132.059 58.2601 131.932 58.8697 131.831 59.4031C131.729 59.9365 131.64 60.4572 131.564 60.9652C131.462 61.4986 131.335 62.2733 131.183 63.2893C131.056 64.2798 130.904 65.4101 130.726 66.6801C130.574 67.9247 130.408 69.2328 130.231 70.6044C130.078 71.9506 129.926 73.2713 129.773 74.5667C129.621 75.8621 129.494 77.0432 129.392 78.11C129.316 79.1768 129.278 80.0277 129.278 80.6627C129.278 82.2374 129.748 83.4439 130.688 84.2821C131.653 85.0949 133.075 85.5013 134.955 85.5013C136.733 85.5013 138.232 85.26 139.451 84.7774C140.67 84.2694 141.597 83.5963 142.232 82.7581C142.867 81.9199 143.184 80.9801 143.184 79.9388C143.184 78.6434 142.842 77.3861 142.156 76.1669C141.495 74.9223 140.53 73.7158 139.26 72.5474L144.632 71.4045C145.902 73.0046 146.829 74.5286 147.413 75.9764C148.023 77.3988 148.328 78.9228 148.328 80.5484C148.328 82.4533 147.782 84.1551 146.69 85.6537C145.597 87.1523 144.035 88.3207 142.003 89.1589C139.997 89.997 137.597 90.4161 134.803 90.4161C132.821 90.4161 131.056 90.1113 129.507 89.5017C127.957 88.8922 126.751 87.927 125.887 86.6062C125.024 85.2854 124.592 83.5709 124.592 81.4627C124.592 80.6754 124.655 79.634 124.782 78.3386C124.909 77.0178 125.062 75.57 125.24 73.9952C125.443 72.3951 125.646 70.7822 125.849 69.1566C126.052 67.5056 126.23 65.9435 126.383 64.4703C126.56 62.9972 126.7 61.7272 126.802 60.6604C126.852 59.7714 126.878 59.0983 126.878 58.6411C126.903 58.1585 126.891 57.7013 126.84 57.2695L132.212 57.5743ZM118.61 62.2987C119.753 62.6543 120.998 62.9591 122.344 63.2131C123.69 63.4417 125.074 63.6195 126.497 63.7465C127.919 63.8481 129.265 63.8988 130.535 63.8988C132.034 63.8988 133.431 63.8481 134.726 63.7465C136.022 63.6449 137.152 63.5179 138.117 63.3655L137.965 67.8993C136.822 68.0009 135.679 68.0898 134.536 68.166C133.393 68.2422 132.021 68.2803 130.421 68.2803C129.126 68.2803 127.78 68.2168 126.383 68.0898C124.986 67.9374 123.601 67.7469 122.23 67.5183C120.858 67.2643 119.575 66.9849 118.382 66.6801L118.61 62.2987ZM117.81 71.7474C119.182 72.2046 120.566 72.5602 121.963 72.8141C123.385 73.0681 124.782 73.2459 126.154 73.3475C127.551 73.4237 128.884 73.4618 130.154 73.4618C131.323 73.4618 132.58 73.4237 133.926 73.3475C135.298 73.2713 136.593 73.157 137.812 73.0046L137.698 77.5385C136.631 77.6401 135.539 77.729 134.422 77.8052C133.304 77.856 132.148 77.8814 130.954 77.8814C128.415 77.8814 125.976 77.7544 123.639 77.5004C121.303 77.221 119.271 76.84 117.543 76.3574L117.81 71.7474Z" fill="#FF9122"/>
<path d="M78.8721 61.9559C79.6341 61.9305 80.358 61.9051 81.0437 61.8797C81.7295 61.8289 82.2502 61.7908 82.6058 61.7654C83.3932 61.7146 84.3584 61.6384 85.5014 61.5368C86.6698 61.4098 87.9652 61.2828 89.3876 61.1558C90.8353 61.0288 92.372 60.9018 93.9976 60.7748C95.6232 60.6478 97.3123 60.5081 99.0648 60.3557C100.386 60.2287 101.694 60.1271 102.989 60.0509C104.31 59.9493 105.554 59.8731 106.723 59.8223C107.917 59.7461 108.958 59.6953 109.847 59.6699L109.885 64.5467C109.199 64.5467 108.412 64.5594 107.523 64.5848C106.634 64.6102 105.745 64.661 104.856 64.7372C103.992 64.788 103.218 64.9023 102.532 65.0801C101.389 65.3849 100.322 65.9055 99.3315 66.6421C98.3409 67.3533 97.4774 68.2042 96.7408 69.1948C96.0296 70.16 95.4708 71.2141 95.0644 72.3571C94.658 73.4747 94.4548 74.6049 94.4548 75.7479C94.4548 76.9925 94.6707 78.0974 95.1025 79.0626C95.5597 80.0024 96.1693 80.8152 96.9313 81.501C97.7186 82.1614 98.633 82.7202 99.6744 83.1773C100.716 83.6091 101.833 83.9393 103.027 84.1679C104.246 84.3965 105.504 84.5489 106.799 84.6251L105.008 89.8448C103.408 89.7432 101.846 89.4892 100.322 89.0828C98.8235 88.6764 97.4139 88.1176 96.0931 87.4064C94.7723 86.6952 93.6166 85.8316 92.626 84.8156C91.6608 83.7742 90.8861 82.5932 90.3019 81.2724C89.7431 79.9262 89.4637 78.4276 89.4637 76.7766C89.4637 74.9478 89.7558 73.2715 90.34 71.7475C90.9242 70.1981 91.6481 68.8519 92.5117 67.7089C93.4007 66.5405 94.277 65.6389 95.1406 65.0039C94.4294 65.1055 93.5658 65.2071 92.5498 65.3087C91.5592 65.4103 90.4797 65.5373 89.3113 65.6897C88.1684 65.8166 87 65.9564 85.8062 66.1087C84.6124 66.2611 83.4567 66.4389 82.3391 66.6421C81.2469 66.8199 80.2564 66.9977 79.3674 67.1755L78.8721 61.9559ZM104.437 68.2804C104.767 68.7376 105.11 69.2837 105.466 69.9187C105.847 70.5283 106.215 71.1506 106.57 71.7856C106.926 72.3952 107.231 72.954 107.485 73.462L104.589 74.7573C104.107 73.6906 103.637 72.7508 103.18 71.938C102.748 71.1252 102.227 70.2997 101.618 69.4615L104.437 68.2804ZM108.704 66.5278C109.034 66.985 109.39 67.5184 109.771 68.128C110.177 68.7122 110.571 69.3218 110.952 69.9568C111.333 70.5664 111.65 71.1125 111.904 71.5951L109.047 72.9667C108.539 71.9507 108.044 71.049 107.561 70.2616C107.104 69.4742 106.558 68.6614 105.923 67.8232L108.704 66.5278Z" fill="#FF9122"/>
<path d="M47.7067 66.4511H74.1478V70.0325H47.7067V66.4511ZM47.9734 77.5381H68.8901V81.1194H47.9734V77.5381ZM52.8502 63.9365H57.1554V72.5851H64.1658V63.9365H68.6234V76.0141H52.8502V63.9365ZM67.7471 77.5381H68.6234L69.4235 77.3857L72.281 78.8335C71.265 80.8908 69.9315 82.6561 68.2805 84.1293C66.6549 85.5771 64.788 86.7963 62.6799 87.7869C60.5971 88.7774 58.3365 89.5648 55.8981 90.149C53.4598 90.7586 50.9071 91.2412 48.2401 91.5968C48.0623 91.0126 47.7829 90.3395 47.4019 89.5775C47.0464 88.8409 46.6908 88.2314 46.3352 87.7488C48.7481 87.5456 51.0722 87.2154 53.3074 86.7582C55.5679 86.301 57.638 85.6914 59.5176 84.9294C61.3972 84.1674 63.0355 83.2276 64.4324 82.11C65.8548 80.967 66.9597 79.6462 67.7471 78.1477V77.5381ZM55.8219 80.3574C56.9649 81.7798 58.4889 82.999 60.3939 84.015C62.2989 85.0056 64.4959 85.8057 66.9851 86.4153C69.4743 87.0249 72.1921 87.4567 75.1384 87.7107C74.8082 88.0155 74.4653 88.3965 74.1097 88.8536C73.7795 89.3362 73.462 89.8188 73.1572 90.3014C72.8778 90.784 72.6366 91.2285 72.4334 91.6349C69.36 91.2285 66.5406 90.6189 63.9753 89.8061C61.4099 88.9933 59.1112 87.9266 57.0792 86.6058C55.0473 85.2596 53.3201 83.6467 51.8977 81.7671L55.8219 80.3574ZM56.0124 55.707H60.7749V61.4601H56.0124V55.707ZM44.5826 59.1741H74.3764V63.2507H44.5826V59.1741ZM42.3728 59.1741H46.7543V69.8801C46.7543 71.4548 46.7035 73.1693 46.6019 75.0235C46.5003 76.8777 46.3098 78.7827 46.0304 80.7384C45.751 82.6942 45.3319 84.5992 44.7731 86.4534C44.2397 88.2821 43.5412 89.9331 42.6776 91.4063C42.4236 91.1523 42.068 90.8475 41.6108 90.4919C41.1536 90.1617 40.6837 89.8442 40.2011 89.5394C39.7185 89.2346 39.2994 89.0187 38.9438 88.8917C39.7312 87.5456 40.3535 86.0597 40.8107 84.4341C41.2679 82.8085 41.6108 81.1575 41.8394 79.4812C42.068 77.7794 42.2077 76.103 42.2585 74.452C42.3347 72.801 42.3728 71.277 42.3728 69.8801V59.1741Z" fill="#FF9122"/>
<path d="M13.417 59.0217H37.0388V63.3651H13.417V59.0217ZM30.1428 60.5838H34.7147V86.1105C34.7147 87.4059 34.5496 88.4092 34.2194 89.1203C33.9146 89.8315 33.3558 90.3649 32.543 90.7205C31.7048 91.0507 30.638 91.2666 29.3427 91.3682C28.0473 91.4952 26.5106 91.546 24.7326 91.5206C24.6564 90.8856 24.4659 90.1109 24.1611 89.1965C23.8563 88.3076 23.5388 87.5329 23.2086 86.8725C24.0468 86.8979 24.8596 86.9233 25.647 86.9487C26.4598 86.9741 27.171 86.9868 27.7806 86.9868C28.4156 86.9868 28.8601 86.9868 29.1141 86.9868C29.4951 86.9868 29.7618 86.9233 29.9142 86.7963C30.0666 86.6439 30.1428 86.4026 30.1428 86.0724V60.5838ZM13.8742 67.5179H18.1795V83.8626H13.8742V67.5179ZM15.7411 67.5179H26.6376V81.3861H15.7411V77.4238H22.4085V71.4422H15.7411V67.5179ZM9.4928 55.6689L13.798 57.0405C12.9853 59.1487 12.0328 61.2823 10.9406 63.4413C9.84839 65.6002 8.65461 67.6322 7.35922 69.5372C6.08924 71.4422 4.76845 73.1185 3.39687 74.5663C3.24447 74.1853 3.02857 73.7027 2.74918 73.1185C2.46978 72.5089 2.16498 71.8993 1.83479 71.2898C1.50459 70.6548 1.21249 70.1595 0.958496 69.8039C2.10148 68.6609 3.19367 67.3401 4.23506 65.8415C5.30184 64.3175 6.29243 62.692 7.20682 60.9648C8.12121 59.2122 8.8832 57.4469 9.4928 55.6689ZM6.06384 66.3749L10.5977 61.803L10.6358 61.8411V91.4063H6.06384V66.3749Z" fill="#FF9122"/>
<path d="M321.817 6.46006C322.986 6.61246 324.294 6.72676 325.741 6.80296C327.215 6.85376 328.701 6.87916 330.199 6.87916C331.723 6.85376 333.184 6.80296 334.581 6.72676C335.978 6.62516 337.184 6.52356 338.2 6.42196V11.3368C337.032 11.4384 335.749 11.5273 334.352 11.6035C332.955 11.6543 331.52 11.6797 330.047 11.6797C328.574 11.6797 327.126 11.6543 325.703 11.6035C324.306 11.5273 323.011 11.4384 321.817 11.3368V6.46006ZM324.865 22.7286C324.713 23.3636 324.599 23.9351 324.522 24.443C324.446 24.9256 324.408 25.4209 324.408 25.9289C324.408 26.3353 324.51 26.7163 324.713 27.0719C324.916 27.4021 325.221 27.6942 325.627 27.9482C326.059 28.1768 326.605 28.3546 327.265 28.4816C327.951 28.5832 328.777 28.634 329.742 28.634C331.444 28.634 333.044 28.5578 334.542 28.4054C336.041 28.2276 337.629 27.9736 339.305 27.6434L339.381 32.7868C338.162 33.0154 336.752 33.1932 335.152 33.3202C333.577 33.4472 331.71 33.5107 329.551 33.5107C326.275 33.5107 323.837 32.9646 322.236 31.8725C320.636 30.7549 319.836 29.2182 319.836 27.2624C319.836 26.5258 319.887 25.7638 319.988 24.9764C320.115 24.1637 320.281 23.2747 320.484 22.3095L324.865 22.7286ZM315.95 3.90739C315.848 4.16139 315.734 4.51698 315.607 4.97418C315.48 5.43137 315.353 5.87587 315.226 6.30766C315.124 6.73946 315.048 7.06965 314.997 7.29825C314.921 7.83164 314.794 8.53014 314.616 9.39373C314.464 10.2319 314.299 11.1844 314.121 12.2512C313.969 13.2926 313.816 14.3594 313.664 15.4516C313.512 16.5437 313.385 17.5978 313.283 18.6138C313.207 19.6298 313.169 20.5188 313.169 21.2808C313.169 21.6364 313.169 22.0428 313.169 22.5C313.194 22.9572 313.245 23.3763 313.321 23.7573C313.499 23.3255 313.689 22.8937 313.893 22.4619C314.096 22.0301 314.299 21.5983 314.502 21.1665C314.705 20.7093 314.883 20.2775 315.035 19.8711L317.398 21.738C317.042 22.7794 316.674 23.897 316.293 25.0907C315.937 26.2845 315.607 27.4148 315.302 28.4816C315.023 29.523 314.807 30.3866 314.655 31.0724C314.604 31.3518 314.553 31.6693 314.502 32.0249C314.477 32.3805 314.464 32.6599 314.464 32.8631C314.464 33.0662 314.464 33.3075 314.464 33.5869C314.489 33.8917 314.515 34.1711 314.54 34.4251L310.121 34.7299C309.74 33.4091 309.397 31.6566 309.092 29.4722C308.787 27.2624 308.635 24.8621 308.635 22.2714C308.635 20.849 308.698 19.4012 308.825 17.928C308.952 16.4548 309.105 15.0452 309.282 13.699C309.46 12.3274 309.625 11.0828 309.778 9.96522C309.956 8.84763 310.108 7.92054 310.235 7.18395C310.286 6.65056 310.349 6.05367 310.425 5.39327C310.527 4.70748 310.591 4.05979 310.616 3.4502L315.95 3.90739Z" fill="#494949"/>
<path d="M294.234 4.55498C294.411 5.74876 294.665 7.01875 294.996 8.36493C295.351 9.68572 295.821 11.0446 296.405 12.4416C297.015 13.8386 297.802 15.2356 298.767 16.6325C299.733 18.0295 300.939 19.4011 302.387 20.7473L299.301 25.1287C297.904 23.5794 296.621 21.8522 295.453 19.9472C294.31 18.0168 293.243 15.8832 292.252 13.5465C291.262 11.2097 290.322 8.65703 289.433 5.88846L294.234 4.55498ZM269.164 6.45996C269.85 6.51076 270.561 6.51076 271.298 6.45996C272.212 6.40916 273.253 6.33296 274.422 6.23136C275.59 6.10436 276.771 5.96466 277.965 5.81226C279.159 5.63446 280.264 5.44397 281.28 5.24077C282.296 5.01217 283.121 4.78358 283.756 4.55498L285.204 8.78403C284.925 8.88563 284.607 9.01263 284.251 9.16502C283.896 9.29202 283.566 9.44442 283.261 9.62222C282.753 10.0032 282.156 10.5493 281.47 11.2605C280.81 11.9463 280.124 12.7591 279.413 13.6989C278.727 14.6387 278.092 15.6927 277.508 16.8611C276.924 18.0041 276.441 19.2487 276.06 20.5949C275.704 21.9157 275.527 23.3127 275.527 24.7858C275.527 25.9034 275.692 26.8559 276.022 27.6433C276.378 28.4307 276.847 29.0657 277.432 29.5483C278.016 30.0309 278.714 30.3992 279.527 30.6532C280.34 30.8818 281.191 30.9961 282.08 30.9961C284.975 30.9961 287.185 30.0055 288.709 28.0243C290.259 26.0431 291.122 23.2492 291.3 19.6424C291.503 16.0102 291.046 11.7812 289.928 6.95525L294.386 14.2323C294.792 16.2896 295.021 18.3597 295.072 20.4425C295.148 22.4999 294.983 24.4683 294.576 26.3479C294.17 28.2275 293.459 29.9039 292.443 31.3771C291.427 32.8502 290.055 34.0059 288.328 34.8441C286.626 35.6823 284.518 36.1014 282.004 36.1014C280.454 36.1014 278.994 35.8855 277.622 35.4537C276.276 35.0473 275.07 34.4123 274.003 33.5487C272.961 32.7105 272.136 31.6565 271.526 30.3865C270.942 29.0911 270.65 27.5798 270.65 25.8526C270.65 24.3032 270.802 22.8428 271.107 21.4712C271.412 20.0996 271.831 18.8042 272.364 17.585C272.923 16.3404 273.571 15.134 274.308 13.9656C275.07 12.7972 275.882 11.6415 276.746 10.4985C276.289 10.5239 275.73 10.5747 275.07 10.6509C274.435 10.7271 273.812 10.8033 273.203 10.8795C272.618 10.9557 272.136 11.0192 271.755 11.07C271.374 11.1208 271.006 11.1716 270.65 11.2224C270.32 11.2732 269.939 11.3367 269.507 11.4129L269.164 6.45996ZM297.663 2.4595C297.891 2.9675 298.145 3.55169 298.425 4.21208C298.704 4.87247 298.971 5.53287 299.225 6.19326C299.479 6.82825 299.695 7.41244 299.872 7.94584L297.015 8.89833C296.812 8.28873 296.583 7.66644 296.329 7.03145C296.1 6.37106 295.859 5.72337 295.605 5.08837C295.351 4.45338 295.084 3.86919 294.805 3.33579L297.663 2.4595ZM301.739 1.01172C302.171 1.79911 302.59 2.7262 302.996 3.79299C303.428 4.83437 303.797 5.73606 304.101 6.49806L301.244 7.45054C300.939 6.58696 300.584 5.65987 300.177 4.66928C299.796 3.65329 299.402 2.7516 298.996 1.96421L301.739 1.01172Z" fill="#494949"/>
<path d="M246.609 2.68864C246.456 3.19663 246.304 3.81893 246.152 4.55552C245.999 5.29211 245.885 5.8636 245.809 6.27C245.631 7.13359 245.402 8.18768 245.123 9.43226C244.869 10.6768 244.577 11.9976 244.247 13.3946C243.942 14.7916 243.624 16.1251 243.294 17.3951C242.964 18.7413 242.558 20.2017 242.075 21.7765C241.592 23.3259 241.072 24.9134 240.513 26.539C239.979 28.1391 239.433 29.6758 238.875 31.149C238.316 32.5968 237.77 33.8922 237.236 35.0352L231.94 33.2445C232.499 32.2793 233.096 31.1109 233.731 29.7393C234.366 28.3423 234.976 26.8438 235.56 25.2436C236.169 23.6434 236.728 22.0559 237.236 20.4811C237.744 18.9063 238.176 17.4459 238.532 16.0997C238.786 15.2107 239.027 14.2963 239.256 13.3565C239.484 12.4167 239.687 11.5023 239.865 10.6133C240.043 9.72436 240.195 8.89887 240.322 8.13688C240.475 7.34948 240.589 6.66369 240.665 6.0795C240.741 5.36831 240.792 4.65712 240.818 3.94593C240.843 3.23473 240.83 2.66324 240.78 2.23145L246.609 2.68864ZM236.893 8.36547C238.443 8.36547 240.056 8.28927 241.732 8.13688C243.408 7.98448 245.097 7.76858 246.799 7.48918C248.501 7.20979 250.19 6.87959 251.867 6.4986V11.261C250.292 11.6166 248.615 11.9214 246.837 12.1754C245.059 12.4294 243.307 12.6326 241.58 12.785C239.852 12.912 238.265 12.9755 236.817 12.9755C235.903 12.9755 235.077 12.9628 234.341 12.9374C233.604 12.8866 232.893 12.8485 232.207 12.8231L232.093 8.06068C233.083 8.16228 233.934 8.23847 234.646 8.28928C235.357 8.34007 236.106 8.36547 236.893 8.36547ZM248.857 14.1947C249.923 14.0931 251.105 14.0042 252.4 13.928C253.695 13.8518 254.953 13.8137 256.172 13.8137C257.264 13.8137 258.369 13.8391 259.486 13.8899C260.629 13.9407 261.76 14.0296 262.877 14.1566L262.763 18.7286C261.823 18.6016 260.782 18.5 259.639 18.4238C258.521 18.3222 257.378 18.2714 256.21 18.2714C254.914 18.2714 253.657 18.3095 252.438 18.3857C251.244 18.4365 250.05 18.5381 248.857 18.6905V14.1947ZM250.914 23.7958C250.762 24.3292 250.635 24.888 250.533 25.4722C250.431 26.031 250.381 26.5263 250.381 26.9581C250.381 27.3644 250.47 27.7454 250.647 28.101C250.825 28.4566 251.105 28.7741 251.486 29.0535C251.866 29.3075 252.387 29.5107 253.048 29.6631C253.733 29.8155 254.584 29.8917 255.6 29.8917C256.896 29.8917 258.191 29.8282 259.486 29.7012C260.807 29.5488 262.153 29.3456 263.525 29.0916L263.334 33.9684C262.268 34.0954 261.087 34.2097 259.791 34.3113C258.496 34.4383 257.086 34.5018 255.562 34.5018C252.362 34.5018 249.911 33.9811 248.209 32.9397C246.533 31.8729 245.694 30.3743 245.694 28.4439C245.694 27.5803 245.771 26.7041 245.923 25.8151C246.075 24.9261 246.228 24.1006 246.38 23.3386L250.914 23.7958Z" fill="#494949"/>
<path d="M198.832 4.05977C199.365 4.13597 199.937 4.18677 200.546 4.21217C201.156 4.23757 201.74 4.25027 202.299 4.25027C202.705 4.25027 203.315 4.25027 204.128 4.25027C204.94 4.22487 205.855 4.19947 206.871 4.17407C207.912 4.14867 208.941 4.12327 209.957 4.09787C210.973 4.07247 211.887 4.04707 212.7 4.02168C213.538 3.97087 214.186 3.93277 214.643 3.90738C215.431 3.83118 216.053 3.76768 216.51 3.71688C216.967 3.64068 217.31 3.56448 217.539 3.48828L220.015 6.87914C219.583 7.15854 219.139 7.43793 218.682 7.71733C218.225 7.99673 217.78 8.30152 217.348 8.63172C216.84 8.98732 216.231 9.45721 215.519 10.0414C214.808 10.6002 214.046 11.1971 213.234 11.8321C212.446 12.4671 211.671 13.0894 210.909 13.699C210.173 14.3086 209.5 14.8546 208.89 15.3372C209.525 15.1848 210.135 15.0832 210.719 15.0324C211.303 14.9562 211.9 14.9181 212.51 14.9181C214.669 14.9181 216.599 15.3372 218.301 16.1754C220.028 17.0136 221.387 18.1566 222.377 19.6044C223.393 21.0268 223.901 22.6651 223.901 24.5192C223.901 26.5258 223.393 28.3419 222.377 29.9675C221.361 31.593 219.825 32.8884 217.767 33.8536C215.735 34.8188 213.183 35.3014 210.109 35.3014C208.357 35.3014 206.769 35.0474 205.347 34.5394C203.95 34.0314 202.845 33.3075 202.032 32.3677C201.219 31.4279 200.813 30.3231 200.813 29.0531C200.813 28.0117 201.092 27.0465 201.651 26.1575C202.235 25.2431 203.036 24.5065 204.052 23.9477C205.093 23.3889 206.287 23.1095 207.633 23.1095C209.385 23.1095 210.859 23.4651 212.052 24.1763C213.272 24.8621 214.199 25.7892 214.834 26.9576C215.494 28.126 215.837 29.4087 215.862 30.8057L211.405 31.4153C211.379 30.0183 211.024 28.9007 210.338 28.0625C209.678 27.1989 208.789 26.7671 207.671 26.7671C206.96 26.7671 206.388 26.9576 205.956 27.3386C205.525 27.6942 205.309 28.1133 205.309 28.5959C205.309 29.3071 205.664 29.8786 206.376 30.3104C207.087 30.7422 208.014 30.9581 209.157 30.9581C211.316 30.9581 213.119 30.7041 214.567 30.1961C216.015 29.6627 217.094 28.9134 217.805 27.9482C218.542 26.9576 218.91 25.7892 218.91 24.443C218.91 23.3 218.555 22.2968 217.844 21.4332C217.158 20.5696 216.218 19.8965 215.024 19.4139C213.83 18.9313 212.484 18.69 210.986 18.69C209.512 18.69 208.166 18.8805 206.947 19.2615C205.728 19.6171 204.572 20.1378 203.48 20.8236C202.413 21.484 201.359 22.2968 200.318 23.2619C199.302 24.2017 198.286 25.2558 197.27 26.4242L193.803 22.8429C194.489 22.2841 195.263 21.6618 196.127 20.976C196.99 20.2648 197.867 19.5282 198.756 18.7662C199.67 18.0042 200.521 17.293 201.308 16.6326C202.121 15.9468 202.807 15.3753 203.366 14.9181C203.899 14.4864 204.521 13.9784 205.233 13.3942C205.944 12.81 206.68 12.2131 207.442 11.6035C208.204 10.9685 208.928 10.3716 209.614 9.81281C210.3 9.22861 210.871 8.73332 211.329 8.32692C210.948 8.32692 210.452 8.33962 209.843 8.36502C209.233 8.39042 208.56 8.41582 207.823 8.44122C207.112 8.46662 206.388 8.49202 205.652 8.51742C204.94 8.54282 204.267 8.58092 203.632 8.63172C203.023 8.65712 202.515 8.68252 202.108 8.70792C201.6 8.73332 201.067 8.77142 200.508 8.82222C199.949 8.87302 199.441 8.93651 198.984 9.01271L198.832 4.05977Z" fill="#494949"/>
<path d="M177.23 2.38379C177.204 2.58699 177.166 2.91718 177.116 3.37438C177.09 3.80617 177.065 4.25067 177.039 4.70786C177.014 5.13966 176.989 5.45715 176.963 5.66035C176.938 6.16834 176.925 6.85414 176.925 7.71773C176.925 8.55592 176.925 9.49571 176.925 10.5371C176.925 11.5785 176.925 12.6326 176.925 13.6994C176.95 14.7407 176.963 15.7313 176.963 16.6711C176.989 17.5855 177.001 18.3475 177.001 18.9571L172.239 17.3569C172.239 16.8743 172.239 16.2393 172.239 15.4519C172.239 14.6391 172.239 13.7629 172.239 12.8231C172.239 11.8579 172.226 10.9054 172.201 9.9656C172.201 9.02581 172.188 8.17492 172.163 7.41293C172.137 6.65094 172.112 6.07945 172.086 5.69845C172.036 4.91106 171.972 4.22527 171.896 3.64107C171.82 3.03148 171.756 2.61239 171.705 2.38379H177.23ZM155.704 7.10813C156.821 7.10813 158.091 7.09543 159.514 7.07003C160.936 7.04464 162.422 7.01924 163.971 6.99383C165.521 6.96844 167.045 6.94304 168.543 6.91764C170.042 6.89224 171.451 6.87954 172.772 6.87954C174.093 6.85414 175.236 6.84144 176.201 6.84144C177.166 6.84144 178.22 6.84144 179.363 6.84144C180.506 6.81604 181.637 6.80334 182.754 6.80334C183.872 6.80334 184.888 6.80334 185.802 6.80334C186.742 6.80334 187.466 6.80334 187.974 6.80334L187.936 11.2991C186.742 11.2483 185.167 11.2102 183.211 11.1848C181.256 11.134 178.868 11.1086 176.049 11.1086C174.322 11.1086 172.569 11.134 170.791 11.1848C169.013 11.2102 167.248 11.2483 165.495 11.2991C163.743 11.3499 162.054 11.4134 160.428 11.4896C158.802 11.5404 157.266 11.6166 155.818 11.7182L155.704 7.10813ZM176.315 18.3856C176.315 20.4684 176.061 22.1956 175.553 23.5671C175.071 24.9387 174.334 25.9801 173.344 26.6913C172.353 27.3771 171.121 27.72 169.648 27.72C168.937 27.72 168.188 27.5676 167.4 27.2628C166.638 26.958 165.927 26.5135 165.267 25.9293C164.606 25.3451 164.073 24.6212 163.666 23.7576C163.285 22.894 163.095 21.8781 163.095 20.7097C163.095 19.2619 163.438 18.0173 164.124 16.9759C164.809 15.9091 165.724 15.0836 166.867 14.4994C168.035 13.8899 169.318 13.5851 170.715 13.5851C172.391 13.5851 173.788 13.9661 174.906 14.728C176.049 15.4646 176.9 16.4679 177.458 17.7379C178.043 19.0079 178.335 20.443 178.335 22.0432C178.335 23.2877 178.132 24.5831 177.725 25.9293C177.319 27.2755 176.646 28.5963 175.706 29.8917C174.791 31.1616 173.547 32.3173 171.972 33.3587C170.423 34.4001 168.48 35.251 166.143 35.9114L162.066 31.8728C163.692 31.5426 165.203 31.1109 166.6 30.5775C167.997 30.0441 169.216 29.371 170.258 28.5582C171.324 27.7454 172.15 26.7421 172.734 25.5483C173.344 24.3545 173.648 22.9194 173.648 21.2431C173.648 20.0239 173.344 19.1095 172.734 18.4999C172.15 17.8903 171.439 17.5855 170.601 17.5855C170.118 17.5855 169.648 17.6998 169.191 17.9284C168.734 18.157 168.365 18.4999 168.086 18.9571C167.807 19.4143 167.667 19.9731 167.667 20.6335C167.667 21.4971 167.959 22.1956 168.543 22.7289C169.153 23.2369 169.839 23.4909 170.601 23.4909C171.21 23.4909 171.744 23.3004 172.201 22.9194C172.683 22.5384 173.001 21.9035 173.153 21.0145C173.306 20.1255 173.179 18.9317 172.772 17.4331L176.315 18.3856Z" fill="#494949"/>
<path d="M137.187 0.897461H141.645V6.91719H137.187V0.897461ZM128.691 4.89791H150.788V12.4416H146.559V8.78407H132.729V12.4416H128.691V4.89791ZM131.51 11.8701H147.855V15.7944H131.51V11.8701ZM129.224 18.5757H150.598V22.6523H129.224V18.5757ZM133.529 20.5187H137.873C137.797 22.5761 137.619 24.443 137.339 26.1194C137.085 27.7703 136.628 29.2562 135.968 30.577C135.333 31.8724 134.393 33.0027 133.148 33.9679C131.904 34.9585 130.265 35.7966 128.234 36.4824C128.107 36.1014 127.903 35.6823 127.624 35.2252C127.37 34.7934 127.078 34.3616 126.748 33.9298C126.417 33.498 126.1 33.1551 125.795 32.9011C127.522 32.3931 128.894 31.7708 129.91 31.0342C130.926 30.2976 131.675 29.434 132.158 28.4434C132.666 27.4274 133.009 26.2718 133.186 24.9764C133.364 23.6556 133.479 22.1697 133.529 20.5187ZM140.578 20.0615H144.845V30.8818C144.845 31.466 144.87 31.8216 144.921 31.9486C144.997 32.0756 145.175 32.1391 145.455 32.1391C145.531 32.1391 145.658 32.1391 145.836 32.1391C146.013 32.1391 146.178 32.1391 146.331 32.1391C146.509 32.1391 146.648 32.1391 146.75 32.1391C146.928 32.1391 147.067 32.0375 147.169 31.8343C147.296 31.6311 147.385 31.212 147.436 30.577C147.486 29.9166 147.525 28.9387 147.55 27.6433C147.829 27.8719 148.185 28.1005 148.617 28.3291C149.074 28.5577 149.544 28.7609 150.026 28.9387C150.534 29.1165 150.966 29.2562 151.322 29.3578C151.22 31.1358 151.004 32.5201 150.674 33.5107C150.369 34.5013 149.938 35.1871 149.379 35.5681C148.845 35.9744 148.121 36.1776 147.207 36.1776C147.055 36.1776 146.864 36.1776 146.636 36.1776C146.407 36.1776 146.166 36.1776 145.912 36.1776C145.683 36.1776 145.455 36.1776 145.226 36.1776C144.997 36.1776 144.807 36.1776 144.654 36.1776C143.562 36.1776 142.711 36.0125 142.102 35.6824C141.518 35.3522 141.111 34.7934 140.883 34.006C140.679 33.244 140.578 32.2153 140.578 30.9199V20.0615ZM116.956 2.34524H125.948V6.45999H120.957V36.5205H116.956V2.34524ZM124.576 2.34524H125.3L125.948 2.19284L128.919 3.90732C128.615 4.97411 128.272 6.1298 127.891 7.37438C127.51 8.61897 127.116 9.83815 126.71 11.0319C126.329 12.2257 125.96 13.3179 125.605 14.3085C126.773 15.7563 127.535 17.1279 127.891 18.4233C128.246 19.7186 128.424 20.9251 128.424 22.0427C128.424 23.2619 128.284 24.2779 128.005 25.0907C127.751 25.9035 127.319 26.5258 126.71 26.9576C126.405 27.1607 126.062 27.3258 125.681 27.4528C125.325 27.5798 124.944 27.6814 124.538 27.7576C123.827 27.8338 122.988 27.8592 122.023 27.8338C121.998 27.3004 121.896 26.6528 121.718 25.8908C121.566 25.1288 121.338 24.4811 121.033 23.9477C121.388 23.9731 121.693 23.9858 121.947 23.9858C122.226 23.9858 122.48 23.9858 122.709 23.9858C123.166 23.9604 123.522 23.8461 123.776 23.6429C124.004 23.4651 124.157 23.1984 124.233 22.8428C124.335 22.4618 124.385 22.0046 124.385 21.4712C124.385 20.5822 124.208 19.5662 123.852 18.4233C123.522 17.2803 122.823 16.0738 121.757 14.8038C122.011 13.9402 122.265 13.0004 122.519 11.9844C122.798 10.943 123.065 9.90165 123.319 8.86027C123.598 7.81888 123.839 6.85369 124.043 5.9647C124.271 5.05031 124.449 4.28832 124.576 3.67873V2.34524Z" fill="#494949"/>
<path d="M84.8763 2.84082H95.6966V7.48897H84.8763V2.84082ZM93.4487 2.84082H98.173C98.173 4.06001 98.2238 5.44429 98.3254 6.99367C98.427 8.51765 98.6429 10.1559 98.9731 11.9085C99.3033 13.6357 99.7986 15.4137 100.459 17.2424C101.119 19.0712 101.996 20.8873 103.088 22.6907C104.205 24.4687 105.602 26.1831 107.279 27.8341C108.955 29.4851 110.962 31.0091 113.299 32.4061C112.968 32.6601 112.562 33.0284 112.079 33.511C111.597 33.9936 111.127 34.4888 110.67 34.9968C110.238 35.5302 109.882 36.0001 109.603 36.4065C107.215 34.9333 105.145 33.2824 103.393 31.4536C101.64 29.5994 100.167 27.6436 98.9731 25.5863C97.7793 23.5035 96.8141 21.408 96.0776 19.2998C95.341 17.1662 94.7822 15.0962 94.4012 13.0896C94.0202 11.0576 93.7662 9.16535 93.6392 7.41277C93.5122 5.66019 93.4487 4.1362 93.4487 2.84082ZM91.8104 11.2227L97.03 12.1752C96.1665 15.9344 95.0108 19.3506 93.563 22.424C92.1152 25.4974 90.3753 28.2024 88.3433 30.5392C86.3368 32.876 84.0127 34.8444 81.3711 36.4446C81.0917 36.1144 80.698 35.708 80.19 35.2254C79.682 34.7682 79.1487 34.2983 78.5899 33.8158C78.0565 33.3586 77.5866 32.9903 77.1802 32.7109C81.1679 30.7043 84.3429 27.8849 86.7051 24.2528C89.0672 20.5952 90.769 16.2519 91.8104 11.2227Z" fill="#494949"/>
</svg>
