<svg width="503" height="87" viewBox="0 0 503 87" fill="none" xmlns="http://www.w3.org/2000/svg">
<path d="M497.058 73.7619L496.046 60.9384L495.858 55.3516H502.083L501.895 60.9384L500.883 73.7619H497.058ZM498.971 83.7357C498.021 83.7357 497.233 83.4232 496.608 82.7983C495.983 82.1734 495.671 81.386 495.671 80.4361C495.671 79.4612 495.983 78.6613 496.608 78.0364C497.233 77.4114 498.021 77.099 498.971 77.099C499.92 77.099 500.708 77.4114 501.333 78.0364C501.958 78.6613 502.27 79.4612 502.27 80.4361C502.27 81.386 501.958 82.1734 501.333 82.7983C500.708 83.4232 499.92 83.7357 498.971 83.7357Z" fill="#494949"/>
<path d="M450.976 54.8271C451.501 54.9021 452.063 54.9521 452.663 54.9771C453.263 55.0021 453.838 55.0146 454.388 55.0146C454.788 55.0146 455.388 55.0146 456.188 55.0146C456.988 54.9896 457.887 54.9646 458.887 54.9396C459.912 54.9146 460.925 54.8896 461.924 54.8646C462.924 54.8396 463.824 54.8146 464.624 54.7896C465.449 54.7396 466.086 54.7021 466.536 54.6771C467.311 54.6021 467.924 54.5396 468.374 54.4896C468.824 54.4146 469.161 54.3396 469.386 54.2646L471.823 57.6017C471.398 57.8767 470.961 58.1517 470.511 58.4267C470.061 58.7016 469.624 59.0016 469.199 59.3265C468.699 59.6765 468.099 60.1389 467.399 60.7139C466.699 61.2638 465.949 61.8512 465.149 62.4762C464.374 63.1011 463.612 63.7135 462.862 64.3134C462.137 64.9134 461.475 65.4508 460.875 65.9258C461.499 65.7758 462.099 65.6758 462.674 65.6258C463.249 65.5508 463.837 65.5133 464.437 65.5133C466.561 65.5133 468.461 65.9258 470.136 66.7507C471.836 67.5756 473.173 68.7004 474.148 70.1253C475.148 71.5251 475.648 73.1374 475.648 74.9622C475.648 76.9369 475.148 78.7242 474.148 80.324C473.148 81.9239 471.636 83.1987 469.611 84.1486C467.611 85.0985 465.099 85.5734 462.074 85.5734C460.35 85.5734 458.787 85.3234 457.388 84.8235C456.013 84.3236 454.925 83.6111 454.125 82.6863C453.325 81.7614 452.926 80.674 452.926 79.4241C452.926 78.3993 453.2 77.4494 453.75 76.5745C454.325 75.6746 455.113 74.9497 456.113 74.3997C457.138 73.8498 458.312 73.5748 459.637 73.5748C461.362 73.5748 462.812 73.9248 463.987 74.6247C465.187 75.2996 466.099 76.212 466.724 77.3619C467.374 78.5118 467.711 79.7741 467.736 81.1489L463.349 81.7489C463.324 80.374 462.974 79.2742 462.299 78.4493C461.649 77.5994 460.775 77.1744 459.675 77.1744C458.975 77.1744 458.412 77.3619 457.987 77.7368C457.562 78.0868 457.35 78.4993 457.35 78.9742C457.35 79.6741 457.7 80.2365 458.4 80.6615C459.1 81.0864 460.012 81.2989 461.137 81.2989C463.262 81.2989 465.037 81.049 466.461 80.549C467.886 80.0241 468.949 79.2867 469.649 78.3368C470.373 77.3619 470.736 76.212 470.736 74.8872C470.736 73.7623 470.386 72.7749 469.686 71.925C469.011 71.0751 468.086 70.4127 466.911 69.9378C465.737 69.4628 464.412 69.2254 462.937 69.2254C461.487 69.2254 460.162 69.4128 458.962 69.7878C457.762 70.1378 456.625 70.6502 455.55 71.3251C454.5 71.975 453.463 72.7749 452.438 73.7248C451.438 74.6497 450.438 75.6871 449.438 76.837L446.026 73.3124C446.701 72.7624 447.464 72.15 448.314 71.4751C449.163 70.7752 450.026 70.0503 450.901 69.3004C451.801 68.5504 452.638 67.8505 453.413 67.2006C454.213 66.5257 454.888 65.9633 455.438 65.5133C455.963 65.0884 456.575 64.5884 457.275 64.0135C457.975 63.4385 458.7 62.8511 459.45 62.2512C460.2 61.6263 460.912 61.0388 461.587 60.4889C462.262 59.914 462.824 59.4265 463.274 59.0266C462.899 59.0266 462.412 59.0391 461.812 59.0641C461.212 59.0891 460.55 59.1141 459.825 59.1391C459.125 59.1641 458.412 59.1891 457.687 59.2141C456.988 59.2391 456.325 59.2766 455.7 59.3265C455.1 59.3515 454.6 59.3765 454.2 59.4015C453.7 59.4265 453.176 59.464 452.626 59.514C452.076 59.564 451.576 59.6265 451.126 59.7015L450.976 54.8271Z" fill="#494949"/>
<path d="M441.789 81.4484C440.914 82.2483 439.902 82.9107 438.752 83.4356C437.602 83.9606 436.265 84.223 434.74 84.223C433.34 84.223 432.203 83.7356 431.328 82.7607C430.478 81.7858 430.053 80.386 430.053 78.5612C430.053 77.5613 430.116 76.4865 430.241 75.3366C430.391 74.1617 430.553 72.9869 430.728 71.812C430.903 70.6372 431.053 69.5248 431.178 68.4749C431.328 67.4 431.403 66.4377 431.403 65.5878C431.403 64.6629 431.178 63.9754 430.728 63.5255C430.278 63.0506 429.653 62.8131 428.853 62.8131C427.979 62.8131 427.004 63.1255 425.929 63.7505C424.854 64.3504 423.754 65.1253 422.629 66.0752C421.504 67.0251 420.429 68.0375 419.405 69.1123C418.405 70.1872 417.53 71.2121 416.78 72.187L416.742 66.4127C417.192 65.9127 417.78 65.3253 418.505 64.6504C419.255 63.9754 420.092 63.2755 421.017 62.5506C421.967 61.8257 422.954 61.1508 423.979 60.5259C425.029 59.8759 426.079 59.351 427.129 58.951C428.204 58.5511 429.241 58.3511 430.241 58.3511C431.591 58.3511 432.69 58.6011 433.54 59.101C434.415 59.576 435.065 60.2384 435.49 61.0883C435.915 61.9132 436.128 62.8506 436.128 63.9005C436.128 64.8753 436.065 65.9377 435.94 67.0876C435.815 68.2124 435.665 69.3623 435.49 70.5372C435.315 71.712 435.165 72.8744 435.04 74.0242C434.94 75.1741 434.89 76.224 434.89 77.1739C434.89 77.6738 435.015 78.0863 435.265 78.4112C435.515 78.7112 435.865 78.8612 436.315 78.8612C437.015 78.8612 437.79 78.6362 438.64 78.1863C439.49 77.7113 440.34 77.0364 441.189 76.1615L441.789 81.4484ZM415.88 63.563C415.48 63.613 414.968 63.6755 414.343 63.7505C413.718 63.8255 413.043 63.913 412.318 64.0129C411.618 64.1129 410.906 64.2129 410.181 64.3129C409.456 64.4129 408.781 64.5004 408.156 64.5754L407.668 59.7759C408.218 59.8009 408.731 59.8134 409.206 59.8134C409.706 59.7884 410.281 59.7634 410.931 59.7384C411.53 59.6885 412.243 59.626 413.068 59.551C413.918 59.451 414.768 59.3385 415.617 59.2135C416.492 59.0885 417.305 58.951 418.055 58.8011C418.805 58.6511 419.392 58.5011 419.817 58.3511L421.317 60.2634C421.092 60.5634 420.829 60.9383 420.529 61.3883C420.254 61.8382 419.967 62.3006 419.667 62.7756C419.367 63.2255 419.105 63.6255 418.88 63.9754L416.667 71.0246C416.267 71.5995 415.767 72.3245 415.168 73.1993C414.593 74.0742 413.98 74.9991 413.33 75.974C412.68 76.9489 412.043 77.8863 411.418 78.7862C410.793 79.6861 410.231 80.4735 409.731 81.1484L406.769 77.0614C407.243 76.4615 407.781 75.774 408.381 74.9991C409.006 74.1992 409.656 73.3618 410.331 72.4869C411.006 71.587 411.668 70.6996 412.318 69.8248C412.968 68.9249 413.568 68.0875 414.118 67.3125C414.693 66.5126 415.168 65.8252 415.543 65.2503L415.617 64.2754L415.88 63.563ZM415.43 56.3639C415.43 55.8139 415.43 55.264 415.43 54.7141C415.43 54.1391 415.38 53.5642 415.28 52.9893L420.754 53.1767C420.604 53.7517 420.442 54.5891 420.267 55.6889C420.117 56.7638 419.954 58.0012 419.78 59.401C419.63 60.8008 419.48 62.2756 419.33 63.8255C419.205 65.3503 419.092 66.8751 418.992 68.3999C418.917 69.9247 418.88 71.3496 418.88 72.6744C418.88 73.6993 418.88 74.7367 418.88 75.7865C418.905 76.8364 418.93 77.9113 418.955 79.0112C418.98 80.111 419.03 81.2484 419.105 82.4232C419.13 82.7482 419.167 83.1982 419.217 83.7731C419.267 84.373 419.317 84.8855 419.367 85.3104H414.193C414.243 84.8605 414.268 84.3605 414.268 83.8106C414.293 83.2607 414.305 82.8357 414.305 82.5357C414.33 81.3109 414.355 80.1735 414.38 79.1236C414.405 78.0738 414.418 76.9614 414.418 75.7865C414.443 74.6117 414.48 73.2493 414.53 71.6995C414.555 71.1246 414.593 70.3997 414.643 69.5248C414.693 68.6249 414.743 67.65 414.793 66.6001C414.868 65.5253 414.943 64.4379 415.018 63.338C415.093 62.2382 415.155 61.2133 415.205 60.2634C415.28 59.2885 415.33 58.4636 415.355 57.7887C415.405 57.0888 415.43 56.6138 415.43 56.3639Z" fill="#494949"/>
<path d="M387.196 56.3637H399.982V60.7507H387.196V56.3637ZM369.348 53.6641H388.283V57.8261H369.348V53.6641ZM374.298 61.3881H383.296V65.4002H374.298V61.3881ZM374.298 69.1872H383.296V73.1992H374.298V69.1872ZM398.745 56.3637H399.532L400.319 56.2138L403.244 56.9637C402.769 62.0381 401.894 66.4625 400.619 70.2371C399.37 74.0116 397.732 77.2363 395.708 79.9109C393.683 82.5856 391.246 84.7854 388.396 86.5101C388.071 85.9352 387.621 85.2728 387.046 84.5229C386.496 83.798 385.971 83.2355 385.471 82.8356C387.971 81.5107 390.133 79.6485 391.958 77.2487C393.783 74.824 395.27 71.9369 396.42 68.5873C397.595 65.2127 398.37 61.4631 398.745 57.3386V56.3637ZM391.62 60.8632C392.22 64.0878 393.083 67.125 394.208 69.9746C395.333 72.8243 396.757 75.349 398.482 77.5487C400.207 79.7485 402.269 81.4982 404.669 82.7981C404.344 83.0731 403.969 83.423 403.544 83.848C403.144 84.2979 402.769 84.7479 402.419 85.1978C402.069 85.6727 401.782 86.1102 401.557 86.5101C398.932 84.9103 396.695 82.8981 394.845 80.4734C393.02 78.0487 391.508 75.249 390.308 72.0744C389.108 68.8997 388.108 65.4377 387.309 61.6881L391.62 60.8632ZM371.935 55.3514H376.21V79.8734H371.935V55.3514ZM381.572 55.3514H385.884V86.7351H381.572V55.3514ZM368.448 78.2236C369.698 78.0986 371.11 77.9362 372.685 77.7362C374.285 77.5362 375.972 77.3112 377.747 77.0613C379.547 76.8113 381.322 76.5613 383.072 76.3114L383.296 80.4359C380.872 80.8608 378.422 81.2733 375.947 81.6732C373.473 82.0482 371.26 82.3981 369.311 82.7231L368.448 78.2236Z" fill="#494949"/>
<path d="M359.412 53.5898C359.362 53.9898 359.325 54.4147 359.3 54.8647C359.275 55.2896 359.25 55.7146 359.225 56.1395C359.2 56.4895 359.187 57.0269 359.187 57.7518C359.212 58.4518 359.225 59.2517 359.225 60.1516C359.225 61.0265 359.225 61.9263 359.225 62.8512C359.225 63.7511 359.225 64.5885 359.225 65.3634C359.25 66.1383 359.262 66.7383 359.262 67.1632C359.262 69.388 359.175 71.4127 359 73.2375C358.85 75.0373 358.5 76.6996 357.95 78.2244C357.425 79.7492 356.612 81.1616 355.513 82.4614C354.438 83.7612 352.963 85.0111 351.088 86.211L346.776 82.7989C347.476 82.4989 348.251 82.0739 349.101 81.524C349.951 80.9491 350.626 80.3741 351.126 79.7992C351.85 79.0493 352.438 78.2619 352.888 77.437C353.338 76.6121 353.688 75.6997 353.938 74.6998C354.213 73.6999 354.388 72.5876 354.463 71.3627C354.563 70.1379 354.613 68.7255 354.613 67.1257C354.613 66.4508 354.613 65.6009 354.613 64.576C354.613 63.5512 354.6 62.4888 354.575 61.3889C354.55 60.289 354.525 59.2767 354.5 58.3518C354.475 57.4019 354.438 56.677 354.388 56.177C354.363 55.7021 354.3 55.2271 354.2 54.7522C354.125 54.2773 354.05 53.8898 353.975 53.5898H359.412ZM344.639 60.9015C345.239 60.9765 345.851 61.0515 346.476 61.1264C347.101 61.1764 347.726 61.2264 348.351 61.2764C349.001 61.3014 349.651 61.3139 350.301 61.3139C351.925 61.3139 353.625 61.2764 355.4 61.2014C357.175 61.1264 358.887 61.014 360.537 60.864C362.187 60.689 363.624 60.489 364.849 60.264L364.811 65.1385C363.637 65.2635 362.249 65.3884 360.649 65.5134C359.05 65.6134 357.362 65.7009 355.588 65.7759C353.838 65.8259 352.113 65.8509 350.413 65.8509C349.888 65.8509 349.288 65.8384 348.613 65.8134C347.938 65.7884 347.264 65.7634 346.589 65.7384C345.914 65.7134 345.264 65.6884 344.639 65.6634V60.9015ZM340.777 54.2273C340.627 54.6772 340.464 55.2022 340.289 55.8021C340.114 56.377 339.977 56.8645 339.877 57.2644C339.652 58.2893 339.414 59.5266 339.165 60.9765C338.915 62.4013 338.702 63.8886 338.527 65.4384C338.352 66.9882 338.265 68.5131 338.265 70.0129C338.265 71.4877 338.39 72.8001 338.64 73.9499C338.89 73.375 339.177 72.6876 339.502 71.8877C339.827 71.0628 340.139 70.3004 340.439 69.6004L342.764 71.1003C342.414 72.1751 342.064 73.2875 341.714 74.4374C341.389 75.5622 341.102 76.6371 340.852 77.662C340.602 78.6619 340.389 79.5242 340.214 80.2492C340.139 80.5241 340.077 80.8491 340.027 81.224C340.002 81.574 339.989 81.8615 339.989 82.0864C339.989 82.2614 339.989 82.4989 339.989 82.7989C340.014 83.0988 340.039 83.3738 340.064 83.6238L335.902 84.0362C335.627 83.2863 335.315 82.2614 334.965 80.9616C334.64 79.6367 334.353 78.1869 334.103 76.6121C333.878 75.0123 333.765 73.4375 333.765 71.8877C333.765 69.8379 333.828 67.8631 333.953 65.9634C334.103 64.0636 334.278 62.3388 334.478 60.789C334.678 59.2142 334.84 57.9268 334.965 56.9269C335.065 56.402 335.127 55.8521 335.152 55.2771C335.177 54.6772 335.202 54.1398 335.227 53.6648L340.777 54.2273Z" fill="#494949"/>
<path d="M295.069 62.2885H327.953V70.5001H323.566V66.1881H299.306V70.5001H295.069V62.2885ZM300.506 69.0752H320.266V73.2372H300.506V69.0752ZM323.566 51.3398L326.603 54.9769C324.478 55.3769 322.179 55.7393 319.704 56.0643C317.254 56.3642 314.705 56.6267 312.055 56.8517C309.43 57.0767 306.793 57.2641 304.143 57.4141C301.494 57.5641 298.919 57.6641 296.419 57.7141C296.394 57.1641 296.269 56.5142 296.044 55.7643C295.844 55.0144 295.644 54.3895 295.444 53.8895C297.919 53.8145 300.444 53.7021 303.018 53.5521C305.618 53.4021 308.155 53.2271 310.63 53.0271C313.13 52.8022 315.48 52.5522 317.679 52.2772C319.879 51.9773 321.841 51.6648 323.566 51.3398ZM298.744 58.4265L302.644 57.3391C303.094 58.014 303.518 58.764 303.918 59.5889C304.343 60.4138 304.643 61.1387 304.818 61.7636L300.656 62.9635C300.531 62.3385 300.281 61.6011 299.906 60.7512C299.531 59.9013 299.144 59.1264 298.744 58.4265ZM308.643 57.6391L312.617 56.7392C312.992 57.5141 313.342 58.3515 313.667 59.2514C314.017 60.1513 314.242 60.9387 314.342 61.6136L310.105 62.6635C310.03 61.9886 309.843 61.1762 309.543 60.2263C309.268 59.2764 308.968 58.414 308.643 57.6391ZM320.529 56.6642L325.291 57.7891C324.866 58.589 324.428 59.3764 323.978 60.1513C323.529 60.9262 323.079 61.6636 322.629 62.3635C322.179 63.0384 321.766 63.6384 321.391 64.1633L317.679 63.1134C318.029 62.4885 318.379 61.8136 318.729 61.0887C319.104 60.3388 319.442 59.5764 319.742 58.8015C320.066 58.0265 320.329 57.3141 320.529 56.6642ZM318.617 69.0752H319.554L320.341 68.9252L323.416 70.7625C322.291 73.2122 320.829 75.337 319.029 77.1368C317.254 78.9116 315.205 80.4114 312.88 81.6362C310.555 82.8611 308.03 83.861 305.306 84.6359C302.606 85.4108 299.781 85.9982 296.832 86.3982C296.682 86.0232 296.457 85.5733 296.157 85.0483C295.857 84.5484 295.532 84.0484 295.182 83.5485C294.832 83.0736 294.507 82.6861 294.207 82.3861C297.082 82.0862 299.819 81.6362 302.419 81.0363C305.018 80.4364 307.38 79.649 309.505 78.6741C311.63 77.6742 313.467 76.4493 315.017 74.9995C316.567 73.5497 317.767 71.8249 318.617 69.8251V69.0752ZM304.968 72.1499C306.368 74.0246 308.218 75.6494 310.518 77.0243C312.842 78.3741 315.529 79.474 318.579 80.3239C321.654 81.1738 325.016 81.7612 328.665 82.0862C328.34 82.4111 328.003 82.8361 327.653 83.361C327.303 83.886 326.966 84.3984 326.641 84.8983C326.341 85.4233 326.091 85.8982 325.891 86.3232C322.141 85.8482 318.717 85.0858 315.617 84.0359C312.517 82.9861 309.743 81.6112 307.293 79.9114C304.843 78.1866 302.756 76.1244 301.031 73.7247L304.968 72.1499Z" fill="#494949"/>
<path d="M272.31 54.0399C272.21 54.5148 272.097 55.0397 271.972 55.6147C271.847 56.1646 271.735 56.677 271.635 57.152C271.535 57.7019 271.41 58.3269 271.26 59.0268C271.11 59.7017 270.96 60.3891 270.81 61.089C270.685 61.7639 270.547 62.4264 270.397 63.0763C270.147 64.1512 269.835 65.401 269.46 66.8258C269.085 68.2507 268.648 69.788 268.148 71.4378C267.648 73.0626 267.085 74.6999 266.46 76.3497C265.835 77.9995 265.173 79.6118 264.473 81.1866C263.773 82.7364 263.023 84.1363 262.223 85.3861L257.349 83.4364C258.224 82.2615 259.036 80.9492 259.786 79.4993C260.561 78.0245 261.261 76.5247 261.886 74.9999C262.511 73.45 263.061 71.9252 263.536 70.4254C264.036 68.9006 264.461 67.4883 264.811 66.1884C265.185 64.8886 265.473 63.7762 265.673 62.8513C266.023 61.1515 266.298 59.5142 266.498 57.9394C266.698 56.3646 266.773 54.8773 266.723 53.4774L272.31 54.0399ZM285.208 57.8269C285.808 58.6518 286.42 59.6642 287.045 60.8641C287.695 62.0389 288.333 63.2888 288.958 64.6136C289.583 65.9384 290.145 67.2133 290.645 68.4381C291.145 69.663 291.532 70.7254 291.807 71.6253L287.045 73.8C286.82 72.7501 286.483 71.5878 286.033 70.3129C285.608 69.0381 285.108 67.7507 284.533 66.4509C283.958 65.126 283.346 63.8762 282.696 62.7013C282.071 61.5265 281.421 60.5391 280.746 59.7392L285.208 57.8269ZM257.086 61.7264C257.761 61.7764 258.424 61.8014 259.074 61.8014C259.749 61.7764 260.424 61.7514 261.098 61.7264C261.723 61.7014 262.473 61.664 263.348 61.614C264.223 61.539 265.148 61.464 266.123 61.389C267.123 61.314 268.123 61.239 269.122 61.164C270.122 61.064 271.047 60.989 271.897 60.939C272.747 60.889 273.447 60.8641 273.997 60.8641C275.347 60.8641 276.522 61.089 277.521 61.539C278.521 61.9639 279.309 62.7013 279.884 63.7512C280.484 64.8011 280.784 66.2259 280.784 68.0257C280.784 69.5005 280.721 71.1003 280.596 72.8251C280.471 74.5499 280.246 76.1997 279.921 77.7745C279.621 79.3493 279.196 80.6867 278.646 81.7866C278.046 83.0864 277.222 83.9863 276.172 84.4862C275.147 84.9862 273.922 85.2361 272.497 85.2361C271.797 85.2361 271.035 85.1737 270.21 85.0487C269.385 84.9487 268.648 84.8362 267.998 84.7112L267.21 79.7618C267.685 79.8868 268.21 80.0118 268.785 80.1368C269.385 80.2617 269.947 80.3617 270.472 80.4367C271.022 80.5117 271.46 80.5492 271.785 80.5492C272.41 80.5492 272.96 80.4367 273.434 80.2117C273.909 79.9618 274.297 79.5368 274.597 78.9369C274.947 78.212 275.234 77.2746 275.459 76.1247C275.684 74.9749 275.847 73.7375 275.947 72.4127C276.072 71.0628 276.134 69.7755 276.134 68.5506C276.134 67.5508 275.984 66.8133 275.684 66.3384C275.409 65.8635 274.997 65.551 274.447 65.401C273.922 65.226 273.272 65.1385 272.497 65.1385C271.922 65.1385 271.147 65.1885 270.172 65.2885C269.197 65.3635 268.148 65.4635 267.023 65.5885C265.923 65.6885 264.898 65.801 263.948 65.9259C262.998 66.0509 262.261 66.1384 261.736 66.1884C261.186 66.2884 260.486 66.4009 259.636 66.5259C258.811 66.6259 258.111 66.7258 257.536 66.8258L257.086 61.7264ZM284.533 52.615C284.858 53.065 285.196 53.6024 285.546 54.2273C285.92 54.8523 286.283 55.4772 286.633 56.1021C286.983 56.727 287.283 57.277 287.533 57.7519L284.496 59.0643C284.246 58.5393 283.958 57.9644 283.633 57.3395C283.308 56.7145 282.971 56.0896 282.621 55.4647C282.271 54.8398 281.921 54.3023 281.571 53.8524L284.533 52.615ZM288.995 50.9277C289.32 51.4027 289.67 51.9526 290.045 52.5775C290.42 53.2025 290.782 53.8274 291.132 54.4523C291.507 55.0772 291.795 55.6022 291.995 56.0271L289.033 57.302C288.633 56.5271 288.158 55.6522 287.608 54.6773C287.058 53.6774 286.52 52.8275 285.995 52.1276L288.995 50.9277Z" fill="#494949"/>
<path d="M236.351 55.8395C235.327 57.2643 234.027 58.7392 232.452 60.264C230.902 61.7888 229.177 63.2511 227.278 64.651C225.403 66.0508 223.441 67.3006 221.391 68.4005C221.191 68.0256 220.928 67.6131 220.603 67.1632C220.303 66.7132 219.966 66.2758 219.591 65.8508C219.241 65.4259 218.904 65.0509 218.579 64.726C220.728 63.7011 222.791 62.4387 224.765 60.9389C226.74 59.4141 228.502 57.8268 230.052 56.177C231.627 54.5272 232.877 52.9399 233.802 51.415H238.489C239.514 52.8399 240.638 54.2022 241.863 55.5021C243.088 56.8019 244.401 58.0018 245.8 59.1016C247.2 60.2015 248.638 61.1889 250.112 62.0638C251.587 62.9387 253.075 63.6761 254.574 64.276C253.999 64.8509 253.462 65.5009 252.962 66.2258C252.462 66.9507 252 67.6506 251.575 68.3255C250.15 67.5756 248.7 66.7132 247.225 65.7383C245.775 64.7635 244.376 63.7261 243.026 62.6262C241.676 61.5013 240.426 60.364 239.276 59.2141C238.126 58.0642 237.151 56.9394 236.351 55.8395ZM226.978 62.7762H245.838V66.7132H226.978V62.7762ZM222.478 70.4253H250.262V74.3248H222.478V70.4253ZM220.603 81.8239H252.475V85.686H220.603V81.8239ZM233.914 64.351H238.676V83.7737H233.914V64.351ZM224.84 75.7496L228.44 74.2498C228.915 74.8747 229.377 75.5622 229.827 76.3121C230.302 77.062 230.727 77.7994 231.102 78.5243C231.477 79.2492 231.752 79.8991 231.927 80.4741L228.065 82.1989C227.915 81.6239 227.665 80.9615 227.315 80.2116C226.965 79.4367 226.578 78.6618 226.153 77.8869C225.728 77.112 225.29 76.3996 224.84 75.7496ZM243.888 74.2873L248.2 75.8621C247.45 77.012 246.675 78.1619 245.875 79.3117C245.075 80.4366 244.338 81.399 243.663 82.1989L240.289 80.774C240.713 80.1741 241.151 79.5117 241.601 78.7868C242.051 78.0369 242.476 77.2745 242.876 76.4995C243.276 75.6996 243.613 74.9622 243.888 74.2873Z" fill="#494949"/>
<path d="M196.606 52.9521C196.581 53.1521 196.544 53.4646 196.494 53.8895C196.444 54.2895 196.394 54.7019 196.344 55.1269C196.319 55.5268 196.294 55.8893 196.269 56.2143C196.219 56.9392 196.169 57.7391 196.119 58.614C196.094 59.4639 196.069 60.3513 196.044 61.2762C196.019 62.1761 195.994 63.0884 195.969 64.0133C195.969 64.9382 195.969 65.8381 195.969 66.713C195.969 67.7379 195.981 68.8753 196.006 70.1251C196.031 71.35 196.056 72.5748 196.081 73.7997C196.131 74.9995 196.156 76.0994 196.156 77.0993C196.181 78.0992 196.194 78.8741 196.194 79.424C196.194 80.9738 196.019 82.1737 195.669 83.0236C195.344 83.8735 194.869 84.4609 194.244 84.7859C193.619 85.1358 192.894 85.3108 192.069 85.3108C191.169 85.3108 190.207 85.1233 189.182 84.7484C188.157 84.3984 187.195 83.8985 186.295 83.2485C185.42 82.5986 184.695 81.8487 184.12 80.9988C183.57 80.1239 183.295 79.1865 183.295 78.1866C183.295 76.9868 183.745 75.7994 184.645 74.6246C185.57 73.4247 186.782 72.3248 188.282 71.325C189.807 70.3251 191.444 69.5252 193.194 68.9252C194.869 68.3003 196.594 67.8504 198.369 67.5754C200.143 67.2754 201.743 67.1255 203.168 67.1255C205.093 67.1255 206.83 67.4504 208.38 68.1003C209.93 68.7253 211.167 69.6502 212.092 70.875C213.017 72.0999 213.479 73.5747 213.479 75.2995C213.479 76.7493 213.204 78.0867 212.654 79.3115C212.104 80.5364 211.217 81.5987 209.992 82.4986C208.792 83.3735 207.193 84.0609 205.193 84.5609C204.343 84.7359 203.493 84.8608 202.643 84.9358C201.818 85.0358 201.031 85.1108 200.281 85.1608L198.556 80.3239C199.406 80.3239 200.218 80.3114 200.993 80.2864C201.793 80.2364 202.518 80.1614 203.168 80.0614C204.193 79.8614 205.118 79.5615 205.943 79.1615C206.768 78.7616 207.418 78.2366 207.892 77.5867C208.367 76.9368 208.605 76.1619 208.605 75.262C208.605 74.4121 208.367 73.6872 207.892 73.0872C207.443 72.4873 206.805 72.0249 205.98 71.6999C205.155 71.3749 204.193 71.2125 203.093 71.2125C201.518 71.2125 199.918 71.3749 198.294 71.6999C196.694 72.0249 195.156 72.4748 193.682 73.0497C192.582 73.4747 191.594 73.9746 190.72 74.5496C189.845 75.0995 189.157 75.6744 188.657 76.2744C188.157 76.8743 187.907 77.4492 187.907 77.9992C187.907 78.2991 187.995 78.5866 188.17 78.8616C188.37 79.1115 188.62 79.3365 188.92 79.5365C189.22 79.7365 189.52 79.8989 189.82 80.0239C190.145 80.1239 190.42 80.1739 190.645 80.1739C190.994 80.1739 191.282 80.0739 191.507 79.8739C191.732 79.649 191.844 79.224 191.844 78.5991C191.844 77.9242 191.819 76.9618 191.769 75.7119C191.744 74.4371 191.707 73.0248 191.657 71.4749C191.632 69.9251 191.619 68.3878 191.619 66.863C191.619 65.8131 191.619 64.7507 191.619 63.6759C191.644 62.601 191.657 61.5761 191.657 60.6012C191.657 59.6263 191.657 58.764 191.657 58.014C191.682 57.2641 191.694 56.6767 191.694 56.2518C191.694 55.9768 191.682 55.6268 191.657 55.2019C191.632 54.7769 191.594 54.352 191.544 53.927C191.519 53.4771 191.482 53.1521 191.432 52.9521H196.606ZM207.293 57.0017C208.242 57.4516 209.305 58.0015 210.48 58.6515C211.68 59.3014 212.817 59.9513 213.892 60.6012C214.992 61.2262 215.867 61.7886 216.516 62.2885L214.267 66.1131C213.792 65.7131 213.167 65.2632 212.392 64.7632C211.642 64.2633 210.817 63.7509 209.917 63.2259C209.042 62.701 208.192 62.2135 207.368 61.7636C206.543 61.2887 205.83 60.9137 205.23 60.6387L207.293 57.0017ZM184.308 59.0639C185.408 59.1889 186.37 59.2764 187.195 59.3264C188.045 59.3514 188.807 59.3639 189.482 59.3639C190.457 59.3639 191.532 59.3264 192.707 59.2514C193.882 59.1514 195.081 59.0264 196.306 58.8764C197.531 58.7015 198.719 58.5015 199.868 58.2765C201.043 58.0515 202.106 57.8016 203.056 57.5266L203.168 62.176C202.118 62.426 200.981 62.651 199.756 62.851C198.531 63.0259 197.294 63.1884 196.044 63.3384C194.819 63.4884 193.644 63.6009 192.519 63.6759C191.419 63.7509 190.457 63.7884 189.632 63.7884C188.382 63.7884 187.357 63.7759 186.558 63.7509C185.758 63.7259 185.033 63.6759 184.383 63.6009L184.308 59.0639Z" fill="#494949"/>
<path d="M160.536 53.4773C160.386 53.9772 160.236 54.5897 160.086 55.3146C159.936 56.0395 159.823 56.6019 159.748 57.0019C159.573 57.8518 159.349 58.8891 159.074 60.114C158.824 61.3388 158.536 62.6387 158.211 64.0135C157.911 65.3884 157.599 66.7007 157.274 67.9506C156.949 69.2754 156.549 70.7127 156.074 72.2626C155.599 73.7874 155.087 75.3497 154.537 76.9495C154.012 78.5243 153.474 80.0366 152.924 81.4865C152.374 82.9113 151.837 84.1861 151.312 85.311L146.1 83.5487C146.65 82.5988 147.237 81.449 147.862 80.0991C148.487 78.7243 149.087 77.2495 149.662 75.6746C150.262 74.0998 150.812 72.5375 151.312 70.9877C151.812 69.4379 152.237 68.0006 152.587 66.6757C152.837 65.8008 153.074 64.9009 153.299 63.976C153.524 63.0512 153.724 62.1513 153.899 61.2764C154.074 60.4015 154.224 59.5891 154.349 58.8392C154.499 58.0642 154.612 57.3893 154.687 56.8144C154.762 56.1145 154.812 55.4146 154.837 54.7146C154.862 54.0147 154.849 53.4523 154.799 53.0273L160.536 53.4773ZM150.975 59.0641C152.499 59.0641 154.087 58.9891 155.736 58.8392C157.386 58.6892 159.049 58.4767 160.723 58.2017C162.398 57.9268 164.06 57.6018 165.71 57.2268V61.9138C164.16 62.2637 162.511 62.5637 160.761 62.8137C159.011 63.0636 157.286 63.2636 155.586 63.4136C153.887 63.5386 152.324 63.6011 150.9 63.6011C150 63.6011 149.187 63.5886 148.462 63.5636C147.737 63.5136 147.037 63.4761 146.363 63.4511L146.25 58.7642C147.225 58.8642 148.062 58.9391 148.762 58.9891C149.462 59.0391 150.2 59.0641 150.975 59.0641ZM162.748 64.8009C163.798 64.701 164.96 64.6135 166.235 64.5385C167.51 64.4635 168.747 64.426 169.947 64.426C171.022 64.426 172.109 64.451 173.209 64.501C174.334 64.551 175.447 64.6385 176.546 64.7634L176.434 69.2629C175.509 69.1379 174.484 69.0379 173.359 68.9629C172.259 68.863 171.135 68.813 169.985 68.813C168.71 68.813 167.473 68.8505 166.273 68.9254C165.098 68.9754 163.923 69.0754 162.748 69.2254V64.8009ZM164.773 74.2498C164.623 74.7748 164.498 75.3247 164.398 75.8996C164.298 76.4496 164.248 76.937 164.248 77.3619C164.248 77.7619 164.335 78.1369 164.51 78.4868C164.685 78.8368 164.96 79.1492 165.335 79.4242C165.71 79.6742 166.223 79.8741 166.873 80.0241C167.548 80.1741 168.385 80.2491 169.385 80.2491C170.66 80.2491 171.935 80.1866 173.209 80.0616C174.509 79.9116 175.834 79.7117 177.184 79.4617L176.996 84.2611C175.947 84.3861 174.784 84.4986 173.509 84.5986C172.234 84.7236 170.847 84.7861 169.347 84.7861C166.198 84.7861 163.785 84.2736 162.111 83.2487C160.461 82.1989 159.636 80.724 159.636 78.8243C159.636 77.9744 159.711 77.112 159.861 76.2371C160.011 75.3622 160.161 74.5498 160.311 73.7999L164.773 74.2498Z" fill="#494949"/>
<path d="M110.629 67.5376C111.204 67.4126 111.866 67.2626 112.616 67.0877C113.366 66.8877 114.029 66.7002 114.603 66.5252C115.228 66.3253 116.066 66.0628 117.116 65.7378C118.166 65.4129 119.315 65.0879 120.565 64.7629C121.84 64.438 123.115 64.163 124.39 63.938C125.69 63.7131 126.914 63.6006 128.064 63.6006C130.039 63.6006 131.764 63.9755 133.239 64.7254C134.739 65.4504 135.901 66.5002 136.726 67.8751C137.551 69.2499 137.963 70.8872 137.963 72.787C137.963 74.4868 137.588 76.0366 136.838 77.4364C136.113 78.8363 135.001 80.0611 133.501 81.111C132.001 82.1609 130.127 83.0108 127.877 83.6607C125.652 84.3356 123.052 84.7606 120.078 84.9355L118.091 80.3236C120.24 80.2736 122.215 80.0861 124.015 79.7612C125.84 79.4362 127.414 78.9738 128.739 78.3738C130.089 77.7489 131.126 76.9615 131.851 76.0116C132.601 75.0617 132.976 73.9618 132.976 72.712C132.976 71.7621 132.751 70.9372 132.301 70.2373C131.876 69.5124 131.264 68.9499 130.464 68.55C129.664 68.15 128.714 67.9501 127.614 67.9501C126.739 67.9501 125.765 68.0625 124.69 68.2875C123.615 68.5125 122.502 68.8 121.353 69.1499C120.228 69.4999 119.115 69.8748 118.016 70.2748C116.916 70.6747 115.891 71.0622 114.941 71.4371C113.991 71.8121 113.204 72.1371 112.579 72.412L110.629 67.5376Z" fill="#494949"/>
<path d="M91.6578 53.0645C91.6078 53.4394 91.5578 53.8644 91.5078 54.3393C91.4828 54.7892 91.4579 55.2517 91.4329 55.7266C91.4079 56.2266 91.3829 56.9015 91.3579 57.7514C91.3329 58.5763 91.3204 59.4887 91.3204 60.4886C91.3204 61.4885 91.3204 62.4758 91.3204 63.4507C91.3204 64.4256 91.3204 65.313 91.3204 66.1129C91.3204 67.1628 91.3454 68.3376 91.3954 69.6375C91.4453 70.9123 91.5078 72.2122 91.5828 73.537C91.6828 74.8369 91.7578 76.0617 91.8078 77.2116C91.8828 78.3364 91.9203 79.2738 91.9203 80.0237C91.9203 81.0736 91.6453 82.036 91.0954 82.9109C90.5455 83.7608 89.7206 84.4357 88.6207 84.9357C87.5458 85.4356 86.1835 85.6856 84.5337 85.6856C81.534 85.6856 79.2593 85.1356 77.7095 84.0358C76.1597 82.9359 75.3848 81.3986 75.3848 79.4238C75.3848 78.149 75.7472 77.0366 76.4721 76.0867C77.222 75.1118 78.2844 74.3494 79.6593 73.7995C81.0591 73.2495 82.7214 72.9746 84.6462 72.9746C86.6959 72.9746 88.6082 73.1996 90.383 73.6495C92.1828 74.0744 93.8201 74.6369 95.2949 75.3368C96.7697 76.0367 98.0821 76.7741 99.2319 77.549C100.382 78.3239 101.357 79.0239 102.157 79.6488L99.4569 83.8483C98.557 82.9984 97.5446 82.161 96.4198 81.3361C95.3199 80.5112 94.1075 79.7613 92.7827 79.0863C91.4828 78.4114 90.0955 77.874 88.6207 77.474C87.1709 77.0491 85.6335 76.8366 84.0087 76.8366C82.7089 76.8366 81.6965 77.0616 80.9716 77.5115C80.2717 77.9615 79.9217 78.5114 79.9217 79.1613C79.9217 79.6363 80.0717 80.0487 80.3717 80.3987C80.6716 80.7487 81.1091 81.0111 81.684 81.1861C82.2589 81.3611 82.9839 81.4486 83.8588 81.4486C84.5337 81.4486 85.1086 81.3736 85.5835 81.2236C86.0835 81.0736 86.4709 80.7986 86.7459 80.3987C87.0209 79.9987 87.1584 79.4363 87.1584 78.7114C87.1584 78.1615 87.1334 77.3741 87.0834 76.3492C87.0584 75.3243 87.0209 74.1994 86.9709 72.9746C86.9209 71.7247 86.8709 70.4999 86.8209 69.3C86.7709 68.1002 86.7459 67.0378 86.7459 66.1129C86.7459 65.213 86.7459 64.2756 86.7459 63.3007C86.7709 62.3009 86.7834 61.3135 86.7834 60.3386C86.7834 59.3637 86.7834 58.4763 86.7834 57.6764C86.8084 56.8515 86.8209 56.1766 86.8209 55.6516C86.8209 55.3017 86.7959 54.8767 86.7459 54.3768C86.7209 53.8519 86.6709 53.4144 86.5959 53.0645H91.6578ZM76.0972 56.589C76.7721 56.689 77.522 56.789 78.3469 56.889C79.1718 56.989 80.0092 57.089 80.8591 57.189C81.734 57.264 82.5589 57.3264 83.3338 57.3764C84.1087 57.4014 84.7837 57.4139 85.3586 57.4139C87.9083 57.4139 90.4455 57.3389 92.9702 57.189C95.5199 57.014 98.1571 56.7015 100.882 56.2516L100.844 60.5636C99.5694 60.7385 98.0946 60.901 96.4198 61.051C94.745 61.201 92.9577 61.326 91.0579 61.426C89.1831 61.5009 87.2958 61.5384 85.3961 61.5384C84.6212 61.5384 83.6588 61.5135 82.5089 61.4635C81.3841 61.3885 80.2592 61.301 79.1343 61.201C78.0095 61.076 77.0346 60.9635 76.2097 60.8635L76.0972 56.589ZM75.9097 64.6881C76.5096 64.7881 77.222 64.888 78.047 64.988C78.8719 65.088 79.7093 65.163 80.5592 65.213C81.434 65.263 82.2589 65.313 83.0339 65.363C83.8088 65.388 84.4462 65.4005 84.9461 65.4005C87.2709 65.4005 89.3706 65.3505 91.2454 65.2505C93.1452 65.1505 94.9199 65.0255 96.5697 64.8755C98.2195 64.7256 99.8069 64.5506 101.332 64.3506L101.294 68.7751C99.9943 68.9251 98.732 69.0501 97.5071 69.15C96.3073 69.25 95.0699 69.3375 93.7951 69.4125C92.5452 69.4875 91.1954 69.5375 89.7456 69.5625C88.2957 69.5875 86.6709 69.6 84.8711 69.6C84.1462 69.6 83.2463 69.5875 82.1715 69.5625C81.0966 69.5125 79.9967 69.45 78.8718 69.375C77.772 69.3 76.7971 69.2125 75.9472 69.1125L75.9097 64.6881Z" fill="#494949"/>
<path d="M63.0112 61.5387C62.4613 61.8887 61.8739 62.2261 61.2489 62.5511C60.649 62.876 59.9991 63.2135 59.2992 63.5634C58.7242 63.8634 58.0118 64.2134 57.1619 64.6133C56.337 65.0133 55.4371 65.4632 54.4622 65.9632C53.5124 66.4381 52.55 66.9506 51.5751 67.5005C50.6002 68.0254 49.6878 68.5629 48.8379 69.1128C47.2881 70.1377 46.0258 71.2 45.0509 72.2999C44.101 73.3998 43.626 74.6121 43.626 75.937C43.626 77.2618 44.276 78.2867 45.5758 79.0116C46.8757 79.7115 48.8254 80.0615 51.4251 80.0615C52.725 80.0615 54.0998 80.0115 55.5496 79.9115C57.0244 79.7865 58.4743 79.624 59.8991 79.4241C61.3239 79.1991 62.5863 78.9491 63.6862 78.6742L63.6112 84.0735C62.5613 84.2485 61.4114 84.411 60.1616 84.5609C58.9367 84.7109 57.5994 84.8234 56.1496 84.8984C54.7247 84.9734 53.1999 85.0109 51.5751 85.0109C49.7003 85.0109 47.963 84.8609 46.3632 84.5609C44.7884 84.286 43.4011 83.8235 42.2012 83.1736C41.0264 82.5237 40.1015 81.6488 39.4265 80.5489C38.7766 79.4491 38.4517 78.0992 38.4517 76.4994C38.4517 74.8996 38.8016 73.4498 39.5015 72.1499C40.2014 70.8501 41.1513 69.6502 42.3512 68.5504C43.576 67.4505 44.9134 66.4131 46.3632 65.4382C47.2631 64.8383 48.213 64.2634 49.2129 63.7134C50.2128 63.1385 51.1876 62.5886 52.1375 62.0636C53.1124 61.5387 54.0123 61.0637 54.8372 60.6388C55.6871 60.1889 56.387 59.8014 56.937 59.4764C57.6619 59.0515 58.2993 58.664 58.8492 58.3141C59.3992 57.9641 59.9241 57.5892 60.424 57.1892L63.0112 61.5387ZM44.151 53.5146C44.7759 55.1645 45.4258 56.7518 46.1007 58.2766C46.8007 59.8014 47.4881 61.2262 48.163 62.5511C48.8629 63.8759 49.5003 65.0633 50.0753 66.1131L45.8383 68.6253C45.1634 67.4755 44.4634 66.1881 43.7385 64.7633C43.0136 63.3385 42.2887 61.8387 41.5638 60.2638C40.8389 58.664 40.139 57.0517 39.464 55.4269L44.151 53.5146Z" fill="#494949"/>
<path d="M16.6666 53.0645C16.6166 53.4394 16.5666 53.8644 16.5166 54.3393C16.4916 54.7892 16.4666 55.2517 16.4416 55.7266C16.4166 56.2266 16.3916 56.9015 16.3667 57.7514C16.3417 58.5763 16.3292 59.4887 16.3292 60.4886C16.3292 61.4885 16.3292 62.4758 16.3292 63.4507C16.3292 64.4256 16.3292 65.313 16.3292 66.1129C16.3292 67.1628 16.3542 68.3376 16.4041 69.6375C16.4541 70.9123 16.5166 72.2122 16.5916 73.537C16.6916 74.8369 16.7666 76.0617 16.8166 77.2116C16.8916 78.3364 16.9291 79.2738 16.9291 80.0237C16.9291 81.0736 16.6541 82.036 16.1042 82.9109C15.5542 83.7608 14.7293 84.4357 13.6295 84.9357C12.5546 85.4356 11.1923 85.6856 9.54246 85.6856C6.54282 85.6856 4.26809 85.1356 2.71828 84.0358C1.16846 82.9359 0.393555 81.3986 0.393555 79.4238C0.393555 78.149 0.756011 77.0366 1.48092 76.0867C2.23084 75.1118 3.29321 74.3494 4.66805 73.7995C6.06788 73.2495 7.73018 72.9746 9.65495 72.9746C11.7047 72.9746 13.617 73.1996 15.3918 73.6495C17.1916 74.0744 18.8289 74.6369 20.3037 75.3368C21.7785 76.0367 23.0908 76.7741 24.2407 77.549C25.3906 78.3239 26.3655 79.0239 27.1654 79.6488L24.4657 83.8483C23.5658 82.9984 22.5534 82.161 21.4285 81.3361C20.3287 80.5112 19.1163 79.7613 17.7915 79.0863C16.4916 78.4114 15.1043 77.874 13.6295 77.474C12.1797 77.0491 10.6423 76.8366 9.01753 76.8366C7.71768 76.8366 6.7053 77.0616 5.98039 77.5115C5.28047 77.9615 4.93051 78.5114 4.93051 79.1613C4.93051 79.6363 5.0805 80.0487 5.38046 80.3987C5.68042 80.7487 6.11787 81.0111 6.6928 81.1861C7.26774 81.3611 7.99265 81.4486 8.86755 81.4486C9.54246 81.4486 10.1174 81.3736 10.5923 81.2236C11.0923 81.0736 11.4797 80.7986 11.7547 80.3987C12.0297 79.9987 12.1672 79.4363 12.1672 78.7114C12.1672 78.1615 12.1422 77.3741 12.0922 76.3492C12.0672 75.3243 12.0297 74.1994 11.9797 72.9746C11.9297 71.7247 11.8797 70.4999 11.8297 69.3C11.7797 68.1002 11.7547 67.0378 11.7547 66.1129C11.7547 65.213 11.7547 64.2756 11.7547 63.3007C11.7797 62.3009 11.7922 61.3135 11.7922 60.3386C11.7922 59.3637 11.7922 58.4763 11.7922 57.6764C11.8172 56.8515 11.8297 56.1766 11.8297 55.6516C11.8297 55.3017 11.8047 54.8767 11.7547 54.3768C11.7297 53.8519 11.6797 53.4144 11.6047 53.0645H16.6666ZM1.10597 56.589C1.78089 56.689 2.5308 56.789 3.3557 56.889C4.1806 56.989 5.018 57.089 5.8679 57.189C6.7428 57.264 7.5677 57.3264 8.34261 57.3764C9.11751 57.4014 9.79243 57.4139 10.3674 57.4139C12.9171 57.4139 15.4543 57.3389 17.979 57.189C20.5287 57.014 23.1658 56.7015 25.8905 56.2516L25.853 60.5636C24.5782 60.7385 23.1033 60.901 21.4285 61.051C19.7537 61.201 17.9665 61.326 16.0667 61.426C14.1919 61.5009 12.3046 61.5384 10.4049 61.5384C9.62995 61.5384 8.66757 61.5135 7.51771 61.4635C6.39284 61.3885 5.26797 61.301 4.14311 61.201C3.01824 61.076 2.04336 60.9635 1.21846 60.8635L1.10597 56.589ZM0.918492 64.6881C1.51842 64.7881 2.23084 64.888 3.05574 64.988C3.88064 65.088 4.71804 65.163 5.56794 65.213C6.44283 65.263 7.26774 65.313 8.04264 65.363C8.81755 65.388 9.45498 65.4005 9.95492 65.4005C12.2796 65.4005 14.3794 65.3505 16.2542 65.2505C18.1539 65.1505 19.9287 65.0255 21.5785 64.8755C23.2283 64.7256 24.8156 64.5506 26.3405 64.3506L26.303 68.7751C25.0031 68.9251 23.7408 69.0501 22.5159 69.15C21.3161 69.25 20.0787 69.3375 18.8039 69.4125C17.554 69.4875 16.2042 69.5375 14.7543 69.5625C13.3045 69.5875 11.6797 69.6 9.87992 69.6C9.15501 69.6 8.25512 69.5875 7.18025 69.5625C6.10537 69.5125 5.00551 69.45 3.88064 69.375C2.78077 69.3 1.80589 69.2125 0.955987 69.1125L0.918492 64.6881Z" fill="#494949"/>
<path d="M410.266 2.70208C410.241 2.90206 410.203 3.22702 410.153 3.67697C410.103 4.10192 410.066 4.53937 410.041 4.98931C410.041 5.41426 410.028 5.72672 410.003 5.9267C409.978 6.42664 409.953 7.10156 409.928 7.95146C409.928 8.80136 409.928 9.73874 409.928 10.7636C409.928 11.7885 409.928 12.8259 409.928 13.8758C409.953 14.9006 409.966 15.8755 409.966 16.8004C409.991 17.7003 410.003 18.4502 410.003 19.0501L405.354 17.4378C405.354 16.9629 405.354 16.338 405.354 15.5631C405.354 14.7881 405.354 13.9382 405.354 13.0134C405.354 12.0635 405.341 11.1261 405.316 10.2012C405.316 9.2763 405.304 8.4389 405.279 7.68899C405.254 6.93908 405.229 6.36415 405.204 5.96419C405.154 5.21428 405.091 4.53936 405.016 3.93944C404.941 3.33951 404.891 2.92706 404.866 2.70208H410.266ZM389.081 7.38902C390.205 7.36403 391.455 7.35153 392.83 7.35153C394.23 7.32653 395.692 7.30154 397.217 7.27654C398.742 7.22654 400.242 7.18905 401.717 7.16405C403.216 7.13906 404.604 7.12656 405.879 7.12656C407.178 7.10156 408.303 7.08906 409.253 7.08906C410.203 7.08906 411.24 7.08906 412.365 7.08906C413.49 7.06406 414.603 7.05156 415.702 7.05156C416.802 7.05156 417.802 7.05156 418.702 7.05156C419.602 7.05156 420.314 7.05156 420.839 7.05156L420.802 11.5135C419.627 11.4635 418.065 11.4135 416.115 11.3636C414.19 11.3136 411.853 11.2886 409.103 11.2886C407.403 11.2886 405.679 11.3136 403.929 11.3636C402.179 11.3885 400.442 11.4385 398.717 11.5135C396.992 11.5635 395.33 11.626 393.73 11.701C392.13 11.751 390.618 11.826 389.193 11.926L389.081 7.38902ZM409.366 18.4502C409.366 20.5 409.116 22.1998 408.616 23.5496C408.141 24.8994 407.416 25.9243 406.441 26.6242C405.466 27.2992 404.254 27.6366 402.804 27.6366C402.079 27.6366 401.329 27.4991 400.554 27.2242C399.804 26.9242 399.104 26.4867 398.454 25.9118C397.83 25.3119 397.317 24.587 396.917 23.7371C396.517 22.8872 396.317 21.8998 396.317 20.7749C396.317 19.3501 396.655 18.1127 397.33 17.0629C398.029 16.013 398.954 15.2006 400.104 14.6257C401.254 14.0257 402.504 13.7258 403.854 13.7258C405.504 13.7258 406.878 14.1007 407.978 14.8506C409.103 15.6005 409.953 16.6004 410.528 17.8503C411.103 19.1001 411.39 20.5 411.39 22.0498C411.39 23.2746 411.19 24.5495 410.79 25.8743C410.391 27.1992 409.716 28.499 408.766 29.7739C407.841 31.0487 406.603 32.1986 405.054 33.2234C403.529 34.2483 401.617 35.0857 399.317 35.7356L395.342 31.7236C396.942 31.3987 398.429 30.9737 399.804 30.4488C401.179 29.9238 402.379 29.2614 403.404 28.4615C404.454 27.6616 405.266 26.6742 405.841 25.4994C406.441 24.3245 406.741 22.9247 406.741 21.2999C406.741 20.075 406.453 19.1751 405.879 18.6002C405.304 18.0003 404.579 17.7003 403.704 17.7003C403.229 17.7003 402.766 17.8128 402.316 18.0378C401.892 18.2377 401.542 18.5627 401.267 19.0126C400.992 19.4626 400.854 20.0125 400.854 20.6624C400.854 21.5373 401.142 22.2373 401.717 22.7622C402.316 23.2621 402.991 23.5121 403.741 23.5121C404.341 23.5121 404.879 23.3246 405.354 22.9497C405.829 22.5497 406.129 21.9123 406.254 21.0374C406.403 20.1625 406.278 18.9876 405.879 17.5128L409.366 18.4502ZM415.102 1.57722C415.577 2.25214 416.052 3.00205 416.527 3.82695C417.002 4.62685 417.402 5.35177 417.727 6.00169L414.578 7.31403C414.203 6.56412 413.803 5.81421 413.378 5.0643C412.953 4.28939 412.503 3.55198 412.028 2.85207L415.102 1.57722ZM420.127 0.527344C420.602 1.20226 421.077 1.93968 421.552 2.73958C422.027 3.51449 422.439 4.2394 422.789 4.91432L419.639 6.22666C419.264 5.47675 418.852 4.72684 418.402 3.97693C417.977 3.20202 417.515 2.47711 417.015 1.80219L420.127 0.527344Z" fill="#FF9122"/>
<path d="M362.628 2.21484C363.528 2.48981 364.653 2.77728 366.003 3.07724C367.353 3.37721 368.765 3.67717 370.24 3.97714C371.715 4.2521 373.102 4.48957 374.402 4.68955C375.727 4.88953 376.802 5.03951 377.627 5.1395L376.502 9.71395C375.752 9.61396 374.839 9.47648 373.764 9.3015C372.715 9.10152 371.59 8.88905 370.39 8.66408C369.215 8.4391 368.053 8.21413 366.903 7.98916C365.753 7.73919 364.703 7.50172 363.753 7.27674C362.803 7.05177 362.028 6.86429 361.428 6.71431L362.628 2.21484ZM362.853 9.75145C362.728 10.2514 362.591 10.9013 362.441 11.7012C362.316 12.4761 362.191 13.2885 362.066 14.1384C361.941 14.9883 361.816 15.8007 361.691 16.5756C361.591 17.3505 361.503 18.0005 361.428 18.5254C363.128 17.3005 364.903 16.4007 366.753 15.8257C368.628 15.2508 370.54 14.9633 372.49 14.9633C374.689 14.9633 376.564 15.3633 378.114 16.1632C379.664 16.9631 380.839 18.013 381.639 19.3128C382.463 20.6127 382.876 22.025 382.876 23.5498C382.876 25.2496 382.513 26.8244 381.789 28.2742C381.064 29.7241 379.876 30.9614 378.226 31.9863C376.577 33.0112 374.414 33.7361 371.74 34.161C369.065 34.586 365.778 34.636 361.878 34.311L360.454 29.3991C364.203 29.899 367.353 29.974 369.902 29.6241C372.452 29.2491 374.377 28.5242 375.677 27.4493C377.002 26.3495 377.664 25.0121 377.664 23.4373C377.664 22.6124 377.427 21.8875 376.952 21.2626C376.477 20.6127 375.814 20.1127 374.964 19.7628C374.114 19.3878 373.152 19.2003 372.077 19.2003C369.977 19.2003 368.003 19.5878 366.153 20.3627C364.328 21.1126 362.828 22.2 361.653 23.6248C361.328 24.0247 361.053 24.3997 360.829 24.7497C360.629 25.0746 360.441 25.4246 360.266 25.7995L355.954 24.7122C356.104 23.9872 356.254 23.1374 356.404 22.1625C356.554 21.1626 356.704 20.1002 356.854 18.9753C357.004 17.8255 357.141 16.6756 357.266 15.5258C357.391 14.3759 357.504 13.2385 357.604 12.1137C357.704 10.9888 357.779 9.96392 357.829 9.03903L362.853 9.75145Z" fill="#FF9122"/>
<path d="M331.77 28.8736C333.42 28.6236 334.932 28.2611 336.307 27.7862C337.682 27.3112 338.869 26.6988 339.869 25.9489C340.894 25.199 341.681 24.2866 342.231 23.2117C342.781 22.1119 343.056 20.8245 343.056 19.3497C343.056 18.6248 342.919 17.9249 342.644 17.2499C342.369 16.575 341.956 15.9751 341.406 15.4502C340.881 14.9002 340.244 14.4753 339.494 14.1753C338.744 13.8753 337.894 13.7254 336.944 13.7254C334.57 13.7254 332.357 14.3503 330.308 15.6001C328.258 16.825 326.321 18.4123 324.496 20.3621V15.0377C326.745 12.938 329.008 11.4631 331.282 10.6132C333.582 9.76333 335.732 9.33838 337.732 9.33838C339.656 9.33838 341.394 9.76333 342.944 10.6132C344.518 11.4631 345.768 12.6505 346.693 14.1753C347.618 15.7001 348.08 17.4624 348.08 19.4622C348.08 21.3619 347.78 23.0742 347.181 24.5991C346.581 26.1239 345.693 27.4612 344.518 28.6111C343.343 29.7609 341.881 30.7358 340.131 31.5357C338.382 32.3106 336.344 32.9356 334.02 33.4105L331.77 28.8736ZM323.258 12.6005C322.858 12.6255 322.346 12.688 321.721 12.788C321.096 12.863 320.421 12.9505 319.696 13.0504C318.996 13.1254 318.284 13.2129 317.559 13.3129C316.834 13.4129 316.159 13.5004 315.534 13.5754L315.047 8.77595C315.597 8.80095 316.109 8.81345 316.584 8.81345C317.084 8.78845 317.659 8.76345 318.309 8.73845C318.909 8.68846 319.621 8.62597 320.446 8.55098C321.296 8.45099 322.146 8.3385 322.996 8.21352C323.871 8.08853 324.683 7.95105 325.433 7.80107C326.183 7.65108 326.77 7.5011 327.195 7.35112L328.695 9.26339C328.47 9.56336 328.208 9.93831 327.908 10.3883C327.633 10.8382 327.345 11.3006 327.045 11.7756C326.745 12.2255 326.483 12.6255 326.258 12.9755L324.046 20.0246C323.646 20.5995 323.146 21.3245 322.546 22.1994C321.971 23.0742 321.359 23.9991 320.709 24.974C320.059 25.9489 319.421 26.8863 318.796 27.7862C318.171 28.6861 317.609 29.4735 317.109 30.1484L314.147 26.0614C314.622 25.4615 315.172 24.774 315.797 23.9991C316.422 23.1992 317.059 22.3618 317.709 21.4869C318.384 20.587 319.046 19.6996 319.696 18.8248C320.346 17.9249 320.946 17.0875 321.496 16.3126C322.071 15.5126 322.546 14.8252 322.921 14.2503L322.996 13.2754L323.258 12.6005ZM322.808 5.36386C322.808 4.81392 322.808 4.26399 322.808 3.71405C322.808 3.13912 322.758 2.56419 322.658 1.98926L328.133 2.17674C328.008 2.75167 327.858 3.58907 327.683 4.68894C327.508 5.76381 327.333 7.00116 327.158 8.40099C327.008 9.80083 326.858 11.2757 326.708 12.8255C326.583 14.3503 326.471 15.8751 326.371 17.3999C326.296 18.9247 326.258 20.3496 326.258 21.6744C326.258 22.6993 326.258 23.7367 326.258 24.7865C326.283 25.8364 326.308 26.9113 326.333 28.0112C326.358 29.111 326.408 30.2484 326.483 31.4233C326.508 31.7482 326.545 32.1982 326.595 32.7731C326.645 33.373 326.695 33.8855 326.745 34.3104H321.571C321.621 33.8855 321.646 33.3855 321.646 32.8106C321.671 32.2607 321.684 31.8357 321.684 31.5357C321.709 30.3109 321.734 29.1735 321.759 28.1236C321.784 27.0738 321.796 25.9614 321.796 24.7865C321.821 23.6117 321.859 22.2493 321.909 20.6995C321.934 20.1246 321.971 19.3997 322.021 18.5248C322.071 17.6249 322.121 16.65 322.171 15.6001C322.246 14.5253 322.321 13.4379 322.396 12.338C322.471 11.2382 322.533 10.2133 322.583 9.26339C322.658 8.28851 322.708 7.46361 322.733 6.78869C322.783 6.08877 322.808 5.61383 322.808 5.36386Z" fill="#FF9122"/>
<path d="M284.975 18.3373H302.861V21.4869H284.975V18.3373ZM284.45 23.4742H303.273V26.6988H284.45V23.4742ZM291.537 19.8746H295.549V23.9241C295.549 24.799 295.424 25.6989 295.174 26.6238C294.949 27.5487 294.512 28.4611 293.862 29.361C293.237 30.2359 292.324 31.0733 291.125 31.8732C289.925 32.6731 288.35 33.3855 286.4 34.0104C286.125 33.6105 285.725 33.123 285.2 32.5481C284.7 31.9732 284.213 31.4982 283.738 31.1233C285.438 30.6733 286.8 30.1484 287.825 29.5485C288.875 28.9235 289.662 28.2861 290.187 27.6362C290.737 26.9613 291.1 26.2989 291.275 25.6489C291.45 24.999 291.537 24.3866 291.537 23.8117V19.8746ZM295.174 24.899C295.849 26.3739 296.886 27.6362 298.286 28.6861C299.686 29.711 301.411 30.4234 303.461 30.8233C303.061 31.1983 302.611 31.7107 302.111 32.3606C301.636 32.9856 301.273 33.548 301.023 34.0479C298.724 33.398 296.824 32.3606 295.324 30.9358C293.824 29.486 292.687 27.7112 291.912 25.6114L295.174 24.899ZM286.663 15.9001L290.112 14.9252C290.512 15.4752 290.887 16.0876 291.237 16.7625C291.587 17.4374 291.825 18.0498 291.949 18.5998L288.275 19.6497C288.15 19.1247 287.937 18.5123 287.638 17.8124C287.363 17.1125 287.038 16.475 286.663 15.9001ZM297.086 14.8877L301.211 16.0126C300.686 16.7375 300.186 17.4499 299.711 18.1498C299.261 18.8248 298.849 19.4247 298.474 19.9496L295.512 18.9372C295.812 18.3373 296.112 17.6624 296.411 16.9125C296.711 16.1376 296.936 15.4627 297.086 14.8877ZM280.326 6.90117H289.737V9.71334H280.326V6.90117ZM297.611 6.90117H307.06V9.71334H297.611V6.90117ZM305.41 1.98926H309.835V31.0108C309.835 32.0357 309.722 32.8606 309.497 33.4855C309.297 34.1104 308.897 34.5979 308.298 34.9478C307.698 35.2978 306.973 35.5228 306.123 35.6227C305.273 35.7227 304.261 35.7727 303.086 35.7727C303.036 35.1728 302.886 34.4604 302.636 33.6355C302.411 32.8356 302.161 32.1482 301.886 31.5732C302.486 31.5982 303.073 31.6232 303.648 31.6482C304.248 31.6482 304.636 31.6357 304.81 31.6107C305.06 31.6107 305.223 31.5607 305.298 31.4607C305.373 31.3608 305.41 31.1983 305.41 30.9733V1.98926ZM280.738 1.98926H292.587V14.7002H280.738V11.6256H288.387V5.10139H280.738V1.98926ZM307.735 1.98926V5.10139H299.299V11.7381H307.735V14.8127H295.024V1.98926H307.735ZM278.076 1.98926H282.463V35.7727H278.076V1.98926Z" fill="#FF9122"/>
<path d="M254.416 6.18871C255.566 6.33869 256.854 6.45118 258.278 6.52617C259.728 6.57616 261.191 6.60116 262.665 6.60116C264.165 6.57617 265.603 6.52617 266.977 6.45118C268.352 6.35119 269.54 6.2512 270.539 6.15121V10.9881C269.39 11.0881 268.127 11.1756 266.752 11.2506C265.378 11.3006 263.965 11.3256 262.515 11.3256C261.066 11.3256 259.641 11.3006 258.241 11.2506C256.866 11.1756 255.591 11.0881 254.416 10.9881V6.18871ZM257.416 22.1993C257.266 22.8242 257.153 23.3867 257.079 23.8866C257.004 24.3615 256.966 24.849 256.966 25.3489C256.966 25.7489 257.066 26.1238 257.266 26.4738C257.466 26.7988 257.766 27.0862 258.166 27.3362C258.591 27.5612 259.128 27.7361 259.778 27.8611C260.453 27.9611 261.266 28.0111 262.215 28.0111C263.89 28.0111 265.465 27.9361 266.94 27.7861C268.415 27.6112 269.977 27.3612 271.627 27.0362L271.702 32.0981C270.502 32.3231 269.115 32.4981 267.54 32.6231C265.99 32.748 264.153 32.8105 262.028 32.8105C258.803 32.8105 256.404 32.2731 254.829 31.1982C253.254 30.0984 252.467 28.586 252.467 26.6613C252.467 25.9364 252.517 25.1864 252.617 24.4115C252.742 23.6116 252.904 22.7367 253.104 21.7869L257.416 22.1993ZM248.642 3.67651C248.542 3.92648 248.43 4.27644 248.305 4.72639C248.18 5.17633 248.055 5.61378 247.93 6.03873C247.83 6.46368 247.755 6.78864 247.705 7.01361C247.63 7.53855 247.505 8.22597 247.33 9.07587C247.18 9.90077 247.017 10.8382 246.842 11.888C246.692 12.9129 246.542 13.9628 246.392 15.0377C246.242 16.1125 246.117 17.1499 246.017 18.1498C245.942 19.1497 245.905 20.0246 245.905 20.7745C245.905 21.1244 245.905 21.5244 245.905 21.9743C245.93 22.4243 245.98 22.8367 246.055 23.2117C246.23 22.7867 246.417 22.3618 246.617 21.9368C246.817 21.5119 247.017 21.0869 247.217 20.662C247.417 20.212 247.592 19.7871 247.742 19.3871L250.067 21.2244C249.717 22.2493 249.354 23.3492 248.979 24.524C248.63 25.6989 248.305 26.8113 248.005 27.8611C247.73 28.886 247.517 29.7359 247.367 30.4108C247.317 30.6858 247.267 30.9983 247.217 31.3482C247.192 31.6982 247.18 31.9731 247.18 32.1731C247.18 32.3731 247.18 32.6106 247.18 32.8855C247.205 33.1855 247.23 33.4605 247.255 33.7104L242.905 34.0104C242.53 32.7105 242.193 30.9858 241.893 28.836C241.593 26.6613 241.443 24.2991 241.443 21.7494C241.443 20.3495 241.505 18.9247 241.63 17.4749C241.755 16.025 241.905 14.6377 242.08 13.3129C242.255 11.963 242.418 10.7382 242.568 9.6383C242.743 8.53843 242.893 7.62604 243.018 6.90113C243.068 6.37619 243.13 5.78876 243.205 5.13883C243.305 4.46392 243.368 3.82649 243.393 3.22656L248.642 3.67651Z" fill="#FF9122"/>
<path d="M201.21 20.0994H220.183V23.7365H201.21V20.0994ZM201.66 6.8635H220.07V10.4256H201.66V6.8635ZM207.997 17.4372L212.159 18.2996C211.534 19.5995 210.859 20.9368 210.134 22.3117C209.434 23.6865 208.734 25.0238 208.034 26.3237C207.334 27.5985 206.684 28.7359 206.085 29.7358L202.148 28.5359C202.747 27.586 203.385 26.4737 204.06 25.1988C204.76 23.924 205.447 22.6116 206.122 21.2618C206.822 19.8869 207.447 18.6121 207.997 17.4372ZM213.284 22.6116L217.446 22.9866C217.096 24.9613 216.571 26.6611 215.871 28.086C215.196 29.4858 214.284 30.6857 213.134 31.6855C212.009 32.6604 210.634 33.4728 209.009 34.1227C207.384 34.7977 205.447 35.3601 203.197 35.81C203.072 35.1851 202.835 34.5227 202.485 33.8228C202.135 33.1229 201.773 32.5479 201.398 32.098C203.872 31.773 205.91 31.2606 207.509 30.5607C209.134 29.8608 210.409 28.8734 211.334 27.5985C212.259 26.3237 212.909 24.6614 213.284 22.6116ZM215.946 0.976698L219.733 2.51402C219.133 3.33892 218.533 4.16382 217.933 4.98872C217.358 5.78863 216.833 6.47604 216.358 7.05097L213.471 5.77613C213.896 5.1262 214.346 4.3513 214.821 3.4514C215.296 2.52651 215.671 1.70161 215.946 0.976698ZM208.822 0.489258H212.946V17.9622H208.822V0.489258ZM202.597 2.51402L205.822 1.16418C206.322 1.86409 206.784 2.6515 207.209 3.52639C207.634 4.40129 207.934 5.1637 208.109 5.81362L204.66 7.31344C204.535 6.66352 204.272 5.88861 203.872 4.98872C203.472 4.08883 203.047 3.26393 202.597 2.51402ZM208.934 8.62579L211.821 10.3881C211.221 11.388 210.434 12.3878 209.459 13.3877C208.509 14.3876 207.484 15.325 206.385 16.1999C205.31 17.0498 204.247 17.7747 203.197 18.3746C202.947 17.8997 202.597 17.3372 202.148 16.6873C201.723 16.0374 201.31 15.5125 200.91 15.1125C201.91 14.6876 202.922 14.1376 203.947 13.4627C204.972 12.7628 205.922 12.0004 206.797 11.1755C207.697 10.3256 208.409 9.47569 208.934 8.62579ZM212.571 9.71316C212.921 9.88814 213.396 10.1506 213.996 10.5006C214.621 10.8505 215.283 11.238 215.983 11.6629C216.708 12.0629 217.358 12.4378 217.933 12.7878C218.533 13.1377 218.958 13.4002 219.208 13.5752L216.846 16.6873C216.496 16.3624 216.046 15.9624 215.496 15.4875C214.946 15.0125 214.359 14.5251 213.734 14.0251C213.109 13.5252 212.509 13.0503 211.934 12.6003C211.359 12.1504 210.859 11.7879 210.434 11.5129L212.571 9.71316ZM222.658 7.31344H236.456V11.4754H222.658V7.31344ZM223.07 0.489258L227.644 1.16418C227.245 3.73887 226.732 6.23857 226.107 8.66328C225.482 11.063 224.72 13.2877 223.82 15.3375C222.945 17.3622 221.92 19.1495 220.745 20.6993C220.52 20.3994 220.195 20.0494 219.77 19.6495C219.345 19.2495 218.896 18.8621 218.421 18.4871C217.946 18.0872 217.546 17.7622 217.221 17.5122C218.271 16.2124 219.17 14.6751 219.92 12.9003C220.695 11.1005 221.345 9.15072 221.87 7.05097C222.395 4.92623 222.795 2.73899 223.07 0.489258ZM229.894 9.86314L234.506 10.3131C233.956 14.5876 233.106 18.3496 231.956 21.5992C230.832 24.8489 229.269 27.6485 227.27 29.9982C225.27 32.348 222.695 34.3102 219.545 35.885C219.395 35.5351 219.17 35.0976 218.871 34.5727C218.571 34.0478 218.246 33.5228 217.896 32.9979C217.546 32.4979 217.221 32.098 216.921 31.798C219.77 30.5482 222.07 28.9234 223.82 26.9236C225.595 24.9238 226.957 22.5116 227.907 19.687C228.857 16.8373 229.519 13.5627 229.894 9.86314ZM225.207 10.6505C225.732 13.8002 226.47 16.7623 227.42 19.537C228.369 22.3117 229.619 24.7489 231.169 26.8486C232.719 28.9484 234.631 30.5982 236.906 31.798C236.581 32.073 236.218 32.4354 235.818 32.8854C235.419 33.3603 235.031 33.8478 234.656 34.3477C234.306 34.8477 234.019 35.2976 233.794 35.6976C231.269 34.1977 229.182 32.2605 227.532 29.8858C225.907 27.511 224.595 24.7614 223.595 21.6367C222.595 18.4871 221.783 15.05 221.158 11.3255L225.207 10.6505ZM205.447 28.5734L207.847 25.5363C209.322 26.0862 210.784 26.7236 212.234 27.4485C213.709 28.1735 215.071 28.9234 216.321 29.6983C217.596 30.4482 218.658 31.1731 219.508 31.873L216.358 35.0601C215.583 34.3602 214.609 33.6228 213.434 32.8479C212.259 32.073 210.984 31.3231 209.609 30.5982C208.234 29.8483 206.847 29.1733 205.447 28.5734Z" fill="#FF9122"/>
<path d="M168.402 2.81445H194.574V35.2481H189.737V7.35141H173.014V35.3231H168.402V2.81445ZM171.551 15.413H191.724V19.8374H171.551V15.413ZM171.551 28.3114H191.762V32.8484H171.551V28.3114Z" fill="#FF9122"/>
<path d="M147.704 0.714844H152.091V6.63914H147.704V0.714844ZM139.343 4.65188H161.09V12.076H156.928V8.47642H143.317V12.076H139.343V4.65188ZM142.117 11.5136H158.203V15.3756H142.117V11.5136ZM139.868 18.1128H160.902V22.1248H139.868V18.1128ZM144.104 20.025H148.379C148.304 22.0498 148.129 23.8871 147.854 25.5369C147.604 27.1617 147.154 28.624 146.504 29.9239C145.879 31.1987 144.954 32.3111 143.73 33.261C142.505 34.2358 140.892 35.0607 138.893 35.7357C138.768 35.3607 138.568 34.9483 138.293 34.4983C138.043 34.0734 137.755 33.6484 137.43 33.2235C137.105 32.7985 136.793 32.4611 136.493 32.2111C138.193 31.7111 139.543 31.0987 140.542 30.3738C141.542 29.6489 142.28 28.799 142.755 27.8241C143.255 26.8242 143.592 25.6869 143.767 24.412C143.942 23.1122 144.054 21.6498 144.104 20.025ZM151.041 19.5751H155.241V30.2238C155.241 30.7988 155.266 31.1487 155.316 31.2737C155.391 31.3987 155.566 31.4612 155.841 31.4612C155.916 31.4612 156.041 31.4612 156.216 31.4612C156.391 31.4612 156.553 31.4612 156.703 31.4612C156.878 31.4612 157.015 31.4612 157.115 31.4612C157.29 31.4612 157.428 31.3612 157.528 31.1612C157.653 30.9612 157.74 30.5488 157.79 29.9239C157.84 29.2739 157.878 28.3116 157.903 27.0367C158.178 27.2617 158.528 27.4867 158.953 27.7116C159.403 27.9366 159.865 28.1366 160.34 28.3116C160.84 28.4865 161.265 28.624 161.615 28.724C161.515 30.4738 161.302 31.8361 160.977 32.811C160.678 33.7859 160.253 34.4608 159.703 34.8358C159.178 35.2357 158.465 35.4357 157.565 35.4357C157.415 35.4357 157.228 35.4357 157.003 35.4357C156.778 35.4357 156.541 35.4357 156.291 35.4357C156.066 35.4357 155.841 35.4357 155.616 35.4357C155.391 35.4357 155.203 35.4357 155.053 35.4357C153.978 35.4357 153.141 35.2732 152.541 34.9483C151.966 34.6233 151.566 34.0734 151.341 33.2985C151.141 32.5485 151.041 31.5362 151.041 30.2613V19.5751ZM127.794 2.13967H136.643V6.18919H131.731V35.7732H127.794V2.13967ZM135.293 2.13967H136.005L136.643 1.98969L139.568 3.67699C139.268 4.72687 138.93 5.86423 138.555 7.08908C138.18 8.31394 137.793 9.51379 137.393 10.6887C137.018 11.8635 136.655 12.9384 136.305 13.9133C137.455 15.3381 138.205 16.6879 138.555 17.9628C138.905 19.2376 139.08 20.425 139.08 21.5249C139.08 22.7247 138.943 23.7246 138.668 24.5245C138.418 25.3244 137.993 25.9368 137.393 26.3618C137.093 26.5618 136.755 26.7242 136.38 26.8492C136.03 26.9742 135.656 27.0742 135.256 27.1492C134.556 27.2242 133.731 27.2492 132.781 27.2242C132.756 26.6992 132.656 26.0618 132.481 25.3119C132.331 24.562 132.106 23.9246 131.806 23.3996C132.156 23.4246 132.456 23.4371 132.706 23.4371C132.981 23.4371 133.231 23.4371 133.456 23.4371C133.906 23.4121 134.256 23.2997 134.506 23.0997C134.731 22.9247 134.881 22.6622 134.956 22.3123C135.056 21.9373 135.106 21.4874 135.106 20.9624C135.106 20.0875 134.931 19.0877 134.581 17.9628C134.256 16.8379 133.568 15.6506 132.518 14.4007C132.768 13.5508 133.018 12.6259 133.268 11.626C133.543 10.6012 133.806 9.57629 134.056 8.55141C134.331 7.52653 134.568 6.57664 134.768 5.70175C134.993 4.80186 135.168 4.05195 135.293 3.45202V2.13967Z" fill="#FF9122"/>
<path d="M96.2225 2.62695H106.871V7.20141H96.2225V2.62695ZM104.659 2.62695H109.308C109.308 3.82681 109.358 5.18915 109.458 6.71396C109.558 8.21379 109.771 9.82609 110.096 11.5509C110.421 13.2507 110.908 15.0005 111.558 16.8003C112.208 18.6 113.071 20.3873 114.145 22.1621C115.245 23.9119 116.62 25.5992 118.27 27.224C119.92 28.8488 121.894 30.3486 124.194 31.7235C123.869 31.9735 123.469 32.3359 122.994 32.8109C122.519 33.2858 122.057 33.7732 121.607 34.2732C121.182 34.7981 120.832 35.2606 120.557 35.6605C118.207 34.2107 116.17 32.5859 114.445 30.7861C112.721 28.9613 111.271 27.0365 110.096 25.0118C108.921 22.962 107.971 20.8998 107.246 18.825C106.521 16.7253 105.971 14.688 105.596 12.7133C105.221 10.7135 104.971 8.85121 104.847 7.12642C104.722 5.40162 104.659 3.9018 104.659 2.62695ZM103.047 10.876L108.184 11.8134C107.334 15.5129 106.196 18.875 104.772 21.8997C103.347 24.9243 101.634 27.5865 99.6346 29.8862C97.6599 32.1859 95.3726 34.1232 92.7729 35.698C92.498 35.373 92.1105 34.9731 91.6106 34.4982C91.1106 34.0482 90.5857 33.5858 90.0358 33.1108C89.5108 32.6609 89.0484 32.2984 88.6484 32.0234C92.573 30.0487 95.6976 27.274 98.0223 23.6994C100.347 20.0999 102.022 15.8254 103.047 10.876Z" fill="#FF9122"/>
</svg>
