<svg width="120" height="81" viewBox="0 0 120 81" fill="none" xmlns="http://www.w3.org/2000/svg">
<path d="M59.7742 11.8473C60.1544 12.0506 60.6093 12.0498 60.9887 11.8473C81.296 1.00008 108.715 10.0388 113.997 11.8667C114.512 12.0456 114.853 12.5272 114.853 13.0688L114.597 72.9207C114.597 73.7271 113.856 74.3302 113.062 74.17C105.946 72.7326 78.9934 57.6895 60.9429 73.647C60.6136 73.938 60.0424 73.9329 59.708 73.647C40.9072 57.5714 13.9289 74.4154 6.81414 75.8546C6.01974 76.0157 5.27881 75.4108 5.27881 74.6061L6.51285 13.0815C6.51285 12.5399 6.85403 12.0582 7.3692 11.8802C12.6525 10.0506 39.4652 1.00514 59.7742 11.8473Z" fill="#CBECFF"/>
<path d="M27.381 2.25289C37.7433 1.06538 50.6745 1.44513 62.0783 7.53316C64.4609 8.80528 65.361 11.7676 64.089 14.1503C62.817 16.533 59.8546 17.4339 57.4718 16.1621C53.663 14.1287 49.5382 12.8716 45.3263 12.1816L59.7746 11.8476C39.4661 1.00582 12.6545 10.0499 7.37028 11.8798L7.27555 11.917C6.81362 12.1184 6.514 12.5734 6.51383 13.081L23.5832 12.6855C18.4329 13.5903 14.1214 14.825 11.3615 15.705L10.8117 49.8486C10.7679 52.5491 8.54353 54.7027 5.84293 54.6591C3.14231 54.6155 0.988841 52.3911 1.03239 49.6904L1.62321 13.0029H1.62516C1.65793 10.4126 3.30676 8.10984 5.77262 7.25777C8.52552 6.30445 16.9473 3.44859 27.381 2.25289Z" fill="white"/>
<path d="M80.6509 61.4827C83.3515 61.4395 85.5762 63.5937 85.6196 66.2943C85.663 68.9949 83.5087 71.2194 80.8081 71.263C74.8072 71.3595 69.0815 72.9803 64.1831 77.3109L64.1821 77.3118C61.7717 79.4418 58.5971 78.9178 56.7866 77.5687C48.8078 71.6248 39.0908 71.5585 29.7417 73.6009C25.1126 74.6122 20.7811 76.0977 17.062 77.4701C15.3046 78.1185 13.424 78.8408 12.0073 79.3548C10.5801 79.8726 9.07518 80.3859 7.78662 80.6468C3.98277 81.418 0.38916 78.5229 0.38916 74.6058C0.389162 74.5685 0.389282 74.5308 0.390137 74.4935L0.703613 60.8324C0.765631 58.1322 3.00448 55.9934 5.70459 56.055C8.40498 56.1169 10.5448 58.3566 10.4829 61.057L10.4771 61.3011L5.59326 60.9447L5.27979 74.6058C5.27979 75.4105 6.02063 76.0158 6.81494 75.8548C13.9297 74.4157 40.4231 59.2798 59.7085 73.6468C60.0395 73.8935 60.5461 73.9333 60.8794 73.6976L60.9438 73.6468C66.7255 68.5353 73.4208 66.6051 80.0845 66.389L64.6255 65.2591C69.8307 62.6082 75.3367 61.5682 80.6509 61.4827Z" fill="white"/>
<path d="M114.802 30.2911C117.503 30.304 119.682 32.5041 119.669 35.2051L119.489 72.9444L119.488 72.9434C119.474 76.8561 115.884 79.7279 112.096 78.9639H112.095C110.823 78.7069 109.323 78.2019 107.901 77.6954C106.655 77.2519 104.445 76.4292 102.86 75.8614C99.1507 74.533 94.8462 73.1173 90.2865 72.209C87.6375 71.6814 85.9172 69.106 86.4447 66.4571C86.9723 63.8081 89.5477 62.0879 92.1966 62.6153C97.4623 63.6641 102.298 65.27 106.158 66.6524C107.669 67.1936 108.701 67.5749 109.731 67.9522L109.888 35.1583C109.901 32.4573 112.101 30.2783 114.802 30.2911ZM95.9183 68.5147C103.691 70.6112 110.098 73.5711 113.063 74.17C113.808 74.3202 114.506 73.7995 114.59 73.0694L114.598 72.921L95.9183 68.5147Z" fill="white"/>
<path d="M59.8024 6.95601C70.942 1.41534 83.5221 1.10068 93.6745 2.24409C102.93 3.28653 110.648 5.59757 114.292 6.80269L115.596 7.24507L115.601 7.24605C118.085 8.10823 119.744 10.445 119.744 13.0683C119.744 13.074 119.744 13.0802 119.744 13.0859L119.701 25.3046C119.691 28.0057 117.494 30.1882 114.793 30.1787C112.092 30.169 109.91 27.9714 109.92 25.2705L109.924 24.0966L114.81 25.288L114.853 13.0683C114.853 12.5269 114.512 12.0459 113.997 11.8671C108.714 10.0391 81.2961 1.00053 60.9889 11.8476L60.8434 11.914C60.6481 11.989 60.439 12.0138 60.234 11.9902L68.3376 13.9648C66.6058 14.5669 64.9176 15.2931 63.2926 16.1611L63.2917 16.1621C61.478 17.1299 59.2941 17.1362 57.4684 16.1601C55.0864 14.8865 54.188 11.923 55.4616 9.54097C56.3467 7.88586 58.0475 6.94734 59.8024 6.95601Z" fill="white"/>
<path d="M58.8681 9.95411C59.1991 10.1304 59.5938 10.1304 59.9248 9.95411C77.5832 0.521485 102.454 8.38088 107.048 9.97098C107.496 10.1262 107.793 10.5454 107.792 11.0161L107.801 68.97C107.801 69.671 107.157 70.1957 106.466 70.0565C100.279 68.8064 75.6379 60.1051 59.9417 73.9816C59.6557 74.2346 59.1584 74.2304 58.8681 73.9816C42.5201 60.003 17.6823 70.2699 11.4952 71.5218C10.8043 71.6618 10.1602 71.1362 10.1602 70.4361L11.0029 11.0271C11.0029 10.5564 11.3 10.1372 11.7473 9.98279C16.3414 8.39185 41.2097 0.525703 58.8698 9.95411V73.9824" fill="#CBECFF"/>
<path d="M59.9416 73.9816C75.6377 60.1052 100.279 68.8066 106.466 70.0568C107.157 70.196 107.801 69.6709 107.801 68.9699L107.793 11.0168C107.794 10.5461 107.496 10.1261 107.048 9.9709C102.453 8.38051 77.5829 0.521947 59.9249 9.9543C59.6353 10.1086 59.2971 10.1276 58.9953 10.0119L58.8703 73.9826V9.9543C41.2101 0.52589 16.3413 8.39167 11.7472 9.98262C11.3 10.137 11.0031 10.5569 11.0031 11.0275L10.1603 70.4367C10.1606 71.1366 10.8045 71.6617 11.4953 71.5217C17.6824 70.2698 42.5203 60.0031 58.8683 73.9816C59.1585 74.2304 59.6555 74.2346 59.9416 73.9816ZM112.682 69.3254C112.473 72.9605 109.076 75.5712 105.5 74.8508H105.497C101.66 74.0754 94.9329 71.7966 86.4425 71.2268C78.1394 70.6695 69.6217 71.9513 63.1818 77.6437C61.9869 78.701 60.5649 79.0638 59.3937 79.0607C58.2689 79.0577 56.9563 78.7175 55.8253 77.8088C55.7899 77.7805 55.7545 77.7521 55.7199 77.7228C55.71 77.7145 55.6995 77.7069 55.6896 77.6984C48.9939 71.9735 40.3239 70.9916 31.8976 71.9025C27.731 72.353 23.8018 73.2507 20.4679 74.1389C18.7966 74.5841 17.3112 75.0164 15.9835 75.3967C14.732 75.7551 13.4674 76.112 12.466 76.3146C8.76745 77.0638 5.26993 74.25 5.26968 70.4367C5.26968 70.4137 5.26935 70.3903 5.26968 70.3674L6.11245 10.9582H6.1144C6.14327 8.43592 7.74821 6.18911 10.1515 5.35957L10.1525 5.36055C12.6375 4.50027 20.3813 2.01604 29.8761 0.974804C38.7315 0.00372097 49.7117 0.219383 59.3966 4.75312C69.0807 0.216978 80.0613 -0.00179663 88.9171 0.966991C98.4187 2.00647 106.168 4.49143 108.648 5.3498H108.649C111.063 6.18619 112.684 8.45856 112.684 11.0158L112.692 68.9699L112.682 69.3254Z" fill="white"/>
<path d="M23.5646 15.0552C26.8423 13.9138 31.4477 12.8703 36.5948 13.3921C40.3578 13.7734 44.1325 14.6941 46.9278 15.5015C48.3347 15.9078 49.5141 16.2916 50.3448 16.5747C50.7604 16.7164 51.0902 16.833 51.3185 16.9155C51.4325 16.9567 51.5213 16.9893 51.5831 17.0122C51.614 17.0237 51.6382 17.0331 51.6554 17.0396C51.6639 17.0428 51.6708 17.0455 51.6759 17.0474C51.6782 17.0482 51.6802 17.0487 51.6817 17.0493L51.6837 17.0503H51.6847L51.6856 17.0513C53.0147 17.5556 53.6831 19.0415 53.1788 20.3706C52.7061 21.6167 51.3707 22.2819 50.1105 21.9448L49.8595 21.8648L49.8585 21.8638C49.8564 21.863 49.8523 21.8619 49.8468 21.8599C49.8357 21.8557 49.8175 21.8484 49.7931 21.8394C49.7439 21.8212 49.6684 21.7935 49.5685 21.7573C49.3674 21.6847 49.0673 21.5785 48.6837 21.4478C47.9158 21.186 46.8149 20.8278 45.4991 20.4478C44.3678 20.121 43.0914 19.7843 41.7413 19.4771L50.7726 19.4575C50.7726 19.4575 43.8801 16.8427 37.0001 16.0259L36.3351 15.9526C28.1797 15.1259 21.389 18.6367 19.8194 19.5269L26.5157 19.5112C26.0776 19.6416 25.6576 19.7773 25.2579 19.9165C23.8555 20.4049 22.725 20.9189 21.9552 21.3052C21.5711 21.4979 21.2794 21.6587 21.0899 21.7661C20.9955 21.8197 20.9264 21.8595 20.8849 21.8843C20.8644 21.8965 20.8498 21.9044 20.8429 21.9087C19.638 22.6629 18.0504 22.2981 17.296 21.0933C16.5417 19.8884 16.9066 18.2998 18.1114 17.5454L19.4063 19.6138C18.1901 17.6713 18.1172 17.553 18.1134 17.5454L18.1144 17.5444C18.1155 17.5437 18.1169 17.5424 18.1183 17.5415C18.121 17.5398 18.1244 17.5379 18.128 17.5357C18.1354 17.5311 18.1452 17.5249 18.1563 17.5181C18.1784 17.5046 18.2079 17.4871 18.2442 17.4653C18.3177 17.4215 18.4203 17.3611 18.5499 17.2876C18.8091 17.1406 19.1785 16.9395 19.6466 16.7046C20.5812 16.2356 21.9178 15.6286 23.5646 15.0552Z" fill="white"/>
<path d="M23.5646 25.061C26.8423 23.9197 31.4477 22.8762 36.5948 23.398C40.3578 23.7793 44.1325 24.7 46.9278 25.5073C48.3347 25.9137 49.5141 26.2974 50.3448 26.5806C50.7604 26.7222 51.0902 26.8389 51.3185 26.9214C51.4325 26.9626 51.5213 26.9952 51.5831 27.0181C51.614 27.0295 51.6382 27.039 51.6554 27.0454C51.6639 27.0486 51.6708 27.0513 51.6759 27.0532C51.6782 27.0541 51.6802 27.0546 51.6817 27.0552L51.6837 27.0562H51.6847L51.6856 27.0571C53.0147 27.5615 53.6831 29.0474 53.1788 30.3765C52.7061 31.6225 51.3707 32.2878 50.1105 31.9507L49.8595 31.8706L49.8585 31.8696C49.8564 31.8689 49.8523 31.8678 49.8468 31.8657C49.8357 31.8616 49.8175 31.8543 49.7931 31.8452C49.7439 31.827 49.6684 31.7993 49.5685 31.7632C49.3674 31.6905 49.0673 31.5844 48.6837 31.4536C47.9158 31.1919 46.8149 30.8337 45.4991 30.4536C44.3678 30.1269 43.0914 29.7901 41.7413 29.4829L50.7726 29.4634C50.7726 29.4634 43.8801 26.8485 37.0001 26.0318L36.3351 25.9585C28.1797 25.1318 21.389 28.6426 19.8194 29.5327L26.5157 29.5171C26.0776 29.6475 25.6576 29.7832 25.2579 29.9224C23.8555 30.4107 22.725 30.9247 21.9552 31.311C21.5711 31.5038 21.2794 31.6646 21.0899 31.772C20.9955 31.8255 20.9264 31.8654 20.8849 31.8901C20.8644 31.9024 20.8498 31.9103 20.8429 31.9146C19.638 32.6687 18.0504 32.3039 17.296 31.0991C16.5417 29.8943 16.9066 28.3057 18.1114 27.5513L19.4063 29.6196C18.1901 27.6772 18.1172 27.5589 18.1134 27.5513L18.1144 27.5503C18.1155 27.5496 18.1169 27.5482 18.1183 27.5474C18.121 27.5457 18.1244 27.5438 18.128 27.5415C18.1354 27.5369 18.1452 27.5307 18.1563 27.5239C18.1784 27.5104 18.2079 27.4929 18.2442 27.4712C18.3177 27.4273 18.4203 27.367 18.5499 27.2935C18.8091 27.1465 19.1785 26.9454 19.6466 26.7105C20.5812 26.2414 21.9178 25.6345 23.5646 25.061Z" fill="white"/>
<path d="M23.5646 35.0669C26.8423 33.9255 31.4477 32.882 36.5948 33.4038C40.3578 33.7851 44.1325 34.7058 46.9278 35.5132C48.3347 35.9195 49.5141 36.3033 50.3448 36.5864C50.7604 36.7281 51.0902 36.8448 51.3185 36.9273C51.4325 36.9685 51.5213 37.001 51.5831 37.0239C51.614 37.0354 51.6382 37.0448 51.6554 37.0513C51.6639 37.0545 51.6708 37.0572 51.6759 37.0591C51.6782 37.06 51.6802 37.0605 51.6817 37.061L51.6837 37.062H51.6847L51.6856 37.063C53.0147 37.5674 53.6831 39.0532 53.1788 40.3823C52.7061 41.6284 51.3707 42.2936 50.1105 41.9566L49.8595 41.8765L49.8585 41.8755C49.8564 41.8747 49.8523 41.8737 49.8468 41.8716C49.8357 41.8674 49.8175 41.8601 49.7931 41.8511C49.7439 41.8329 49.6684 41.8052 49.5685 41.7691C49.3674 41.6964 49.0673 41.5902 48.6837 41.4595C47.9158 41.1977 46.8149 40.8395 45.4991 40.4595C44.3678 40.1327 43.0914 39.796 41.7413 39.4888L50.7726 39.4693C50.7726 39.4693 43.8801 36.8544 37.0001 36.0376L36.3351 35.9644C28.1797 35.1376 21.389 38.6484 19.8194 39.5386L26.5157 39.523C26.0776 39.6534 25.6576 39.7891 25.2579 39.9282C23.8555 40.4166 22.725 40.9306 21.9552 41.3169C21.5711 41.5096 21.2794 41.6704 21.0899 41.7778C20.9955 41.8314 20.9264 41.8712 20.8849 41.896C20.8644 41.9082 20.8498 41.9162 20.8429 41.9204C19.638 42.6746 18.0504 42.3098 17.296 41.105C16.5417 39.9001 16.9066 38.3116 18.1114 37.5571L19.4063 39.6255C18.1901 37.683 18.1172 37.5647 18.1134 37.5571L18.1144 37.5562C18.1155 37.5555 18.1169 37.5541 18.1183 37.5532C18.121 37.5515 18.1244 37.5496 18.128 37.5474C18.1354 37.5428 18.1452 37.5366 18.1563 37.5298C18.1784 37.5163 18.2079 37.4988 18.2442 37.4771C18.3177 37.4332 18.4203 37.3728 18.5499 37.2993C18.8091 37.1524 19.1785 36.9512 19.6466 36.7163C20.5812 36.2473 21.9178 35.6404 23.5646 35.0669Z" fill="white"/>
<path d="M23.5646 45.0718C26.8423 43.9304 31.4477 42.8869 36.5948 43.4087C40.3578 43.79 44.1325 44.7107 46.9278 45.5181C48.3347 45.9244 49.5141 46.3082 50.3448 46.5913C50.7604 46.733 51.0902 46.8496 51.3185 46.9321C51.4325 46.9733 51.5213 47.0059 51.5831 47.0288C51.614 47.0403 51.6382 47.0497 51.6554 47.0562C51.6639 47.0594 51.6708 47.0621 51.6759 47.064C51.6782 47.0648 51.6802 47.0653 51.6817 47.0659L51.6837 47.0669H51.6847L51.6856 47.0679C53.0147 47.5722 53.6831 49.0581 53.1788 50.3872C52.7061 51.6333 51.3707 52.2985 50.1105 51.9614L49.8595 51.8814L49.8585 51.8804C49.8564 51.8796 49.8523 51.8785 49.8468 51.8765C49.8357 51.8723 49.8175 51.865 49.7931 51.856C49.7439 51.8378 49.6684 51.8101 49.5685 51.7739C49.3674 51.7013 49.0673 51.5951 48.6837 51.4644C47.9158 51.2026 46.8149 50.8444 45.4991 50.4644C44.3678 50.1376 43.0914 49.8009 41.7413 49.4937L50.7726 49.4741C50.7726 49.4741 43.8801 46.8593 37.0001 46.0425L36.3351 45.9693C28.1797 45.1425 21.389 48.6533 19.8194 49.5435L26.5157 49.5278C26.0776 49.6582 25.6576 49.7939 25.2579 49.9331C23.8555 50.4215 22.725 50.9355 21.9552 51.3218C21.5711 51.5145 21.2794 51.6753 21.0899 51.7827C20.9955 51.8363 20.9264 51.8761 20.8849 51.9009C20.8644 51.9131 20.8498 51.921 20.8429 51.9253C19.638 52.6795 18.0504 52.3147 17.296 51.1099C16.5417 49.905 16.9066 48.3164 18.1114 47.562L19.4063 49.6304C18.1901 47.6879 18.1172 47.5696 18.1134 47.562L18.1144 47.561C18.1155 47.5603 18.1169 47.559 18.1183 47.5581C18.121 47.5564 18.1244 47.5545 18.128 47.5523C18.1354 47.5477 18.1452 47.5415 18.1563 47.5347C18.1784 47.5212 18.2079 47.5037 18.2442 47.4819C18.3177 47.4381 18.4203 47.3777 18.5499 47.3042C18.8091 47.1572 19.1785 46.9561 19.6466 46.7212C20.5812 46.2522 21.9178 45.6452 23.5646 45.0718Z" fill="white"/>
<path d="M23.5646 55.0776C26.8423 53.9363 31.4477 52.8928 36.5948 53.4146C40.3578 53.7959 44.1325 54.7166 46.9278 55.5239C48.3347 55.9303 49.5141 56.314 50.3448 56.5972C50.7604 56.7388 51.0902 56.8555 51.3185 56.938C51.4325 56.9792 51.5213 57.0118 51.5831 57.0347C51.614 57.0461 51.6382 57.0556 51.6554 57.062C51.6639 57.0652 51.6708 57.0679 51.6759 57.0698C51.6782 57.0707 51.6802 57.0712 51.6817 57.0718L51.6837 57.0728H51.6847L51.6856 57.0737C53.0147 57.5781 53.6831 59.064 53.1788 60.3931C52.7061 61.6391 51.3707 62.3044 50.1105 61.9673L49.8595 61.8872L49.8585 61.8862C49.8564 61.8855 49.8523 61.8844 49.8468 61.8823C49.8357 61.8782 49.8175 61.8709 49.7931 61.8618C49.7439 61.8436 49.6684 61.8159 49.5685 61.7798C49.3674 61.7071 49.0673 61.601 48.6837 61.4702C47.9158 61.2085 46.8149 60.8503 45.4991 60.4702C44.3678 60.1435 43.0914 59.8067 41.7413 59.4995L50.7726 59.48C50.7726 59.48 43.8801 56.8651 37.0001 56.0484L36.3351 55.9751C28.1797 55.1484 21.389 58.6592 19.8194 59.5493L26.5157 59.5337C26.0776 59.6641 25.6576 59.7998 25.2579 59.939C23.8555 60.4273 22.725 60.9413 21.9552 61.3276C21.5711 61.5204 21.2794 61.6812 21.0899 61.7886C20.9955 61.8421 20.9264 61.882 20.8849 61.9068C20.8644 61.919 20.8498 61.9269 20.8429 61.9312C19.638 62.6853 18.0504 62.3205 17.296 61.1157C16.5417 59.9109 16.9066 58.3223 18.1114 57.5679L19.4063 59.6362C18.1901 57.6938 18.1172 57.5755 18.1134 57.5679L18.1144 57.5669C18.1155 57.5662 18.1169 57.5648 18.1183 57.564C18.121 57.5623 18.1244 57.5604 18.128 57.5581C18.1354 57.5535 18.1452 57.5473 18.1563 57.5405C18.1784 57.527 18.2079 57.5095 18.2442 57.4878C18.3177 57.4439 18.4203 57.3836 18.5499 57.3101C18.8091 57.1631 19.1785 56.962 19.6466 56.7271C20.5812 56.258 21.9178 55.6511 23.5646 55.0776Z" fill="white"/>
<path d="M73.2735 16.5464C76.5513 15.405 81.1566 14.3615 86.3038 14.8833C90.0668 15.2646 93.8415 16.1853 96.6368 16.9927C98.0437 17.399 99.2231 17.7828 100.054 18.0659C100.469 18.2076 100.799 18.3243 101.027 18.4068C101.141 18.448 101.23 18.4805 101.292 18.5034C101.323 18.5149 101.347 18.5243 101.364 18.5308C101.373 18.534 101.38 18.5367 101.385 18.5386C101.387 18.5395 101.389 18.54 101.391 18.5405L101.393 18.5415H101.394L101.395 18.5425C102.724 19.0469 103.392 20.5327 102.888 21.8618C102.415 23.1079 101.08 23.7731 99.8194 23.436L99.5685 23.356L99.5675 23.355C99.5654 23.3542 99.5613 23.3531 99.5558 23.3511C99.5447 23.3469 99.5265 23.3396 99.5021 23.3306C99.4529 23.3124 99.3774 23.2847 99.2774 23.2485C99.0764 23.1759 98.7763 23.0697 98.3927 22.939C97.6247 22.6772 96.5239 22.319 95.2081 21.939C94.0768 21.6122 92.8004 21.2755 91.4503 20.9683L100.482 20.9487C100.482 20.9487 93.5891 18.3339 86.7091 17.5171L86.044 17.4439C77.8887 16.6171 71.098 20.1279 69.5284 21.0181L76.2247 21.0025C75.7866 21.1329 75.3666 21.2686 74.9669 21.4077C73.5645 21.8961 72.434 22.4101 71.6642 22.7964C71.2801 22.9891 70.9883 23.1499 70.7989 23.2573C70.7045 23.3109 70.6354 23.3507 70.5938 23.3755C70.5734 23.3877 70.5588 23.3957 70.5519 23.3999C69.347 24.1541 67.7594 23.7893 67.005 22.5845C66.2507 21.3796 66.6156 19.791 67.8204 19.0366L69.1153 21.105C67.8991 19.1625 67.8262 19.0442 67.8224 19.0366L67.8233 19.0357C67.8245 19.035 67.8259 19.0336 67.8272 19.0327C67.83 19.031 67.8334 19.0291 67.837 19.0269C67.8444 19.0223 67.8542 19.0161 67.8653 19.0093C67.8874 18.9958 67.9169 18.9783 67.9532 18.9566C68.0267 18.9127 68.1293 18.8523 68.2589 18.7788C68.5181 18.6318 68.8875 18.4307 69.3556 18.1958C70.2902 17.7268 71.6268 17.1198 73.2735 16.5464Z" fill="white"/>
<path d="M73.274 26.5523C76.5518 25.4109 81.1571 24.3674 86.3043 24.8892C90.0673 25.2705 93.842 26.1912 96.6373 26.9985C98.0442 27.4049 99.2236 27.7886 100.054 28.0718C100.47 28.2134 100.8 28.3301 101.028 28.4126C101.142 28.4538 101.231 28.4864 101.293 28.5093C101.324 28.5208 101.348 28.5302 101.365 28.5366C101.373 28.5398 101.38 28.5425 101.385 28.5444C101.388 28.5453 101.39 28.5458 101.391 28.5464L101.393 28.5474H101.394L101.395 28.5484C102.724 29.0527 103.393 30.5386 102.888 31.8677C102.416 33.1137 101.08 33.779 99.8199 33.4419L99.5689 33.3618L99.568 33.3609C99.5659 33.3601 99.5617 33.359 99.5563 33.3569C99.5452 33.3528 99.527 33.3455 99.5025 33.3364C99.4534 33.3182 99.3779 33.2905 99.2779 33.2544C99.0769 33.1817 98.7767 33.0756 98.3932 32.9448C97.6252 32.6831 96.5244 32.3249 95.2086 31.9448C94.0773 31.6181 92.8009 31.2813 91.4508 30.9741L100.482 30.9546C100.482 30.9546 93.5896 28.3398 86.7096 27.523L86.0445 27.4497C77.8892 26.623 71.0985 30.1338 69.5289 31.0239L76.2252 31.0083C75.7871 31.1387 75.3671 31.2744 74.9674 31.4136C73.565 31.9019 72.4345 32.4159 71.6646 32.8023C71.2806 32.995 70.9888 33.1558 70.7994 33.2632C70.705 33.3167 70.6359 33.3566 70.5943 33.3814C70.5739 33.3936 70.5593 33.4015 70.5523 33.4058C69.3475 34.1599 67.7599 33.7951 67.0055 32.5903C66.2512 31.3855 66.6161 29.7969 67.8209 29.0425L69.1158 31.1109C67.8995 29.1684 67.8266 29.0501 67.8229 29.0425L67.8238 29.0415C67.825 29.0408 67.8264 29.0394 67.8277 29.0386C67.8305 29.0369 67.8339 29.035 67.8375 29.0327C67.8449 29.0281 67.8547 29.0219 67.8658 29.0151C67.8879 29.0016 67.9174 28.9841 67.9537 28.9624C68.0272 28.9185 68.1297 28.8582 68.2594 28.7847C68.5185 28.6377 68.888 28.4366 69.3561 28.2017C70.2907 27.7326 71.6273 27.1257 73.274 26.5523Z" fill="white"/>
<path d="M73.2735 36.5581C76.5513 35.4168 81.1566 34.3732 86.3038 34.895C90.0668 35.2763 93.8415 36.197 96.6368 37.0044C98.0437 37.4108 99.2231 37.7945 100.054 38.0776C100.469 38.2193 100.799 38.336 101.027 38.4185C101.141 38.4597 101.23 38.4922 101.292 38.5151C101.323 38.5266 101.347 38.5361 101.364 38.5425C101.373 38.5457 101.38 38.5484 101.385 38.5503C101.387 38.5512 101.389 38.5517 101.391 38.5523L101.393 38.5532H101.394L101.395 38.5542C102.724 39.0586 103.392 40.5444 102.888 41.8735C102.415 43.1196 101.08 43.7848 99.8194 43.4478L99.5685 43.3677L99.5675 43.3667C99.5654 43.3659 99.5613 43.3649 99.5558 43.3628C99.5447 43.3587 99.5265 43.3514 99.5021 43.3423C99.4529 43.3241 99.3774 43.2964 99.2774 43.2603C99.0764 43.1876 98.7763 43.0814 98.3927 42.9507C97.6247 42.689 96.5239 42.3307 95.2081 41.9507C94.0768 41.6239 92.8004 41.2872 91.4503 40.98L100.482 40.9605C100.482 40.9605 93.5891 38.3456 86.7091 37.5288L86.044 37.4556C77.8887 36.6288 71.098 40.1396 69.5284 41.0298L76.2247 41.0142C75.7866 41.1446 75.3666 41.2803 74.9669 41.4194C73.5645 41.9078 72.434 42.4218 71.6642 42.8081C71.2801 43.0008 70.9883 43.1616 70.7989 43.2691C70.7045 43.3226 70.6354 43.3624 70.5938 43.3872C70.5734 43.3995 70.5588 43.4074 70.5519 43.4116C69.347 44.1658 67.7594 43.801 67.005 42.5962C66.2507 41.3913 66.6156 39.8028 67.8204 39.0484L69.1153 41.1167C67.8991 39.1742 67.8262 39.0559 67.8224 39.0484L67.8233 39.0474C67.8245 39.0467 67.8259 39.0453 67.8272 39.0444C67.83 39.0427 67.8334 39.0408 67.837 39.0386C67.8444 39.034 67.8542 39.0278 67.8653 39.021C67.8874 39.0075 67.9169 38.99 67.9532 38.9683C68.0267 38.9244 68.1293 38.8641 68.2589 38.7905C68.5181 38.6436 68.8875 38.4424 69.3556 38.2075C70.2902 37.7385 71.6268 37.1316 73.2735 36.5581Z" fill="white"/>
<path d="M73.274 46.563C76.5518 45.4216 81.1571 44.3781 86.3043 44.8999C90.0673 45.2812 93.842 46.2019 96.6373 47.0093C98.0442 47.4156 99.2236 47.7994 100.054 48.0825C100.47 48.2242 100.8 48.3409 101.028 48.4234C101.142 48.4646 101.231 48.4971 101.293 48.52C101.324 48.5315 101.348 48.5409 101.365 48.5474C101.373 48.5506 101.38 48.5533 101.385 48.5552C101.388 48.5561 101.39 48.5566 101.391 48.5571L101.393 48.5581H101.394L101.395 48.5591C102.724 49.0635 103.393 50.5493 102.888 51.8784C102.416 53.1245 101.08 53.7897 99.8199 53.4526L99.5689 53.3726L99.568 53.3716C99.5659 53.3708 99.5617 53.3698 99.5563 53.3677C99.5452 53.3635 99.527 53.3562 99.5025 53.3472C99.4534 53.329 99.3779 53.3013 99.2779 53.2651C99.0769 53.1925 98.7767 53.0863 98.3932 52.9556C97.6252 52.6938 96.5244 52.3356 95.2086 51.9556C94.0773 51.6288 92.8009 51.2921 91.4508 50.9849L100.482 50.9653C100.482 50.9653 93.5896 48.3505 86.7096 47.5337L86.0445 47.4605C77.8892 46.6337 71.0985 50.1445 69.5289 51.0347L76.2252 51.0191C75.7871 51.1495 75.3671 51.2852 74.9674 51.4243C73.565 51.9127 72.4345 52.4267 71.6646 52.813C71.2806 53.0057 70.9888 53.1665 70.7994 53.2739C70.705 53.3275 70.6359 53.3673 70.5943 53.3921C70.5739 53.4043 70.5593 53.4123 70.5523 53.4165C69.3475 54.1707 67.7599 53.8059 67.0055 52.6011C66.2512 51.3962 66.6161 49.8076 67.8209 49.0532L69.1158 51.1216C67.8995 49.1791 67.8266 49.0608 67.8229 49.0532L67.8238 49.0523C67.825 49.0516 67.8264 49.0502 67.8277 49.0493C67.8305 49.0476 67.8339 49.0457 67.8375 49.0435C67.8449 49.0389 67.8547 49.0327 67.8658 49.0259C67.8879 49.0124 67.9174 48.9949 67.9537 48.9732C68.0272 48.9293 68.1297 48.8689 68.2594 48.7954C68.5185 48.6484 68.888 48.4473 69.3561 48.2124C70.2907 47.7434 71.6273 47.1364 73.274 46.563Z" fill="white"/>
<path d="M73.2735 56.5689C76.5513 55.4275 81.1566 54.384 86.3038 54.9058C90.0668 55.2871 93.8415 56.2078 96.6368 57.0151C98.0437 57.4215 99.2231 57.8052 100.054 58.0884C100.469 58.23 100.799 58.3467 101.027 58.4292C101.141 58.4704 101.23 58.503 101.292 58.5259C101.323 58.5374 101.347 58.5468 101.364 58.5532C101.373 58.5564 101.38 58.5591 101.385 58.561C101.387 58.5619 101.389 58.5624 101.391 58.563L101.393 58.564H101.394L101.395 58.565C102.724 59.0693 103.392 60.5552 102.888 61.8843C102.415 63.1303 101.08 63.7956 99.8194 63.4585L99.5685 63.3784L99.5675 63.3775C99.5654 63.3767 99.5613 63.3756 99.5558 63.3735C99.5447 63.3694 99.5265 63.3621 99.5021 63.353C99.4529 63.3348 99.3774 63.3071 99.2774 63.271C99.0764 63.1983 98.7763 63.0922 98.3927 62.9614C97.6247 62.6997 96.5239 62.3415 95.2081 61.9614C94.0768 61.6347 92.8004 61.2979 91.4503 60.9907L100.482 60.9712C100.482 60.9712 93.5891 58.3564 86.7091 57.5396L86.044 57.4663C77.8887 56.6396 71.098 60.1504 69.5284 61.0405L76.2247 61.0249C75.7866 61.1553 75.3666 61.291 74.9669 61.4302C73.5645 61.9185 72.434 62.4325 71.6642 62.8189C71.2801 63.0116 70.9883 63.1724 70.7989 63.2798C70.7045 63.3333 70.6354 63.3732 70.5938 63.398C70.5734 63.4102 70.5588 63.4181 70.5519 63.4224C69.347 64.1765 67.7594 63.8117 67.005 62.6069C66.2507 61.4021 66.6156 59.8135 67.8204 59.0591L69.1153 61.1275C67.8991 59.185 67.8262 59.0667 67.8224 59.0591L67.8233 59.0581C67.8245 59.0574 67.8259 59.056 67.8272 59.0552C67.83 59.0535 67.8334 59.0516 67.837 59.0493C67.8444 59.0447 67.8542 59.0385 67.8653 59.0318C67.8874 59.0182 67.9169 59.0007 67.9532 58.979C68.0267 58.9351 68.1293 58.8748 68.2589 58.8013C68.5181 58.6543 68.8875 58.4532 69.3556 58.2183C70.2902 57.7492 71.6268 57.1423 73.2735 56.5689Z" fill="white"/>
<path d="M6.43933 54.8246C6.93074 55.2945 6.81616 56.0916 6.21103 56.4054C5.84523 56.5952 5.38522 56.5294 5.08732 56.2451C4.59591 55.7753 4.71049 54.9781 5.31563 54.6643C5.68143 54.4745 6.14143 54.5403 6.43933 54.8246Z" fill="white"/>
<path d="M86.9541 66.1814C87.2792 66.6133 87.1909 67.2257 86.7564 67.5488C86.3218 67.8719 85.7056 67.7842 85.3806 67.3523C85.0555 66.9204 85.1438 66.3079 85.5783 65.9849C86.0129 65.6618 86.6291 65.7495 86.9541 66.1814Z" fill="white"/>
</svg>
