<svg width="109" height="122" viewBox="0 0 109 122" fill="none" xmlns="http://www.w3.org/2000/svg">
<path d="M7.51249 74.5822C11.2699 74.6242 21.3531 85.9683 19.9373 89.5665C18.7872 92.4897 14.7397 93.804 13.2615 94.1945C15.9167 101.499 20.5041 105.002 23.49 106.582C24.1094 105.207 26.1003 101.345 29.1717 100.702C32.9207 99.9186 42.2079 111.936 41.5955 115.687C40.9829 119.437 30.5366 124.959 23.3308 118.025C5.15765 113.485 2.07838 92.4904 2.06132 92.3732C-3.43546 83.9886 3.75508 74.541 7.51249 74.5822ZM7.4705 77.7609C7.32237 77.8243 6.95801 78.0009 6.4119 78.4953C5.62648 79.2062 4.79093 80.2961 4.16678 81.6408C2.93098 84.3032 2.67024 87.5697 4.68925 90.6495L5.07206 91.2335L5.17167 91.924C5.17234 91.9284 5.17324 91.9349 5.1746 91.9435C5.17872 91.9697 5.1862 92.0151 5.19706 92.0783C5.21879 92.2047 5.25456 92.4028 5.30741 92.6632C5.41323 93.1847 5.58654 93.954 5.8494 94.8986C6.37714 96.7948 7.25556 99.3596 8.65018 102.041C11.3599 107.251 15.8685 112.646 23.3582 114.779L24.0926 114.976L24.906 115.179L25.5105 115.76C28.1407 118.291 31.3284 118.592 34.1062 117.831C35.5129 117.446 36.7134 116.807 37.5408 116.15C38.1544 115.662 38.3851 115.311 38.4637 115.183C38.4501 115.107 38.4264 114.989 38.3777 114.824C38.2476 114.384 38.0087 113.797 37.6443 113.088C36.9173 111.673 35.8228 110.021 34.5701 108.463C33.3107 106.897 31.9896 105.548 30.8562 104.67C30.2867 104.229 29.8544 103.977 29.574 103.858L29.5711 103.857C29.1245 104.036 28.5376 104.478 27.8807 105.312C27.1447 106.246 26.6138 107.298 26.3553 107.872L24.9803 110.926L22.0203 109.36C18.4871 107.49 13.2798 103.443 10.3084 95.2687L9.13261 92.0353L12.4588 91.1564C13.0734 90.994 14.1777 90.6481 15.199 90.0822C16.1224 89.5704 16.6552 89.0564 16.906 88.6281C16.9032 88.614 16.9019 88.5983 16.8982 88.5822C16.8285 88.2728 16.6559 87.7922 16.325 87.1466C15.666 85.8613 14.581 84.3097 13.2762 82.7833C11.9773 81.264 10.561 79.8874 9.31229 78.9191C8.68633 78.4337 8.16102 78.0961 7.76053 77.8927C7.63429 77.8286 7.53817 77.7875 7.4705 77.7609Z" fill="white"/>
<path d="M29.464 76.1642C29.7403 75.3417 30.6307 74.8987 31.4532 75.1749C38.6748 77.6014 42.0615 82.4512 43.5968 86.6944C44.3566 88.7946 44.6618 90.7365 44.7784 92.1524C44.8368 92.8622 44.8485 93.4463 44.8448 93.8595C44.843 94.0661 44.8376 94.2308 44.8321 94.3477C44.8294 94.4059 44.8265 94.4524 44.8243 94.4864C44.8232 94.5034 44.8222 94.5177 44.8214 94.5284C44.821 94.5337 44.8207 94.5384 44.8204 94.5421C44.8203 94.5439 44.8195 94.5456 44.8194 94.547V94.5489C44.8194 94.5498 44.8192 94.5509 43.253 94.4239L44.8194 94.5509C44.7493 95.4159 43.991 96.0605 43.1261 95.9903C42.2616 95.9201 41.6171 95.1624 41.6866 94.2979V94.2999C41.6868 94.2977 41.6871 94.2922 41.6876 94.2843C41.6887 94.2679 41.6906 94.2397 41.6925 94.2003C41.6962 94.1208 41.7008 93.9958 41.7022 93.8311C41.7052 93.5015 41.6963 93.0139 41.6466 92.4102C41.5468 91.1985 41.2849 89.5417 40.6417 87.7638C39.3707 84.2509 36.6067 80.2212 30.4532 78.1534C29.6307 77.877 29.1878 76.9867 29.464 76.1642Z" fill="white"/>
<path d="M27.5391 80.899C27.7345 80.0535 28.5784 79.5261 29.4239 79.7213C35.2013 81.0561 37.8607 84.8801 39.0176 88.3013C39.5874 89.9864 39.7987 91.5753 39.8692 92.7359C39.9047 93.3191 39.9044 93.8027 39.8956 94.1461C39.8912 94.3177 39.885 94.4551 39.879 94.5533C39.876 94.6024 39.8724 94.6425 39.8702 94.6715C39.8691 94.6857 39.869 94.6975 39.8682 94.7066C39.8679 94.7111 39.8666 94.7151 39.8663 94.7183V94.7252L38.3018 94.5816L39.8663 94.7261C39.786 95.5902 39.0203 96.2262 38.1563 96.1461C37.3462 96.0708 36.7372 95.3928 36.7305 94.5963L36.7364 94.44C36.7365 94.4387 36.7369 94.4345 36.7374 94.4283C36.7384 94.4157 36.7403 94.3926 36.7423 94.3609C36.7461 94.2974 36.7506 94.1971 36.754 94.065C36.7608 93.7998 36.7607 93.4083 36.7315 92.9273C36.6727 91.9589 36.4979 90.6591 36.0411 89.3082C35.1447 86.6573 33.1885 83.817 28.7169 82.7838C27.8714 82.5884 27.3439 81.7444 27.5391 80.899Z" fill="white"/>
<path d="M25.9161 85.5069C26.1404 84.6688 27.0017 84.1714 27.8399 84.3955C31.2665 85.3121 33.0444 87.9926 33.9414 90.1875C34.3954 91.2985 34.6527 92.3472 34.7969 93.1143C34.8695 93.5001 34.915 93.8208 34.9424 94.0498C34.9561 94.1644 34.9647 94.2569 34.9707 94.3233C34.9738 94.3564 34.976 94.3834 34.9776 94.4034C34.9783 94.4131 34.9791 94.4213 34.9795 94.4278C34.9798 94.431 34.9803 94.4342 34.9805 94.4366V94.4414C34.9756 94.4424 34.89 94.4488 33.4131 94.5469L34.9805 94.4424C35.038 95.3082 34.3833 96.0566 33.5176 96.1143C32.6517 96.1718 31.9023 95.5163 31.8448 94.6504V94.6495L31.8418 94.6094C31.8383 94.5703 31.8314 94.5068 31.8213 94.4229C31.8012 94.2545 31.7661 94.0039 31.708 93.6954C31.5911 93.0737 31.3851 92.2395 31.0323 91.376C30.3155 89.6224 29.1042 87.9861 27.0274 87.4307C26.1893 87.2063 25.6919 86.3451 25.9161 85.5069Z" fill="white"/>
<path d="M86.9146 56.0957C97.4163 56.0957 105.96 64.7166 105.961 75.3125C105.964 78.1051 105.363 80.8666 104.197 83.3985L108.792 89.9961C109.036 90.345 109.037 90.809 108.801 91.1631C108.564 91.5152 108.134 91.6825 107.724 91.5821L99.65 89.6192C93.7443 94.9578 85.1802 96.0541 78.1412 92.3682C73.9748 94.9492 68.8587 95.4407 64.2837 93.6983H64.2818C62.5024 93.0182 60.8647 92.0137 59.4468 90.7364L52.9507 92.3155C52.6469 92.3895 52.3251 92.3167 52.0806 92.1211C51.8365 91.9239 51.6952 91.6247 51.6968 91.3096C51.6968 91.1017 51.7636 90.8985 51.8823 90.7276L55.5718 85.4278C53.3576 80.5121 53.7676 74.7982 56.6646 70.2578C59.5598 65.7174 64.5439 62.9725 69.896 62.9707C70.6626 62.9707 71.4292 63.0267 72.1871 63.1377C75.8 58.6802 81.2063 56.0957 86.9146 56.0957ZM69.898 65.0176C65.1413 65.0194 60.7244 67.509 58.229 71.5947C55.7337 75.6805 55.5156 80.78 57.6529 85.0684C57.8205 85.4049 57.7915 85.8089 57.5767 86.1172L55.0913 89.6846L59.5005 88.6133C59.8375 88.5323 60.1922 88.6298 60.4419 88.8711H60.44C64.6589 92.9252 70.9614 93.8412 76.1441 91.1543C67.6959 85.3172 65.3418 73.78 70.8179 65.0498C70.5107 65.0304 70.2035 65.0176 69.898 65.0176ZM90.8512 58.6084C85.7873 57.3945 80.4504 58.5851 76.3677 61.8408C72.2834 65.0967 69.9018 70.0603 69.9 75.3106L69.898 75.3125C69.9032 82.1787 73.9594 88.3846 80.2144 91.0909C86.4694 93.7971 93.7201 92.4856 98.6549 87.7549C98.9045 87.5139 99.2586 87.4173 99.5953 87.4981L105.584 88.9532L102.192 84.084C101.977 83.7757 101.948 83.3735 102.116 83.0352C104.457 78.345 104.541 72.83 102.346 68.0694C100.151 63.3071 95.915 59.8225 90.8512 58.6084ZM87.9478 75.5733C87.9477 74.9613 87.4938 74.6274 87.1139 74.5879L87.0387 74.584C86.6479 74.584 86.1316 74.9171 86.1314 75.5733L86.1373 75.6934C86.1957 76.2746 86.6753 76.5645 87.0387 76.5645V77.7266C85.8041 77.7266 84.8053 76.7625 84.8053 75.5733C84.8054 74.3841 85.8059 73.4219 87.0387 73.4219C88.2714 73.4219 89.2739 74.3859 89.274 75.5733L89.2623 75.793C89.1481 76.8778 88.1962 77.7266 87.0387 77.7266V76.5645C87.4277 76.5645 87.9478 76.2312 87.9478 75.5733ZM94.8551 73.586C95.653 73.2531 96.57 73.4362 97.1793 74.0528C97.7887 74.6677 97.9703 75.595 97.6402 76.3985L97.5729 76.5459C97.2123 77.2654 96.4787 77.7266 95.6686 77.7266C95.1028 77.7266 94.5616 77.4992 94.1617 77.0957C93.7618 76.6923 93.5367 76.1441 93.5367 75.5733H93.5377C93.5378 74.703 94.0589 73.9189 94.8551 73.586ZM77.397 75.5762C77.3977 75.7802 77.461 75.9824 77.5855 76.1524L77.6822 76.2656L77.6793 76.2617C77.6802 76.2627 77.6812 76.2637 77.6822 76.2647L78.3736 75.5791L77.397 75.5762ZM78.4224 75.5821L78.0357 74.6543C77.777 74.7542 77.5711 74.9539 77.4683 75.2041L77.4244 75.3389C77.4051 75.4171 77.3968 75.4968 77.397 75.5762L78.3736 75.5791L77.6822 76.2647C77.8762 76.4594 78.1382 76.5609 78.4049 76.5615V77.7266C77.9099 77.7265 77.4328 77.5521 77.0533 77.2383L76.897 77.0957C76.4972 76.6923 76.2713 76.1441 76.273 75.5733C76.2731 74.7031 76.7934 73.919 77.5894 73.586C78.3873 73.253 79.3042 73.4364 79.9136 74.0528C80.5231 74.6677 80.7073 75.5933 80.3756 76.3985C80.0455 77.2018 79.2674 77.7266 78.4049 77.7266V76.5615C78.5382 76.5619 78.6728 76.5396 78.8004 76.4864L78.4224 75.5821L78.4234 75.5811L78.8023 76.4854C79.1844 76.3256 79.4156 75.96 79.4156 75.5733C79.414 75.348 79.3356 75.1314 79.1939 74.9571L79.1285 74.8838L79.1002 74.8584L79.0992 74.8565L78.4068 75.541L78.4234 75.5811L78.4224 75.5821ZM95.6686 74.584C95.5387 74.584 95.4153 74.6104 95.3014 74.6543L95.6861 75.5733H96.6793C96.6792 75.3508 96.6027 75.1333 96.4596 74.9571L96.3932 74.8838L96.3658 74.8584C96.2073 74.7102 96 74.6119 95.7731 74.5889L95.6686 74.584ZM95.3004 74.6543C95.0891 74.736 94.912 74.8837 94.7984 75.0733L94.733 75.2041C94.6843 75.3229 94.6618 75.4482 94.6617 75.5733H95.6842L95.3004 74.6543ZM78.4049 74.584C78.274 74.5841 78.15 74.6102 78.0357 74.6543L78.4068 75.541L79.0992 74.8565C78.9394 74.7077 78.7329 74.6114 78.5084 74.5889L78.4049 74.584Z" fill="white"/>
<path d="M99.7271 0H64.314C61.2186 0 58.709 2.50916 58.709 5.60406V37.4547C58.709 40.5496 61.2186 43.0588 64.314 43.0588H76.4711L81.2673 49.7331C81.6375 50.2481 82.4036 50.2481 82.7738 49.7331L87.57 43.0588H99.7271C102.823 43.0588 105.332 40.5496 105.332 37.4547V5.60406C105.332 2.50916 102.823 0 99.7271 0Z" fill="#CBECFF"/>
<path d="M78.083 39.9161L82.0205 45.3956L85.9581 39.9161H99.7276V43.0587H87.5704L82.7735 49.7335L82.7002 49.8233C82.3356 50.2181 81.7055 50.2181 81.3409 49.8233L81.2676 49.7335L76.4707 43.0587H64.3145V39.9161H78.083ZM102.19 37.4551V5.6045C102.19 4.24587 101.088 3.14282 99.7276 3.14258H64.3145C62.9542 3.14258 61.8516 4.24573 61.8516 5.6045V37.4551C61.8518 38.8137 62.9543 39.9161 64.3145 39.9161V43.0587L64.0254 43.0518C61.1596 42.9065 58.8611 40.6085 58.7158 37.7432L58.709 37.4551V5.6045C58.709 2.60636 61.0641 0.157018 64.0254 0.00683595L64.3145 0H99.7276C102.823 0.000234996 105.332 2.50974 105.332 5.6045V37.4551L105.325 37.7432C105.18 40.6086 102.882 42.9065 100.016 43.0518L99.7276 43.0587V39.9161C101.088 39.9158 102.189 38.8136 102.19 37.4551Z" fill="white"/>
<path d="M97.059 25.4039H91.5205V15.7822H97.059V17.4532H93.5553V19.5689H96.8165V21.2399H93.5553V23.7194H97.059V25.4039Z" fill="white"/>
<path d="M89.0887 25.4039H86.5014L82.3104 18.127H82.2565C82.2655 18.3516 82.2745 18.5807 82.2835 18.8143C82.2925 19.0389 82.3015 19.268 82.3104 19.5015C82.3284 19.7261 82.3419 19.9552 82.3509 20.1888C82.3599 20.4134 82.3688 20.6425 82.3778 20.8761V25.4039H80.5586V15.7822H83.1325L87.3099 22.9917H87.3504C87.3414 22.7671 87.3324 22.547 87.3234 22.3314C87.3144 22.1068 87.3054 21.8867 87.2965 21.6711C87.2965 21.4465 87.292 21.2264 87.283 21.0108C87.274 20.7862 87.265 20.5616 87.256 20.337V15.7822H89.0887V25.4039Z" fill="white"/>
<path d="M78.9187 25.4039H74.5391V24.245L75.7115 23.706V17.4802L74.5391 16.9411V15.7822H78.9187V16.9411L77.7463 17.4802V23.706L78.9187 24.245V25.4039Z" fill="white"/>
<path d="M67.7012 25.4039V15.7822H69.736V23.7194H73.644V25.4039H67.7012Z" fill="white"/>
</svg>
