<svg width="438" height="32" viewBox="0 0 438 32" fill="none" xmlns="http://www.w3.org/2000/svg">
<path d="M433.176 19.6161L432.952 6.36809C432.984 5.21609 433.912 4.28809 435.064 4.28809C436.216 4.28809 437.144 5.24809 437.144 6.40009L436.824 19.6481C436.824 20.8001 436.184 21.7281 435.032 21.7281C433.88 21.7281 433.176 20.7681 433.176 19.6161ZM435.032 23.7121C436.184 23.7121 437.112 24.6401 437.144 25.7921V26.1441C437.144 27.2961 436.216 28.2241 435.064 28.2241C433.912 28.2241 432.952 27.2961 432.952 26.1441V25.7921C432.952 24.6401 433.88 23.7121 435.032 23.7121Z" fill="#F68B1F"/>
<path d="M412.344 14.4005C416.024 14.3045 418.264 16.9605 418.136 21.3125C417.976 26.6245 415.32 30.4325 409.304 30.3685C405.848 30.3685 403.416 27.9685 403.48 24.9605C403.544 23.1685 404.984 21.3125 407.224 21.1205C410.392 20.8325 412.344 22.5605 412.568 25.1205C413.784 23.9365 413.944 22.4645 413.944 21.0565C413.976 18.8805 412.856 18.2725 411.736 18.2405C410.04 18.1765 408.024 18.7525 405.688 19.6485L404.312 21.1525C403.576 22.0485 402.168 22.2725 401.24 21.5685C400.312 20.8325 400.248 19.4565 400.952 18.5285L409.176 8.54445L405.048 8.92845C403.864 8.92845 402.904 8.00045 402.872 6.81645C402.872 5.66445 403.8 4.67245 404.952 4.67245L413.752 4.06445C414.936 4.06445 415.896 4.99245 415.928 6.14445C415.928 6.46445 415.736 7.20045 415.48 7.55245L409.336 14.9125C410.424 14.6245 411.096 14.4005 412.344 14.4005ZM407.032 25.2165C407 25.7925 407.672 26.3685 408.92 26.1125C408.984 25.4085 408.504 24.6725 407.832 24.6085C407.384 24.5765 407.064 24.8325 407.032 25.2165Z" fill="#F68B1F"/>
<path d="M366.744 29.5035C365.656 29.0555 365.272 27.8075 365.752 26.7195C369.112 19.9355 370.264 17.5035 371.736 13.5675L369.048 13.7595C367.896 13.8555 366.872 13.0235 366.808 11.8715C366.712 10.6875 367.608 9.66353 368.76 9.59953C368.76 9.59953 371.256 9.37553 372.6 9.27953C372.632 8.35153 372.632 6.87953 372.632 5.72753C372.632 5.69553 372.632 5.69553 372.632 5.66353C372.632 4.51153 373.528 3.55153 374.68 3.51953C375.864 3.51953 376.856 4.44753 376.856 5.63153C376.856 6.71953 376.856 8.03153 376.856 8.95953C377.72 8.92753 377.72 8.89553 378.776 8.89553C382.36 8.79953 384.312 10.7515 384.28 15.1355C384.248 19.5835 384.12 24.0955 383.48 28.4795C383.256 29.8875 382.296 30.5595 381.112 30.4315L377.976 30.1435C376.696 29.7915 375.928 28.9595 376.056 27.8075C376.152 26.6235 377.208 25.8235 378.392 25.9515L379.48 26.0475C380.056 23.0715 380.344 19.1035 380.28 15.1995C380.28 13.7595 379.768 12.9915 378.552 13.0235C376.952 13.0875 377.496 13.0875 376.216 13.2155C374.616 18.0475 369.624 28.4155 369.624 28.4155C369.144 29.5035 367.8 29.9835 366.744 29.5035ZM387.48 5.40753C388.504 6.59153 389.688 7.96753 390.776 9.24753C391.544 10.1435 391.416 11.4875 390.488 12.2235C389.592 12.9595 388.248 12.8315 387.512 11.9355C386.456 10.6875 385.304 9.37553 384.344 8.22353C383.576 7.35953 383.64 6.01553 384.504 5.24753C385.4 4.44753 386.712 4.54353 387.48 5.40753Z" fill="#F68B1F"/>
<path d="M334.488 14.3996C333.336 14.5276 332.28 13.6956 332.184 12.5116C332.056 11.3596 332.92 10.3036 334.104 10.1756C334.104 10.1756 344.92 8.7996 348.28 8.8316C352.888 8.89561 355.608 11.8716 355.608 15.9036C355.608 20.9916 350.968 24.7356 343.96 27.0396C342.776 27.4556 341.272 26.9436 340.92 25.6636C340.664 24.6396 341.24 23.5196 342.776 22.9756C349.88 20.6076 351.416 17.4396 351.416 15.9036C351.416 14.3676 350.36 12.8956 348.408 12.8636C344.312 12.7996 339.864 13.7916 334.488 14.3996Z" fill="#F68B1F"/>
<path d="M313.656 30.9763C312.504 30.9123 311.544 30.0483 311.544 28.8643V19.9683C311.16 19.9683 310.36 19.9683 309.976 19.9683C309.88 21.9203 309.56 22.8803 307.992 24.8323L303.256 30.3683C302.552 31.2963 301.176 31.4883 300.248 30.7843C299.288 30.0483 299.192 28.7683 299.896 27.8083C300.28 27.3283 303.512 23.7763 304.568 22.4003C305.496 21.2483 305.624 20.8323 305.752 19.7763C305.496 19.7443 304.952 19.7123 304.888 19.7123C303.544 19.6483 302.776 18.7523 302.776 17.6003V4.2243C302.776 3.0403 303.768 2.1123 304.952 2.1123C304.984 2.1123 317.048 2.1123 317.048 2.1123C318.296 2.2083 319 3.2643 319.064 4.4163V17.6003C319.064 18.7523 318.264 19.5523 316.92 19.7123C316.408 19.7763 316.184 19.7763 315.768 19.7763V26.8483C316.6 26.8803 317.368 26.8483 318.232 26.7843V26.0803C318.232 24.9283 319.16 23.9683 320.344 23.9683C321.496 23.9683 322.488 24.9283 322.488 26.0803V28.7363C322.488 29.8243 321.688 30.6883 320.632 30.8483C318.008 31.2003 315.896 31.1363 313.656 30.9763ZM307.032 5.6963V6.9123H314.808V5.6963H307.032ZM307.032 10.3363V11.5523L314.808 11.5203V10.3363H307.032ZM307.032 16.1603C309.688 16.3203 311.736 16.2883 314.808 16.1283V15.0083H307.032V16.1603Z" fill="#F68B1F"/>
<path d="M265.976 29.888C264.92 29.408 264.504 28.16 264.984 27.104C268.344 20.288 269.528 17.888 270.968 13.92L268.28 14.144C267.128 14.208 266.104 13.408 266.04 12.224C265.976 11.072 266.84 10.048 268.024 9.98403C268.024 9.98403 270.488 9.72803 271.832 9.66403C271.864 8.73603 271.864 7.26403 271.864 6.08003C271.864 6.08003 271.864 6.08003 271.864 6.04803C271.864 4.89603 272.76 3.93603 273.912 3.90403C275.096 3.90403 276.12 4.83203 276.12 6.01603C276.12 7.10403 276.088 8.38403 276.088 9.34403C276.984 9.28003 276.952 9.28003 278.008 9.24803C281.624 9.18403 283.544 11.104 283.544 15.52C283.512 19.968 283.352 24.48 282.712 28.864C282.52 30.272 281.528 30.912 280.376 30.816L277.208 30.528C275.928 30.176 275.192 29.344 275.288 28.16C275.416 27.008 276.472 26.208 277.624 26.304L278.744 26.4C279.288 23.456 279.608 19.488 279.544 15.584C279.512 14.144 279.032 13.344 277.784 13.408C276.184 13.472 276.728 13.44 275.448 13.6C273.848 18.432 268.856 28.8 268.856 28.8C268.408 29.856 267.064 30.368 265.976 29.888ZM286.136 6.04803C287.16 7.20003 288.344 8.57603 289.4 9.88803C290.168 10.784 290.04 12.128 289.112 12.864C288.216 13.6 286.872 13.472 286.136 12.576C285.08 11.328 283.96 9.98403 282.968 8.86403C282.2 7.96803 282.296 6.65603 283.16 5.85603C284.024 5.08803 285.368 5.15203 286.136 6.04803ZM287.672 0.832031C288.536 0.832031 289.272 1.53603 289.272 2.40003V4.16003C289.272 5.05603 288.536 5.76003 287.672 5.76003C286.808 5.76003 286.072 5.05603 286.072 4.16003V2.40003C286.072 1.53603 286.808 0.832031 287.672 0.832031ZM291.704 0.832031C292.568 0.832031 293.304 1.53603 293.304 2.40003V4.16003C293.304 5.05603 292.568 5.76003 291.704 5.76003C290.84 5.76003 290.104 5.05603 290.104 4.16003V2.40003C290.104 1.53603 290.84 0.832031 291.704 0.832031Z" fill="#F68B1F"/>
<path d="M241.048 6.27174V15.8077C241.048 16.9917 240.12 17.9197 238.936 17.9197C237.784 17.9197 236.792 16.9917 236.792 15.8077V6.27174C236.792 5.11974 237.752 4.15974 238.936 4.15974C240.088 4.15974 241.048 5.08774 241.048 6.27174ZM251.32 14.5597C251.288 16.3517 251.032 17.8877 250.424 19.4557C248.632 23.4557 246.328 27.1037 243.736 30.0157C242.968 30.8797 241.496 30.9437 240.632 30.1757C239.736 29.4077 239.832 28.1597 240.536 27.1997C243.96 22.6557 245.784 19.9997 246.744 17.3117C247 16.5757 247.128 15.2957 247.16 14.4317C247.192 11.1677 247.16 9.21574 247.096 5.88774C247.064 4.70374 247.992 3.74374 249.176 3.71174C250.328 3.67974 251.352 4.60774 251.32 5.75974C251.32 7.83974 251.384 11.8077 251.32 14.5597Z" fill="#F68B1F"/>
<path d="M210.552 2.20803C211.512 2.88003 211.64 4.28803 210.936 5.24803L210.584 5.79203H217.08C218.36 5.79203 219.224 6.78403 219.224 7.96803C219.192 10.272 219.256 13.024 219.224 14.144C219.128 15.872 218.712 17.28 217.848 18.592C215.384 22.24 212.024 26.272 208.28 29.856C207.448 30.656 205.944 30.688 205.144 29.824C204.344 28.992 204.472 27.68 205.24 26.816C210.392 21.312 214.936 16.608 215 14.272C215 13.024 214.968 11.52 214.968 10.016H207.608L204.6 14.272C203.928 15.232 202.584 15.424 201.656 14.752C200.696 14.08 200.472 12.736 201.176 11.808L207.512 2.78403C208.184 1.82403 209.592 1.53603 210.552 2.20803ZM211.32 17.568H208.312C207.128 17.568 206.168 16.608 206.168 15.424C206.168 14.272 207.128 13.312 208.312 13.312H211.32C212.504 13.312 213.432 14.272 213.432 15.424C213.432 16.608 212.504 17.568 211.32 17.568Z" fill="#F68B1F"/>
<path d="M171.192 17.4401C170.136 17.4401 169.272 16.5761 169.272 15.5201V12.8641C169.272 11.7761 170.136 10.9441 171.192 10.9441C172.248 10.9441 173.112 11.7761 173.112 12.8641V15.5201C173.112 16.5761 172.248 17.4401 171.192 17.4401ZM176.728 17.4401C175.672 17.4401 174.808 16.5761 174.808 15.5201V12.8641C174.808 11.7761 175.672 10.9441 176.728 10.9441C177.784 10.9441 178.648 11.7761 178.648 12.8641V15.5201C178.648 16.5761 177.784 17.4401 176.728 17.4401ZM174.552 28.8641C173.944 28.2241 173.752 26.8161 175.224 25.7281C177.88 23.0721 179.896 21.2481 181.688 17.8561C182.072 17.0881 182.072 16.5121 182.104 15.7761V12.4161C182.104 11.3601 182.968 10.4961 184.024 10.4961C184.536 10.4961 185.016 10.6881 185.368 11.0401C185.72 11.4241 185.944 11.9041 185.944 12.4161V16.0961C185.944 17.2801 185.624 18.6241 184.984 19.6801C183.096 22.9441 180.472 26.1761 177.4 28.9601C176.6 29.6961 175.256 29.6321 174.552 28.8641Z" fill="#F68B1F"/>
<path d="M150.68 11.9364L140.152 14.8164V24.7044C142.808 24.9924 146.84 24.8964 150.2 24.3524C151.352 24.1604 152.472 24.7044 152.76 25.8244C153.048 26.9444 152.312 28.2884 151.16 28.4804C146.552 29.2804 142.2 29.2484 137.88 28.6084C136.792 28.5124 135.896 27.6164 135.896 26.4964V6.04841C135.896 4.89641 136.824 3.93641 138.008 3.93641C139.16 3.93641 140.12 4.86441 140.12 6.04841V10.5284L149.56 7.84041C150.712 7.55241 151.864 8.22441 152.152 9.34441C152.472 10.4644 151.8 11.6484 150.68 11.9364ZM153.688 2.81641C155.224 2.81641 156.504 4.09641 156.504 5.63241C156.504 7.20041 155.224 8.44841 153.688 8.44841C152.12 8.44841 150.872 7.20041 150.872 5.63241C150.872 4.09641 152.12 2.81641 153.688 2.81641ZM153.688 6.84841C154.36 6.84841 154.936 6.30441 154.936 5.60041C154.936 4.92841 154.36 4.35241 153.688 4.35241C152.984 4.35241 152.44 4.92841 152.44 5.60041C152.44 6.30441 152.984 6.84841 153.688 6.84841Z" fill="#F68B1F"/>
<path d="M112.856 25.2162C116.472 22.0162 118.264 19.7122 118.296 15.9362C118.36 12.4162 115.736 9.76024 111.672 9.82424C106.552 9.92024 103.896 13.2162 103.832 16.8322C103.8 18.9122 104.44 20.4482 105.432 20.5442C106.52 20.6082 107.928 18.0162 108.888 13.3762C109.112 12.2242 110.008 11.4562 111.16 11.5842C112.376 11.7442 113.304 12.8002 113.048 13.9522C112.312 17.6642 110.2 25.0562 105.336 25.0882C102.552 25.0882 99.736 21.8242 99.832 16.7362C99.96 10.6242 105.048 6.04824 111.608 5.92024C118.712 5.82424 122.456 11.1042 122.456 16.0002C122.456 20.1922 120.472 24.5442 115.608 28.4802C114.712 29.2162 113.112 29.0882 112.376 28.1922C111.768 27.4562 111.832 26.1442 112.856 25.2162Z" fill="#F68B1F"/>
<path d="M68.4399 29.6318C67.2879 29.4078 66.584 28.2878 66.808 27.1358L70.296 11.3918H68.7599C67.5759 11.3918 66.6479 10.4318 66.6479 9.27981C66.6479 8.09581 67.5759 7.16781 68.7599 7.16781H71.2239L71.864 4.35181C72.088 3.19981 73.2079 2.46381 74.3599 2.71981C75.5119 2.94381 76.248 4.09581 75.992 5.21581L75.576 7.16781H78.8719C80.0559 7.16781 81.016 8.09581 81.016 9.27981C81.016 10.4318 80.0559 11.3918 78.8719 11.3918H74.616L70.9679 27.9998C70.7119 29.1518 69.5919 29.8878 68.4399 29.6318ZM86.712 11.9998C87.896 11.9998 88.8559 12.9278 88.8559 14.1118C88.8239 14.5278 88.6959 14.9118 88.4719 15.4238L86.1679 18.9438C85.5919 19.9678 84.2799 20.3198 83.2879 19.7438C82.1999 19.1038 82.136 17.8878 82.68 16.9918L83.32 16.2238H80.4399C79.2559 16.2238 78.3279 15.2638 78.3279 14.0798C78.3279 12.9278 79.2879 11.9998 80.4399 11.9998H86.712ZM87.2239 29.4078C86.0399 29.5678 84.952 29.6318 83.544 29.5038C79.448 29.1198 77.4959 27.1998 77.9439 22.9118C78.0399 21.7278 78.968 20.9918 80.152 21.0238C81.016 21.0558 82.168 21.7278 82.072 22.8478C81.88 24.5758 82.2319 25.1838 83.9279 25.3118C84.9519 25.4078 85.7839 25.3438 86.7759 25.2158C87.9919 25.0878 89.1119 25.6958 89.1759 27.0398C89.2399 28.4798 88.1199 29.3118 87.2239 29.4078Z" fill="#F68B1F"/>
<path d="M45.9119 9.66401C45.9119 8.51201 46.8399 7.55201 48.0239 7.55201L52.7919 7.52001C53.9759 7.52001 54.9359 8.48001 54.9359 9.63201C54.9359 10.816 53.9759 11.776 52.8239 11.776H48.0239C46.8719 11.776 45.9119 10.848 45.9119 9.66401ZM38.0719 19.296C37.9119 20.448 36.8239 21.248 35.6719 21.088C34.5199 20.896 33.7199 19.84 33.8799 18.656L35.0639 11.168H34.1999C33.0159 11.168 32.0559 10.24 32.0879 9.05601C32.0879 7.87201 33.0159 6.94401 34.1999 6.94401H35.6719L35.9599 4.67201C36.1519 3.48801 37.2079 2.68801 38.3599 2.88001C39.5439 3.04001 40.3439 4.12801 40.1519 5.28001L39.8959 6.97601H42.0399C43.1919 6.97601 44.1519 7.93601 44.1519 9.08801C44.1519 10.272 43.1919 11.2 42.0079 11.2H39.2879L38.0719 19.296ZM54.2959 20.192C55.5759 20.448 56.2799 21.504 56.1199 22.56C55.9599 23.712 55.0959 24.608 53.7519 24.416C53.1119 24.32 51.6399 23.936 50.9999 23.872C50.9999 24.384 50.9679 25.952 50.9679 25.952C50.9039 28.64 49.3359 30.496 46.4879 30.496C43.3839 30.464 40.4399 26.88 40.5999 23.648C40.7279 21.472 42.1359 19.424 45.6879 19.36C46.0079 19.36 46.3919 19.392 46.7439 19.392C46.7439 18.08 46.7439 16.352 46.7439 15.296C46.7439 14.112 47.7039 13.184 48.8559 13.184C50.0399 13.184 50.9999 14.112 50.9999 15.296C50.9999 16.416 50.9999 18.24 50.9999 19.648C51.7999 19.744 53.2399 20 54.2959 20.192ZM46.7439 25.696C46.7759 25.152 46.7439 24.224 46.7439 23.584C46.3599 23.52 46.1039 23.52 45.7839 23.52C45.2719 23.552 44.8879 23.68 44.8239 24.096C44.6959 25.248 45.7519 26.24 46.3919 26.24C46.5519 26.24 46.7439 26.112 46.7439 25.696Z" fill="#F68B1F"/>
<path d="M6.58391 28.6725C3.54391 28.8965 1.07991 26.3365 0.663913 22.8165C0.183913 18.9445 1.91191 15.4245 6.07191 13.6965C6.07191 12.1605 6.16791 10.8485 6.26391 9.44047H4.66391C3.51191 9.44047 2.55191 8.48047 2.55191 7.32847C2.55191 6.14447 3.51191 5.18447 4.66391 5.18447H6.74391C6.80791 4.60847 6.90391 3.77647 6.96791 3.20047C7.09591 2.04847 8.18391 1.21647 9.33591 1.40847C10.4879 1.56847 11.2879 2.46447 11.1599 3.77647C11.0959 4.38447 11.0319 4.80047 10.9999 5.18447H15.4799C16.6319 5.18447 17.5919 6.14447 17.5919 7.32847C17.5919 8.48047 16.6319 9.44047 15.4799 9.44047H10.4879C10.2959 10.7205 10.2319 11.5845 10.1999 12.7685C10.7439 12.7045 11.4479 12.6725 12.0239 12.6725C12.9519 12.6725 13.5599 12.6725 14.4239 12.8645C14.4879 12.7045 14.5199 12.6725 14.5839 12.5125C15.0319 11.4245 16.0879 10.8165 17.2079 11.1685C18.2959 11.5205 18.9999 12.7685 18.5519 13.8885C18.4879 14.0165 18.4559 14.1445 18.3919 14.2725C21.4319 16.0005 22.0399 18.4965 22.0399 20.6725C22.0399 24.8965 19.1279 28.2245 16.8239 30.1125C15.8959 30.8485 14.1359 30.8485 13.4639 29.7605C12.7599 28.6725 13.3679 27.4565 14.1999 26.6885C16.4719 24.6405 17.8479 23.0725 18.0079 21.1845C18.1679 19.3285 17.3679 18.3365 16.6639 18.0165C14.2319 23.0725 10.4239 28.4165 6.58391 28.6725ZM6.07191 18.2085C4.91991 18.9765 4.27991 20.3845 4.50391 22.2085C4.69591 23.8085 5.52791 24.6085 6.19991 24.6085C7.92791 24.5765 10.8399 20.8965 12.6639 16.7045C11.9279 16.5125 10.9679 16.5445 10.2639 16.7045C10.2959 17.5685 10.2959 18.7525 10.3599 19.6165C10.4559 20.8005 9.52791 21.7925 8.37591 21.8885C7.19191 21.9845 6.19991 21.0885 6.13591 19.9365C6.10391 19.4245 6.07191 18.9445 6.07191 18.2085Z" fill="#F68B1F"/>
</svg>
