<svg width="51" height="63" viewBox="0 0 51 63" fill="none" xmlns="http://www.w3.org/2000/svg">
<path d="M24.0129 0.0229992C10.18 0.610917 -0.564334 12.307 0.0229754 26.1611C0.610285 40.0083 26.6454 62.3907 26.6454 62.3907C26.6454 62.3907 50.7043 37.8849 50.117 24.0377C49.5297 10.1905 37.8457 -0.564919 24.006 0.0229992H24.0129Z" fill="#EDB67A"/>
<path d="M37.3609 16.5629L37.3871 16.5367C37.4133 16.5105 37.436 16.4808 37.4569 16.4494L39.8931 18.8857C39.977 18.9696 40.101 18.9835 40.1691 18.9154L40.9567 18.1278C41.0248 18.0597 41.0108 17.9357 40.927 17.8518L33.1486 10.073C33.0648 9.98916 32.9408 9.97519 32.8727 10.0433L32.0851 10.831C32.017 10.8991 32.0309 11.0231 32.1148 11.1069L34.551 13.5433C34.5195 13.5625 34.4898 13.5852 34.4636 13.6131L34.4374 13.6393L31.9314 16.1455L31.7078 16.3691L26.1072 10.7681C26.0234 10.6843 25.8994 10.6703 25.8313 10.7384L24.9633 11.6064C24.8952 11.6745 24.9092 11.7985 24.993 11.8824L28.9625 15.8521L12.7875 32.028C12.7194 32.0961 12.7334 32.2201 12.8172 32.304L14.148 33.6348L12.9569 34.8259C12.8888 34.894 12.9028 35.018 12.9866 35.1018L14.1183 36.2335L10.0544 40.6242C9.87981 40.8373 10.1627 41.1202 10.3758 40.9456L14.7662 36.8815L15.8978 38.0132C15.9817 38.097 16.1057 38.111 16.1738 38.0429L17.3648 36.8518L18.6955 38.1826C18.7794 38.2664 18.9034 38.2804 18.9715 38.2123L35.1465 22.0364L39.116 26.0061C39.1998 26.09 39.3238 26.104 39.3919 26.0358L40.2599 25.1678C40.328 25.0997 40.314 24.9757 40.2302 24.8919L34.6295 19.2909L34.8531 19.0674L37.3591 16.5612L37.3609 16.5629ZM18.8999 32.4297C18.8353 32.4943 18.7514 32.5258 18.6676 32.5258C18.5838 32.5258 18.5 32.4943 18.4353 32.4297L15.9834 29.9776C15.8542 29.8502 15.8542 29.6406 15.9834 29.5131C16.1126 29.3838 16.3205 29.3838 16.4479 29.5131L18.8999 31.9651C19.0291 32.0926 19.0291 32.3022 18.8999 32.4297ZM21.8181 29.5113C21.7535 29.576 21.6696 29.6074 21.5858 29.6074C21.502 29.6074 21.4182 29.576 21.3535 29.5113L18.9016 27.0593C18.7724 26.9318 18.7724 26.7222 18.9016 26.5947C19.0309 26.4655 19.2387 26.4655 19.3662 26.5947L21.8181 29.0468C21.9473 29.1743 21.9473 29.3838 21.8181 29.5113ZM24.738 26.5912C24.6734 26.6558 24.5896 26.6873 24.5058 26.6873C24.4219 26.6873 24.3381 26.6558 24.2735 26.5912L21.8216 24.1392C21.6923 24.0117 21.6923 23.8021 21.8216 23.6746C21.9508 23.5454 22.1586 23.5454 22.2861 23.6746L24.738 26.1267C24.8673 26.2541 24.8673 26.4637 24.738 26.5912ZM27.6562 23.6728C27.5916 23.7375 27.5078 23.7689 27.424 23.7689C27.3401 23.7689 27.2563 23.7375 27.1917 23.6728L24.7398 21.2208C24.6105 21.0933 24.6105 20.8837 24.7398 20.7562C24.869 20.627 25.0768 20.627 25.2043 20.7562L27.6562 23.2083C27.7855 23.3358 27.7855 23.5454 27.6562 23.6728ZM30.5744 20.7545C30.5098 20.8191 30.426 20.8505 30.3422 20.8505C30.2583 20.8505 30.1745 20.8191 30.1099 20.7545L27.658 18.3024C27.5288 18.1749 27.5288 17.9653 27.658 17.8379C27.7872 17.7086 27.995 17.7086 28.1225 17.8379L30.5744 20.2899C30.7037 20.4174 30.7037 20.627 30.5744 20.7545Z" fill="white"/>
</svg>
