<svg width="382" height="87" viewBox="0 0 382 87" fill="none" xmlns="http://www.w3.org/2000/svg">
<path d="M356.661 71.6163V84.1861C356.661 86.003 355.846 86.4479 354.14 86.4479C352.62 86.4479 352.027 85.6322 352.027 84.1861V73.2477C351.025 74.1006 349.839 75.1017 348.689 75.1017C347.392 75.1017 346.316 73.6927 346.316 72.4691C346.316 71.2825 347.169 70.578 349.654 68.8724C351.99 67.278 353.992 65.0903 355.475 62.6431C355.623 62.4206 355.883 62.0127 355.883 61.7532C355.883 61.197 355.141 61.1599 354.956 61.1599H348.949C347.429 61.1599 346.687 60.5296 346.687 58.9352C346.687 57.4891 347.577 56.8958 348.949 56.8958H351.99V53.5587C351.99 51.7789 352.805 51.2598 354.474 51.2598C355.994 51.2598 356.661 52.0755 356.661 53.5587V56.8958H357.663C359.739 56.8958 361.037 57.7486 361.037 59.9734C361.037 62.5689 359.22 65.0903 357.737 67.1297C358.627 68.1308 359.591 69.0578 360.555 69.9477C361.667 70.9117 362.335 71.5421 362.335 72.3578C362.335 73.4702 361.296 74.6567 360.147 74.6567C358.849 74.6567 357.551 72.8769 356.661 71.6163ZM373.199 61.1599H378.501C380.244 61.1599 380.911 61.9015 380.911 63.6071C380.911 65.2015 379.984 65.7948 378.501 65.7948H373.199V80.7377H379.132C380.837 80.7377 381.505 81.4422 381.505 83.1479C381.505 84.7052 380.578 85.2985 379.132 85.2985H362.112C360.369 85.2985 359.48 84.7052 359.48 82.8883C359.48 81.2198 360.629 80.7377 362.112 80.7377H368.453V65.7948H363.41C361.704 65.7948 361.074 65.0162 361.074 63.3476C361.074 61.8273 361.89 61.1599 363.41 61.1599H368.453V53.6328C368.453 51.816 369.306 51.3339 371.011 51.3339C372.568 51.3339 373.199 52.1126 373.199 53.6328V61.1599Z" fill="#035AAB"/>
<path d="M323.929 25.9141C328.956 25.9141 334.327 28.1176 337.288 32.3182C341.626 38.4468 342.659 47.812 342.659 55.1802C342.659 62.4795 341.626 72.0512 337.288 78.111C334.258 82.2427 328.956 84.5151 323.929 84.5151C318.833 84.5151 313.6 82.2427 310.57 78.111C306.232 72.1201 305.13 62.4106 305.13 55.1802C305.13 47.812 306.163 38.4468 310.57 32.3182C313.531 28.1176 318.902 25.9141 323.929 25.9141ZM323.929 34.0397C314.908 34.0397 314.839 48.9138 314.839 55.1802C314.839 61.4465 314.977 76.3206 323.929 76.3206C332.881 76.3206 333.019 61.4465 333.019 55.1802C333.019 48.9138 332.881 34.0397 323.929 34.0397Z" fill="#035AAB"/>
<path d="M272.567 48.9828C275.528 46.8481 278.282 46.0906 281.932 46.0906C287.992 46.0906 293.5 49.1205 296.668 54.2852C298.596 57.3839 299.285 61.309 299.285 64.9587C299.285 76.4585 291.848 84.5153 280.21 84.5153C273.462 84.5153 266.989 81.6231 263.546 75.6322C262.651 74.0484 261.755 72.1203 261.755 70.261C261.755 67.5754 263.752 66.1982 266.3 66.1982C269.743 66.1982 270.57 68.0574 271.534 70.8807C272.704 74.3238 276.492 76.3208 280.004 76.3208C286.683 76.3208 289.644 71.0873 289.644 65.0275C289.644 59.1054 286.408 54.2163 280.073 54.2163C278.42 54.2163 276.836 54.5606 275.39 55.2492C273.875 56.0067 273.393 56.6264 272.291 57.7971C271.121 59.0366 269.812 59.5875 268.091 59.5875C265.198 59.5875 263.615 58.0725 263.89 55.1115L265.887 34.3154C266.438 29.0819 268.573 27.3604 273.737 27.3604H292.468C295.153 27.3604 296.944 28.5999 296.944 31.492C296.944 34.3154 295.153 35.5549 292.468 35.5549H276.423C274.77 35.5549 273.737 36.3123 273.6 38.0339L272.567 48.9828Z" fill="#035AAB"/>
<path d="M245.478 56.3767H252.374C256.416 56.3767 256.713 58.4532 256.713 61.8644C256.713 66.2398 256.564 78.6984 255.526 82.4063C255.044 84.0749 254.043 85.521 252.263 85.9289C251.077 86.1884 248.852 86.1884 247.554 86.1884H246.85C245.849 86.1884 244.328 86.1884 243.846 85.9659C242.956 85.5581 242.548 84.6311 242.548 83.7041C242.548 81.9985 243.624 81.4423 245.181 81.4423C246.293 81.4423 247.406 81.5164 248.518 81.5164C250.965 81.5164 251.077 80.6636 251.373 78.4018C251.892 74.2118 252.004 67.1297 252.004 62.7914V62.2352C252.004 61.3453 251.892 60.6408 250.632 60.6408H243.957C243.327 62.0498 242.363 64.0521 241.473 65.2757C241.028 65.9061 240.62 66.314 239.805 66.314C238.581 66.314 237.32 65.3499 237.32 64.0521C237.32 63.3105 237.765 62.6802 238.173 62.0869C239.471 60.1588 240.769 57.1554 241.362 54.9306C241.992 52.6317 242.029 51.2969 243.995 51.2969C245.033 51.2969 246.331 51.6677 246.331 52.8913C246.331 53.4475 246.071 54.5598 245.478 56.3767ZM227.717 64.9791C226.456 63.2735 225.27 62.0869 223.786 60.6408C223.304 60.1959 223.008 59.788 223.008 59.1206C223.008 58.1194 223.823 56.8217 225.158 56.8217C225.529 56.8217 225.789 56.8958 226.122 57.0812C226.975 55.7835 227.717 54.4115 228.421 53.0025C228.866 52.2239 229.311 51.4823 230.312 51.4823C231.313 51.4823 232.834 52.2239 232.834 53.4475C232.834 54.2261 232.055 55.6351 231.202 56.9329C230.609 57.9341 229.867 59.1206 229.163 60.0476C229.534 60.4925 229.867 60.9375 230.238 61.3824C231.647 59.1577 232.463 57.7857 233.056 56.7104C233.761 55.4127 234.206 55.079 235.096 55.079C236.282 55.079 237.654 55.8205 237.654 57.1183C237.654 57.6374 237.432 58.0453 237.209 58.4532C236.727 59.2689 235.763 60.6408 235.207 61.4566C233.983 63.2735 232.722 65.0533 231.313 66.7218C232.352 66.6477 233.39 66.5735 234.428 66.4623C234.206 65.9432 233.872 65.0903 233.872 64.5341C233.872 63.6442 234.799 63.1251 235.578 63.1251C236.579 63.1251 236.95 64.0521 237.394 65.2016C237.802 66.2769 238.989 69.4657 238.989 70.4297C238.989 71.468 238.062 72.0242 237.135 72.0242C236.171 72.0242 235.874 71.3567 235.54 70.0219C234.725 70.1702 233.909 70.2814 233.056 70.3927V84.5569C233.056 86.1142 232.278 86.5592 230.831 86.5592C229.422 86.5592 228.755 85.9659 228.755 84.5569V70.8005C227.791 70.8747 225.64 71.0972 224.788 71.0972C223.453 71.0972 222.896 70.2443 222.896 68.9837C222.896 67.1297 224.046 67.0185 226.085 67.0185C226.679 66.351 227.198 65.6836 227.717 64.9791ZM241.288 67.4263C241.288 66.2398 242.586 65.4611 243.661 65.4611C244.884 65.4611 245.441 66.351 246.59 68.6499C247.109 69.6511 248.667 72.7287 248.667 73.6927C248.667 74.9534 247.22 75.7691 246.071 75.7691C244.736 75.7691 244.44 75.0276 243.772 73.2478C243.327 72.0612 242.771 70.8376 242.178 69.7252C241.621 68.7241 241.288 67.9454 241.288 67.4263ZM235.911 72.5803C237.283 72.5803 237.469 73.6186 237.691 74.7309C238.025 76.177 238.544 79.1063 238.544 80.5524C238.544 81.9243 238.136 82.4805 236.727 82.4805C235.244 82.4805 235.021 81.776 234.799 79.6254C234.688 78.6243 234.576 77.4006 234.317 75.8062C234.206 75.25 234.094 74.6197 234.094 74.0264C234.094 72.9511 234.947 72.5803 235.911 72.5803ZM225.789 72.6545C227.012 72.6545 227.606 73.0624 227.606 74.3231C227.606 75.695 227.161 80.367 226.901 81.776C226.679 82.9254 226.493 83.8524 225.084 83.8524C224.046 83.8524 223.008 83.4816 223.008 82.258C223.008 81.8872 223.045 81.5906 223.267 80.5524C223.823 77.9939 223.935 76.177 224.046 74.9163C224.194 73.2848 224.38 72.6545 225.789 72.6545Z" fill="#035AAB"/>
<path d="M195.754 71.6163V84.1861C195.754 86.003 194.939 86.4479 193.233 86.4479C191.713 86.4479 191.119 85.6322 191.119 84.1861V73.2477C190.118 74.1006 188.932 75.1017 187.782 75.1017C186.484 75.1017 185.409 73.6927 185.409 72.4691C185.409 71.2825 186.262 70.578 188.746 68.8724C191.082 67.278 193.085 65.0903 194.568 62.6431C194.716 62.4206 194.976 62.0127 194.976 61.7532C194.976 61.197 194.234 61.1599 194.049 61.1599H188.042C186.522 61.1599 185.78 60.5296 185.78 58.9352C185.78 57.4891 186.67 56.8958 188.042 56.8958H191.082V53.5587C191.082 51.7789 191.898 51.2598 193.567 51.2598C195.087 51.2598 195.754 52.0755 195.754 53.5587V56.8958H196.755C198.832 56.8958 200.13 57.7486 200.13 59.9734C200.13 62.5689 198.313 65.0903 196.83 67.1297C197.719 68.1308 198.684 69.0578 199.648 69.9477C200.76 70.9117 201.427 71.5421 201.427 72.3578C201.427 73.4702 200.389 74.6567 199.24 74.6567C197.942 74.6567 196.644 72.8769 195.754 71.6163ZM212.292 61.1599H217.594C219.337 61.1599 220.004 61.9015 220.004 63.6071C220.004 65.2015 219.077 65.7948 217.594 65.7948H212.292V80.7377H218.224C219.93 80.7377 220.597 81.4422 220.597 83.1479C220.597 84.7052 219.67 85.2985 218.224 85.2985H201.205C199.462 85.2985 198.572 84.7052 198.572 82.8883C198.572 81.2198 199.722 80.7377 201.205 80.7377H207.545V65.7948H202.503C200.797 65.7948 200.167 65.0162 200.167 63.3476C200.167 61.8273 200.982 61.1599 202.503 61.1599H207.545V53.6328C207.545 51.816 208.398 51.3339 210.104 51.3339C211.661 51.3339 212.292 52.1126 212.292 53.6328V61.1599Z" fill="#035AAB"/>
<path d="M156.265 63.5338C155.004 64.2754 152.149 65.9439 150.814 65.9439C149.405 65.9439 148.552 64.4237 148.552 63.163C148.552 61.754 149.368 61.3461 150.555 60.9012C155.412 59.0843 158.823 56.3404 162.457 52.7437C163.681 51.5572 164.422 51.0381 166.165 51.0381C167.833 51.0381 168.612 51.5201 169.799 52.6696C173.803 56.6741 176.584 58.8989 181.924 61.0495C183.036 61.5315 183.777 61.9023 183.777 63.2371C183.777 64.572 182.851 65.981 181.404 65.981C180.181 65.981 177.326 64.3124 176.176 63.6079C176.028 64.9799 175.212 65.3877 173.914 65.3877H158.489C157.155 65.3877 156.376 64.9428 156.265 63.5338ZM159.713 61.2719H172.691C170.503 59.6775 168.76 58.0831 166.944 56.0809C166.758 55.8584 166.499 55.6359 166.202 55.6359C165.794 55.6359 165.423 56.0809 165.164 56.3775C163.495 58.1944 161.678 59.8259 159.713 61.2719ZM176.77 83.6307C171.727 84.224 166.61 84.5206 161.53 84.8543C160.269 84.9285 152.779 85.3364 152.075 85.3364C150.517 85.3364 149.776 84.5577 149.776 82.9633C149.776 81.2206 150.666 80.8127 152.223 80.7385C153.15 80.7015 153.892 80.7385 154.93 80.7015C156.265 78.2542 157.6 75.807 158.489 73.1744H151.63C150.035 73.1744 149.368 72.4328 149.368 70.8384C149.368 69.3552 150.221 68.7619 151.63 68.7619H180.626C182.22 68.7619 182.888 69.4665 182.888 71.0609C182.888 72.544 182.035 73.1744 180.626 73.1744H163.606C162.531 75.7328 161.307 78.1059 159.936 80.5531C164.57 80.3677 169.205 80.1082 173.84 79.8486C173.432 79.3295 173.062 78.8846 172.654 78.4767C170.948 76.6598 170.689 76.2149 170.689 75.5474C170.689 74.3609 172.135 73.4339 173.247 73.4339C174.026 73.4339 174.619 73.8789 175.138 74.398C176.25 75.4733 177.289 76.6227 178.327 77.7722C179.291 78.8846 180.589 80.479 181.404 81.6655C181.849 82.2588 182.257 82.9262 182.257 83.6678C182.257 85.0397 180.589 86.115 179.365 86.115C178.401 86.115 178.03 85.5217 177.437 84.5948C177.252 84.2981 177.029 83.9644 176.77 83.6307Z" fill="#035AAB"/>
<path d="M127.454 61.9757C126.75 62.4577 125.489 63.3105 124.673 63.3105C123.524 63.3105 122.745 62.2723 122.486 61.2712C122.3 61.7532 121.336 64.2746 121.336 64.6083C121.336 64.942 121.559 65.2386 121.744 65.4982C123.339 67.7971 124.154 71.0971 124.154 73.8781C124.154 77.1781 123.079 79.0321 119.556 79.0321C117.74 79.0321 117.035 78.2905 117.035 76.5107C117.035 75.6208 117.22 74.6197 118.259 74.5455C119.186 74.4714 119.89 74.286 119.89 72.5062C119.89 70.2072 119.223 68.0566 118.036 66.2027C117.74 65.7577 117.554 65.3499 117.554 64.8678C117.554 64.3487 117.814 63.533 118.147 62.606C118.481 61.7161 119.779 57.9711 119.779 57.2295C119.779 56.7104 119.334 56.5992 118.926 56.5992H117.888C117.295 56.5992 116.998 56.8958 116.998 57.452V84.2232C116.998 85.8176 116.368 86.485 114.773 86.485C113.29 86.485 112.734 85.5951 112.734 84.2232V56.4138C112.734 52.9654 113.513 52.2609 116.924 52.2609H119.742C122.263 52.2609 123.821 52.5575 123.821 55.4868C123.821 56.6363 123.598 57.7857 123.301 58.8981C123.672 58.6015 125.23 57.7857 125.749 57.5262C127.677 56.4879 129.679 54.5969 131.385 52.78C132.386 51.7418 133.165 51.2598 134.648 51.2598C136.131 51.2598 136.947 51.6306 137.948 52.7059C140.617 55.6351 141.989 56.7104 145.438 58.6756C146.253 59.1576 146.81 59.6026 146.81 60.6408C146.81 61.8644 145.92 63.2364 144.585 63.2364C143.732 63.2364 142.36 62.2723 141.656 61.7903C141.47 62.9026 140.766 63.1993 139.728 63.1993H136.724V65.2757H140.84C144.251 65.2757 144.993 66.0173 144.993 69.4286V72.0612C144.993 75.4725 144.251 76.2141 140.84 76.2141H138.059C139.802 79.2546 142.138 80.5153 145.252 81.8501C146.216 82.258 146.736 82.7029 146.736 83.7782C146.736 85.0389 145.883 86.2996 144.548 86.2996C143.176 86.2996 140.951 84.9648 139.839 84.149C137.651 82.5917 136.057 80.8119 134.722 78.4759C133.387 81.1085 131.088 83.4074 128.567 84.8906C127.64 85.4468 125.823 86.3367 124.748 86.3367C123.413 86.3367 122.56 85.0389 122.56 83.8153C122.56 82.6288 123.19 82.1467 124.228 81.7389C127.454 80.5523 129.605 79.4029 131.236 76.2141H128.493C125.081 76.2141 124.303 75.4725 124.303 72.0612V69.4286C124.303 66.0173 125.081 65.2757 128.493 65.2757H132.497V63.1993H129.345C128.418 63.1993 127.714 62.9768 127.454 61.9757ZM130.829 59.4172H138.504C137.392 58.4161 136.316 57.2666 135.389 56.1542C135.093 55.7834 134.981 55.6722 134.722 55.6722C134.462 55.6722 134.351 55.8205 134.092 56.1542C133.127 57.3037 132.015 58.4531 130.829 59.4172ZM136.576 72.4691H140.172C140.766 72.4691 141.062 72.1724 141.062 71.5792V69.9106C141.062 69.3173 140.766 69.0207 140.172 69.0207H136.724V69.6881C136.724 70.6522 136.687 71.505 136.576 72.4691ZM132.349 72.4691C132.46 71.505 132.497 70.6522 132.497 69.6881V69.0207H129.123C128.53 69.0207 128.233 69.3173 128.233 69.9106V71.5792C128.233 72.1724 128.53 72.4691 129.123 72.4691H132.349Z" fill="#035AAB"/>
<path d="M82.7 61.4196V84.2233C82.7 85.7436 81.9955 86.5222 80.4011 86.5222C78.9179 86.5222 78.2875 85.6323 78.2875 84.2233V69.3546C77.7684 69.9108 77.2493 70.2816 76.4707 70.2816C75.0617 70.2816 74.0234 68.8725 74.0234 67.5377C74.0234 66.4995 74.5796 65.7579 75.1729 64.9792C77.3976 61.9016 79.6224 57.4892 80.4752 53.7813C80.7719 52.3723 81.0685 51.4453 82.737 51.4453C83.9607 51.4453 85.1472 51.9644 85.1472 53.3734C85.1472 55.1532 83.4416 59.6769 82.7 61.4196ZM94.6024 76.3255C93.2305 78.1794 88.1135 84.4087 85.8146 84.4087C84.6281 84.4087 83.5899 83.0368 83.5899 81.9244C83.5899 80.9604 84.2944 80.3671 85.036 79.8851C87.854 77.9199 89.263 76.8075 91.4507 74.1007C91.9698 73.4704 92.4889 72.8029 92.9709 72.1355H86.4079C84.8876 72.1355 84.1461 71.5052 84.1461 69.9478C84.1461 68.4647 85.073 67.9085 86.4079 67.9085H94.6024V65.0534H90.672C87.5944 65.0534 86.4079 63.8298 86.4079 60.7522V56.7847C86.4079 53.7071 87.5944 52.5206 90.672 52.5206H102.982C106.06 52.5206 107.246 53.7071 107.246 56.7847V60.7522C107.246 63.8298 106.06 65.0534 102.982 65.0534H98.9407V67.9085H107.061C108.544 67.9085 109.323 68.5388 109.323 70.0962C109.323 71.5793 108.396 72.1355 107.061 72.1355H100.683C101.277 72.9883 101.87 73.8412 102.537 74.6569C104.725 77.2524 105.837 78.1053 108.359 80.1817C108.915 80.6267 109.286 81.0716 109.286 81.7761C109.286 82.9997 108.136 84.3717 106.876 84.3717C105.874 84.3717 104.985 83.4447 103.909 82.3694C102.018 80.4413 100.424 78.2907 98.9407 75.9917V84.1862C98.9407 85.7807 98.2732 86.4481 96.6788 86.4481C95.1586 86.4481 94.6024 85.5953 94.6024 84.1862V76.3255ZM101.425 56.3768H92.1922C91.3394 56.3768 90.9316 56.7847 90.9316 57.6375V59.9735C90.9316 60.8264 91.3394 61.2342 92.1922 61.2342H101.425C102.278 61.2342 102.686 60.8264 102.686 59.9735V57.6375C102.686 56.7476 102.278 56.4139 101.425 56.3768Z" fill="#035AAB"/>
<path d="M46.3992 67.9084C47.8082 67.3152 48.2902 67.2039 48.7352 67.2039C50.033 67.2039 50.6262 68.3163 50.6262 69.4657C50.6262 71.1714 49.1431 71.5422 46.3992 72.6916V82.0356C46.3992 86.1514 44.8419 86.1885 40.9856 86.1885C39.4654 86.1885 37.6856 86.1514 37.6856 83.6671C37.6856 81.8873 38.7238 81.4423 40.3553 81.4423H40.9856C41.7643 81.4423 41.9868 81.0715 41.9868 80.33V74.3602C41.2452 74.6198 39.8733 75.0647 39.0946 75.0647C37.7597 75.0647 37.1294 73.6928 37.1294 72.5433C37.1294 71.3568 37.6114 70.7635 38.835 70.4298C39.6508 70.2073 40.6519 69.9107 41.9868 69.5028V62.3095H39.4654C37.9081 62.3095 37.2777 61.5679 37.2777 60.0106C37.2777 58.5645 38.0193 57.897 39.4654 57.897H41.9868V53.6329C41.9868 52.1868 42.6542 51.3711 44.2115 51.3711C45.7318 51.3711 46.3992 52.1868 46.3992 53.6329V57.897H48.1419C49.6992 57.897 50.3296 58.6386 50.3296 60.1589C50.3296 61.642 49.5509 62.3095 48.1419 62.3095H46.3992V67.9084ZM53.5555 56.9701H51.2566C49.8476 56.9701 49.1801 56.2655 49.1801 54.8195C49.1801 53.4104 49.8105 52.6689 51.2566 52.6689H64.7534C65.8658 52.6689 66.7557 52.743 67.6085 53.5217C68.2018 54.0779 68.4613 54.8195 68.4613 55.6352C68.4613 56.8588 67.6827 59.7881 67.2748 60.9746C67.1636 61.3083 67.1265 61.5308 67.1265 61.6791C67.1265 62.1982 67.4602 62.2353 67.8681 62.2353H68.3872C69.2029 62.2353 69.8333 62.2353 70.5378 62.7915C71.2423 63.3106 71.4647 64.0893 71.4647 64.9792C71.4647 65.832 71.2793 66.9073 71.131 67.7601C70.3524 71.468 68.6838 74.9905 66.4961 78.0681C68.0535 79.5513 69.4625 80.4412 71.2052 81.6277C71.8726 82.1098 72.3176 82.5176 72.3176 83.3704C72.3176 84.7053 71.2793 86.1514 69.8703 86.1514C68.2388 86.1514 64.7163 82.703 63.5669 81.5165C62.0095 82.9997 58.1162 86.2255 55.9286 86.2255C54.5566 86.2255 53.5926 84.9278 53.5926 83.7042C53.5926 82.4805 54.5195 81.9985 55.4465 81.5165C57.3005 80.4783 59.1174 79.4401 60.6747 77.994C59.0061 75.5838 57.8196 73.3591 56.9297 70.6152C56.151 75.4355 54.9645 78.958 52.4431 83.148C51.3678 84.9278 50.4408 86.2997 49.1801 86.2997C47.9194 86.2997 46.7329 85.2986 46.7329 84.0008C46.7329 83.148 47.2149 82.4806 47.697 81.8131C51.2937 76.7333 52.5543 72.2467 53.1476 66.0915C53.4442 63.051 53.5555 60.0106 53.5555 56.9701ZM58.005 56.9701C58.005 57.6004 57.9679 58.1937 57.9679 58.7869C58.3016 64.1634 60.1185 70.4298 63.4927 74.6939C64.8646 72.6916 65.7916 70.4669 66.3478 68.2421C66.459 67.7972 66.5332 67.4635 66.5332 67.1668C66.5332 66.5736 66.1995 66.4994 64.9017 66.4994C63.5298 66.4994 62.0466 65.6466 62.0466 64.0522C62.0466 63.2735 62.2691 62.569 62.4916 61.8645C62.714 61.16 63.5298 58.2678 63.5298 57.7116C63.5298 57.1555 63.0848 56.9701 62.6028 56.9701H58.005Z" fill="#035AAB"/>
<path d="M19.1458 54.709C19.6278 54.3382 20.184 54.227 20.7773 54.227H29.528C32.7168 54.227 34.237 54.5607 34.237 58.1945C34.237 60.0484 33.9033 62.3103 33.5696 64.2013C32.828 68.4654 31.3819 72.6554 29.1201 76.3633C30.8628 78.5139 32.0123 79.3667 34.0887 81.0724C34.7932 81.6285 35.2753 82.1847 35.2753 83.1488C35.2753 84.5578 34.0516 85.8927 32.6056 85.8927C30.6774 85.8927 27.4145 81.851 26.3021 80.3679C24.9672 81.9252 23.447 83.3713 21.8526 84.669C21.2593 85.1511 20.6661 85.596 19.8503 85.596C18.4784 85.596 17.4031 84.3353 17.4031 83.0005C17.4031 81.8881 18.293 81.2207 19.1087 80.5903C20.7402 79.2926 22.2975 77.9577 23.6324 76.3262C22.3717 74.0273 21.4447 71.7284 20.7031 69.207C20.2211 67.5014 19.1829 63.2002 19.1829 61.5316C19.1829 60.1226 20.184 59.5293 21.5189 59.5293C23.002 59.5293 23.4099 60.2709 23.5953 61.6058C24.0773 65.1654 24.9302 68.725 26.4504 71.9879C27.8594 69.207 28.7864 66.2036 29.3055 63.0889C29.4167 62.3103 29.7505 60.3451 29.7505 59.6777C29.7505 58.6765 29.2314 58.5282 28.3415 58.5282H20.7773C19.3683 58.5282 18.5525 57.9349 18.5525 56.4147V56.2293C18.1076 56.563 17.6626 56.6001 17.1435 56.6001V84.187C17.1435 85.8185 16.439 86.4488 14.8446 86.4488C13.3615 86.4488 12.8053 85.596 12.8053 84.187V80.0341C10.9884 80.5532 3.94333 82.1847 2.38601 82.1847C0.976996 82.1847 0.30957 81.1465 0.30957 79.8487C0.30957 78.0319 1.6815 77.7723 2.97927 77.5869V56.6001H2.49724C1.19947 56.6001 0.420808 55.8214 0.420808 54.4866C0.420808 53.1517 1.16239 52.373 2.49724 52.373H17.1806C18.5525 52.373 19.1458 53.0405 19.1458 54.4124V54.709ZM12.8053 56.6001H7.35462V60.6417H12.8053V56.6001ZM12.8053 64.4609H7.35462V68.5396H12.8053V64.4609ZM7.35462 76.9566C9.1715 76.6229 10.9884 76.3262 12.8053 75.9554V72.3958H7.35462V76.9566Z" fill="#035AAB"/>
<path d="M335.637 17.2769L335.595 17.398C335.321 17.9806 334.096 18.2049 332.739 17.8961C331.382 17.5872 330.374 16.8549 330.38 16.2113L330.395 16.084L332.886 5.13816C333.039 4.46683 334.336 4.1895 335.783 4.51862C337.23 4.84797 338.281 5.65947 338.128 6.33107L335.637 17.2769Z" fill="white"/>
<path d="M332.739 17.8963C334.096 18.2049 335.32 17.9806 335.595 17.3984L335.637 17.2769L338.128 6.33112C338.281 5.65956 337.23 4.84799 335.783 4.51858C334.427 4.21008 333.202 4.43428 332.928 5.01652L332.886 5.13823L330.395 16.084L330.379 16.2115C330.374 16.8551 331.383 17.5875 332.739 17.8963ZM332.131 20.5623C331.168 20.3429 330.224 19.9532 329.453 19.4C328.844 18.9627 327.631 17.8984 327.645 16.1893L327.646 16.0343L327.665 15.8813L327.68 15.7536L327.698 15.6144L330.22 4.52959C330.675 2.5363 332.528 1.93923 333.277 1.77892C334.271 1.5664 335.368 1.61994 336.389 1.85216L336.39 1.85237C337.411 2.08484 338.423 2.51157 339.227 3.13303C339.833 3.60095 341.247 4.94069 340.795 6.93595L338.269 18.036L338.217 18.1835L338.175 18.304L338.129 18.4357L338.069 18.5614C337.342 20.108 335.788 20.5428 335.05 20.6735C334.115 20.8389 333.096 20.7818 332.132 20.5625L332.131 20.5623Z" fill="#035AAB"/>
<path d="M344.786 23.1774L344.694 23.2678C344.189 23.6735 343.026 23.3583 341.994 22.5107C340.962 21.6631 340.426 20.5836 340.726 20.01L340.797 19.9026L348.129 10.9717C348.57 10.4357 349.819 10.7337 350.921 11.6376C352.022 12.5417 352.558 13.7099 352.118 14.2465L344.786 23.1774Z" fill="white"/>
<path d="M341.994 22.5105C342.961 23.3049 344.044 23.6317 344.591 23.3354L344.694 23.2678L344.786 23.1768L352.118 14.2462C352.558 13.7097 352.022 12.5412 350.92 11.6371C349.888 10.7898 348.725 10.4748 348.221 10.8804L348.129 10.9713L340.797 19.9019L340.725 20.0096C340.444 20.5474 340.898 21.5296 341.806 22.3485L341.994 22.5105ZM340.258 24.6238C339.504 24.0042 338.845 23.2343 338.418 22.3874C338.067 21.6915 337.528 20.2236 338.302 18.7428L338.37 18.6119L338.452 18.4894L338.524 18.3817L338.599 18.2703L346.017 9.23477C347.272 7.70707 349.122 7.91543 349.912 8.10385C350.901 8.33993 351.855 8.86713 352.655 9.52368C353.455 10.1805 354.158 11.0138 354.582 11.9383C354.921 12.6757 355.487 14.4498 354.232 15.9798L346.804 25.0273L346.699 25.1314L346.606 25.2217L346.512 25.315L346.407 25.3987C345.106 26.4452 343.562 26.2023 342.811 25.9938C341.897 25.7401 341.013 25.2435 340.258 24.6238Z" fill="#035AAB"/>
<path d="M348.719 33.6458L348.593 33.6731C347.952 33.7509 347.157 32.9135 346.762 31.7083C346.368 30.5033 346.512 29.3577 347.075 29.041L347.194 28.9896L358.174 25.3914C358.834 25.1756 359.71 26.0423 360.131 27.3275C360.552 28.6131 360.359 29.8311 359.7 30.0475L348.719 33.6458Z" fill="white"/>
<path d="M346.762 31.7089C347.157 32.9136 347.952 33.7504 348.593 33.673L348.72 33.6459L359.7 30.0478C360.359 29.8314 360.552 28.6134 360.131 27.328C359.736 26.1232 358.942 25.2862 358.301 25.3639L358.174 25.3919L347.194 28.9901L347.075 29.0413C346.513 29.3583 346.368 30.5041 346.762 31.7089ZM344.164 32.5594C343.865 31.6463 343.732 30.6542 343.844 29.7157C343.94 28.9157 344.318 27.4549 345.734 26.6578L345.857 26.5887L345.986 26.5331L346.105 26.4809L346.222 26.4302L357.324 22.792C359.133 22.2005 360.559 23.2523 361.166 23.8526C361.888 24.5667 362.412 25.5078 362.729 26.4756L362.73 26.4765C363.047 27.4445 363.181 28.5135 363.022 29.5162C362.888 30.3584 362.362 32.0517 360.553 32.6456L349.437 36.2884L349.299 36.3183L349.173 36.346L349.048 36.3726L348.923 36.388C347.31 36.5836 346.141 35.63 345.59 35.0416C344.943 34.3517 344.463 33.4735 344.164 32.5604L344.164 32.5594Z" fill="#035AAB"/>
</svg>
