<svg width="54" height="67" viewBox="0 0 54 67" fill="none" xmlns="http://www.w3.org/2000/svg">
<path d="M27.348 0.00782347C12.6009 -0.345974 0.356956 11.3441 0.00355473 26.1078C-0.349847 40.8715 25.765 66.5071 25.765 66.5071C25.765 66.5071 53.0653 42.1466 53.4188 27.3829C53.7722 12.6192 42.0952 0.361621 27.348 0.00782347Z" fill="#A6CBEC"/>
<path d="M39.2747 18.0226L39.3028 17.9946C39.3308 17.9665 39.3551 17.9348 39.3775 17.9011L41.9841 20.5081C42.0738 20.5978 42.2065 20.6128 42.2794 20.5399L43.1221 19.697C43.1949 19.6242 43.18 19.4915 43.0903 19.4018L34.7678 11.0781C34.6781 10.9884 34.5455 10.9735 34.4726 11.0463L33.6299 11.8892C33.557 11.9621 33.572 12.0947 33.6616 12.1844L36.2683 14.7914C36.2346 14.812 36.2029 14.8363 36.1748 14.8662L36.1468 14.8942L33.4655 17.5759L33.2263 17.8152L27.2339 11.8219C27.1442 11.7322 27.0115 11.7172 26.9386 11.7901L26.01 12.7189C25.9371 12.7918 25.9521 12.9245 26.0417 13.0142L30.2889 17.262L12.9825 34.5709C12.9096 34.6438 12.9246 34.7764 13.0143 34.8661L14.4381 36.2902L13.1638 37.5647C13.0909 37.6376 13.1058 37.7703 13.1955 37.86L14.4063 39.071L10.0583 43.7691C9.8714 43.9971 10.1741 44.2999 10.4021 44.113L15.0996 39.7643L16.3104 40.9753C16.4001 41.065 16.5327 41.0799 16.6056 41.007L17.88 39.7325L19.3038 41.1566C19.3935 41.2463 19.5261 41.2612 19.599 41.1883L36.9054 23.8794L41.1526 28.1272C41.2423 28.2169 41.375 28.2319 41.4478 28.159L42.3765 27.2302C42.4494 27.1573 42.4344 27.0246 42.3447 26.9349L36.3523 20.9417L36.5915 20.7025L39.2729 18.0207L39.2747 18.0226ZM19.5224 35.0007C19.4533 35.0698 19.3636 35.1035 19.2739 35.1035C19.1842 35.1035 19.0945 35.0698 19.0254 35.0007L16.4019 32.3769C16.2637 32.2405 16.2637 32.0162 16.4019 31.8798C16.5402 31.7415 16.7626 31.7415 16.899 31.8798L19.5224 34.5036C19.6607 34.64 19.6607 34.8643 19.5224 35.0007ZM22.6447 31.8779C22.5756 31.9471 22.4859 31.9807 22.3962 31.9807C22.3065 31.9807 22.2168 31.9471 22.1477 31.8779L19.5243 29.2541C19.386 29.1177 19.386 28.8934 19.5243 28.757C19.6625 28.6187 19.8849 28.6187 20.0213 28.757L22.6447 31.3808C22.783 31.5172 22.783 31.7415 22.6447 31.8779ZM25.7689 28.7533C25.6998 28.8224 25.6101 28.8561 25.5204 28.8561C25.4307 28.8561 25.341 28.8224 25.2719 28.7533L22.6485 26.1295C22.5102 25.9931 22.5102 25.7688 22.6485 25.6324C22.7867 25.4941 23.0091 25.4941 23.1455 25.6324L25.7689 28.2562C25.9072 28.3926 25.9072 28.6169 25.7689 28.7533ZM28.8913 25.6305C28.8221 25.6997 28.7324 25.7333 28.6427 25.7333C28.5531 25.7333 28.4634 25.6997 28.3942 25.6305L25.7708 23.0067C25.6325 22.8703 25.6325 22.646 25.7708 22.5096C25.9091 22.3713 26.1314 22.3713 26.2678 22.5096L28.8913 25.1334C29.0295 25.2698 29.0295 25.4941 28.8913 25.6305ZM32.0136 22.5077C31.9445 22.5769 31.8548 22.6105 31.7651 22.6105C31.6754 22.6105 31.5857 22.5769 31.5166 22.5077L28.8931 19.8839C28.7549 19.7475 28.7549 19.5232 28.8931 19.3868C29.0314 19.2485 29.2538 19.2485 29.3902 19.3868L32.0136 22.0106C32.1519 22.1471 32.1519 22.3713 32.0136 22.5077Z" fill="white"/>
</svg>
