<svg width="340" height="211" viewBox="0 0 340 211" fill="none" xmlns="http://www.w3.org/2000/svg">
<path d="M169.833 0C263.475 9.71727e-05 339.387 47.0795 339.387 105.154C339.387 126.552 329.08 146.455 311.38 163.062C316.359 172.488 328.028 181.153 338.377 184.081C326.034 191.45 299.397 190.403 291.83 178.177C260.995 197.986 217.735 210.308 169.833 210.308C76.1909 210.308 0.278659 163.229 0.27832 105.154C0.27832 47.0794 76.1907 0 169.833 0Z" fill="white"/>
<path d="M274.501 142.32L273.701 126.8L273.621 122.08H278.021L277.941 126.8L277.141 142.32H274.501ZM275.821 152.2C275.101 152.2 274.488 151.96 273.981 151.48C273.501 151 273.261 150.36 273.261 149.56C273.261 148.76 273.515 148.12 274.021 147.64C274.528 147.133 275.128 146.88 275.821 146.88C276.515 146.88 277.115 147.133 277.621 147.64C278.128 148.12 278.381 148.76 278.381 149.56C278.381 150.36 278.128 151 277.621 151.48C277.115 151.96 276.515 152.2 275.821 152.2Z" fill="#494949"/>
<path d="M244.621 138.68C244.621 137.56 244.328 136.573 243.741 135.72C243.181 134.84 242.381 134.16 241.341 133.68C240.328 133.173 239.141 132.92 237.781 132.92C236.235 132.92 234.781 133.04 233.421 133.28C232.061 133.52 230.821 133.8 229.701 134.12C228.608 134.44 227.661 134.706 226.861 134.92C226.248 135.106 225.648 135.306 225.061 135.52C224.501 135.733 223.981 135.946 223.501 136.16L222.461 132.44C223.021 132.386 223.621 132.306 224.261 132.2C224.928 132.093 225.555 131.973 226.141 131.84C227.101 131.626 228.208 131.373 229.461 131.08C230.741 130.786 232.115 130.52 233.581 130.28C235.075 130.04 236.581 129.92 238.101 129.92C239.995 129.92 241.688 130.266 243.181 130.96C244.675 131.653 245.848 132.666 246.701 134C247.581 135.306 248.021 136.906 248.021 138.8C248.021 140.986 247.568 142.933 246.661 144.64C245.755 146.32 244.475 147.786 242.821 149.04C241.195 150.266 239.275 151.293 237.061 152.12C234.848 152.946 232.448 153.546 229.861 153.92L228.061 150.88C230.461 150.586 232.675 150.12 234.701 149.48C236.728 148.813 238.475 147.986 239.941 147C241.435 146.013 242.581 144.826 243.381 143.44C244.208 142.053 244.621 140.466 244.621 138.68ZM227.821 120.68C228.915 120.92 230.221 121.146 231.741 121.36C233.288 121.573 234.875 121.773 236.501 121.96C238.155 122.12 239.701 122.253 241.141 122.36C242.608 122.466 243.835 122.52 244.821 122.52L244.341 125.6C243.221 125.52 241.915 125.426 240.421 125.32C238.955 125.186 237.421 125.04 235.821 124.88C234.248 124.693 232.715 124.506 231.221 124.32C229.755 124.106 228.448 123.906 227.301 123.72L227.821 120.68Z" fill="#494949"/>
<path d="M197.301 127.16C197.248 127.453 197.195 127.933 197.141 128.6C197.088 129.267 197.061 129.88 197.061 130.44C197.061 130.867 197.061 131.467 197.061 132.24C197.061 133.013 197.061 133.827 197.061 134.68C197.061 135.533 197.061 136.32 197.061 137.04C197.061 137.893 197.075 138.893 197.101 140.04C197.155 141.187 197.208 142.373 197.261 143.6C197.341 144.8 197.408 145.933 197.461 147C197.515 148.067 197.541 148.947 197.541 149.64C197.541 150.493 197.341 151.293 196.941 152.04C196.541 152.787 195.901 153.387 195.021 153.84C194.168 154.32 192.995 154.56 191.501 154.56C189.955 154.56 188.568 154.347 187.341 153.92C186.115 153.52 185.155 152.92 184.461 152.12C183.795 151.347 183.461 150.373 183.461 149.2C183.461 147.547 184.195 146.227 185.661 145.24C187.128 144.227 189.235 143.72 191.981 143.72C193.661 143.72 195.261 143.92 196.781 144.32C198.301 144.693 199.728 145.2 201.061 145.84C202.395 146.48 203.595 147.173 204.661 147.92C205.755 148.667 206.701 149.413 207.501 150.16L205.821 152.96C205.021 152.133 204.101 151.32 203.061 150.52C202.021 149.72 200.888 149 199.661 148.36C198.461 147.693 197.181 147.173 195.821 146.8C194.488 146.4 193.101 146.2 191.661 146.2C190.061 146.2 188.768 146.453 187.781 146.96C186.795 147.44 186.301 148.147 186.301 149.08C186.301 149.853 186.728 150.507 187.581 151.04C188.435 151.547 189.635 151.8 191.181 151.8C192.275 151.8 193.101 151.52 193.661 150.96C194.221 150.373 194.501 149.613 194.501 148.68C194.501 147.987 194.475 147.16 194.421 146.2C194.395 145.213 194.355 144.173 194.301 143.08C194.248 141.96 194.195 140.853 194.141 139.76C194.115 138.667 194.101 137.693 194.101 136.84C194.101 136.28 194.101 135.587 194.101 134.76C194.101 133.933 194.101 133.133 194.101 132.36C194.101 131.56 194.101 130.933 194.101 130.48C194.101 129.867 194.075 129.24 194.021 128.6C193.968 127.933 193.901 127.453 193.821 127.16H197.301ZM195.621 133.32C196.155 133.32 196.875 133.307 197.781 133.28C198.715 133.227 199.728 133.173 200.821 133.12C201.915 133.067 203.008 133 204.101 132.92C205.195 132.84 206.168 132.747 207.021 132.64L207.061 135.44C206.235 135.547 205.275 135.64 204.181 135.72C203.115 135.773 202.021 135.827 200.901 135.88C199.808 135.933 198.795 135.973 197.861 136C196.955 136.027 196.208 136.04 195.621 136.04V133.32Z" fill="#494949"/>
<path d="M149.421 120.84C149.315 121.506 149.235 122.186 149.181 122.88C149.128 123.546 149.088 124.213 149.061 124.88C149.008 126 148.955 127.386 148.901 129.04C148.848 130.693 148.795 132.453 148.741 134.32C148.688 136.16 148.648 138 148.621 139.84C148.595 141.68 148.581 143.333 148.581 144.8C148.581 146.266 148.861 147.44 149.421 148.32C149.981 149.2 150.755 149.826 151.741 150.2C152.728 150.573 153.861 150.76 155.141 150.76C156.955 150.76 158.595 150.533 160.061 150.08C161.528 149.6 162.835 148.973 163.981 148.2C165.128 147.4 166.141 146.506 167.021 145.52C167.928 144.533 168.741 143.52 169.461 142.48L171.741 145.2C171.048 146.16 170.195 147.16 169.181 148.2C168.195 149.213 167.021 150.16 165.661 151.04C164.301 151.92 162.728 152.64 160.941 153.2C159.181 153.76 157.208 154.04 155.021 154.04C153.128 154.04 151.448 153.746 149.981 153.16C148.515 152.573 147.368 151.626 146.541 150.32C145.715 149.013 145.301 147.28 145.301 145.12C145.301 143.92 145.315 142.6 145.341 141.16C145.368 139.693 145.408 138.186 145.461 136.64C145.515 135.093 145.555 133.586 145.581 132.12C145.608 130.626 145.635 129.253 145.661 128C145.688 126.746 145.701 125.706 145.701 124.88C145.701 124.133 145.675 123.413 145.621 122.72C145.568 122.026 145.488 121.386 145.381 120.8L149.421 120.84Z" fill="#494949"/>
<path d="M118.742 120.24C118.688 120.587 118.635 120.974 118.582 121.4C118.555 121.827 118.528 122.334 118.502 122.92C118.502 123.32 118.488 123.92 118.462 124.72C118.462 125.52 118.462 126.427 118.462 127.44C118.462 128.427 118.462 129.427 118.462 130.44C118.462 131.454 118.462 132.387 118.462 133.24C118.462 134.574 118.488 135.974 118.542 137.44C118.595 138.907 118.662 140.334 118.742 141.72C118.822 143.107 118.888 144.374 118.942 145.52C118.995 146.667 119.022 147.574 119.022 148.24C119.022 149.174 118.795 150.067 118.342 150.92C117.915 151.774 117.182 152.467 116.142 153C115.128 153.56 113.742 153.84 111.982 153.84C109.102 153.84 106.902 153.334 105.382 152.32C103.862 151.334 103.102 149.88 103.102 147.96C103.102 146.734 103.462 145.667 104.182 144.76C104.928 143.854 105.995 143.147 107.382 142.64C108.768 142.107 110.422 141.84 112.342 141.84C114.448 141.84 116.422 142.094 118.262 142.6C120.128 143.08 121.835 143.694 123.382 144.44C124.928 145.187 126.302 145.974 127.502 146.8C128.702 147.6 129.688 148.32 130.462 148.96L128.622 151.8C127.715 150.947 126.662 150.094 125.462 149.24C124.288 148.387 122.995 147.6 121.582 146.88C120.195 146.16 118.688 145.587 117.062 145.16C115.462 144.707 113.755 144.48 111.942 144.48C110.022 144.48 108.555 144.8 107.542 145.44C106.555 146.08 106.062 146.867 106.062 147.8C106.062 148.387 106.248 148.934 106.622 149.44C106.995 149.92 107.595 150.307 108.422 150.6C109.248 150.894 110.315 151.04 111.622 151.04C112.395 151.04 113.102 150.947 113.742 150.76C114.382 150.547 114.888 150.187 115.262 149.68C115.662 149.174 115.862 148.467 115.862 147.56C115.862 146.787 115.835 145.787 115.782 144.56C115.755 143.307 115.715 141.987 115.662 140.6C115.608 139.187 115.555 137.827 115.502 136.52C115.475 135.214 115.462 134.12 115.462 133.24C115.462 132.334 115.462 131.414 115.462 130.48C115.462 129.52 115.462 128.574 115.462 127.64C115.462 126.707 115.462 125.814 115.462 124.96C115.488 124.107 115.502 123.334 115.502 122.64C115.502 122.32 115.488 121.907 115.462 121.4C115.435 120.894 115.395 120.507 115.342 120.24H118.742ZM103.422 124.6C104.088 124.707 104.862 124.814 105.742 124.92C106.622 125.027 107.542 125.134 108.502 125.24C109.488 125.32 110.422 125.387 111.302 125.44C112.208 125.467 112.995 125.48 113.662 125.48C116.195 125.48 118.782 125.387 121.422 125.2C124.088 125.014 126.715 124.707 129.302 124.28L129.262 127.2C127.795 127.36 126.195 127.52 124.462 127.68C122.728 127.84 120.942 127.974 119.102 128.08C117.288 128.187 115.488 128.24 113.702 128.24C112.768 128.24 111.662 128.2 110.382 128.12C109.102 128.04 107.835 127.947 106.582 127.84C105.355 127.734 104.315 127.64 103.462 127.56L103.422 124.6ZM103.222 133.08C103.942 133.187 104.742 133.294 105.622 133.4C106.502 133.507 107.408 133.587 108.342 133.64C109.275 133.694 110.168 133.747 111.022 133.8C111.875 133.827 112.635 133.84 113.302 133.84C115.248 133.84 117.128 133.8 118.942 133.72C120.782 133.614 122.582 133.48 124.342 133.32C126.128 133.134 127.888 132.907 129.622 132.64L129.582 135.64C128.248 135.827 126.915 135.987 125.582 136.12C124.275 136.227 122.955 136.32 121.622 136.4C120.315 136.48 118.968 136.547 117.582 136.6C116.222 136.627 114.782 136.64 113.262 136.64C112.355 136.64 111.302 136.614 110.102 136.56C108.928 136.507 107.728 136.44 106.502 136.36C105.302 136.28 104.222 136.187 103.262 136.08L103.222 133.08Z" fill="#494949"/>
<path d="M69.4213 120.84C69.3146 121.506 69.2346 122.186 69.1813 122.88C69.1279 123.546 69.0879 124.213 69.0613 124.88C69.0079 126 68.9546 127.386 68.9013 129.04C68.8479 130.693 68.7946 132.453 68.7413 134.32C68.6879 136.16 68.6479 138 68.6213 139.84C68.5946 141.68 68.5813 143.333 68.5813 144.8C68.5813 146.266 68.8613 147.44 69.4213 148.32C69.9813 149.2 70.7546 149.826 71.7413 150.2C72.7279 150.573 73.8613 150.76 75.1413 150.76C76.9546 150.76 78.5946 150.533 80.0613 150.08C81.5279 149.6 82.8346 148.973 83.9813 148.2C85.1279 147.4 86.1413 146.506 87.0213 145.52C87.9279 144.533 88.7413 143.52 89.4613 142.48L91.7413 145.2C91.0479 146.16 90.1946 147.16 89.1813 148.2C88.1946 149.213 87.0213 150.16 85.6613 151.04C84.3013 151.92 82.7279 152.64 80.9413 153.2C79.1813 153.76 77.2079 154.04 75.0213 154.04C73.1279 154.04 71.4479 153.746 69.9813 153.16C68.5146 152.573 67.3679 151.626 66.5413 150.32C65.7146 149.013 65.3013 147.28 65.3013 145.12C65.3013 143.92 65.3146 142.6 65.3413 141.16C65.3679 139.693 65.4079 138.186 65.4613 136.64C65.5146 135.093 65.5546 133.586 65.5813 132.12C65.6079 130.626 65.6346 129.253 65.6613 128C65.6879 126.746 65.7013 125.706 65.7013 124.88C65.7013 124.133 65.6746 123.413 65.6213 122.72C65.5679 122.026 65.4879 121.386 65.3813 120.8L69.4213 120.84Z" fill="#494949"/>
<path d="M254.661 64.7196H257.462V74.0796H254.661V64.7196ZM264.982 64.7196H267.822V74.0796H264.982V64.7196ZM262.301 81.9196H264.742V101H262.301V81.9196ZM248.142 68.1596H274.102V70.7996H248.142V68.1596ZM255.581 86.8796H271.502V88.9996H255.581V86.8796ZM255.581 92.4396H271.502V94.5596H255.581V92.4396ZM250.182 75.4796H274.301V78.1196H250.182V75.4796ZM248.861 75.4796H251.622V84.1196C251.622 85.3729 251.582 86.7463 251.502 88.2396C251.422 89.7063 251.248 91.2129 250.982 92.7596C250.715 94.2796 250.328 95.7596 249.822 97.1996C249.342 98.6396 248.715 99.9729 247.941 101.2C247.781 101.013 247.555 100.8 247.262 100.56C246.995 100.32 246.715 100.08 246.422 99.8396C246.155 99.6263 245.915 99.4663 245.702 99.3596C246.662 97.8396 247.355 96.1863 247.782 94.3996C248.235 92.6129 248.528 90.8263 248.661 89.0396C248.795 87.2529 248.861 85.5996 248.861 84.0796V75.4796ZM254.062 81.0796H271.861V83.3996H256.661V101.2H254.062V81.0796ZM270.661 81.0796H273.262V98.2796C273.262 98.9463 273.181 99.4663 273.021 99.8396C272.861 100.24 272.555 100.546 272.102 100.76C271.622 100.973 270.982 101.106 270.182 101.16C269.408 101.213 268.421 101.226 267.221 101.2C267.195 100.88 267.101 100.493 266.941 100.04C266.808 99.5863 266.648 99.1863 266.462 98.8396C267.315 98.8663 268.075 98.8796 268.742 98.8796C269.408 98.8796 269.848 98.8663 270.062 98.8396C270.462 98.8396 270.661 98.6396 270.661 98.2396V81.0796ZM245.142 64.5996L247.902 65.3596C247.155 67.6796 246.261 69.9729 245.221 72.2396C244.208 74.5063 243.102 76.6529 241.902 78.6796C240.702 80.6796 239.435 82.4529 238.102 83.9996C238.022 83.7596 237.888 83.4529 237.702 83.0796C237.515 82.6796 237.315 82.2929 237.102 81.9196C236.888 81.5196 236.702 81.1996 236.542 80.9596C237.715 79.5996 238.835 78.0529 239.902 76.3196C240.968 74.5596 241.942 72.6796 242.822 70.6796C243.728 68.6796 244.502 66.6529 245.142 64.5996ZM241.902 74.3996L244.702 71.6396L244.782 71.7196V101.2H241.902V74.3996Z" fill="#494949"/>
<path d="M200.421 66.6802L201.941 64.6002C202.661 64.8402 203.421 65.1469 204.221 65.5202C205.048 65.8669 205.835 66.2269 206.581 66.6002C207.328 66.9735 207.928 67.3202 208.381 67.6402L206.821 70.0002C206.341 69.6535 205.741 69.2802 205.021 68.8802C204.301 68.4802 203.541 68.0935 202.741 67.7202C201.941 67.3202 201.168 66.9735 200.421 66.6802ZM197.421 73.3602L198.901 71.2402C199.648 71.4535 200.421 71.7202 201.221 72.0402C202.048 72.3602 202.835 72.6802 203.581 73.0002C204.328 73.3202 204.941 73.6402 205.421 73.9602L203.941 76.3202C203.461 76.0002 202.848 75.6669 202.101 75.3202C201.355 74.9469 200.568 74.5869 199.741 74.2402C198.941 73.8935 198.168 73.6002 197.421 73.3602ZM198.541 86.0802C199.261 85.4402 200.061 84.6669 200.941 83.7602C201.848 82.8535 202.781 81.8935 203.741 80.8802C204.701 79.8669 205.608 78.8535 206.461 77.8402L208.061 79.8802C206.915 81.2669 205.701 82.7069 204.421 84.2002C203.141 85.6935 201.888 87.0935 200.661 88.4002L198.541 86.0802ZM214.141 87.3202H217.221V101.24H214.141V87.3202ZM197.941 90.6002H233.861V93.3602H197.941V90.6002ZM213.741 64.2002L216.621 65.0802C215.955 66.5469 215.141 67.9869 214.181 69.4002C213.248 70.8135 212.248 72.1335 211.181 73.3602C210.115 74.5869 209.048 75.6535 207.981 76.5602C207.821 76.3735 207.595 76.1469 207.301 75.8802C207.035 75.6135 206.741 75.3602 206.421 75.1202C206.128 74.8535 205.861 74.6402 205.621 74.4802C207.248 73.2535 208.781 71.7335 210.221 69.9202C211.688 68.0802 212.861 66.1735 213.741 64.2002ZM210.661 71.3602L213.581 68.8802V85.4802H210.661V71.3602ZM212.461 68.8002H232.061V71.2402H210.981L212.461 68.8002ZM210.661 84.6002H233.181V87.0802H210.661V84.6002ZM211.861 74.1602H230.901V76.4402H211.861V74.1602ZM211.861 79.3202H230.981V81.6002H211.861V79.3202ZM220.101 69.7202H222.941V85.5202H220.101V69.7202ZM222.221 64.4002L225.461 65.0402C224.875 66.0269 224.275 67.0135 223.661 68.0002C223.048 68.9869 222.475 69.8402 221.941 70.5602L219.461 69.9202C219.968 69.1469 220.475 68.2402 220.981 67.2002C221.488 66.1602 221.901 65.2269 222.221 64.4002Z" fill="#494949"/>
<path d="M174.061 70.9996C175.155 71.1596 176.421 71.2929 177.861 71.3996C179.328 71.4796 180.835 71.5196 182.381 71.5196C183.955 71.4929 185.448 71.4396 186.861 71.3596C188.301 71.2529 189.515 71.1196 190.501 70.9596V74.1996C189.435 74.3063 188.181 74.3996 186.741 74.4796C185.328 74.5329 183.848 74.5596 182.301 74.5596C180.781 74.5596 179.301 74.5329 177.861 74.4796C176.421 74.3996 175.155 74.3063 174.061 74.1996V70.9996ZM175.621 87.2796C175.435 87.9996 175.288 88.6529 175.181 89.2396C175.075 89.8263 175.021 90.3996 175.021 90.9596C175.021 91.4129 175.115 91.8663 175.301 92.3196C175.515 92.7463 175.861 93.1329 176.341 93.4796C176.848 93.7996 177.541 94.0663 178.421 94.2796C179.301 94.4663 180.421 94.5596 181.781 94.5596C183.595 94.5596 185.301 94.4796 186.901 94.3196C188.501 94.1329 190.101 93.8663 191.701 93.5196L191.781 96.8796C190.528 97.1463 189.061 97.3596 187.381 97.5196C185.728 97.6529 183.861 97.7196 181.781 97.7196C178.421 97.7196 175.955 97.1863 174.381 96.1196C172.835 95.0529 172.061 93.5863 172.061 91.7196C172.061 91.0529 172.115 90.3463 172.221 89.5996C172.355 88.8263 172.528 87.9596 172.741 86.9996L175.621 87.2796ZM166.421 67.9196C166.368 68.1329 166.288 68.4129 166.181 68.7596C166.101 69.0796 166.008 69.4129 165.901 69.7596C165.821 70.0796 165.755 70.3596 165.701 70.5996C165.568 71.3463 165.408 72.2129 165.221 73.1996C165.035 74.1596 164.848 75.1996 164.661 76.3196C164.501 77.4129 164.341 78.5329 164.181 79.6796C164.048 80.7996 163.928 81.8929 163.821 82.9596C163.741 84.0263 163.701 85.0129 163.701 85.9196C163.701 86.9063 163.728 87.8396 163.781 88.7196C163.861 89.5996 163.955 90.5329 164.061 91.5196C164.301 90.9063 164.555 90.2529 164.821 89.5596C165.088 88.8663 165.355 88.1863 165.621 87.5196C165.915 86.8263 166.168 86.2129 166.381 85.6796L168.061 86.9596C167.715 87.9196 167.341 88.9729 166.941 90.1196C166.541 91.2663 166.181 92.3729 165.861 93.4396C165.568 94.4796 165.355 95.3063 165.221 95.9196C165.168 96.2129 165.115 96.5329 165.061 96.8796C165.008 97.2263 164.995 97.5063 165.021 97.7196C165.048 97.9329 165.061 98.1596 165.061 98.3996C165.088 98.6663 165.115 98.9063 165.141 99.1196L162.261 99.3196C161.861 97.9063 161.515 96.0929 161.221 93.8796C160.928 91.6396 160.781 89.1729 160.781 86.4796C160.781 85.0129 160.848 83.5196 160.981 81.9996C161.115 80.4529 161.288 78.9596 161.501 77.5196C161.715 76.0529 161.915 74.7196 162.101 73.5196C162.315 72.2929 162.475 71.2663 162.581 70.4396C162.661 69.9596 162.728 69.4796 162.781 68.9996C162.835 68.4929 162.861 68.0263 162.861 67.5996L166.421 67.9196Z" fill="#494949"/>
<path d="M142.581 67.0397C142.501 67.3597 142.421 67.7197 142.341 68.1197C142.261 68.4931 142.181 68.8664 142.101 69.2397C142.048 69.6131 141.981 69.9197 141.901 70.1597C141.528 71.8397 141.075 73.5731 140.541 75.3597C140.035 77.1464 139.461 78.9197 138.821 80.6797C138.181 82.4397 137.488 84.0797 136.741 85.5997C136.021 87.1197 135.261 88.4397 134.461 89.5597C133.448 90.9464 132.421 92.1997 131.381 93.3197C130.368 94.4131 129.328 95.2664 128.261 95.8797C127.195 96.4931 126.048 96.7997 124.821 96.7997C123.835 96.7997 122.915 96.5197 122.061 95.9597C121.208 95.3997 120.528 94.5864 120.021 93.5197C119.515 92.4531 119.261 91.1464 119.261 89.5997C119.261 87.9197 119.568 86.2397 120.181 84.5597C120.821 82.8797 121.688 81.3331 122.781 79.9197C123.901 78.5064 125.155 77.3331 126.541 76.3997C128.515 75.0397 130.501 74.0797 132.501 73.5197C134.501 72.9597 136.515 72.6797 138.541 72.6797C141.155 72.6797 143.475 73.2264 145.501 74.3197C147.555 75.4131 149.155 76.9464 150.301 78.9197C151.475 80.8664 152.061 83.1464 152.061 85.7597C152.061 88.3997 151.461 90.7064 150.261 92.6797C149.088 94.6264 147.421 96.1997 145.261 97.3997C143.128 98.5731 140.635 99.3597 137.781 99.7597L135.901 96.9197C138.008 96.7331 139.861 96.3331 141.461 95.7197C143.088 95.1064 144.448 94.3064 145.541 93.3197C146.635 92.3331 147.461 91.1864 148.021 89.8797C148.608 88.5731 148.901 87.1597 148.901 85.6397C148.901 83.6664 148.461 81.9197 147.581 80.3997C146.701 78.8531 145.448 77.6397 143.821 76.7597C142.221 75.8797 140.355 75.4397 138.221 75.4397C136.275 75.4397 134.421 75.7597 132.661 76.3997C130.928 77.0131 129.275 77.8931 127.701 79.0397C126.581 79.8397 125.608 80.8264 124.781 81.9997C123.955 83.1731 123.301 84.3997 122.821 85.6797C122.368 86.9331 122.141 88.1597 122.141 89.3597C122.141 90.6931 122.408 91.7464 122.941 92.5197C123.501 93.2664 124.235 93.6397 125.141 93.6397C125.781 93.6397 126.435 93.4531 127.101 93.0797C127.768 92.6797 128.421 92.1597 129.061 91.5197C129.701 90.8797 130.315 90.1731 130.901 89.3997C131.515 88.5997 132.061 87.7997 132.541 86.9997C133.208 85.9597 133.861 84.7597 134.501 83.3997C135.141 82.0397 135.741 80.5864 136.301 79.0397C136.888 77.4664 137.395 75.8931 137.821 74.3197C138.275 72.7197 138.635 71.1997 138.901 69.7597C138.981 69.3597 139.035 68.8664 139.061 68.2797C139.115 67.6931 139.141 67.1731 139.141 66.7197L142.581 67.0397ZM126.221 68.8397C126.328 69.3997 126.448 69.9997 126.581 70.6397C126.741 71.2531 126.888 71.8397 127.021 72.3997C127.288 73.3597 127.621 74.4397 128.021 75.6397C128.421 76.8397 128.835 78.0397 129.261 79.2397C129.715 80.4397 130.181 81.5731 130.661 82.6397C131.141 83.6797 131.595 84.5464 132.021 85.2397C132.715 86.4131 133.501 87.6131 134.381 88.8397C135.261 90.0664 136.181 91.1331 137.141 92.0397L134.621 94.1197C133.821 93.2131 133.048 92.2531 132.301 91.2397C131.555 90.2264 130.808 89.0664 130.061 87.7597C129.555 86.9864 129.048 86.0531 128.541 84.9597C128.035 83.8397 127.515 82.6397 126.981 81.3597C126.475 80.0797 125.981 78.7731 125.501 77.4397C125.021 76.0797 124.595 74.7731 124.221 73.5197C124.035 72.8797 123.821 72.2531 123.581 71.6397C123.368 70.9997 123.141 70.4264 122.901 69.9197L126.221 68.8397Z" fill="#494949"/>
<path d="M94.1412 82.4403H97.2212V101.2H94.1412V82.4403ZM84.8612 75.8003V80.1603H106.501V75.8003H84.8612ZM84.8612 68.9603V73.2403H106.501V68.9603H84.8612ZM81.9012 66.2803H109.581V82.8803H81.9012V66.2803ZM77.7012 88.8003H114.101V91.7203H77.7012V88.8003Z" fill="#494949"/>
</svg>
