<svg width="78" height="86" viewBox="0 0 78 86" fill="none" xmlns="http://www.w3.org/2000/svg">
<path d="M70.7472 0.350453C70.5818 0.240157 70.3868 0.210004 70.2014 0.26856L52.0745 2.7197C51.9017 2.77688 51.7625 2.90737 51.6779 3.07039C51.6073 3.24472 51.6027 3.43755 51.6837 3.59545L70.207 46.4509C70.3242 46.7074 70.5821 46.8461 70.8474 46.8174C70.898 46.8119 70.9485 46.8064 70.9976 46.7883L76.6034 41.7844C76.8745 41.6909 77.0505 41.4282 77.0189 41.1368L71.0182 0.846756C70.9976 0.656667 70.9012 0.474792 70.7359 0.364496L70.7472 0.350453Z" fill="white"/>
<path d="M3.00565 76.681C2.85606 76.5502 2.77611 76.3698 2.78431 76.1755L2.2964 58.6941C2.30657 58.5124 2.39624 58.344 2.53157 58.2198C2.68147 58.1062 2.86641 58.0514 3.03997 58.0885L49.3001 70.5538C49.5784 70.6001 49.7795 70.8129 49.8209 71.0766C49.8288 71.1268 49.8367 71.177 49.832 71.2292L46.4627 77.9456C46.4431 78.2317 46.2354 78.4701 45.9458 78.5156L3.55546 76.8133C3.36657 76.843 3.16586 76.7973 3.01627 76.6665L3.00565 76.681Z" fill="white"/>
<path d="M27.586 11.728C27.4716 11.5751 27.2937 11.4731 27.1031 11.4604C26.9252 11.4476 26.7219 11.5241 26.5948 11.6771L7.78802 32.7348C7.66094 32.875 7.59737 33.0662 7.6355 33.2574C7.66091 33.4486 7.7753 33.6143 7.9405 33.7035L48.0575 56.788C48.1591 56.839 48.2608 56.8772 48.3751 56.8772C48.5785 56.8772 55.8287 61.1686 55.9558 60.9902L60.9879 53.9667C61.1404 53.75 61.1404 53.4441 60.9879 53.2274L27.586 11.728Z" fill="white"/>
</svg>
