<svg width="429" height="87" viewBox="0 0 429 87" fill="none" xmlns="http://www.w3.org/2000/svg">
<path d="M423.224 73.4664L422.213 60.6569L422.026 55.0762H428.243L428.056 60.6569L427.045 73.4664H423.224ZM425.134 83.4293C424.186 83.4293 423.399 83.1171 422.775 82.4929C422.151 81.8687 421.838 81.0821 421.838 80.1333C421.838 79.1594 422.151 78.3604 422.775 77.7362C423.399 77.1119 424.186 76.7998 425.134 76.7998C426.083 76.7998 426.87 77.1119 427.494 77.7362C428.118 78.3604 428.43 79.1594 428.43 80.1333C428.43 81.0821 428.118 81.8687 427.494 82.4929C426.87 83.1171 426.083 83.4293 425.134 83.4293Z" fill="#494949"/>
<path d="M377.193 54.5511C377.717 54.626 378.279 54.6759 378.878 54.7009C379.477 54.7259 380.052 54.7383 380.601 54.7383C381 54.7383 381.6 54.7383 382.399 54.7383C383.198 54.7134 384.097 54.6884 385.095 54.6634C386.119 54.6385 387.13 54.6135 388.129 54.5885C389.128 54.5636 390.027 54.5386 390.826 54.5136C391.65 54.4637 392.287 54.4262 392.736 54.4013C393.51 54.3263 394.122 54.2639 394.571 54.214C395.021 54.1391 395.358 54.0642 395.583 53.9893L398.017 57.3227C397.593 57.5974 397.156 57.872 396.706 58.1467C396.257 58.4214 395.82 58.721 395.395 59.0456C394.896 59.3952 394.297 59.8571 393.598 60.4314C392.898 60.9808 392.149 61.5676 391.35 62.1918C390.576 62.816 389.815 63.4278 389.066 64.0271C388.342 64.6263 387.68 65.1632 387.081 65.6376C387.705 65.4878 388.304 65.3879 388.878 65.338C389.453 65.2631 390.039 65.2256 390.639 65.2256C392.761 65.2256 394.659 65.6376 396.332 66.4616C398.03 67.2856 399.366 68.4093 400.339 69.8325C401.338 71.2308 401.838 72.8414 401.838 74.6642C401.838 76.6368 401.338 78.4221 400.339 80.0202C399.341 81.6182 397.83 82.8917 395.807 83.8405C393.81 84.7894 391.3 85.2638 388.279 85.2638C386.556 85.2638 384.996 85.0141 383.597 84.5147C382.224 84.0153 381.138 83.3037 380.339 82.3798C379.54 81.4559 379.14 80.3697 379.14 79.1213C379.14 78.0975 379.415 77.1487 379.964 76.2747C380.538 75.3758 381.325 74.6517 382.324 74.1023C383.348 73.553 384.521 73.2783 385.845 73.2783C387.567 73.2783 389.016 73.6279 390.189 74.3271C391.388 75.0013 392.299 75.9127 392.923 77.0613C393.573 78.2099 393.91 79.4708 393.935 80.8442L389.553 81.4434C389.528 80.0701 389.178 78.9714 388.504 78.1474C387.855 77.2985 386.981 76.874 385.882 76.874C385.183 76.874 384.621 77.0613 384.197 77.4358C383.772 77.7854 383.56 78.1974 383.56 78.6718C383.56 79.371 383.909 79.9328 384.609 80.3573C385.308 80.7817 386.219 80.994 387.343 80.994C389.465 80.994 391.238 80.7443 392.661 80.2449C394.085 79.7205 395.146 78.9839 395.845 78.0351C396.569 77.0613 396.931 75.9127 396.931 74.5893C396.931 73.4656 396.582 72.4793 395.882 71.6303C395.208 70.7814 394.284 70.1197 393.111 69.6453C391.937 69.1708 390.614 68.9336 389.141 68.9336C387.692 68.9336 386.369 69.1209 385.17 69.4954C383.972 69.845 382.836 70.3569 381.762 71.0311C380.713 71.6803 379.677 72.4793 378.653 73.4282C377.654 74.352 376.656 75.3883 375.657 76.5369L372.249 73.0162C372.923 72.4668 373.684 71.8551 374.533 71.1809C375.382 70.4817 376.244 69.7576 377.118 69.0085C378.017 68.2594 378.853 67.5603 379.627 66.9111C380.426 66.2369 381.1 65.6751 381.65 65.2256C382.174 64.8011 382.786 64.3017 383.485 63.7274C384.184 63.1531 384.908 62.5663 385.657 61.9671C386.406 61.3428 387.118 60.756 387.792 60.2067C388.466 59.6324 389.028 59.1455 389.478 58.746C389.103 58.746 388.616 58.7585 388.017 58.7834C387.418 58.8084 386.756 58.8334 386.032 58.8583C385.333 58.8833 384.621 58.9083 383.897 58.9333C383.198 58.9582 382.536 58.9957 381.912 59.0456C381.313 59.0706 380.813 59.0956 380.414 59.1205C379.914 59.1455 379.39 59.183 378.841 59.2329C378.291 59.2828 377.792 59.3453 377.342 59.4202L377.193 54.5511Z" fill="#494949"/>
<path d="M338.372 56.1992C341.119 56.5238 343.641 56.7236 345.938 56.7985C348.26 56.8484 350.407 56.7985 352.38 56.6487C354.103 56.4988 355.751 56.2741 357.324 55.9745C358.897 55.6748 360.445 55.2878 361.968 54.8134L362.568 59.1207C361.219 59.4952 359.758 59.8198 358.185 60.0945C356.612 60.3691 355.002 60.5814 353.354 60.7312C351.431 60.881 349.209 60.9559 346.687 60.9559C344.19 60.931 341.506 60.7812 338.634 60.5065L338.372 56.1992ZM337.698 64.0647C339.97 64.2644 342.142 64.4018 344.215 64.4767C346.287 64.5516 348.235 64.5516 350.058 64.4767C351.881 64.4018 353.541 64.3019 355.039 64.177C357.062 64.0022 358.797 63.7525 360.245 63.4279C361.694 63.0784 362.955 62.7538 364.028 62.4541L364.777 66.8738C363.654 67.1484 362.418 67.4106 361.069 67.6603C359.721 67.91 358.285 68.1222 356.762 68.297C355.164 68.4468 353.329 68.5717 351.256 68.6716C349.209 68.7465 347.049 68.7715 344.777 68.7465C342.504 68.6965 340.232 68.6092 337.96 68.4843L337.698 64.0647ZM350.208 57.2479C350.033 56.5488 349.833 55.8621 349.608 55.1879C349.384 54.4888 349.134 53.7771 348.859 53.053L353.916 52.4912C354.065 53.6648 354.253 54.8259 354.477 55.9745C354.727 57.0981 355.002 58.1843 355.301 59.233C355.626 60.2818 355.938 61.293 356.238 62.2668C356.537 63.1158 356.924 64.0896 357.399 65.1883C357.898 66.262 358.435 67.3482 359.009 68.4468C359.584 69.5205 360.158 70.4944 360.732 71.3683C360.982 71.7179 361.232 72.055 361.481 72.3796C361.756 72.6792 362.068 72.9788 362.418 73.2785L360.133 76.7243C359.434 76.5745 358.56 76.4247 357.511 76.2748C356.487 76.125 355.414 75.9877 354.29 75.8628C353.191 75.738 352.18 75.6256 351.256 75.5258L351.631 71.9676C352.405 72.0425 353.241 72.1174 354.14 72.1923C355.064 72.2672 355.801 72.3421 356.35 72.417C355.351 70.7441 354.49 69.1085 353.766 67.5105C353.067 65.9124 352.48 64.4267 352.005 63.0534C351.706 62.1795 351.456 61.4304 351.256 60.8061C351.057 60.1569 350.869 59.5576 350.694 59.0083C350.545 58.434 350.382 57.8472 350.208 57.2479ZM344.889 72.7541C344.44 73.3784 344.053 74.0276 343.728 74.7018C343.403 75.351 343.241 76.0876 343.241 76.9116C343.241 78.2849 343.878 79.2837 345.151 79.9079C346.45 80.5072 348.335 80.8068 350.807 80.8068C352.58 80.8068 354.253 80.7319 355.826 80.5821C357.424 80.4323 358.885 80.2325 360.208 79.9828L359.946 84.7396C358.647 84.9643 357.187 85.1391 355.564 85.2639C353.941 85.3888 352.367 85.4512 350.844 85.4512C348.347 85.4512 346.187 85.189 344.365 84.6647C342.567 84.1403 341.169 83.3288 340.17 82.2301C339.171 81.1065 338.659 79.6582 338.634 77.8854C338.609 76.6868 338.759 75.6132 339.084 74.6643C339.433 73.6905 339.82 72.7541 340.245 71.8552L344.889 72.7541Z" fill="#494949"/>
<path d="M297.359 57.3977C298.108 57.3727 298.82 57.3477 299.494 57.3228C300.168 57.2728 300.68 57.2354 301.03 57.2104C301.804 57.1605 302.753 57.0855 303.876 56.9857C305.025 56.8608 306.299 56.736 307.697 56.6111C309.12 56.4863 310.631 56.3614 312.229 56.2366C313.827 56.1117 315.487 55.9744 317.21 55.8246C318.509 55.6997 319.795 55.5998 321.068 55.5249C322.367 55.4251 323.59 55.3501 324.739 55.3002C325.912 55.2253 326.936 55.1754 327.81 55.1504L327.847 59.9446C327.173 59.9446 326.399 59.9571 325.525 59.982C324.651 60.007 323.777 60.0569 322.903 60.1318C322.054 60.1818 321.293 60.2942 320.619 60.4689C319.495 60.7686 318.446 61.2805 317.472 62.0046C316.499 62.7037 315.65 63.5402 314.926 64.514C314.226 65.4629 313.677 66.4991 313.278 67.6228C312.878 68.7214 312.678 69.8326 312.678 70.9562C312.678 72.1797 312.891 73.2659 313.315 74.2148C313.764 75.1386 314.364 75.9377 315.113 76.6118C315.887 77.2611 316.786 77.8104 317.81 78.2598C318.833 78.6843 319.932 79.0089 321.106 79.2337C322.304 79.4584 323.54 79.6082 324.814 79.6831L323.053 84.8144C321.48 84.7145 319.944 84.4648 318.446 84.0653C316.973 83.6658 315.587 83.1165 314.289 82.4173C312.99 81.7182 311.854 80.8692 310.88 79.8704C309.932 78.8466 309.17 77.6855 308.596 76.3871C308.046 75.0637 307.772 73.5905 307.772 71.9675C307.772 70.1697 308.059 68.5217 308.633 67.0235C309.208 65.5003 309.919 64.1769 310.768 63.0533C311.642 61.9047 312.504 61.0183 313.352 60.394C312.653 60.4939 311.804 60.5938 310.806 60.6937C309.832 60.7935 308.771 60.9184 307.622 61.0682C306.498 61.1931 305.35 61.3304 304.176 61.4802C303.003 61.63 301.866 61.8048 300.768 62.0046C299.694 62.1794 298.72 62.3541 297.846 62.5289L297.359 57.3977ZM322.491 63.6151C322.816 64.0646 323.153 64.6014 323.503 65.2257C323.877 65.8249 324.239 66.4367 324.589 67.0609C324.938 67.6602 325.238 68.2095 325.488 68.7089L322.641 69.9824C322.167 68.9337 321.705 68.0098 321.255 67.2108C320.831 66.4117 320.319 65.6002 319.72 64.7762L322.491 63.6151ZM326.686 61.8922C327.011 62.3417 327.36 62.866 327.735 63.4653C328.135 64.0396 328.522 64.6389 328.896 65.2631C329.271 65.8624 329.583 66.3992 329.832 66.8737L327.023 68.222C326.524 67.2232 326.037 66.3368 325.563 65.5628C325.113 64.7887 324.576 63.9897 323.952 63.1657L326.686 61.8922Z" fill="#494949"/>
<path d="M274.362 53.765C274.262 54.2394 274.15 54.7638 274.025 55.3381C273.9 55.8874 273.788 56.3993 273.688 56.8737C273.588 57.423 273.463 58.0473 273.314 58.7464C273.164 59.4206 273.014 60.1073 272.864 60.8064C272.739 61.4806 272.602 62.1423 272.452 62.7915C272.202 63.8652 271.89 65.1137 271.516 66.537C271.141 67.9603 270.704 69.4959 270.205 71.1439C269.705 72.7669 269.144 74.4024 268.519 76.0504C267.895 77.6984 267.233 79.309 266.534 80.8821C265.835 82.4302 265.086 83.8285 264.287 85.077L259.418 83.1293C260.292 81.9558 261.103 80.6449 261.853 79.1966C262.627 77.7234 263.326 76.2252 263.95 74.7021C264.574 73.154 265.124 71.6308 265.598 70.1326C266.097 68.6095 266.522 67.1987 266.871 65.9003C267.246 64.6018 267.533 63.4907 267.733 62.5668C268.082 60.8689 268.357 59.2333 268.557 57.6603C268.757 56.0872 268.832 54.6015 268.782 53.2032L274.362 53.765ZM287.247 57.5479C287.846 58.3719 288.458 59.3832 289.082 60.5817C289.731 61.7553 290.368 63.0038 290.992 64.3272C291.616 65.6506 292.178 66.924 292.678 68.1475C293.177 69.371 293.564 70.4323 293.839 71.3312L289.082 73.5035C288.857 72.4548 288.52 71.2937 288.071 70.0203C287.646 68.7468 287.147 67.4609 286.573 66.1624C285.998 64.839 285.386 63.5906 284.737 62.417C284.113 61.2434 283.464 60.2571 282.79 59.4581L287.247 57.5479ZM259.156 61.4432C259.83 61.4931 260.492 61.5181 261.141 61.5181C261.815 61.4931 262.489 61.4681 263.163 61.4432C263.788 61.4182 264.537 61.3807 265.411 61.3308C266.285 61.2559 267.208 61.181 268.182 61.1061C269.181 61.0312 270.18 60.9562 271.179 60.8813C272.177 60.7815 273.101 60.7066 273.95 60.6566C274.799 60.6067 275.498 60.5817 276.048 60.5817C277.396 60.5817 278.57 60.8064 279.568 61.2559C280.567 61.6804 281.354 62.417 281.928 63.4657C282.527 64.5144 282.827 65.9377 282.827 67.7355C282.827 69.2087 282.765 70.8068 282.64 72.5297C282.515 74.2526 282.29 75.9006 281.966 77.4737C281.666 79.0468 281.241 80.3827 280.692 81.4813C280.093 82.7798 279.269 83.6787 278.22 84.1781C277.196 84.6775 275.973 84.9272 274.55 84.9272C273.85 84.9272 273.089 84.8647 272.265 84.7399C271.441 84.64 270.704 84.5276 270.055 84.4028L269.268 79.4588C269.743 79.5836 270.267 79.7085 270.842 79.8333C271.441 79.9582 272.003 80.0581 272.527 80.133C273.076 80.2079 273.513 80.2453 273.838 80.2453C274.462 80.2453 275.012 80.133 275.486 79.9082C275.96 79.6586 276.347 79.2341 276.647 78.6348C276.997 77.9107 277.284 76.9743 277.508 75.8257C277.733 74.6771 277.896 73.4411 277.995 72.1177C278.12 70.7693 278.183 69.4834 278.183 68.2599C278.183 67.2611 278.033 66.5245 277.733 66.0501C277.459 65.5756 277.047 65.2635 276.497 65.1137C275.973 64.9389 275.324 64.8515 274.55 64.8515C273.975 64.8515 273.201 64.9015 272.227 65.0013C271.254 65.0763 270.205 65.1761 269.081 65.301C267.983 65.4009 266.959 65.5132 266.01 65.6381C265.061 65.7629 264.325 65.8503 263.8 65.9003C263.251 66.0001 262.552 66.1125 261.703 66.2373C260.879 66.3372 260.18 66.4371 259.605 66.537L259.156 61.4432ZM286.573 52.3417C286.897 52.7912 287.234 53.328 287.584 53.9523C287.958 54.5765 288.32 55.2007 288.67 55.825C289.02 56.4492 289.319 56.9986 289.569 57.473L286.535 58.7839C286.285 58.2595 285.998 57.6852 285.674 57.061C285.349 56.4367 285.012 55.8125 284.662 55.1883C284.313 54.564 283.963 54.0272 283.614 53.5777L286.573 52.3417ZM291.03 50.6562C291.354 51.1307 291.704 51.68 292.078 52.3043C292.453 52.9285 292.815 53.5527 293.164 54.177C293.539 54.8012 293.826 55.3256 294.026 55.7501L291.067 57.0235C290.668 56.2495 290.193 55.3755 289.644 54.4017C289.094 53.4029 288.558 52.5539 288.033 51.8548L291.03 50.6562Z" fill="#494949"/>
<path d="M251.065 61.2555C250.516 61.6051 249.929 61.9422 249.305 62.2668C248.706 62.5914 248.057 62.9285 247.357 63.2781C246.783 63.5777 246.072 63.9273 245.223 64.3268C244.399 64.7263 243.5 65.1757 242.526 65.6751C241.577 66.1496 240.616 66.6614 239.642 67.2108C238.668 67.7351 237.757 68.272 236.908 68.8213C235.36 69.8451 234.099 70.9063 233.125 72.005C232.176 73.1036 231.701 74.3147 231.701 75.6381C231.701 76.9614 232.351 77.9852 233.649 78.7093C234.948 79.4085 236.895 79.758 239.492 79.758C240.79 79.758 242.164 79.7081 243.612 79.6082C245.085 79.4834 246.533 79.3211 247.957 79.1213C249.38 78.8966 250.641 78.6469 251.74 78.3722L251.665 83.7657C250.616 83.9405 249.467 84.1028 248.219 84.2526C246.995 84.4024 245.659 84.5148 244.211 84.5897C242.788 84.6646 241.265 84.702 239.642 84.702C237.769 84.702 236.034 84.5522 234.436 84.2526C232.863 83.9779 231.477 83.516 230.278 82.8668C229.105 82.2176 228.181 81.3436 227.507 80.245C226.857 79.1463 226.533 77.7979 226.533 76.1999C226.533 74.6018 226.882 73.1536 227.581 71.8551C228.281 70.5567 229.229 69.3582 230.428 68.2595C231.651 67.1608 232.987 66.1246 234.436 65.1508C235.335 64.5515 236.283 63.9772 237.282 63.4279C238.281 62.8536 239.255 62.3042 240.204 61.7799C241.177 61.2555 242.076 60.7811 242.9 60.3566C243.749 59.9071 244.448 59.5201 244.998 59.1955C245.722 58.771 246.359 58.384 246.908 58.0344C247.457 57.6848 247.982 57.3103 248.481 56.9108L251.065 61.2555ZM232.226 53.2402C232.85 54.8882 233.499 56.4738 234.173 57.997C234.873 59.5201 235.559 60.9434 236.233 62.2668C236.933 63.5902 237.569 64.7762 238.144 65.825L233.911 68.3344C233.237 67.1858 232.538 65.8999 231.814 64.4766C231.09 63.0533 230.366 61.5551 229.641 59.982C228.917 58.384 228.218 56.7734 227.544 55.1504L232.226 53.2402Z" fill="#494949"/>
<path d="M190.576 55.862C191.95 56.0118 193.498 56.1242 195.221 56.1991C196.944 56.274 198.791 56.3115 200.764 56.3115C201.987 56.3115 203.248 56.2865 204.547 56.2366C205.87 56.1866 207.144 56.1242 208.367 56.0493C209.591 55.9744 210.677 55.887 211.626 55.7871V60.7686C210.752 60.8435 209.691 60.9184 208.442 60.9933C207.219 61.0682 205.933 61.1306 204.584 61.1806C203.261 61.2055 202 61.218 200.801 61.218C198.854 61.218 197.043 61.1806 195.371 61.1057C193.698 61.0307 192.099 60.9309 190.576 60.806V55.862ZM193.723 71.7427C193.548 72.392 193.398 73.0287 193.273 73.6529C193.148 74.2772 193.086 74.9014 193.086 75.5257C193.086 76.7242 193.685 77.7105 194.884 78.4846C196.107 79.2586 198.067 79.6457 200.764 79.6457C202.462 79.6457 204.097 79.5832 205.671 79.4584C207.244 79.3335 208.729 79.1587 210.128 78.934C211.551 78.7093 212.812 78.4471 213.911 78.1475L213.948 83.4286C212.849 83.6783 211.626 83.8905 210.277 84.0653C208.929 84.265 207.468 84.4149 205.895 84.5147C204.347 84.6396 202.699 84.702 200.951 84.702C198.105 84.702 195.72 84.3899 193.797 83.7657C191.875 83.1414 190.439 82.2425 189.49 81.0689C188.541 79.8704 188.067 78.4097 188.067 76.6867C188.067 75.5881 188.154 74.5893 188.329 73.6904C188.504 72.7915 188.666 71.9924 188.816 71.2933L193.723 71.7427Z" fill="#494949"/>
<path d="M170.613 70.8444C170.613 70.0204 170.401 69.2713 169.976 68.5971C169.577 67.9229 168.965 67.3861 168.141 66.9866C167.342 66.5621 166.343 66.3498 165.145 66.3498C163.796 66.3498 162.485 66.4622 161.212 66.6869C159.963 66.9117 158.84 67.1738 157.841 67.4735C156.867 67.7482 156.056 67.9854 155.406 68.1851C154.857 68.3349 154.245 68.5472 153.571 68.8218C152.922 69.0715 152.323 69.2963 151.773 69.496L150.35 64.14C150.999 64.0901 151.698 64.0027 152.448 63.8778C153.197 63.753 153.871 63.6281 154.47 63.5033C155.394 63.2786 156.443 63.0414 157.616 62.7917C158.815 62.517 160.113 62.2798 161.512 62.08C162.91 61.8803 164.333 61.7804 165.781 61.7804C167.779 61.7804 169.527 62.1549 171.025 62.904C172.548 63.6281 173.734 64.6769 174.583 66.0502C175.432 67.4235 175.857 69.084 175.857 71.0317C175.857 73.0292 175.42 74.8395 174.546 76.4626C173.672 78.0856 172.436 79.5089 170.838 80.7324C169.24 81.9309 167.354 82.9297 165.182 83.7288C163.01 84.5278 160.625 85.1021 158.028 85.4517L155.332 80.8073C157.654 80.5326 159.751 80.1331 161.624 79.6088C163.522 79.0844 165.132 78.4227 166.456 77.6237C167.804 76.7997 168.828 75.8383 169.527 74.7397C170.251 73.616 170.613 72.3176 170.613 70.8444ZM155.893 52.8662C156.967 53.0909 158.253 53.3032 159.751 53.5029C161.274 53.7027 162.835 53.8775 164.433 54.0273C166.056 54.1771 167.592 54.302 169.04 54.4018C170.513 54.4768 171.737 54.5267 172.71 54.5517L171.961 59.1586C170.863 59.0837 169.577 58.9838 168.104 58.8589C166.63 58.7341 165.107 58.5968 163.534 58.4469C161.961 58.2722 160.438 58.0974 158.965 57.9226C157.516 57.7228 156.243 57.5355 155.144 57.3608L155.893 52.8662Z" fill="#FF9122"/>
<path d="M119.937 54.9636H143.796V59.0087H119.937V54.9636ZM124.806 65.301V69.009H138.477V65.301H124.806ZM120.724 61.6679H142.822V72.6796H120.724V61.6679ZM124.245 73.0916C125.393 74.8644 126.916 76.4001 128.814 77.6985C130.712 78.9719 132.971 79.9957 135.593 80.7698C138.215 81.5438 141.149 82.0807 144.395 82.3803C144.07 82.7049 143.733 83.1044 143.384 83.5788C143.059 84.0533 142.747 84.5402 142.447 85.0396C142.173 85.539 141.936 85.9884 141.736 86.3879C138.365 85.9385 135.331 85.2019 132.634 84.1781C129.963 83.1793 127.628 81.8559 125.63 80.2079C123.658 78.535 121.972 76.5249 120.574 74.1778L124.245 73.0916ZM129.376 51.5178H133.833V68.597C133.833 70.1202 133.733 71.6184 133.533 73.0916C133.334 74.5398 132.971 75.9381 132.447 77.2865C131.948 78.6099 131.224 79.8459 130.275 80.9945C129.326 82.1431 128.102 83.1793 126.604 84.1032C125.106 85.0271 123.283 85.8012 121.136 86.4254C120.986 86.1008 120.736 85.7013 120.387 85.2268C120.062 84.7774 119.725 84.3155 119.375 83.841C119.026 83.3916 118.689 83.017 118.364 82.7174C120.387 82.2679 122.06 81.6936 123.383 80.9945C124.731 80.2704 125.805 79.4464 126.604 78.5225C127.403 77.5986 128.002 76.6123 128.402 75.5636C128.802 74.4899 129.064 73.3662 129.189 72.1927C129.313 71.0191 129.376 69.8081 129.376 68.5596V51.5178ZM117.091 51.1807L121.248 52.529C120.399 54.6515 119.388 56.7739 118.214 58.8963C117.066 60.9938 115.817 62.9913 114.469 64.889C113.146 66.7618 111.772 68.4098 110.349 69.833C110.224 69.4585 110.024 68.9841 109.75 68.4098C109.475 67.8355 109.175 67.2487 108.851 66.6494C108.526 66.0501 108.239 65.5757 107.989 65.2261C109.188 64.0775 110.349 62.7541 111.473 61.2559C112.621 59.7578 113.67 58.1472 114.619 56.4243C115.568 54.7014 116.392 52.9535 117.091 51.1807ZM113.42 61.593L117.69 57.3232V57.3607V86.5378H113.42V61.593Z" fill="#FF9122"/>
<path d="M86.8274 56.9111C87.976 57.0609 89.262 57.1732 90.6852 57.2481C92.1335 57.2981 93.5942 57.3231 95.0674 57.3231C96.5656 57.2981 98.0014 57.2481 99.3747 57.1732C100.748 57.0734 101.934 56.9735 102.933 56.8736V61.7052C101.784 61.8051 100.523 61.8925 99.15 61.9674C97.7766 62.0174 96.3659 62.0423 94.9176 62.0423C93.4694 62.0423 92.0461 62.0174 90.6478 61.9674C89.2745 61.8925 88.001 61.8051 86.8274 61.7052V56.9111ZM89.8238 72.9041C89.674 73.5284 89.5616 74.0902 89.4867 74.5896C89.4118 75.064 89.3743 75.5509 89.3743 76.0503C89.3743 76.4498 89.4742 76.8244 89.674 77.174C89.8737 77.4986 90.1734 77.7857 90.5729 78.0354C90.9974 78.2601 91.5342 78.4349 92.1834 78.5598C92.8576 78.6597 93.6691 78.7096 94.618 78.7096C96.291 78.7096 97.864 78.6347 99.3373 78.4849C100.81 78.3101 102.371 78.0604 104.019 77.7358L104.094 82.7921C102.895 83.0169 101.51 83.1917 99.9365 83.3165C98.3884 83.4414 96.5531 83.5038 94.4307 83.5038C91.2096 83.5038 88.8125 82.9669 87.2394 81.8932C85.6663 80.7946 84.8798 79.2839 84.8798 77.3612C84.8798 76.6371 84.9297 75.888 85.0296 75.114C85.1545 74.3149 85.3168 73.441 85.5165 72.4921L89.8238 72.9041ZM81.0594 54.4016C80.9596 54.6513 80.8472 55.0009 80.7223 55.4503C80.5975 55.8998 80.4726 56.3368 80.3478 56.7612C80.2479 57.1857 80.173 57.5103 80.1231 57.7351C80.0482 58.2594 79.9233 58.9461 79.7485 59.7951C79.5987 60.6191 79.4364 61.5554 79.2616 62.6041C79.1118 63.6279 78.962 64.6766 78.8122 65.7503C78.6623 66.824 78.5375 67.8603 78.4376 68.8591C78.3627 69.8578 78.3253 70.7318 78.3253 71.4809C78.3253 71.8305 78.3253 72.23 78.3253 72.6794C78.3502 73.1289 78.4002 73.5409 78.4751 73.9154C78.6499 73.4909 78.8371 73.0664 79.0369 72.642C79.2366 72.2175 79.4364 71.793 79.6362 71.3685C79.8359 70.9191 80.0107 70.4946 80.1605 70.0951L82.4827 71.9303C82.1331 72.9541 81.7711 74.0528 81.3965 75.2263C81.0469 76.3999 80.7223 77.5111 80.4227 78.5598C80.148 79.5835 79.9358 80.4325 79.786 81.1067C79.736 81.3814 79.6861 81.6935 79.6362 82.0431C79.6112 82.3926 79.5987 82.6673 79.5987 82.8671C79.5987 83.0668 79.5987 83.304 79.5987 83.5787C79.6237 83.8783 79.6486 84.153 79.6736 84.4027L75.3289 84.7023C74.9543 83.4039 74.6173 81.681 74.3176 79.5336C74.018 77.3612 73.8682 75.0016 73.8682 72.4547C73.8682 71.0564 73.9306 69.6331 74.0554 68.1849C74.1803 66.7366 74.3301 65.3508 74.5049 64.0274C74.6797 62.6791 74.842 61.4555 74.9918 60.3569C75.1666 59.2582 75.3164 58.3468 75.4413 57.6227C75.4912 57.0983 75.5536 56.5115 75.6285 55.8623C75.7284 55.1882 75.7908 54.5514 75.8158 53.9521L81.0594 54.4016Z" fill="#FF9122"/>
<path d="M38.6232 69.2337H63.9051V73.6159H38.6232V69.2337ZM38.6232 80.0206H63.8676V84.4402H38.6232V80.0206ZM36.376 58.4093H66.4145V86.4253H61.6952V62.9413H40.8705V86.4628H36.376V58.4093ZM48.8109 51.293H53.4552V82.3428H48.8109V51.293Z" fill="#FF9122"/>
<path d="M3.56556 64.2894H23.9408V68.4469H3.56556V64.2894ZM3.56556 72.3047H23.9408V76.4621H3.56556V72.3047ZM3.56556 80.3574H23.9408V84.5149H3.56556V80.3574ZM0.531738 56.1243H27.7237V86.3501H22.967V60.4316H5.06374V86.425H0.531738V56.1243ZM11.1688 51.2178L16.5997 51.817C16.1503 53.0406 15.6759 54.2391 15.1765 55.4127C14.6771 56.5863 14.2151 57.5975 13.7906 58.4465L9.67065 57.6974C9.87041 57.0732 10.0702 56.3865 10.2699 55.6374C10.4697 54.8633 10.6445 54.1018 10.7943 53.3527C10.9691 52.5786 11.0939 51.867 11.1688 51.2178Z" fill="#FF9122"/>
<path d="M386.884 2.09065C386.735 2.76483 386.61 3.36411 386.51 3.88847C386.41 4.41283 386.323 4.92471 386.248 5.42411C386.148 5.94847 386.023 6.71005 385.873 7.70883C385.748 8.68265 385.598 9.7938 385.424 11.0423C385.274 12.2658 385.112 13.5517 384.937 14.9001C384.787 16.2235 384.637 17.5219 384.487 18.7954C384.337 20.0688 384.213 21.2299 384.113 22.2787C384.038 23.3274 384 24.1639 384 24.7881C384 26.3362 384.462 27.5223 385.386 28.3463C386.335 29.1453 387.733 29.5448 389.581 29.5448C391.329 29.5448 392.802 29.3076 394.001 28.8332C395.199 28.3338 396.111 27.6721 396.735 26.8481C397.359 26.0241 397.671 25.1002 397.671 24.0765C397.671 22.803 397.334 21.567 396.66 20.3685C396.011 19.145 395.062 17.9589 393.813 16.8103L399.095 15.6867C400.343 17.2597 401.254 18.7579 401.829 20.1812C402.428 21.5795 402.728 23.0777 402.728 24.6757C402.728 26.5485 402.191 28.2214 401.117 29.6947C400.043 31.1679 398.508 32.3165 396.51 33.1405C394.538 33.9645 392.178 34.3765 389.431 34.3765C387.484 34.3765 385.748 34.0768 384.225 33.4776C382.702 32.8783 381.516 31.9294 380.667 30.631C379.818 29.3326 379.393 27.6471 379.393 25.5747C379.393 24.8006 379.456 23.7768 379.581 22.5034C379.706 21.205 379.855 19.7817 380.03 18.2336C380.23 16.6605 380.43 15.0749 380.629 13.4768C380.829 11.8538 381.004 10.3182 381.154 8.86993C381.329 7.42168 381.466 6.1732 381.566 5.12447C381.616 4.25053 381.641 3.58883 381.641 3.13938C381.666 2.66495 381.653 2.2155 381.603 1.79102L386.884 2.09065ZM373.513 6.73501C374.637 7.08459 375.86 7.38423 377.184 7.63392C378.507 7.85865 379.868 8.03344 381.266 8.15829C382.664 8.25817 383.988 8.3081 385.236 8.3081C386.71 8.3081 388.083 8.25817 389.356 8.15829C390.63 8.05841 391.741 7.93356 392.69 7.78374L392.54 12.2408C391.416 12.3407 390.293 12.4281 389.169 12.503C388.045 12.5779 386.697 12.6154 385.124 12.6154C383.851 12.6154 382.527 12.553 381.154 12.4281C379.78 12.2783 378.42 12.091 377.071 11.8663C375.723 11.6166 374.462 11.3419 373.288 11.0423L373.513 6.73501ZM372.727 16.0237C374.075 16.4732 375.436 16.8228 376.809 17.0725C378.207 17.3222 379.581 17.497 380.929 17.5968C382.302 17.6717 383.613 17.7092 384.862 17.7092C386.01 17.7092 387.246 17.6717 388.57 17.5968C389.918 17.5219 391.192 17.4096 392.39 17.2597L392.278 21.7168C391.229 21.8167 390.155 21.9041 389.057 21.979C387.958 22.029 386.822 22.0539 385.648 22.0539C383.151 22.0539 380.754 21.9291 378.457 21.6794C376.16 21.4047 374.162 21.0302 372.464 20.5557L372.727 16.0237Z" fill="#494949"/>
<path d="M334.448 6.39766C335.197 6.37269 335.909 6.34772 336.583 6.32275C337.257 6.27281 337.769 6.23536 338.119 6.21039C338.893 6.16045 339.842 6.08554 340.965 5.98566C342.114 5.86082 343.387 5.73597 344.786 5.61112C346.209 5.48627 347.72 5.36142 349.318 5.23657C350.916 5.11172 352.576 4.97439 354.299 4.82457C355.598 4.69972 356.884 4.59985 358.157 4.52494C359.455 4.42506 360.679 4.35015 361.828 4.30021C363.001 4.2253 364.025 4.17536 364.899 4.15039L364.936 8.94457C364.262 8.94457 363.488 8.95706 362.614 8.98203C361.74 9.007 360.866 9.05694 359.992 9.13185C359.143 9.18179 358.382 9.29415 357.708 9.46894C356.584 9.76857 355.535 10.2805 354.561 11.0046C353.588 11.7037 352.739 12.5402 352.014 13.514C351.315 14.4629 350.766 15.4991 350.366 16.6228C349.967 17.7214 349.767 18.8326 349.767 19.9562C349.767 21.1797 349.979 22.2659 350.404 23.2148C350.853 24.1386 351.453 24.9377 352.202 25.6118C352.976 26.2611 353.875 26.8104 354.898 27.2598C355.922 27.6843 357.021 28.0089 358.194 28.2337C359.393 28.4584 360.629 28.6082 361.902 28.6831L360.142 33.8144C358.569 33.7145 357.033 33.4648 355.535 33.0653C354.062 32.6658 352.676 32.1165 351.378 31.4173C350.079 30.7181 348.943 29.8692 347.969 28.8704C347.021 27.8466 346.259 26.6855 345.685 25.3871C345.135 24.0637 344.861 22.5905 344.861 20.9675C344.861 19.1697 345.148 17.5217 345.722 16.0235C346.296 14.5003 347.008 13.1769 347.857 12.0533C348.731 10.9047 349.592 10.0183 350.441 9.39403C349.742 9.49391 348.893 9.59378 347.894 9.69366C346.921 9.79354 345.859 9.91839 344.711 10.0682C343.587 10.1931 342.439 10.3304 341.265 10.4802C340.091 10.63 338.955 10.8048 337.857 11.0046C336.783 11.1794 335.809 11.3541 334.935 11.5289L334.448 6.39766ZM359.58 12.6151C359.905 13.0646 360.242 13.6014 360.592 14.2257C360.966 14.8249 361.328 15.4367 361.678 16.0609C362.027 16.6602 362.327 17.2095 362.577 17.7089L359.73 18.9824C359.256 17.9337 358.794 17.0098 358.344 16.2108C357.92 15.4117 357.408 14.6002 356.809 13.7762L359.58 12.6151ZM363.775 10.8922C364.1 11.3417 364.449 11.866 364.824 12.4653C365.223 13.0396 365.61 13.6389 365.985 14.2631C366.36 14.8624 366.672 15.3992 366.921 15.8737L364.112 17.222C363.613 16.2232 363.126 15.3368 362.652 14.5628C362.202 13.7887 361.665 12.9897 361.041 12.1657L363.775 10.8922Z" fill="#494949"/>
<path d="M304.634 14.8628V28.6835H300.214V19.0202H296.057V14.8628H304.634ZM304.634 26.7359C305.408 27.9594 306.494 28.8583 307.893 29.4326C309.316 30.0069 311.014 30.3315 312.986 30.4064C314.085 30.4564 315.396 30.4938 316.919 30.5188C318.442 30.5188 320.04 30.5063 321.713 30.4813C323.386 30.4564 325.022 30.4064 326.62 30.3315C328.243 30.2566 329.691 30.1692 330.965 30.0693C330.79 30.4189 330.602 30.8684 330.403 31.4177C330.203 31.967 330.028 32.5288 329.878 33.1031C329.729 33.6775 329.616 34.1893 329.541 34.6388C328.393 34.7137 327.094 34.7636 325.646 34.7886C324.223 34.8385 322.737 34.8635 321.189 34.8635C319.666 34.8885 318.18 34.8885 316.732 34.8635C315.309 34.8385 314.035 34.8011 312.911 34.7511C310.589 34.6513 308.604 34.2892 306.956 33.665C305.333 33.0657 303.897 32.0419 302.649 30.5937C301.85 31.2928 301.026 32.017 300.177 32.7661C299.353 33.5152 298.442 34.2892 297.443 35.0882L295.233 30.4064C296.057 29.8821 296.931 29.3078 297.855 28.6835C298.779 28.0593 299.665 27.4101 300.514 26.7359H304.634ZM296.057 3.81369L299.39 1.15442C300.139 1.65382 300.914 2.2406 301.713 2.91479C302.512 3.58897 303.248 4.27564 303.922 4.97479C304.597 5.64897 305.146 6.2857 305.57 6.88497L301.975 9.84388C301.625 9.2446 301.126 8.59539 300.477 7.89624C299.827 7.17212 299.116 6.46048 298.342 5.76133C297.568 5.03721 296.806 4.388 296.057 3.81369ZM315.721 11.7166H320.065V25.2377C320.065 26.2115 319.953 26.9731 319.728 27.5224C319.528 28.0468 319.104 28.4588 318.455 28.7584C317.806 29.0581 317.044 29.2453 316.17 29.3202C315.321 29.3702 314.31 29.3951 313.136 29.3951C313.061 28.8458 312.911 28.2216 312.687 27.5224C312.462 26.7983 312.237 26.1616 312.013 25.6122C312.612 25.6372 313.224 25.6622 313.848 25.6871C314.497 25.6871 314.922 25.6871 315.121 25.6871C315.521 25.6871 315.721 25.5124 315.721 25.1628V11.7166ZM309.803 19.5821L313.698 20.5559C313.099 21.9542 312.337 23.315 311.413 24.6384C310.514 25.9618 309.578 27.073 308.604 27.9719C308.354 27.7472 308.017 27.4975 307.593 27.2228C307.193 26.9231 306.781 26.6485 306.357 26.3988C305.932 26.1241 305.57 25.9119 305.271 25.7621C306.245 24.988 307.118 24.0641 307.893 22.9904C308.692 21.8918 309.328 20.7556 309.803 19.5821ZM321.414 21.0428L324.972 19.4322C325.546 20.1064 326.133 20.843 326.732 21.6421C327.331 22.4161 327.893 23.1902 328.418 23.9642C328.967 24.7383 329.391 25.4499 329.691 26.0991L325.908 27.9344C325.634 27.3102 325.246 26.5985 324.747 25.7995C324.273 25.0005 323.736 24.189 323.137 23.365C322.562 22.541 321.988 21.7669 321.414 21.0428ZM310.926 9.35697H324.897V12.9901H310.926V9.35697ZM306.619 15.0126H329.579V18.6832H306.619V15.0126ZM317.668 4.2257C316.894 5.19951 315.945 6.21079 314.822 7.25951C313.698 8.28327 312.462 9.25709 311.114 10.181C309.79 11.0799 308.429 11.8539 307.031 12.5032C306.806 11.9288 306.469 11.2672 306.02 10.5181C305.57 9.744 305.133 9.10727 304.709 8.60788C306.132 8.0086 307.518 7.25951 308.866 6.36061C310.215 5.4617 311.451 4.48788 312.574 3.43915C313.698 2.36545 314.609 1.31673 315.309 0.292969H319.691C320.665 1.46654 321.751 2.56521 322.949 3.58897C324.173 4.61273 325.459 5.52412 326.807 6.32315C328.155 7.12218 329.529 7.77139 330.927 8.27079C330.453 8.84509 329.978 9.51927 329.504 10.2933C329.054 11.0674 328.655 11.779 328.305 12.4282C327.057 11.804 325.758 11.0549 324.41 10.181C323.087 9.28206 321.826 8.32073 320.627 7.29697C319.453 6.24824 318.467 5.22448 317.668 4.2257Z" fill="#494949"/>
<path d="M264.857 2.76465H287.817V7.07192H264.857V2.76465ZM264.857 11.4166H287.892V15.6116H264.857V11.4166ZM264.782 20.2559H288.042V24.4883H264.782V20.2559ZM262.273 2.76465H266.693V16.2483C266.693 17.7215 266.63 19.332 266.505 21.0799C266.381 22.8278 266.131 24.5882 265.756 26.361C265.407 28.1089 264.87 29.7819 264.146 31.3799C263.447 32.978 262.523 34.4013 261.374 35.6497C261.149 35.3501 260.812 35.013 260.363 34.6385C259.913 34.2639 259.451 33.9019 258.977 33.5523C258.528 33.2027 258.141 32.928 257.816 32.7283C258.84 31.6046 259.651 30.3686 260.25 29.0203C260.85 27.647 261.287 26.2362 261.561 24.7879C261.861 23.3147 262.048 21.854 262.123 20.4057C262.223 18.9325 262.273 17.5342 262.273 16.2108V2.76465ZM286.244 2.76465H290.738V30.1439C290.738 31.3425 290.589 32.2663 290.289 32.9156C289.989 33.5897 289.453 34.1016 288.678 34.4512C287.929 34.8008 286.968 35.0255 285.794 35.1254C284.621 35.2253 283.173 35.2627 281.45 35.2377C281.375 34.6385 281.188 33.9143 280.888 33.0654C280.588 32.2164 280.289 31.5048 279.989 30.9305C280.713 30.9554 281.437 30.9804 282.161 31.0054C282.885 31.0054 283.522 31.0054 284.072 31.0054C284.646 31.0054 285.058 31.0054 285.308 31.0054C285.657 31.0054 285.894 30.943 286.019 30.8181C286.169 30.6933 286.244 30.456 286.244 30.1065V2.76465ZM273.809 4.48756H278.341V34.9756H273.809V4.48756Z" fill="#494949"/>
<path d="M241.636 6.43569C241.386 8.33339 241.061 10.3559 240.662 12.5033C240.262 14.6507 239.725 16.8231 239.051 19.0204C238.327 21.5424 237.478 23.7147 236.504 25.5375C235.53 27.3603 234.457 28.7711 233.283 29.7699C232.135 30.7437 230.874 31.2306 229.5 31.2306C228.127 31.2306 226.853 30.7687 225.68 29.8448C224.531 28.8959 223.607 27.5975 222.908 25.9495C222.234 24.3015 221.897 22.4288 221.897 20.3313C221.897 18.159 222.334 16.1114 223.208 14.1888C224.082 12.2661 225.293 10.5682 226.841 9.09496C228.414 7.59678 230.237 6.42321 232.309 5.57424C234.407 4.72527 236.667 4.30078 239.089 4.30078C241.411 4.30078 243.496 4.67533 245.344 5.42442C247.216 6.17351 248.814 7.20975 250.138 8.53315C251.461 9.85654 252.472 11.4047 253.172 13.1775C253.871 14.9504 254.22 16.8605 254.22 18.9081C254.22 21.5299 253.683 23.877 252.61 25.9495C251.536 28.022 249.938 29.7324 247.816 31.0808C245.718 32.4291 243.096 33.353 239.95 33.8524L237.141 29.3953C237.865 29.3204 238.502 29.233 239.051 29.1331C239.6 29.0333 240.125 28.9209 240.624 28.7961C241.823 28.4964 242.934 28.0719 243.958 27.5226C245.006 26.9483 245.918 26.2491 246.692 25.4251C247.466 24.5762 248.065 23.5899 248.49 22.4662C248.939 21.3426 249.164 20.1066 249.164 18.7582C249.164 17.285 248.939 15.9367 248.49 14.7131C248.04 13.4896 247.379 12.4284 246.505 11.5295C245.631 10.6056 244.569 9.90648 243.321 9.43205C242.072 8.93266 240.637 8.68296 239.014 8.68296C237.016 8.68296 235.256 9.04503 233.733 9.76915C232.209 10.4683 230.924 11.3797 229.875 12.5033C228.826 13.627 228.027 14.838 227.478 16.1364C226.953 17.4348 226.691 18.6708 226.691 19.8444C226.691 21.0929 226.841 22.1416 227.141 22.9906C227.44 23.8146 227.802 24.4388 228.227 24.8633C228.676 25.2628 229.151 25.4626 229.65 25.4626C230.174 25.4626 230.686 25.2004 231.186 24.6761C231.71 24.1267 232.222 23.3027 232.721 22.2041C233.221 21.1054 233.72 19.7196 234.22 18.0466C234.794 16.2488 235.281 14.3261 235.68 12.2786C236.08 10.2311 236.367 8.23351 236.542 6.28587L241.636 6.43569Z" fill="#494949"/>
<path d="M190.997 5.72359H200.174V9.99341H190.997V5.72359ZM206.653 0.36759H211.335V35.3876H206.653V0.36759ZM186.84 16.8476L189.125 13.4767C190.048 13.9761 191.022 14.5629 192.046 15.237C193.095 15.9112 194.081 16.5854 195.005 17.2596C195.929 17.9338 196.678 18.583 197.252 19.2072L194.818 22.9901C194.293 22.3659 193.582 21.6917 192.683 20.9676C191.784 20.2185 190.822 19.4819 189.799 18.7578C188.775 18.0337 187.789 17.3969 186.84 16.8476ZM191.447 0.217773L195.941 1.15414C195.292 3.67608 194.481 6.09814 193.507 8.42032C192.558 10.7425 191.472 12.8899 190.248 14.8625C189.05 16.8101 187.751 18.5081 186.353 19.9563C186.103 19.6817 185.741 19.3695 185.267 19.02C184.817 18.6454 184.355 18.2833 183.881 17.9338C183.406 17.5592 182.982 17.2721 182.607 17.0723C184.006 15.7989 185.267 14.2882 186.39 12.5403C187.514 10.7924 188.5 8.86977 189.349 6.77232C190.198 4.64989 190.897 2.46505 191.447 0.217773ZM204.331 9.35668C205.08 10.73 205.979 12.0909 207.028 13.4392C208.101 14.7626 209.288 16.0236 210.586 17.2221C211.884 18.4207 213.258 19.5069 214.706 20.4807C216.179 21.4545 217.665 22.291 219.163 22.9901C218.838 23.2898 218.464 23.6768 218.039 24.1512C217.615 24.6007 217.215 25.0751 216.841 25.5745C216.466 26.0489 216.154 26.4859 215.905 26.8854C214.331 26.0614 212.808 25.0751 211.335 23.9265C209.887 22.7779 208.501 21.5044 207.178 20.1061C205.854 18.7078 204.631 17.2221 203.507 15.649C202.408 14.076 201.422 12.4529 200.548 10.78L204.331 9.35668ZM198.9 5.72359H199.762L200.548 5.57377L203.507 6.58504C202.758 11.4042 201.622 15.674 200.099 19.3945C198.601 23.115 196.765 26.2861 194.593 28.908C192.421 31.5048 189.986 33.5773 187.289 35.1254C187.04 34.8008 186.702 34.4138 186.278 33.9643C185.853 33.5398 185.404 33.1153 184.93 32.6909C184.48 32.2913 184.068 31.9792 183.694 31.7545C186.365 30.3562 188.737 28.5209 190.81 26.2487C192.882 23.9515 194.605 21.1798 195.979 17.9338C197.352 14.6877 198.326 10.9547 198.9 6.73486V5.72359Z" fill="#494949"/>
<path d="M157.7 6.73535L161.858 4.75026C162.657 5.64917 163.443 6.63547 164.217 7.70917C164.991 8.78287 165.678 9.84408 166.277 10.8928C166.902 11.9166 167.401 12.8654 167.775 13.7394L163.356 16.099C163.056 15.25 162.607 14.2762 162.007 13.1775C161.408 12.0539 160.734 10.9303 159.985 9.80662C159.236 8.68299 158.474 7.65923 157.7 6.73535ZM145.565 26.399C146.838 25.9745 148.312 25.4377 149.985 24.7884C151.683 24.1392 153.455 23.4401 155.303 22.691C157.176 21.9419 159.024 21.1928 160.846 20.4437L161.895 24.8259C160.222 25.575 158.524 26.3241 156.801 27.0732C155.078 27.8223 153.38 28.5464 151.707 29.2455C150.059 29.9447 148.524 30.5939 147.101 31.1932L145.565 26.399ZM167.513 23.0655L170.959 19.8819C171.808 20.7808 172.719 21.7421 173.693 22.7659C174.692 23.7897 175.666 24.8384 176.615 25.9121C177.589 26.9608 178.487 27.9846 179.311 28.9834C180.135 29.9572 180.81 30.8561 181.334 31.6801L177.476 35.4255C177.002 34.5766 176.365 33.6277 175.566 32.579C174.792 31.5552 173.943 30.494 173.019 29.3954C172.12 28.2967 171.184 27.2105 170.21 26.1368C169.261 25.0381 168.362 24.0144 167.513 23.0655ZM172.607 2.42808L177.589 2.87753C177.139 7.12238 176.49 10.9552 175.641 14.3761C174.792 17.772 173.656 20.8058 172.233 23.4775C170.809 26.1243 169.011 28.4465 166.839 30.4441C164.692 32.4417 162.082 34.1271 159.011 35.5004C158.786 35.1758 158.462 34.7638 158.037 34.2644C157.613 33.765 157.163 33.2532 156.689 32.7288C156.215 32.2294 155.79 31.8299 155.415 31.5303C158.412 30.3817 160.921 28.9459 162.944 27.223C164.991 25.5001 166.664 23.4526 167.963 21.0804C169.261 18.6834 170.272 15.9492 170.997 12.8779C171.721 9.78166 172.258 6.29838 172.607 2.42808ZM149.797 2.5779L154.517 2.39062L155.378 26.7361L150.659 26.9234L149.797 2.5779Z" fill="#494949"/>
<path d="M113.766 6.06131H136.089V4.56313H111.069V1.94131H140.134V8.68313H113.766V6.06131ZM112.492 6.06131H116.687C116.288 7.25986 115.863 8.50834 115.414 9.80677C114.964 11.0802 114.552 12.1914 114.178 13.1402L110.095 12.878C110.52 11.9292 110.944 10.843 111.369 9.6195C111.793 8.37101 112.168 7.18495 112.492 6.06131ZM112.867 10.1439H139.834V12.7657H112.08L112.867 10.1439ZM138.336 10.1439H142.568C142.568 10.1439 142.556 10.2812 142.531 10.5559C142.531 10.8305 142.531 11.0802 142.531 11.305C142.431 12.5285 142.306 13.4898 142.156 14.189C142.006 14.8881 141.769 15.4249 141.445 15.7995C141.17 16.0742 140.833 16.2864 140.433 16.4362C140.059 16.586 139.672 16.6734 139.272 16.6984C138.898 16.7234 138.398 16.7359 137.774 16.7359C137.15 16.7359 136.463 16.7234 135.714 16.6984C135.689 16.2989 135.602 15.8494 135.452 15.35C135.302 14.8257 135.14 14.3762 134.965 14.0017C135.414 14.0516 135.814 14.0891 136.164 14.114C136.538 14.139 136.825 14.139 137.025 14.114C137.2 14.114 137.35 14.1016 137.474 14.0766C137.599 14.0516 137.712 13.9767 137.812 13.8519C137.961 13.702 138.074 13.3774 138.149 12.878C138.224 12.3786 138.286 11.6171 138.336 10.5933V10.1439ZM119.646 0.255859H123.729V8.00895C123.729 9.33234 123.566 10.5808 123.242 11.7544C122.917 12.903 122.305 13.9517 121.406 14.9006C120.508 15.8494 119.209 16.6734 117.511 17.3726C115.813 18.0717 113.578 18.6336 110.807 19.058C110.682 18.7334 110.495 18.3589 110.245 17.9344C109.995 17.485 109.733 17.048 109.458 16.6235C109.184 16.199 108.922 15.8494 108.672 15.5748C111.069 15.2751 112.992 14.8756 114.44 14.3762C115.888 13.8768 116.987 13.3025 117.736 12.6533C118.485 12.0041 118.984 11.2925 119.234 10.5184C119.509 9.71937 119.646 8.85792 119.646 7.93404V0.255859ZM127.924 0.255859H132.156V15.3875H127.924V0.255859ZM117.961 21.7173V23.2155H134.141V21.7173H117.961ZM117.961 25.6126V27.1857H134.141V25.6126H117.961ZM117.961 17.822V19.3202H134.141V17.822H117.961ZM113.578 15.2751H138.71V29.7326H113.578V15.2751ZM127.961 31.493L131.557 29.2457C132.905 29.6702 134.278 30.1321 135.677 30.6315C137.1 31.1059 138.448 31.5803 139.722 32.0548C140.995 32.5292 142.081 32.9537 142.98 33.3282L137.961 35.5006C137.237 35.126 136.338 34.7016 135.265 34.2271C134.191 33.7777 133.03 33.3157 131.781 32.8413C130.533 32.3669 129.259 31.9174 127.961 31.493ZM119.721 29.2831L123.729 31.081C122.705 31.6802 121.519 32.267 120.17 32.8413C118.822 33.4156 117.436 33.94 116.013 34.4144C114.615 34.8888 113.266 35.2759 111.968 35.5755C111.743 35.2759 111.431 34.9138 111.032 34.4893C110.632 34.0898 110.232 33.6903 109.833 33.2908C109.433 32.9162 109.059 32.6041 108.709 32.3544C110.058 32.1297 111.406 31.8675 112.754 31.5679C114.128 31.2433 115.414 30.8937 116.612 30.5191C117.811 30.1196 118.847 29.7076 119.721 29.2831Z" fill="#494949"/>
<path d="M81.48 9.43222H105.451V12.8031H81.48V9.43222ZM81.1054 14.938L83.3901 12.953C84.0394 13.3774 84.751 13.8768 85.525 14.4511C86.2991 15.0005 86.9109 15.4999 87.3603 15.9493L84.9632 18.1217C84.5637 17.6972 83.9769 17.1853 83.2029 16.586C82.4538 15.9618 81.7546 15.4125 81.1054 14.938ZM96.7614 29.021L100.17 27.298C100.794 27.8474 101.443 28.4716 102.117 29.1708C102.792 29.8699 103.428 30.5566 104.028 31.2308C104.652 31.905 105.139 32.5167 105.488 33.066L101.855 34.9762C101.556 34.4519 101.119 33.8276 100.544 33.1035C99.995 32.4043 99.3832 31.6927 98.7091 30.9686C98.0349 30.2445 97.3857 29.5953 96.7614 29.021ZM88.1094 22.6537V24.1144H97.8101V22.6537H88.1094ZM88.1094 18.7959V20.1817H97.8101V18.7959H88.1094ZM84.364 16.1366H101.705V26.7737H84.364V16.1366ZM84.1392 27.2231L88.1843 28.3468C87.5101 29.5953 86.6487 30.8188 85.6 32.0173C84.5762 33.1909 83.54 34.1772 82.4912 34.9762C82.2415 34.7265 81.9169 34.4269 81.5174 34.0773C81.1179 33.7527 80.7059 33.4281 80.2814 33.1035C79.8569 32.8039 79.4824 32.5542 79.1578 32.3544C80.1566 31.7052 81.1054 30.9311 82.0043 30.0322C82.9032 29.1083 83.6149 28.172 84.1392 27.2231ZM102.754 12.6908L105.339 14.601C104.739 15.1753 104.09 15.7246 103.391 16.249C102.717 16.7733 102.105 17.2228 101.556 17.5973L99.2709 15.837C99.8202 15.4374 100.432 14.938 101.106 14.3388C101.78 13.7145 102.33 13.1652 102.754 12.6908ZM97.2483 10.8555C97.8226 11.9292 98.5717 12.9654 99.4956 13.9642C100.419 14.963 101.468 15.8619 102.642 16.6609C103.815 17.435 105.051 18.0593 106.35 18.5337C105.9 18.9082 105.426 19.4076 104.927 20.0319C104.427 20.6561 104.028 21.2054 103.728 21.6799C102.355 21.0556 101.044 20.2441 99.7952 19.2453C98.5717 18.2465 97.4606 17.1229 96.4618 15.8744C95.463 14.6009 94.614 13.2776 93.9149 11.9042L97.2483 10.8555ZM90.7687 25.3879H95.1134V31.5679C95.1134 32.4917 95.001 33.2034 94.7763 33.7028C94.5516 34.2271 94.1021 34.6391 93.428 34.9388C92.7538 35.2134 91.9922 35.3757 91.1432 35.4257C90.2943 35.4756 89.2955 35.5006 88.1469 35.5006C88.022 34.9513 87.8223 34.327 87.5476 33.6279C87.2729 32.9537 87.0107 32.3794 86.761 31.905C87.4602 31.9299 88.1469 31.9424 88.8211 31.9424C89.4952 31.9424 89.9447 31.9424 90.1694 31.9424C90.4191 31.9424 90.5814 31.905 90.6563 31.83C90.7312 31.7302 90.7687 31.5928 90.7687 31.418V25.3879ZM90.132 6.84786L94.252 7.40968C93.6527 9.30738 92.8287 11.1426 91.78 12.9155C90.7562 14.6634 89.4578 16.2989 87.8847 17.822C86.3116 19.3452 84.3889 20.706 82.1167 21.9046C81.842 21.4302 81.4425 20.8933 80.9181 20.294C80.3938 19.6948 79.8944 19.2453 79.42 18.9457C81.5174 17.9719 83.2778 16.8357 84.701 15.5373C86.1493 14.2389 87.3104 12.8531 88.1843 11.3799C89.0832 9.88168 89.7324 8.37101 90.132 6.84786ZM78.2214 3.28968H105.788V7.03513H78.2214V3.28968ZM76.049 3.28968H80.2065V15.3875C80.2065 16.8857 80.1316 18.5212 79.9818 20.294C79.832 22.0669 79.5573 23.8647 79.1578 25.6875C78.7832 27.5103 78.2214 29.2706 77.4723 30.9686C76.7482 32.6416 75.7869 34.1273 74.5883 35.4257C74.3886 35.126 74.0889 34.7765 73.6894 34.377C73.2899 34.0024 72.8904 33.6279 72.4909 33.2533C72.0914 32.9037 71.7418 32.6416 71.4421 32.4668C72.5158 31.2682 73.3523 29.9698 73.9516 28.5715C74.5758 27.1482 75.0378 25.675 75.3374 24.1519C75.6371 22.6287 75.8243 21.1305 75.8992 19.6573C75.9991 18.1591 76.049 16.7359 76.049 15.3875V3.28968ZM87.8472 0.255859H92.5665V5.57441H87.8472V0.255859ZM70.6931 8.0464L73.9141 6.69804C74.4385 7.89659 74.9129 9.18252 75.3374 10.5559C75.7869 11.9292 76.0615 13.0903 76.1614 14.0391L72.7531 15.6122C72.6781 14.938 72.5408 14.1765 72.341 13.3275C72.1413 12.4536 71.9041 11.5546 71.6294 10.6308C71.3548 9.70689 71.0426 8.84544 70.6931 8.0464ZM70.356 21.0057C71.2299 20.6311 72.2537 20.1567 73.4272 19.5824C74.6258 18.9831 75.8618 18.3714 77.1352 17.7471L78.1465 21.118C77.0978 21.7922 76.0116 22.4664 74.888 23.1406C73.7643 23.8148 72.6781 24.4515 71.6294 25.0508L70.356 21.0057Z" fill="#494949"/>
<path d="M46.5725 9.2447H64.8129V12.9901H46.5725V9.2447ZM41.4787 15.7618H66.4609V19.6196H41.4787V15.7618ZM51.6289 10.6305H56.0485V16.8105C56.0485 17.9591 55.8737 19.1077 55.5241 20.2563C55.1746 21.38 54.5628 22.4661 53.6889 23.5149C52.8149 24.5636 51.5789 25.5499 49.9809 26.4738C48.4078 27.3727 46.3852 28.1717 43.9132 28.8709C43.7384 28.5463 43.4887 28.1842 43.1641 27.7847C42.8395 27.3602 42.5024 26.9482 42.1529 26.5487C41.8033 26.1492 41.4662 25.8121 41.1416 25.5374C43.4138 25.0131 45.2491 24.4138 46.6474 23.7396C48.0457 23.0654 49.0944 22.3413 49.7936 21.5672C50.5177 20.7682 51.0046 19.9567 51.2543 19.1327C51.504 18.3087 51.6289 17.5222 51.6289 16.7731V10.6305ZM46.2354 6.13597L50.4303 7.14724C49.7811 8.7453 48.9321 10.2685 47.8834 11.7167C46.8597 13.1649 45.8109 14.376 44.7372 15.3498C44.4626 15.1251 44.088 14.8754 43.6136 14.6007C43.1641 14.326 42.7022 14.0638 42.2278 13.8142C41.7783 13.5395 41.3788 13.3148 41.0292 13.14C42.1529 12.291 43.1641 11.2423 44.063 9.99379C44.9869 8.7453 45.711 7.45936 46.2354 6.13597ZM55.7863 18.2338C56.6603 20.0815 58.0461 21.5797 59.9438 22.7283C61.8664 23.852 64.2635 24.6135 67.1351 25.0131C66.6606 25.4625 66.1612 26.0493 65.6369 26.7734C65.1375 27.4975 64.7504 28.1592 64.4758 28.7585C61.2797 28.1093 58.6828 26.9857 56.6852 25.3876C54.6877 23.7646 53.1146 21.6546 51.966 19.0578L55.7863 18.2338ZM35.2612 1.97852H67.3223V6.28579H39.7183V35.4629H35.2612V1.97852ZM37.9954 29.62H68.2587V33.9272H37.9954V29.62Z" fill="#494949"/>
</svg>
