<svg width="41" height="40" viewBox="0 0 41 40" fill="none" xmlns="http://www.w3.org/2000/svg">
<path d="M40.6172 39.6631H33.4639L30.5098 36.6357C27.3685 38.654 23.8691 39.6631 20.0117 39.6631C15.015 39.6631 10.5798 37.9704 6.70605 34.585C2.49056 30.8577 0.382812 26.097 0.382812 20.3027C0.382812 14.6224 2.37663 9.88607 6.36426 6.09375C10.238 2.41536 14.8115 0.576172 20.085 0.576172C24.8701 0.576172 29.1589 2.1875 32.9512 5.41016C37.5085 9.28385 39.7871 14.3376 39.7871 20.5713C39.7871 25.4541 37.9886 29.7917 34.3916 33.584L40.6172 39.6631ZM24.9678 24.0625L30.4365 29.5068C32.8454 27.0003 34.0498 23.8997 34.0498 20.2051C34.0498 16.1523 32.707 12.7588 30.0215 10.0244C27.3359 7.29004 23.9993 5.92285 20.0117 5.92285C15.9753 5.92285 12.6549 7.29004 10.0508 10.0244C7.43034 12.7425 6.12012 16.1849 6.12012 20.3516C6.12012 24.4206 7.47103 27.749 10.1729 30.3369C12.9886 33.0062 16.2031 34.3408 19.8164 34.3408C22.2741 34.3408 24.4958 33.7793 26.4814 32.6562L17.6191 24.0625H24.9678Z" fill="#035AAB"/>
</svg>
