<svg width="95" height="100" viewBox="0 0 95 100" fill="none" xmlns="http://www.w3.org/2000/svg">
<path d="M81.8993 9.58532C74.5238 2.94237 64.987 -0.426955 55.0927 0.127315L55.0936 0.128292C45.1989 0.680748 36.0951 5.09116 29.4979 12.5131C22.9017 19.934 19.5671 29.5143 20.1151 39.4447C20.4891 46.2199 22.6445 52.6378 26.3261 58.1468L2.88856 84.5131V84.514C1.25603 86.3509 0.42703 88.7351 0.561409 91.184C0.695938 93.6354 1.78408 95.9173 3.61121 97.5629C5.30767 99.0907 7.49058 99.932 9.77235 99.932C9.91692 99.932 10.1025 99.929 10.3124 99.9164V99.9154C12.7679 99.7727 15.0375 98.6673 16.6659 96.8353L40.0702 70.5043C45.3001 73.2425 51.1168 74.6849 57.1122 74.6849C57.807 74.6849 58.5073 74.666 59.2128 74.6263V74.6254C69.1063 74.0717 78.2095 69.6633 84.8065 62.2416C91.4028 54.8206 94.7373 45.2403 94.1893 35.3099C93.6413 25.3802 89.2731 16.2267 81.8993 9.58532ZM55.369 5.05114C63.9462 4.57071 72.1961 7.48373 78.5985 13.2504L79.1913 13.7972C85.234 19.5126 88.8039 27.2172 89.2655 35.5814L89.3007 36.39C89.5588 44.7336 86.6706 52.7217 81.121 58.9652C75.3922 65.4101 67.5135 69.2228 58.9354 69.7025C58.3261 69.7368 57.7183 69.7533 57.1122 69.7533C50.6334 69.7533 44.4067 67.8148 39.0985 64.1752L12.9804 93.559C12.2148 94.4202 11.1617 94.9298 10.0155 94.9935C9.93445 94.9984 9.8534 95.0004 9.77235 95.0004C8.7146 95.0004 7.70575 94.6137 6.91102 93.8978C6.05554 93.1273 5.54952 92.0672 5.48621 90.9134C5.42692 89.8319 5.7626 88.7901 6.43543 87.9545L6.5741 87.7894L32.6913 58.4076C28.2622 53.209 25.6048 46.7668 25.0829 39.8441L25.0389 39.1732C24.5773 30.8081 27.2777 22.7534 32.6552 16.3988L33.1835 15.7894C38.9122 9.34449 46.7909 5.53 55.369 5.05114ZM56.4598 11.4828C56.2155 11.4896 55.9707 11.4996 55.7255 11.5131C48.8513 11.8971 42.5432 14.9454 37.9647 20.0951C28.4986 30.7451 29.4052 47.1611 39.9843 56.6908C45.1009 61.2996 51.704 63.6273 58.579 63.2416C65.2382 62.8694 71.3653 59.9968 75.9042 55.1351L76.3387 54.6586C80.7739 49.6691 83.0815 43.2749 82.8739 36.5892L82.8456 35.9408C82.464 29.0212 79.4368 22.6716 74.3202 18.0629C69.568 13.7826 63.5337 11.472 57.1913 11.472L56.4598 11.4828ZM57.1913 16.4037C62.3125 16.4037 67.1713 18.2619 71.0194 21.7279C75.1607 25.4583 77.6114 30.5844 77.9218 36.2123V36.2133C78.2327 41.841 76.3611 47.2108 72.6532 51.3822C68.9462 55.5524 63.8656 58.007 58.3036 58.3177H58.3026C52.7413 58.6297 47.4257 56.7563 43.285 53.0267C34.7224 45.3135 33.9839 31.9977 41.6512 23.3715C45.3584 19.202 50.4387 16.7477 55.9999 16.4369V16.4359C56.4022 16.4139 56.7993 16.4037 57.1913 16.4037Z" fill="white"/>
<path d="M58.2866 22.6523L58.1909 22.6581C57.4631 22.6969 56.7261 22.7687 56.0063 22.871L55.9858 22.874C54.576 23.1292 52.4143 23.7378 50.1157 25.1874L50.1147 25.1884C47.5414 26.8115 45.3243 29.1353 43.5259 32.0956C43.4511 32.217 43.3696 32.3531 43.2788 32.5087C42.9768 33.0277 42.8932 33.6339 43.0435 34.2157L43.1108 34.4296C43.2893 34.9171 43.6261 35.3246 44.0767 35.5907L44.0815 35.5927C44.1221 35.6167 44.1646 35.6409 44.2065 35.662C44.5762 35.8485 44.9749 35.9213 45.3628 35.8935C46.0766 35.8422 46.7531 35.4488 47.1372 34.788C49.0685 31.476 51.5408 29.1865 54.4868 27.9853C55.1554 27.7134 55.8374 27.5043 56.5181 27.3622L56.8491 27.2978C57.4838 27.1859 57.9501 27.163 58.1782 27.1601L58.2622 27.2031L58.4155 27.1542L58.5103 27.1493C59.6847 27.0887 60.6171 26.1175 60.6353 24.9374L60.6323 24.789C60.5706 23.5483 59.5185 22.5902 58.2866 22.6523ZM58.3813 24.4921C58.5841 24.483 58.7806 24.6445 58.7925 24.8798C58.7928 24.8874 58.7933 24.8934 58.7935 24.8984V24.9091C58.7901 25.1251 58.6175 25.2965 58.4204 25.3095C58.3947 25.3107 58.3532 25.3134 58.3071 25.3163L58.1548 25.3183C57.9183 25.3213 57.5407 25.3393 57.0532 25.4032L56.5171 25.4863L56.478 25.4931C55.5707 25.6572 54.6684 25.923 53.7925 26.2792H53.7905C50.6081 27.577 47.9853 29.9501 45.9458 33.1982L45.5454 33.8603L45.5444 33.8622C45.4783 33.9759 45.3609 34.0471 45.231 34.0566C45.1647 34.0613 45.0992 34.0496 45.0356 34.0175L45.0347 34.0165C45.0314 34.0147 45.0269 34.0122 45.021 34.0087L45.0054 33.999C44.9178 33.9446 44.8565 33.8642 44.8276 33.7548C44.7987 33.6425 44.8133 33.5356 44.8706 33.4365L45.0942 33.0624L45.1001 33.0517C46.771 30.3011 48.7962 28.1973 51.0972 26.746L51.1167 26.7333C53.1526 25.4534 55.0608 24.9155 56.2925 24.6904C56.9499 24.5977 57.6234 24.5324 58.2886 24.497H58.3032L58.3813 24.4921Z" fill="white"/>
<path d="M42.6101 36.7349C41.9966 36.8184 41.4514 37.1359 41.0759 37.6314C40.6997 38.1271 40.5388 38.7411 40.6209 39.3589L40.6619 39.5865C40.7845 40.1108 41.0805 40.573 41.5115 40.9039C41.9081 41.2083 42.3805 41.373 42.8699 41.3824L43.0808 41.3765C43.1301 41.3729 43.1788 41.3675 43.2273 41.3609C44.4946 41.1897 45.3874 40.0136 45.2175 38.7379H45.2166L45.1736 38.5035C44.9004 37.3538 43.7964 36.5738 42.6101 36.7349ZM42.8582 38.5591C43.1014 38.5261 43.3533 38.7031 43.3904 38.981L43.3914 38.9849C43.4263 39.2624 43.2299 39.5019 42.9812 39.5357H42.9802C42.968 39.5374 42.9565 39.5378 42.9451 39.5386C42.834 39.5456 42.7292 39.5154 42.6336 39.442C42.531 39.3632 42.4648 39.2536 42.4461 39.1138C42.4283 38.976 42.4622 38.8508 42.5427 38.7447L42.5437 38.7437C42.6233 38.6386 42.7297 38.5766 42.8582 38.5591Z" fill="white"/>
</svg>
