<svg width="345" height="47" viewBox="0 0 345 47" fill="none" xmlns="http://www.w3.org/2000/svg">
<path d="M307.984 33.082C305.824 34.57 304.336 35.146 303.088 35.146C301.264 35.146 299.68 33.514 299.68 31.69C299.68 29.818 300.544 29.098 304.144 27.226C305.488 26.506 306.784 25.594 307.984 24.682V16.474H303.52C301.648 16.474 300.064 14.89 300.064 13.018C300.064 11.146 301.648 9.56201 303.52 9.56201H307.984V6.05801C307.984 4.09001 309.664 2.45801 311.632 2.45801C313.6 2.45801 315.232 4.13801 315.232 6.10601V10.57C319.024 7.97801 323.536 6.44201 328.144 6.44201C334.144 6.44201 340.384 9.61001 340.384 16.378C340.384 19.114 339.328 22.09 338.32 24.586C337.072 27.658 335.344 31.978 335.344 34.33C335.344 35.434 335.968 36.298 337.168 36.298C337.744 36.298 338.272 36.106 339.184 35.626C339.76 35.338 340.48 35.146 341.152 35.146C343.072 35.146 344.656 36.826 344.656 38.698C344.656 42.25 339.904 43.498 337.072 43.498C331.84 43.498 328.096 40.282 328.096 34.906C328.096 32.794 328.672 30.73 329.296 28.714C330.016 26.506 330.784 24.298 331.648 22.138C332.416 20.17 333.04 18.49 333.04 16.858C333.04 15.706 332.32 14.506 331.264 13.978C330.304 13.45 329.152 13.258 328 13.258C324.208 13.258 320.416 14.746 317.536 17.242C316.768 17.914 316 18.634 315.232 19.402V41.002C315.232 42.97 313.6 44.65 311.584 44.65C309.616 44.65 307.984 42.97 307.984 41.002V33.082Z" fill="#5E5E5E"/>
<path d="M285.952 11.002C286.576 11.098 287.344 11.578 288.064 12.202C289.168 13.21 290.656 14.842 291.616 16.042C293.92 18.922 294.448 19.69 294.448 20.986C294.448 22.906 292.576 24.298 290.752 24.298C289.504 24.298 289.072 23.962 287.056 21.034C281.632 21.754 268.96 22.762 266.08 22.762C263.68 22.762 262.432 21.706 262.432 19.21C262.432 16.138 264.4 15.946 266.608 15.946H267.616C268.48 14.17 269.008 12.922 269.536 11.002H265.312C263.632 11.002 262.336 10.57 261.904 8.79402C261.424 10.186 260.32 11.338 258.736 11.338C257.968 11.338 257.536 11.194 256.096 10.138C255.232 9.51402 254.128 8.69803 252.88 7.78602C251.104 6.49003 250.768 5.91402 250.768 4.85802C250.768 3.27402 252.304 1.25802 254.416 1.25802C255.376 1.25802 256.528 1.69002 259.696 4.13802C261.136 5.24202 261.76 5.81803 261.952 6.49003C262.432 4.85802 263.776 4.42602 265.312 4.42602H274.624V3.56202C274.624 1.35402 276.592 0.874023 278.416 0.874023C280.144 0.874023 281.872 1.54602 281.872 3.56202V4.42602H291.136C293.584 4.42602 294.64 5.43402 294.64 7.88202C294.64 10.186 293.248 11.002 291.136 11.002H285.952ZM284.512 11.002H276.976C276.352 12.634 275.68 14.266 274.864 15.85C278.08 15.754 279.088 15.706 282.688 15.514C282.256 14.986 281.968 14.458 281.968 13.786C281.968 12.346 283.216 11.29 284.512 11.002ZM257.536 23.722C256.768 23.722 256.24 23.482 254.752 22.378C253.744 21.658 252.736 20.89 251.776 20.17C250.096 18.922 249.712 18.394 249.712 17.29C249.712 15.658 251.248 13.642 253.312 13.642C254.176 13.642 255.424 14.074 258.496 16.378C260.416 17.818 261.04 18.778 261.04 19.882C261.04 21.754 259.6 23.722 257.536 23.722ZM287.92 26.074V38.746C287.92 39.562 288.16 39.658 288.88 39.658C290.032 39.658 290.032 39.562 290.08 36.202C290.128 33.898 290.464 33.13 292.336 33.13C294.592 33.13 294.688 34.762 294.688 35.962C294.688 45.946 293.728 46.426 288.832 46.426H287.152C284.464 46.426 283.216 45.994 282.448 45.082C281.872 44.41 281.536 42.97 281.536 41.242V26.074C281.536 23.866 282.592 23.002 284.752 23.002C286.912 23.002 287.92 23.866 287.92 26.074ZM279.376 26.458V42.922C279.376 45.178 278.368 45.898 276.16 45.898C274.144 45.898 273.328 44.842 273.328 42.922V26.458C273.328 24.202 274.336 23.482 276.496 23.482C278.56 23.482 279.376 24.49 279.376 26.458ZM268.24 23.482C270.544 23.482 271.408 24.49 271.408 26.698C271.408 32.074 270.784 37.69 268.144 42.298C266.368 45.418 265.072 46.522 263.344 46.522C261.472 46.522 259.552 45.178 259.552 43.162C259.552 42.442 259.744 41.77 260.656 40.666C264.4 36.106 264.736 32.266 265.072 26.602C265.216 24.394 265.984 23.482 268.24 23.482ZM257.488 26.986C259.216 26.986 261.04 27.994 261.04 29.914C261.04 31.018 259.792 35.242 257.536 41.29C256.192 44.938 255.28 46.186 253.408 46.186C251.536 46.186 249.616 44.842 249.616 42.874C249.616 42.25 249.856 41.578 251.2 38.746C251.632 37.786 253.072 34.138 253.84 31.69C254.992 27.994 255.568 26.986 257.488 26.986Z" fill="#5E5E5E"/>
<path d="M224.608 11.0023C225.52 11.5783 226.288 12.6343 226.288 13.7863C226.288 15.2743 225.76 18.6343 225.328 21.2743C224.848 24.1063 224.272 26.9383 223.648 29.7703C222.88 32.9383 222.16 36.2983 220.576 39.2263C218.896 42.2503 216.112 43.3543 212.752 43.3543C209.968 43.3543 207.52 42.2503 205.504 40.3783C201.616 36.8263 200.08 31.6423 200.08 26.5063C200.08 13.3543 208.96 3.94629 222.208 3.94629C230.32 3.94629 238.624 7.49829 242.176 15.2263C243.424 17.9623 243.904 21.0823 243.904 24.0583C243.904 31.1623 241.216 38.4103 234.832 42.1543C232.72 43.3543 230.08 44.3143 227.584 44.3143C225.472 44.3143 223.648 42.6823 223.648 40.5703C223.648 38.8423 224.944 37.3543 226.528 36.9223C231.568 35.6263 236.32 33.3703 236.32 23.8663C236.32 16.4743 231.904 11.8663 224.608 11.0023ZM220.864 10.9063C212.224 11.7703 207.328 17.9623 207.328 26.5063C207.328 29.7223 208.432 36.2023 212.656 36.2023C213.232 36.2023 213.808 36.0103 214.24 35.6263C215.296 34.6663 216.208 30.1543 216.544 28.6663C217.504 24.2023 218.416 19.6903 218.944 15.1783C219.136 13.5463 219.376 11.8663 220.864 10.9063Z" fill="#5E5E5E"/>
<path d="M179.344 33.9465C175.12 40.5225 168.88 44.5545 160.96 44.5545C157.888 44.5545 151.552 43.4505 151.552 39.4665C151.552 37.6425 153.04 35.8185 154.96 35.8185C155.584 35.8185 156.064 35.9145 157.312 36.2505C158.656 36.6345 160.096 37.0185 161.536 37.0185C166.528 37.0185 170.8 33.4665 173.392 29.4825C176.56 24.5865 177.904 18.8745 178.24 13.1145H157.072C155.104 13.1145 153.424 11.3865 153.424 9.41851C153.424 7.45051 155.104 5.77051 157.072 5.77051H182.128C184.48 5.77051 186.208 7.73851 186.208 10.0425C186.208 12.9705 185.488 16.9545 184.864 19.8825C184.384 22.1385 183.76 24.3465 182.992 26.5545L192.352 38.3145C193.024 39.1305 193.504 39.9945 193.504 41.0985C193.504 43.1145 191.872 44.8425 189.808 44.8425C188.704 44.8425 187.6 44.3625 186.928 43.4985L179.344 33.9465Z" fill="#5E5E5E"/>
<path d="M139.888 7.78655V3.75455C139.888 2.26655 141.136 1.01855 142.624 1.01855C144.112 1.01855 145.36 2.26655 145.36 3.80255V7.73855C145.36 9.22655 144.112 10.5226 142.624 10.5226C140.896 10.5226 139.888 9.32255 139.888 7.78655ZM132.256 7.78655V3.75455C132.256 2.26655 133.504 1.01855 134.992 1.01855C136.48 1.01855 137.728 2.26655 137.728 3.80255V7.73855C137.728 9.22655 136.48 10.5226 134.992 10.5226C133.504 10.5226 132.256 9.32255 132.256 7.78655ZM111.136 13.4506L131.008 10.4266C131.92 11.7226 133.36 12.5386 134.944 12.5386C136.336 12.5386 137.632 11.9626 138.544 10.9546C139.12 11.6266 139.456 12.4906 139.456 13.3546C139.456 15.0826 138.112 16.6666 136.384 16.9066L110.992 20.7466V22.5706C110.992 25.7866 111.184 29.2426 112.768 32.1226C115.024 36.2026 119.92 37.1146 124.192 37.1146C128.032 37.1146 131.776 36.2506 135.232 34.4266C136 34.0426 137.104 33.6106 137.68 33.6106C139.648 33.6106 141.232 35.3386 141.232 37.3066C141.232 38.4106 140.656 39.3706 139.792 40.0906C137.776 41.8186 134.128 43.0186 131.536 43.6426C129.136 44.2186 126.64 44.5066 124.192 44.5066C117.136 44.5066 110.272 42.6826 106.48 36.2506C104.128 32.2186 103.504 27.1306 103.504 22.5226C103.504 21.4186 103.504 20.6026 103.552 19.2586L103.84 7.11455C103.888 5.00255 105.376 3.17856 107.584 3.17856C109.6 3.17856 111.328 4.90655 111.28 6.92255L111.136 13.4506Z" fill="#5E5E5E"/>
<path d="M56.4158 19.4502H87.7118C89.8238 19.4502 91.6478 21.2262 91.6478 23.3382C91.6478 25.4502 89.8718 27.2262 87.7598 27.2262H56.4638C54.3518 27.2262 52.5278 25.4502 52.5278 23.3382C52.5278 22.2822 53.0078 21.2742 53.7758 20.5062C54.4478 19.8342 55.5038 19.4502 56.4158 19.4502Z" fill="#5E5E5E"/>
<path d="M30.6402 19.2101H14.0322V24.8261C14.0322 26.8421 12.3042 28.5701 10.2882 28.5701C8.27216 28.5701 6.59216 26.8421 6.59216 24.8261V19.2101H3.76015C1.84015 19.2101 0.160156 17.5781 0.160156 15.6101C0.160156 13.6421 1.84016 11.9621 3.80816 11.9621H6.59216V6.49009C6.59216 4.47409 8.27216 2.79409 10.2882 2.79409C12.3522 2.79409 14.0322 4.47409 14.0322 6.49009V11.9621H30.7362V6.63409C30.7362 4.57009 32.3202 2.74609 34.4322 2.74609C36.6402 2.74609 38.1762 4.57009 38.1762 6.68209V11.9621H40.8162C42.7842 11.9621 44.4162 13.6421 44.4162 15.6101C44.4162 17.5781 42.7842 19.2101 40.8162 19.2101H38.0802C37.8402 25.9781 36.7842 34.8581 31.7922 39.8981C28.3362 43.4501 23.4402 44.5541 18.6402 44.5541C15.2322 44.5541 6.01616 43.3061 6.01616 38.6981C6.01616 36.7301 7.69616 35.0021 9.71216 35.0021C10.5762 35.0021 11.3442 35.3861 12.1122 35.7701C14.2722 36.7781 16.6722 37.1621 18.9762 37.1621C23.7282 37.1621 26.9922 35.4341 28.8162 30.9221C30.1602 27.6101 30.4962 22.8101 30.6402 19.2101Z" fill="#5E5E5E"/>
</svg>
